<svg width="74" height="74" viewBox="0 0 74 74" fill="none" xmlns="http://www.w3.org/2000/svg">
<rect width="74" height="74" rx="37" fill="#0961A1"/>
<path fill-rule="evenodd" clip-rule="evenodd" d="M54.2301 30.4521V51.6482C54.2301 52.7022 53.8114 53.7131 53.0661 54.4584C52.3208 55.2037 51.3099 55.6224 50.2559 55.6224H29.0519C28.5298 55.6226 28.0129 55.5199 27.5306 55.3203C27.0482 55.1206 26.61 54.8279 26.2408 54.4589C25.8716 54.0898 25.5787 53.6516 25.3789 53.1694C25.1791 52.6871 25.0763 52.1702 25.0763 51.6482V42.2C25.7214 42.3153 26.3865 42.3749 27.0634 42.3749C33.2805 42.3749 38.3278 37.3289 38.3278 31.1145C38.3278 24.9 33.2805 19.8541 27.0647 19.8541C26.7229 19.8541 26.3838 19.87 26.05 19.8991C26.4231 19.4685 26.8846 19.1233 27.403 18.8869C27.9215 18.6505 28.4847 18.5286 29.0545 18.5293H42.306V26.4778C42.306 27.5319 42.7247 28.5427 43.4701 29.2881C44.2154 30.0334 45.2263 30.4521 46.2803 30.4521H54.2301ZM33.0288 48.9987V47.6739C33.0288 47.3226 32.8892 46.9856 32.6408 46.7372C32.3923 46.4887 32.0554 46.3492 31.704 46.3492C31.3527 46.3492 31.0157 46.4887 30.7673 46.7372C30.5188 46.9856 30.3793 47.3226 30.3793 47.6739V48.9987C30.3793 49.35 30.5188 49.687 30.7673 49.9354C31.0157 50.1838 31.3527 50.3234 31.704 50.3234C32.0554 50.3234 32.3923 50.1838 32.6408 49.9354C32.8892 49.687 33.0288 49.35 33.0288 48.9987ZM38.3304 48.9987V43.6996C38.3304 43.3483 38.1909 43.0113 37.9424 42.7629C37.694 42.5145 37.357 42.3749 37.0057 42.3749C36.6543 42.3749 36.3174 42.5145 36.0689 42.7629C35.8205 43.0113 35.6809 43.3483 35.6809 43.6996V48.9987C35.6809 49.35 35.8205 49.687 36.0689 49.9354C36.3174 50.1838 36.6543 50.3234 37.0057 50.3234C37.357 50.3234 37.694 50.1838 37.9424 49.9354C38.1909 49.687 38.3304 49.35 38.3304 48.9987ZM43.6295 48.9987V45.0244C43.6295 44.6731 43.4899 44.3361 43.2414 44.0877C42.993 43.8392 42.6561 43.6996 42.3047 43.6996C41.9534 43.6996 41.6164 43.8392 41.368 44.0877C41.1195 44.3361 40.98 44.6731 40.98 45.0244V48.9987C40.98 49.35 41.1195 49.687 41.368 49.9354C41.6164 50.1838 41.9534 50.3234 42.3047 50.3234C42.6561 50.3234 42.993 50.1838 43.2414 49.9354C43.4899 49.687 43.6295 49.35 43.6295 48.9987ZM48.9311 48.9987V39.7254C48.9311 39.374 48.7916 39.0371 48.5431 38.7886C48.2947 38.5402 47.9577 38.4006 47.6064 38.4006C47.255 38.4006 46.9181 38.5402 46.6696 38.7886C46.4212 39.0371 46.2816 39.374 46.2816 39.7254V48.9987C46.2816 49.35 46.4212 49.687 46.6696 49.9354C46.9181 50.1838 47.255 50.3234 47.6064 50.3234C47.9577 50.3234 48.2947 50.1838 48.5431 49.9354C48.7916 49.687 48.9311 49.35 48.9311 48.9987ZM44.9569 18.5545C45.9142 18.664 46.7992 19.1173 47.4474 19.8302L53.1982 26.1533C53.6274 26.6275 53.9347 27.1932 54.0977 27.8026H46.2816C46.1075 27.8031 45.935 27.7692 45.774 27.7028C45.6131 27.6364 45.4668 27.5389 45.3437 27.4157C45.2206 27.2926 45.123 27.1464 45.0566 26.9854C44.9902 26.8244 44.9563 26.6519 44.9569 26.4778V18.5545ZM35.575 32.4392C35.2573 34.4686 34.2254 36.3177 32.6651 37.6536C31.1048 38.9895 29.1188 39.7242 27.0647 39.7254C24.7811 39.7243 22.5912 38.8169 20.9761 37.2023C19.3611 35.5877 18.4529 33.3981 18.4512 31.1145C18.4528 29.0603 19.188 27.0742 20.5244 25.5141C21.8607 23.954 23.7104 22.9226 25.74 22.6056V29.7897C25.74 30.4924 26.0191 31.1663 26.516 31.6632C27.0129 32.1601 27.6868 32.4392 28.3895 32.4392H35.575ZM28.3895 22.6056C30.1938 22.8877 31.862 23.7354 33.1536 25.0265C34.4452 26.3176 35.2935 27.9855 35.5763 29.7897H28.3895V22.6056Z" fill="white"/>
</svg>
