<svg width="179" height="131" viewBox="0 0 179 131" fill="none" xmlns="http://www.w3.org/2000/svg">
<rect width="179" height="131" rx="20" fill="url(#paint0_linear_645_175)"/>
<path d="M78.3214 64.7164C77.651 65.0516 76.7572 64.6047 76.7572 63.8226C76.6455 61.1413 74.6345 59.0185 71.8413 58.5716C68.6013 58.013 64.4675 61.3647 65.8082 65.6102C67.1489 69.9675 66.3669 74.7716 64.0207 78.7937L57.0938 90.6365L63.3503 97.7868L71.7296 83.2627C74.0758 79.2406 77.9862 76.6709 82.2317 75.1068C87.2593 73.2075 87.2593 68.0682 84.5779 65.6102C82.902 64.0461 80.4441 63.7109 78.3214 64.7164ZM66.9255 87.173L63.5738 92.9827C63.0151 93.7647 62.2331 93.5413 62.0096 93.4296C61.451 93.0944 61.3393 92.424 61.5627 91.8654L64.9144 86.0558C65.2496 85.4971 65.92 85.2737 66.4786 85.6089C67.0372 85.944 67.1489 86.6144 66.9255 87.173ZM73.2938 62.8171C72.9586 63.3758 72.2882 63.4875 71.7296 63.264C71.171 62.8171 70.3889 63.3757 70.1655 63.7109C69.942 64.0461 69.3834 64.493 68.6013 64.1578C68.0427 63.8226 67.931 63.1523 68.1544 62.5937C68.6013 61.8116 70.0538 60.024 72.7351 61.3647C73.4055 61.5882 73.5172 62.2585 73.2938 62.8171ZM98.32 59.1302C99.6607 54.8847 102.454 50.9744 106.476 48.6282L121 40.2488L113.626 34.104L102.007 40.8075C97.9848 43.1537 93.1807 43.6006 88.8234 42.595C84.6896 41.5895 81.1145 45.1647 81.8965 49.075C82.3434 51.6447 84.5779 53.4323 87.1476 53.544C87.9296 53.544 88.3765 54.4378 88.0414 55.1082C86.9241 57.3426 87.2593 60.1357 89.2703 61.8116C91.9517 64.2695 96.8676 63.7109 98.32 59.1302ZM86.8124 47.064C86.0303 47.5109 86.2538 48.293 86.3655 48.6282C86.7007 49.1868 86.4772 49.8571 85.9186 50.1923C85.6951 50.304 84.8014 50.6392 84.3545 49.7454C84.0193 48.9633 83.2372 46.6171 85.5834 45.1647C86.142 44.8295 86.8124 45.053 87.1476 45.6116C87.4827 46.0585 87.2593 46.7288 86.8124 47.064ZM68.7131 47.6226C69.2717 48.0695 70.0538 47.8461 70.2772 47.6226C70.7241 47.1757 70.7241 46.5054 70.2772 46.0585L65.4731 41.3661C65.0262 40.9192 64.3558 40.9192 63.9089 41.3661C63.462 41.813 63.462 42.4833 63.9089 42.9302L68.7131 47.6226ZM75.7517 44.8295C76.422 44.8295 76.8689 44.3826 76.8689 43.7123V37.4557C76.8689 36.7854 76.422 36.3385 75.7517 36.3385C75.0813 36.3385 74.6345 36.7854 74.6345 37.4557V43.824C74.6345 44.3826 75.1931 44.8295 75.7517 44.8295ZM59.9986 54.3261H66.3669C67.0372 54.3261 67.4841 53.8792 67.4841 53.2088C67.4841 52.5385 67.0372 52.0916 66.3669 52.0916H59.9986C59.3282 52.0916 58.8813 52.5385 58.8813 53.2088C58.8813 53.8792 59.3282 54.3261 59.9986 54.3261ZM97.091 72.984C96.6441 72.5371 95.9738 72.5371 95.5269 72.984C95.08 73.4309 95.08 74.1013 95.5269 74.5482L100.219 79.2406C100.443 79.464 101.225 79.7992 101.783 79.2406C102.23 78.7937 102.23 78.1233 101.783 77.6764L97.091 72.984ZM90.0524 75.7771C89.382 75.7771 88.9352 76.224 88.9352 76.8944V83.2627C88.9352 83.933 89.382 84.3799 90.0524 84.3799C90.7227 84.3799 91.1696 83.933 91.1696 83.2627V76.8944C91.1696 76.3358 90.611 75.7771 90.0524 75.7771ZM105.806 66.2806H99.4372C98.7669 66.2806 98.32 66.7275 98.32 67.3978C98.32 68.0682 98.7669 68.5151 99.4372 68.5151H105.806C106.476 68.5151 106.923 68.0682 106.923 67.3978C106.923 66.7275 106.364 66.2806 105.806 66.2806Z" fill="black"/>
<path d="M78.3214 64.7164C77.651 65.0516 76.7572 64.6047 76.7572 63.8226C76.6455 61.1413 74.6345 59.0185 71.8413 58.5716C68.6013 58.013 64.4675 61.3647 65.8082 65.6102C67.1489 69.9675 66.3669 74.7716 64.0207 78.7937L57.0938 90.6365L63.3503 97.7868L71.7296 83.2627C74.0758 79.2406 77.9862 76.6709 82.2317 75.1068C87.2593 73.2075 87.2593 68.0682 84.5779 65.6102C82.902 64.0461 80.4441 63.7109 78.3214 64.7164ZM66.9255 87.173L63.5738 92.9827C63.0151 93.7647 62.2331 93.5413 62.0096 93.4296C61.451 93.0944 61.3393 92.424 61.5627 91.8654L64.9144 86.0558C65.2496 85.4971 65.92 85.2737 66.4786 85.6089C67.0372 85.944 67.1489 86.6144 66.9255 87.173ZM73.2938 62.8171C72.9586 63.3758 72.2882 63.4875 71.7296 63.264C71.171 62.8171 70.3889 63.3757 70.1655 63.7109C69.942 64.0461 69.3834 64.493 68.6013 64.1578C68.0427 63.8226 67.931 63.1523 68.1544 62.5937C68.6013 61.8116 70.0538 60.024 72.7351 61.3647C73.4055 61.5882 73.5172 62.2585 73.2938 62.8171ZM98.32 59.1302C99.6607 54.8847 102.454 50.9744 106.476 48.6282L121 40.2488L113.626 34.104L102.007 40.8075C97.9848 43.1537 93.1807 43.6006 88.8234 42.595C84.6896 41.5895 81.1145 45.1647 81.8965 49.075C82.3434 51.6447 84.5779 53.4323 87.1476 53.544C87.9296 53.544 88.3765 54.4378 88.0414 55.1082C86.9241 57.3426 87.2593 60.1357 89.2703 61.8116C91.9517 64.2695 96.8676 63.7109 98.32 59.1302ZM86.8124 47.064C86.0303 47.5109 86.2538 48.293 86.3655 48.6282C86.7007 49.1868 86.4772 49.8571 85.9186 50.1923C85.6951 50.304 84.8014 50.6392 84.3545 49.7454C84.0193 48.9633 83.2372 46.6171 85.5834 45.1647C86.142 44.8295 86.8124 45.053 87.1476 45.6116C87.4827 46.0585 87.2593 46.7288 86.8124 47.064ZM68.7131 47.6226C69.2717 48.0695 70.0538 47.8461 70.2772 47.6226C70.7241 47.1757 70.7241 46.5054 70.2772 46.0585L65.4731 41.3661C65.0262 40.9192 64.3558 40.9192 63.9089 41.3661C63.462 41.813 63.462 42.4833 63.9089 42.9302L68.7131 47.6226ZM75.7517 44.8295C76.422 44.8295 76.8689 44.3826 76.8689 43.7123V37.4557C76.8689 36.7854 76.422 36.3385 75.7517 36.3385C75.0813 36.3385 74.6345 36.7854 74.6345 37.4557V43.824C74.6345 44.3826 75.1931 44.8295 75.7517 44.8295ZM59.9986 54.3261H66.3669C67.0372 54.3261 67.4841 53.8792 67.4841 53.2088C67.4841 52.5385 67.0372 52.0916 66.3669 52.0916H59.9986C59.3282 52.0916 58.8813 52.5385 58.8813 53.2088C58.8813 53.8792 59.3282 54.3261 59.9986 54.3261ZM97.091 72.984C96.6441 72.5371 95.9738 72.5371 95.5269 72.984C95.08 73.4309 95.08 74.1013 95.5269 74.5482L100.219 79.2406C100.443 79.464 101.225 79.7992 101.783 79.2406C102.23 78.7937 102.23 78.1233 101.783 77.6764L97.091 72.984ZM90.0524 75.7771C89.382 75.7771 88.9352 76.224 88.9352 76.8944V83.2627C88.9352 83.933 89.382 84.3799 90.0524 84.3799C90.7227 84.3799 91.1696 83.933 91.1696 83.2627V76.8944C91.1696 76.3358 90.611 75.7771 90.0524 75.7771ZM105.806 66.2806H99.4372C98.7669 66.2806 98.32 66.7275 98.32 67.3978C98.32 68.0682 98.7669 68.5151 99.4372 68.5151H105.806C106.476 68.5151 106.923 68.0682 106.923 67.3978C106.923 66.7275 106.364 66.2806 105.806 66.2806Z" fill="url(#paint1_linear_645_175)"/>
<defs>
<linearGradient id="paint0_linear_645_175" x1="0" y1="0" x2="124.866" y2="170.618" gradientUnits="userSpaceOnUse">
<stop offset="0.125652" stop-color="#F5F5F5"/>
<stop offset="0.869819" stop-color="#E5E5E5"/>
</linearGradient>
<linearGradient id="paint1_linear_645_175" x1="57.0937" y1="97.7868" x2="129.983" y2="91.2815" gradientUnits="userSpaceOnUse">
<stop offset="0.323057" stop-color="#F98D1B"/>
<stop offset="1" stop-color="#FFC180"/>
</linearGradient>
</defs>
</svg>
