<svg width="179" height="131" viewBox="0 0 179 131" fill="none" xmlns="http://www.w3.org/2000/svg">
<rect width="179" height="131" rx="20" fill="url(#paint0_linear_645_181)"/>
<path d="M81.5143 55.3966C81.7455 55.477 81.9535 55.5515 82.1723 55.6281C82.3358 55.6853 82.5029 55.7427 82.6625 55.8005C82.6935 55.8118 82.7294 55.8236 82.7601 55.8348H83.51C84.0896 54.0491 84.9677 52.3747 86.1071 50.8826C86.1559 50.8147 86.2035 50.7471 86.2531 50.6793C86.4626 50.3938 86.6779 50.1127 86.8988 49.836C87.0069 49.7002 87.1189 49.5673 87.2302 49.4328C87.6268 48.9519 88.0413 48.4861 88.473 48.0365C88.5932 45.2991 89.7133 41.2416 93.3256 41.2416C93.6482 41.2416 93.9575 41.3697 94.1856 41.5978C94.4136 41.8258 94.5418 42.1351 94.5418 42.4577C94.5418 42.7802 94.4136 43.0895 94.1856 43.3176C93.9575 43.5457 93.6482 43.6738 93.3256 43.6738C92.3093 43.6738 91.717 44.592 91.372 45.6304C91.448 45.5833 91.5244 45.5515 91.6005 45.5067C91.8546 45.3568 92.1142 45.2162 92.3787 45.0853C92.5676 44.9922 92.7588 44.9042 92.9524 44.8213C93.1785 44.7234 93.4045 44.6338 93.6301 44.5523C93.7761 44.4999 93.9222 44.4445 94.0684 44.3981C94.381 44.2992 94.6973 44.2123 95.0166 44.1375C95.1385 44.1087 95.2608 44.0816 95.3835 44.0562C95.728 43.9836 96.0749 43.923 96.4236 43.8744C96.4781 43.8671 96.5328 43.8614 96.5875 43.8544C97.401 43.7552 98.2192 43.6992 99.0386 43.6864L99.0606 43.6855C99.2799 42.889 99.396 42.0676 99.4061 41.2414C99.4061 38.7759 97.3153 36.5147 94.2038 35.6157C93.9505 35.5423 93.728 35.3887 93.5696 35.178C93.4112 34.9672 93.3255 34.7107 93.3255 34.4471V32.7288C93.3255 32.4063 93.1974 32.097 92.9693 31.8689C92.7412 31.6408 92.4319 31.5127 92.1094 31.5127C91.7868 31.5127 91.4775 31.6408 91.2494 31.8689C91.0214 32.097 90.8932 32.4063 90.8932 32.7288V34.0043C90.8932 34.3081 90.7794 34.6009 90.5743 34.825C90.3693 35.0492 90.0877 35.1885 89.7851 35.2156C88.8425 35.2913 87.9161 35.5045 87.0352 35.8486C86.887 35.9082 86.7284 35.9379 86.5686 35.9361C86.4088 35.9343 86.2509 35.9011 86.104 35.8382C85.9571 35.7753 85.824 35.6841 85.7124 35.5697C85.6007 35.4554 85.5128 35.3201 85.4535 35.1717L84.3923 32.5199C84.3152 32.3278 84.1673 32.1726 83.9791 32.0864C83.7909 32.0002 83.5768 31.9895 83.381 32.0565C83.1852 32.1235 83.0225 32.2632 82.9266 32.4466C82.8307 32.63 82.8089 32.8433 82.8656 33.0423L84.0188 37.0778C84.0743 37.2714 84.0807 37.4758 84.0375 37.6726C83.9943 37.8693 83.9027 38.0522 83.7711 38.2048C81.2345 41.1524 79.9483 46.303 79.9483 53.5117V54.8439L79.9742 54.8534C80.511 55.0502 81.0267 55.2284 81.5143 55.3966ZM71.3674 76.1256C71.4997 75.9586 71.6414 75.7994 71.792 75.6487C72.3532 75.087 73.2592 74.3471 74.4065 73.4101C78.0435 70.4388 84.8129 64.908 84.8129 60.6992C84.8134 60.5383 84.7979 60.3777 84.7665 60.2199C84.76 60.1875 84.7501 60.1623 84.7425 60.1321C84.7144 60.0152 84.6735 59.9017 84.6206 59.7937C84.611 59.7749 84.6019 59.7544 84.5921 59.7367C84.5442 59.6588 84.4901 59.5849 84.4301 59.5159C84.263 59.3964 84.1037 59.2665 83.9531 59.1268C83.9173 59.091 83.8963 59.0466 83.8635 59.009C83.2173 58.6278 82.5317 58.3178 81.8187 58.0845C81.6384 58.0196 81.4577 57.9556 81.2766 57.8927C81.0876 57.8264 80.9131 57.7636 80.7056 57.6922C79.0121 57.1451 77.3583 56.4816 75.7563 55.7064C75.7395 55.6981 75.7079 55.6931 75.6867 55.6857C75.6693 55.6816 75.6512 55.6853 75.6339 55.6804C74.9041 55.4761 73.0188 55.8597 71.0735 57.7789C71.0602 57.7921 71.0417 57.7964 71.0278 57.8089C69.0393 59.7912 66.5713 63.8229 66.5713 71.6441C66.5713 79.4669 67.2833 81.8884 67.6247 82.5998C67.6787 82.5926 67.733 82.589 67.7874 82.5891C67.8913 82.5886 67.9951 82.5809 68.098 82.5661C68.1064 82.5647 68.1128 82.5583 68.1211 82.5571C68.646 82.4779 68.9538 82.1603 69.2297 81.5006L69.237 81.4825C69.4342 80.9661 69.6011 80.4386 69.7368 79.9027C70.0158 78.5656 70.5587 77.2975 71.3338 76.1728C71.3457 76.1575 71.3553 76.141 71.3674 76.1256ZM100.646 57.3446C100.625 57.4325 100.612 57.5218 100.587 57.609L100.585 57.6162C100.582 57.628 100.573 57.637 100.57 57.6487C100.506 57.8709 100.427 58.0872 100.343 58.3029C100.321 58.3567 100.307 58.412 100.284 58.4654C100.28 58.4747 100.273 58.4812 100.269 58.4904C100.166 58.7289 100.047 58.9608 99.915 59.1847C99.8872 59.2324 99.865 59.2827 99.836 59.3299C99.8311 59.3379 99.8238 59.3434 99.8187 59.3512C99.767 59.4337 99.7255 59.5207 99.6692 59.6009C99.6426 59.6393 99.606 59.6723 99.5782 59.7101C99.4191 59.9339 99.2428 60.1451 99.051 60.3418L99.0506 60.342L99.0498 60.3429L99.0485 60.3448L99.048 60.3453L99.0475 60.3461C98.8825 60.509 98.7394 60.6926 98.622 60.8926L98.6055 60.9185C98.5677 60.9883 98.5358 61.0612 98.5104 61.1364C98.4898 61.1886 98.4732 61.2422 98.4605 61.297C98.451 61.3418 98.445 61.3872 98.4426 61.4328C98.4362 61.5315 98.4495 61.6305 98.4818 61.724C98.4967 61.7635 98.5145 61.8021 98.535 61.8391C98.5467 61.861 98.5606 61.883 98.5744 61.905C98.6122 61.9654 98.6547 62.0226 98.7017 62.0762C98.7226 62.1 98.7465 62.1233 98.7698 62.1469C98.8222 62.2007 98.8778 62.2517 98.9359 62.2993C98.9757 62.3313 99.0209 62.3621 99.0651 62.3931C99.1212 62.433 99.1772 62.4727 99.2405 62.5108C99.313 62.554 99.3932 62.594 99.4742 62.6342C99.5218 62.6579 99.5661 62.6826 99.6167 62.7051C99.7376 62.7575 99.8609 62.8044 99.986 62.8456C100.014 62.8551 100.039 62.8663 100.068 62.8754C100.228 62.9251 100.39 62.967 100.554 63.0009L100.595 63.011C100.769 63.0463 100.954 63.073 101.145 63.0934C101.16 63.095 101.174 63.0983 101.19 63.0999C101.397 63.1204 101.613 63.1314 101.838 63.1314C102.148 63.1313 102.457 63.1191 102.766 63.0948C102.817 63.0908 102.869 63.0878 102.918 63.0831C103.148 63.0626 103.377 63.0309 103.604 62.988C103.652 62.9787 103.695 62.9678 103.74 62.9577C103.882 62.9267 104.023 62.8882 104.161 62.8424C104.201 62.8287 104.247 62.8166 104.285 62.8022C104.404 62.7574 104.52 62.7032 104.631 62.6403C104.672 62.617 104.709 62.5922 104.746 62.5676C104.815 62.523 104.881 62.4733 104.943 62.419C104.956 62.407 104.971 62.3955 104.984 62.3832C105.152 62.2128 105.274 62.0017 105.336 61.7704C105.359 61.7116 105.387 61.6548 105.419 61.6004C105.474 61.3034 105.497 61.0012 105.486 60.6992C105.358 59.2453 104.869 57.8465 104.063 56.6297C103.257 55.413 102.16 54.4167 100.871 53.7315C100.88 53.8344 100.884 53.9508 100.891 54.0595C100.895 54.12 100.899 54.1796 100.902 54.2408C100.911 54.4219 100.915 54.6082 100.916 54.8012L100.918 54.8572C100.918 54.8709 100.924 54.8842 100.924 54.8977L100.919 54.9177C100.919 54.9481 100.922 54.9771 100.921 55.0077L100.922 55.0095V55.0194C100.922 55.0596 100.92 55.0999 100.919 55.1402L100.916 55.2505L100.915 55.3143L100.914 55.3609C100.911 55.4535 100.906 55.5462 100.9 55.6387C100.9 55.6479 100.894 55.6551 100.894 55.6641C100.885 55.8232 100.873 55.9821 100.857 56.1406L100.852 56.1818L100.85 56.2004C100.839 56.2956 100.827 56.3906 100.814 56.4855L100.813 56.4891V56.4903L100.807 56.5094C100.794 56.5976 100.785 56.6857 100.77 56.7737L100.77 56.7765H100.77C100.738 56.9676 100.691 57.1556 100.646 57.3446Z" fill="url(#paint1_linear_645_181)"/>
<path d="M97.4129 46.2054C97.0967 46.2343 96.7865 46.278 96.4774 46.3261C96.3643 46.344 96.2511 46.3597 96.1383 46.3807C95.8751 46.429 95.6151 46.4921 95.3557 46.5588C95.203 46.5987 95.0503 46.639 94.898 46.6863C94.6554 46.7618 94.4158 46.8469 94.1799 46.9412C94.0237 47.0033 93.8692 47.0694 93.7163 47.1393C93.4597 47.2561 93.2085 47.3843 92.9633 47.5234C92.8424 47.5919 92.7217 47.6684 92.6009 47.7438C92.3027 47.9284 92.014 48.1278 91.7358 48.3413C91.6731 48.3896 91.6105 48.4452 91.5478 48.4956C91.1955 48.7781 90.8584 49.0791 90.5379 49.3973L90.5363 49.3989C90.2091 49.7275 89.892 50.0662 89.5857 50.4143C89.5555 50.4484 89.5249 50.4823 89.4951 50.5163C88.6257 51.5089 87.8439 52.5749 87.1585 53.7023L87.1116 53.7796C86.9014 54.1329 86.704 54.4938 86.52 54.8614C86.3843 55.1328 86.2609 55.3959 86.1586 55.6426C86.1466 55.6712 86.1364 55.6981 86.1247 55.7261C85.9255 56.1806 85.7919 56.661 85.7279 57.1531C85.7257 57.1801 85.7109 57.2021 85.7069 57.2286C85.7049 57.2713 85.7057 57.3141 85.709 57.3568C85.8781 57.4889 86.0376 57.6327 86.1865 57.7871C87.0004 58.2729 87.8742 58.6504 88.7857 58.9099C88.8626 58.9332 88.9397 58.9559 89.017 58.978C89.2094 59.0325 89.4022 59.0833 89.5955 59.1305C89.7136 59.1593 89.8317 59.1856 89.95 59.2113C90.1202 59.2485 90.2897 59.2838 90.4571 59.3138C90.6064 59.3404 90.753 59.3608 90.8998 59.3814C91.0356 59.4007 91.1731 59.4222 91.3043 59.4358C91.5819 59.4639 91.854 59.483 92.1098 59.483C92.9109 59.483 93.6728 59.4559 94.4085 59.4127C94.5008 59.4072 94.5962 59.404 94.6874 59.3979C95.4112 59.3493 96.1329 59.2739 96.851 59.1716L96.859 59.1626L96.8602 59.1601L96.8674 59.152C97.0051 58.9738 97.1536 58.8041 97.312 58.644L97.331 58.622L97.3364 58.6154C97.5077 58.437 97.6569 58.2387 97.781 58.0248C97.8219 57.9581 97.8572 57.8878 97.8938 57.8181C97.9882 57.6373 98.0694 57.45 98.137 57.2576C98.1497 57.2216 98.1637 57.1859 98.1757 57.1496C98.1834 57.1258 98.1916 57.1023 98.1989 57.0783C98.2756 56.8294 98.336 56.5758 98.3797 56.3191L98.3878 56.2777C98.4315 56.0019 98.4609 55.7239 98.4756 55.4449C98.4779 55.4013 98.4795 55.3581 98.4813 55.3147C98.4951 54.9795 98.4922 54.6439 98.4726 54.309C98.4669 54.21 98.46 54.111 98.4518 54.0121C98.4413 53.8863 98.4311 53.7574 98.4184 53.646L98.2071 52.3859C98.185 52.2432 98.1888 52.0977 98.2184 51.9563C98.2238 51.9282 98.2369 51.904 98.2443 51.8765C98.2807 51.7417 98.3403 51.6143 98.4205 51.5001C98.434 51.4807 98.4353 51.4558 98.4501 51.4372C98.4607 51.4236 98.4781 51.4184 98.4893 51.4054C98.5916 51.2787 98.7186 51.1744 98.8627 51.0986L98.8733 51.0948L98.8789 51.0928C100.763 50.3685 102.814 50.1982 104.792 50.6022C105.158 50.6524 105.531 50.5866 105.859 50.4141C106.186 50.2416 106.451 49.971 106.617 49.6403C106.73 49.4165 106.794 49.1708 106.805 48.92C106.815 48.6692 106.771 48.419 106.677 48.1866C106.583 47.9508 106.439 47.7379 106.256 47.5625C106.072 47.3871 105.853 47.2532 105.614 47.17C104.018 46.5487 102.333 46.1894 100.623 46.1059C100.407 46.1057 100.191 46.1059 99.9761 46.1067L99.9739 46.1071C99.1384 46.1099 98.3378 46.1292 97.5593 46.1941C97.5102 46.1984 97.4614 46.2009 97.4129 46.2054ZM71.436 54.3956C72.7309 53.5236 74.2827 53.115 75.8392 53.2361C76.3509 53.0159 76.9005 52.8112 77.5165 52.6115V40.0254C77.5143 37.6127 76.8768 35.2432 75.668 33.1551C75.381 32.6581 74.9688 32.2449 74.4725 31.9568C73.9762 31.6686 73.413 31.5155 72.8391 31.5127H68.0637C69.588 33.6539 71.436 36.7951 71.436 40.0254V54.3956ZM71.436 91.0265V96.5744C71.4377 98.2527 72.7979 99.6129 74.4762 99.6146C76.1545 99.6129 77.5147 98.2527 77.5165 96.5744V95.8933C75.2461 94.6012 73.194 92.9586 71.436 91.0265ZM106.46 64.3297C106.072 64.647 105.632 64.8965 105.161 65.0675C105.063 65.1053 104.967 65.144 104.869 65.1762C104.821 65.1915 104.773 65.2043 104.725 65.2185C104.076 65.4059 103.408 65.515 102.733 65.5434C102.389 66.6444 102.068 67.7526 101.771 68.8673C101.782 68.904 101.806 68.9327 101.814 68.9709C101.826 69.0243 102.954 74.3175 106.998 75.3294C109.864 76.0455 111.316 79.3149 111.472 79.6843C111.733 80.3032 111.443 81.0164 110.824 81.2775C110.205 81.5386 109.492 81.2485 109.231 80.6296C108.934 79.9349 107.845 78.0477 106.408 77.6879C105.211 77.3525 104.098 76.7716 103.138 75.9822C102.178 75.1928 101.393 74.2122 100.833 73.1029C100.707 73.8263 100.637 74.5583 100.622 75.2925C100.781 76.8282 101.351 78.2926 102.273 79.5311C103.28 80.9746 103.949 82.6258 104.231 84.3627C106.153 85.6716 107.779 87.3676 109.007 89.3419C109.739 90.805 110.366 91.0722 110.466 91.1067C110.777 91.1366 111.064 91.2849 111.269 91.521C111.474 91.7571 111.579 92.0629 111.565 92.3749C111.55 92.687 111.416 92.9814 111.19 93.1972C110.964 93.413 110.664 93.5336 110.351 93.5341C109.691 93.4837 109.067 93.2123 108.58 92.7636C108.356 93.3708 108.01 93.9256 107.563 94.3939C107.45 94.5088 107.316 94.6003 107.168 94.663C107.02 94.7257 106.861 94.7584 106.7 94.7593C106.54 94.7602 106.38 94.7291 106.232 94.668C106.083 94.6069 105.948 94.5168 105.834 94.4032C105.72 94.2895 105.63 94.1544 105.569 94.0057C105.508 93.8569 105.477 93.6976 105.478 93.5368C105.479 93.376 105.512 93.217 105.574 93.069C105.637 92.9209 105.728 92.7868 105.843 92.6743C106.371 91.9519 106.665 91.0858 106.687 90.1917C105.967 89.0935 105.075 88.1179 104.046 87.302C103.557 89.3918 102.677 91.3704 101.454 93.1339C100.297 94.6403 99.5888 96.4427 99.4106 98.3337C99.9184 98.4508 100.416 98.5687 100.897 98.6847C102.788 99.2275 104.738 99.5397 106.703 99.6146C109.428 99.6146 114 98.0351 114 87.4535C114 81.9728 111.365 72.2689 106.46 64.3297Z" fill="url(#paint2_linear_645_181)"/>
<path d="M100.188 80.783C99.9001 80.3036 99.6036 79.8016 99.3268 79.2777C98.9447 79.8886 98.4207 80.3981 97.7993 80.763C97.178 81.1278 96.4777 81.3371 95.758 81.3732C95.4355 81.3732 95.1262 81.245 94.8981 81.017C94.67 80.7889 94.5419 80.4796 94.5419 80.157C94.5419 79.8345 94.67 79.5252 94.8981 79.2971C95.1262 79.069 95.4355 78.9409 95.758 78.9409C97.0414 78.9409 98.04 76.7498 98.2471 76.1385C98.2102 75.858 98.1912 75.5755 98.1903 75.2927C98.4756 71.9304 99.1591 68.6138 100.227 65.4127C100.157 65.3998 100.087 65.3885 100.019 65.374C99.8851 65.3454 99.7589 65.3071 99.6294 65.2722C99.4846 65.2331 99.339 65.1958 99.2004 65.1489C99.0641 65.1032 98.9363 65.0496 98.8068 64.9968C98.6873 64.948 98.5679 64.8998 98.4543 64.8451C98.3234 64.7822 98.2006 64.7132 98.0781 64.6428C97.9802 64.5875 97.884 64.529 97.7898 64.4675C97.6715 64.3887 97.5567 64.3048 97.4458 64.216C97.3673 64.1539 97.2909 64.0892 97.2167 64.0221C97.1116 63.9271 97.0113 63.8269 96.9163 63.7219C96.8562 63.6543 96.7985 63.5847 96.7434 63.5132C96.6551 63.4025 96.5734 63.2869 96.4986 63.1668C96.4827 63.1407 96.4606 63.1177 96.4453 63.0912C96.4212 63.0495 96.4104 63.0052 96.3884 62.963C96.3399 62.871 96.2796 62.7845 96.2398 62.6886C96.2101 62.6168 96.194 62.5432 96.1697 62.4707C96.159 62.4391 96.1488 62.4076 96.1391 62.3756C96.0747 62.1677 96.0321 61.9537 96.0119 61.7369L96.0106 61.7303C95.9128 61.7403 95.805 61.7436 95.706 61.7528C95.2959 61.7907 94.8753 61.8217 94.4443 61.8457C94.2707 61.8554 94.0992 61.8663 93.9226 61.8738C93.3336 61.8988 92.7329 61.9154 92.1099 61.9154C91.7597 61.913 91.4099 61.8922 91.0619 61.8529C90.8204 61.8278 90.5699 61.7856 90.319 61.7454C90.194 61.7252 90.0742 61.7107 89.9467 61.6869C89.661 61.6338 89.3756 61.5679 89.0867 61.4984C88.9771 61.4721 88.8697 61.4488 88.7599 61.4204C88.4916 61.3493 88.2249 61.272 87.9602 61.1885C87.8164 61.144 87.6749 61.1005 87.533 61.0526C87.4365 61.0197 87.3352 60.9937 87.2401 60.9595C87.2348 61.0898 87.2082 61.2207 87.1953 61.3512C87.1794 61.5109 87.1676 61.6706 87.1406 61.8306C87.1111 62.0048 87.0668 62.1791 87.0247 62.3534C86.9862 62.5128 86.9521 62.6719 86.9036 62.8311C86.8502 63.0059 86.7832 63.1804 86.7184 63.3549C86.6596 63.5133 86.6054 63.6716 86.5375 63.8296C86.4622 64.0052 86.3741 64.1798 86.2883 64.355C86.2119 64.5109 86.1399 64.667 86.0558 64.8225C85.96 64.9994 85.8521 65.175 85.7466 65.3511C85.6554 65.5035 85.5685 65.6562 85.4706 65.808C85.3561 65.9853 85.2309 66.161 85.108 66.3371C85.009 66.4793 84.9149 66.622 84.8106 66.7633L84.8133 66.7765C84.8016 67.7741 85.1022 68.7503 85.6731 69.5685L85.6752 69.571C86.4681 70.4375 87.4213 71.142 88.4823 71.6456C88.6414 71.6458 88.7988 71.6774 88.9457 71.7386C89.0925 71.7998 89.2258 71.8894 89.3378 72.0023C89.4499 72.1152 89.5386 72.2491 89.5987 72.3964C89.6588 72.5436 89.6893 72.7013 89.6883 72.8604C89.686 73.1841 89.5556 73.4937 89.3258 73.7215C89.0959 73.9494 88.7852 74.077 88.4615 74.0765C88.0352 74.0589 87.6172 73.9525 87.2344 73.764C87.2418 73.9115 87.2454 74.0301 87.2454 74.0765C87.2454 74.3991 87.1173 74.7084 86.8892 74.9365C86.6611 75.1645 86.3518 75.2927 86.0293 75.2927C85.7067 75.2927 85.3974 75.1645 85.1694 74.9365C84.9413 74.7084 84.8132 74.3991 84.8132 74.0765C84.8243 73.0801 84.5237 72.1051 83.9534 71.288C83.3933 70.6933 82.9845 69.9726 82.7616 69.1868L82.7323 69.2179C82.608 69.3497 82.4864 69.4829 82.3595 69.6133C82.1866 69.791 82.0089 69.9654 81.8321 70.1405C81.7057 70.2656 81.5818 70.3924 81.4538 70.5161C81.2676 70.696 81.0786 70.8718 80.8897 71.0484C80.7675 71.1629 80.6468 71.2792 80.5238 71.3922C80.3247 71.5753 80.1246 71.7532 79.9245 71.9323C79.8097 72.0349 79.6955 72.1398 79.5806 72.2411C79.3542 72.4401 79.1266 72.6377 78.8977 72.8338L78.8066 72.9128C79.3496 74.7519 79.7089 76.6404 79.8794 78.5504C79.8834 78.5621 79.8919 78.5714 79.8955 78.5832C80.7 78.8343 81.5395 78.955 82.3822 78.9408C83.0538 78.9412 83.5981 79.4859 83.5977 80.1574C83.5973 80.829 83.0526 81.3733 82.381 81.3729C81.5926 81.3802 80.8055 81.3084 80.0314 81.1583C80.0926 81.718 80.276 82.2573 80.5687 82.7383C80.8613 83.2192 81.256 83.63 81.7249 83.9416C81.9647 84.0689 82.1551 84.2727 82.2658 84.5206C82.3766 84.7684 82.4014 85.0462 82.3363 85.3097C82.2713 85.5733 82.12 85.8076 81.9066 85.9754C81.6932 86.1432 81.4299 86.235 81.1584 86.2361C80.9718 86.2362 80.7878 86.1927 80.621 86.109C79.6082 85.4962 78.7831 84.6171 78.2356 83.5675C77.6882 82.5178 77.4395 81.338 77.5167 80.1568C77.4801 78.2917 77.2238 76.4374 76.7531 74.6324C76.4777 74.8585 76.2072 75.0797 75.9455 75.2935C74.8945 76.1521 73.9872 76.8932 73.5121 77.3682C73.3184 77.5651 73.1497 77.7851 73.0097 78.0233C72.5919 78.8207 72.2813 79.6699 72.0858 80.5487C71.9928 80.8916 71.8928 81.2325 71.7859 81.5713L71.7574 81.6594C71.7081 81.8118 71.6553 81.963 71.5991 82.113C71.5574 82.2242 71.51 82.3326 71.4636 82.4418C71.404 82.5818 71.3397 82.7197 71.2707 82.8553C71.1986 82.9987 71.1199 83.1388 71.035 83.2751C70.9851 83.3545 70.9305 83.4296 70.8759 83.5057C70.7942 83.6182 70.7067 83.7264 70.6136 83.8297C70.5482 83.9037 70.4846 83.9783 70.4129 84.047C70.2808 84.1714 70.1388 84.2848 69.9884 84.3863C69.9647 84.4025 69.9463 84.4234 69.9221 84.4392C70.367 85.3697 70.8845 86.2637 71.4698 87.1129C71.8146 87.6238 72.1826 88.1186 72.5726 88.5958C72.7118 88.7653 72.8502 88.9358 72.9932 89.099C73.1977 89.3344 73.4078 89.565 73.6233 89.7904C73.8183 89.9934 74.0181 90.1872 74.2184 90.3798C74.5145 90.6658 74.8189 90.9431 75.1312 91.2114C75.3809 91.4251 75.6304 91.6385 75.8856 91.8381C76.1012 92.0072 76.3246 92.17 76.5484 92.3324C76.7515 92.4807 76.9571 92.6255 77.1653 92.7667C77.4183 92.9381 77.6731 93.1082 77.9357 93.2717C78.0716 93.3566 78.2077 93.4352 78.344 93.5167C78.6611 93.7059 78.979 93.8943 79.3094 94.072C81.7789 95.398 84.4332 96.3464 87.1838 96.8855C87.1949 96.8875 87.2032 96.896 87.2143 96.8985C88.0258 97.0638 88.8501 97.1588 89.6779 97.1824C92.1358 97.1731 94.5892 97.3913 97.0069 97.8344C97.2815 95.6726 98.0998 93.6157 99.3854 91.8561C100.875 89.8781 101.731 87.4952 101.839 85.0214C101.68 83.4858 101.109 82.0215 100.188 80.783ZM82.9889 99.6148C83.7118 99.6169 84.4112 99.3579 84.9584 98.8855C83.2609 98.4508 81.604 97.8707 80.006 97.1516C80.2835 98.5803 81.5335 99.6126 82.9889 99.6148Z" fill="url(#paint3_linear_645_181)"/>
<defs>
<linearGradient id="paint0_linear_645_181" x1="0" y1="0" x2="124.866" y2="170.618" gradientUnits="userSpaceOnUse">
<stop offset="0.125652" stop-color="#F5F5F5"/>
<stop offset="0.869819" stop-color="#E5E5E5"/>
</linearGradient>
<linearGradient id="paint1_linear_645_181" x1="66.5713" y1="82.5998" x2="111.108" y2="79.5823" gradientUnits="userSpaceOnUse">
<stop offset="0.323057" stop-color="#F98D1B"/>
<stop offset="1" stop-color="#FFC180"/>
</linearGradient>
<linearGradient id="paint2_linear_645_181" x1="68.0637" y1="99.6146" x2="120.685" y2="96.4579" gradientUnits="userSpaceOnUse">
<stop offset="0.323057" stop-color="#F98D1B"/>
<stop offset="1" stop-color="#FFC180"/>
</linearGradient>
<linearGradient id="paint3_linear_645_181" x1="69.9221" y1="99.6148" x2="106.418" y2="96.9347" gradientUnits="userSpaceOnUse">
<stop offset="0.323057" stop-color="#F98D1B"/>
<stop offset="1" stop-color="#FFC180"/>
</linearGradient>
</defs>
</svg>
