<svg width="179" height="131" viewBox="0 0 179 131" fill="none" xmlns="http://www.w3.org/2000/svg">
<rect width="179" height="131" rx="20" fill="url(#paint0_linear_645_187)"/>
<g clip-path="url(#clip0_645_187)">
<path d="M104.365 78.9154C103.064 77.8538 101.241 77.8416 99.9321 78.7762L95.3104 75.0006C96.5044 73.3428 97.3559 71.4529 97.8143 69.4184L103.712 70.3776C103.878 71.9782 105.097 73.3385 106.76 73.6102C106.959 73.6416 107.158 73.6579 107.355 73.6579C108.115 73.6579 108.853 73.4204 109.481 72.9688C110.272 72.3971 110.795 71.5524 110.952 70.5891C111.109 69.6258 110.881 68.6597 110.31 67.8683C109.741 67.0769 108.897 66.5543 107.935 66.3973C106.971 66.2404 106.005 66.4683 105.212 67.0373C104.686 67.4165 104.278 67.9173 104.018 68.4918L98.1211 67.5326C98.3326 65.4271 98.1047 63.3654 97.5071 61.4456L103.096 59.3292C103.47 59.8461 103.973 60.2555 104.555 60.5163C105.026 60.7296 105.537 60.8403 106.054 60.8411C106.491 60.8411 106.929 60.7619 107.349 60.6022C109.231 59.8885 110.185 57.775 109.475 55.892L109.474 55.8879C108.759 54.0076 106.644 53.0566 104.759 53.7687C103.186 54.3678 102.264 55.9424 102.421 57.543L96.8273 59.6594C95.9772 57.7848 94.7629 56.0978 93.255 54.6966L97.0388 50.0669C97.5065 50.2753 98.0129 50.3827 98.5248 50.3822C99.5851 50.3822 100.637 49.925 101.36 49.0436C101.978 48.289 102.264 47.3367 102.165 46.3651C102.067 45.3936 101.598 44.5189 100.843 43.9008L100.842 43.8994C99.2821 42.6277 96.9749 42.8597 95.6976 44.4207C94.6374 45.7252 94.6264 47.5482 95.5598 48.8567L91.7774 53.4852C90.1071 52.2801 88.2108 51.4248 86.202 50.9704L87.1612 45.0729C87.7958 45.0084 88.4024 44.7784 88.9201 44.4057C89.7129 43.8353 90.2354 42.9906 90.3924 42.0287C90.5507 41.0654 90.3228 40.098 89.7524 39.3065C89.182 38.5137 88.336 37.9897 87.3727 37.8328C86.4094 37.6758 85.4433 37.9038 84.6505 38.4741C83.8604 39.0445 83.3378 39.8905 83.1809 40.8539C82.9107 42.5145 83.8113 44.1 85.2754 44.7659L84.3162 50.6634C82.2661 50.4563 80.1952 50.6651 78.2277 51.2774L76.1127 45.6897C77.413 44.7442 77.9807 43.0099 77.3858 41.4338C76.668 39.5508 74.5545 38.5998 72.6742 39.3133C70.7912 40.0243 69.8388 42.1364 70.5523 44.0236C71.1049 45.4822 72.5008 46.3841 73.9786 46.3841C74.0932 46.3841 74.2093 46.3773 74.3252 46.3664L76.443 51.9568C74.5686 52.8074 72.8818 54.0217 71.4802 55.5291L66.8504 51.7453C67.5054 50.2798 67.1301 48.4951 65.827 47.428C65.0711 46.8099 64.1201 46.5233 63.1484 46.6201C62.1769 46.7184 61.301 47.1891 60.6827 47.9464C59.4123 49.5047 59.6443 51.8094 61.2027 53.0851C61.8542 53.6176 62.67 53.9079 63.5114 53.9065C64.2749 53.9065 65.0194 53.6686 65.6414 53.2257L70.2685 57.0068C69.0634 58.6785 68.208 60.5762 67.7537 62.5863L61.8563 61.6257C61.6898 60.0251 60.4727 58.6661 58.8121 58.3945C56.8227 58.0711 54.9411 59.4233 54.6162 61.4128C54.4593 62.3775 54.6872 63.3449 55.2576 64.1364C55.828 64.9279 56.674 65.4504 57.6373 65.6073C57.8351 65.6388 58.033 65.6551 58.2268 65.6551C59.6636 65.6551 60.9627 64.8008 61.548 63.5114L67.4467 64.472C67.2366 66.5461 67.4454 68.6093 68.0512 70.5604L62.4731 72.6754C61.5275 71.371 59.7919 70.8033 58.2199 71.4009C57.3056 71.7462 56.5825 72.427 56.1813 73.318C55.7801 74.209 55.7514 75.201 56.0966 76.1084C56.4405 77.0227 57.12 77.7472 58.011 78.1484C58.4813 78.3615 58.9916 78.4722 59.5079 78.4731C59.951 78.4725 60.3902 78.3911 60.8041 78.2329C61.7184 77.8891 62.4428 77.2082 62.8441 76.3186C63.1115 75.7263 63.2139 75.0906 63.1512 74.4615L68.7307 72.3451C69.1561 73.2816 69.6731 74.1738 70.274 75.0087C70.8737 75.8428 71.5547 76.6152 72.3071 77.3147L68.5301 81.9363C67.9485 81.6756 67.3086 81.5721 66.6744 81.6361C65.7043 81.7344 64.8283 82.2051 64.2114 82.9611C63.5933 83.7156 63.3068 84.6666 63.4037 85.6368C63.502 86.6083 63.9727 87.483 64.7286 88.0998C65.3864 88.6387 66.1941 88.9266 67.0333 88.9266C67.1573 88.9264 67.2812 88.92 67.4045 88.9075C68.3747 88.8092 69.2506 88.3385 69.8675 87.5826C70.4856 86.828 70.7722 85.8782 70.6752 84.9068C70.6121 84.2713 70.3825 83.6636 70.0094 83.1452L73.785 78.5249C75.4443 79.7189 77.3341 80.5718 79.37 81.0302L78.4094 86.9277C76.8088 87.0941 75.4499 88.3126 75.1782 89.976C74.8549 91.9628 76.207 93.843 78.1965 94.1678C78.3944 94.1992 78.5908 94.2155 78.7861 94.2155C80.5436 94.2155 82.099 92.9396 82.3911 91.1508C82.548 90.1875 82.3201 89.2214 81.7511 88.4286C81.3717 87.9018 80.871 87.4938 80.2952 87.2346L81.2558 81.3359C81.7783 81.3891 82.301 81.4178 82.8208 81.4178C84.3627 81.4178 85.8841 81.1844 87.3427 80.7314L89.4578 86.3123C88.9402 86.6861 88.5303 87.1897 88.2693 87.7723C87.8682 88.6633 87.8394 89.6554 88.1847 90.5641C88.5285 91.4784 89.2094 92.2028 90.1005 92.6041C90.5717 92.8173 91.0828 92.928 91.6 92.9288C92.042 92.9283 92.4802 92.8479 92.8935 92.6913L92.8949 92.69C93.8091 92.3434 94.5322 91.6625 94.9335 90.7714C95.3333 89.8818 95.3634 88.8884 95.0168 87.9782C94.6716 87.0654 93.9921 86.3423 93.1011 85.9423C92.5201 85.6792 91.8801 85.5738 91.2454 85.6366L89.129 80.0544C90.0658 79.6295 90.958 79.1125 91.7925 78.5111C92.6268 77.9111 93.3997 77.2301 94.0999 76.478L98.7216 80.255C98.0652 81.7246 98.4405 83.512 99.7449 84.5764C100.395 85.1094 101.21 85.4002 102.051 85.3992C103.11 85.3992 104.162 84.9407 104.884 84.0592C105.502 83.3033 105.788 82.3521 105.691 81.3806C105.593 80.4095 105.123 79.5335 104.365 78.9154ZM75.0735 71.3164C73.5929 71.3164 72.3894 70.1129 72.3894 68.6325C72.3894 67.1521 73.5929 65.9486 75.0735 65.9486C76.554 65.9486 77.7574 67.1521 77.7574 68.6325C77.7574 70.1129 76.554 71.3164 75.0735 71.3164ZM82.7516 64.5785C80.5028 64.5785 78.6745 62.7501 78.6745 60.5027C78.6745 58.2526 80.503 56.4215 82.7516 56.4215C85.0017 56.4215 86.8314 58.2527 86.8314 60.5027C86.8314 62.7501 85.0016 64.5785 82.7516 64.5785ZM89.3339 74.6472C87.8548 74.6472 86.6499 73.4423 86.6499 71.9631C86.6499 70.4826 87.8548 69.2778 89.3339 69.2778C90.8131 69.2778 92.0151 70.4827 92.0151 71.9631C92.0152 73.4423 90.8131 74.6472 89.3339 74.6472ZM123.886 78.925L121.516 80.0507C121.468 81.1614 121.231 82.3227 120.817 83.4647L123.268 84.5631C123.382 84.6143 123.486 84.6876 123.572 84.7788C123.658 84.87 123.725 84.9773 123.77 85.0945C123.815 85.2118 123.836 85.3367 123.832 85.4621C123.828 85.5875 123.8 85.7109 123.748 85.8253C123.697 85.9399 123.624 86.0432 123.533 86.1294C123.441 86.2156 123.334 86.283 123.217 86.3277C123.1 86.3725 122.975 86.3936 122.849 86.3901C122.724 86.3865 122.601 86.3583 122.486 86.307L120.038 85.2086C119.449 86.3042 118.739 87.2499 117.96 88.0113L118.695 90.5234C118.844 91.0297 118.553 91.5604 118.047 91.7091C117.804 91.7801 117.542 91.7515 117.32 91.6297C117.098 91.5079 116.933 91.3029 116.861 91.0596L116.339 89.2749C115.385 89.8439 114.389 90.1536 113.428 90.1536C113.158 90.1536 112.892 90.1276 112.629 90.0785L112.04 91.3911C111.989 91.5057 111.916 91.609 111.825 91.6952C111.734 91.7814 111.626 91.8488 111.509 91.8935C111.392 91.9383 111.267 91.9595 111.142 91.9559C111.016 91.9523 110.893 91.9241 110.778 91.8728C110.297 91.6572 110.081 91.0909 110.297 90.6106L110.885 89.2966C109.942 88.5734 109.297 87.4368 109.02 85.9931L107.332 86.7967C107.204 86.8577 107.064 86.8894 106.922 86.8895C106.742 86.8895 106.564 86.8382 106.412 86.7416C106.259 86.645 106.136 86.5071 106.059 86.3438C106.005 86.2304 105.974 86.1076 105.967 85.9822C105.961 85.8569 105.979 85.7315 106.021 85.6133C106.063 85.495 106.128 85.3863 106.212 85.2931C106.296 85.2 106.398 85.1244 106.512 85.0706L108.883 83.9422C108.932 82.8314 109.17 81.6717 109.583 80.5309L107.131 79.4338C106.649 79.2182 106.434 78.652 106.649 78.1703C106.865 77.69 107.43 77.4744 107.912 77.6886L110.365 78.787C110.942 77.7146 111.652 76.7662 112.442 75.9939L111.702 73.4681C111.667 73.3478 111.656 73.2217 111.669 73.097C111.682 72.9723 111.72 72.8515 111.781 72.7415C111.841 72.6315 111.922 72.5344 112.02 72.4558C112.118 72.3773 112.23 72.3188 112.35 72.2837C112.857 72.135 113.387 72.4256 113.536 72.9319L114.063 74.7289C114.412 74.5188 114.768 74.3414 115.13 74.2037C116.04 73.8557 116.936 73.7615 117.769 73.9185L118.357 72.6045C118.574 72.1228 119.139 71.9072 119.621 72.1242C120.101 72.3398 120.316 72.9047 120.101 73.3864L119.513 74.699C120.454 75.4209 121.101 76.5574 121.378 78.0012L123.067 77.1989C123.296 77.0905 123.559 77.0775 123.797 77.1627C124.036 77.2479 124.231 77.4243 124.339 77.6532C124.566 78.1294 124.362 78.6998 123.886 78.925ZM113.338 64.8268V56.2468C113.338 54.084 115.099 52.3251 117.261 52.3251C119.425 52.3251 121.187 54.084 121.187 56.2468V64.8268C121.187 66.9909 119.425 68.7526 117.261 68.7526C115.099 68.7526 113.338 66.9909 113.338 64.8268Z" fill="url(#paint1_linear_645_187)"/>
</g>
<defs>
<linearGradient id="paint0_linear_645_187" x1="0" y1="0" x2="124.866" y2="170.618" gradientUnits="userSpaceOnUse">
<stop offset="0.125652" stop-color="#F5F5F5"/>
<stop offset="0.869819" stop-color="#E5E5E5"/>
</linearGradient>
<linearGradient id="paint1_linear_645_187" x1="54.5679" y1="94.2155" x2="133.925" y2="85.4777" gradientUnits="userSpaceOnUse">
<stop offset="0.323057" stop-color="#F98D1B"/>
<stop offset="1" stop-color="#FFC180"/>
</linearGradient>
<clipPath id="clip0_645_187">
<rect width="70" height="70" fill="white" transform="translate(55 31)"/>
</clipPath>
</defs>
</svg>
