<svg width="179" height="131" viewBox="0 0 179 131" fill="none" xmlns="http://www.w3.org/2000/svg">
<rect width="179" height="131" rx="20" fill="url(#paint0_linear_645_157)"/>
<path d="M115.792 37.1079H98.6799C96.9439 37.1079 95.5799 38.4719 95.5799 40.2079C95.5799 41.9439 96.9439 43.3079 98.6799 43.3079H108.228L96.8199 54.7159C88.0159 48.1439 75.4919 48.7639 67.5559 56.6999C58.8759 65.3799 58.8759 79.6399 67.5559 88.3199C76.2359 96.9999 90.4959 96.9999 99.1759 88.3199C107.112 80.3839 107.856 67.7359 101.16 59.0559L112.568 47.6479V57.3199C112.568 59.0559 113.932 60.4199 115.668 60.4199C117.404 60.4199 118.768 59.0559 118.768 57.3199V40.2079C118.892 38.4719 117.528 37.1079 115.792 37.1079ZM94.9599 83.9799C88.6359 90.3039 78.3439 90.3039 72.0199 83.9799C65.6959 77.6559 65.6959 67.3639 72.0199 61.0399C78.3439 54.7159 88.6359 54.7159 94.9599 61.0399C101.284 67.3639 101.284 77.6559 94.9599 83.9799Z" fill="black"/>
<path d="M115.792 37.1079H98.6799C96.9439 37.1079 95.5799 38.4719 95.5799 40.2079C95.5799 41.9439 96.9439 43.3079 98.6799 43.3079H108.228L96.8199 54.7159C88.0159 48.1439 75.4919 48.7639 67.5559 56.6999C58.8759 65.3799 58.8759 79.6399 67.5559 88.3199C76.2359 96.9999 90.4959 96.9999 99.1759 88.3199C107.112 80.3839 107.856 67.7359 101.16 59.0559L112.568 47.6479V57.3199C112.568 59.0559 113.932 60.4199 115.668 60.4199C117.404 60.4199 118.768 59.0559 118.768 57.3199V40.2079C118.892 38.4719 117.528 37.1079 115.792 37.1079ZM94.9599 83.9799C88.6359 90.3039 78.3439 90.3039 72.0199 83.9799C65.6959 77.6559 65.6959 67.3639 72.0199 61.0399C78.3439 54.7159 88.6359 54.7159 94.9599 61.0399C101.284 67.3639 101.284 77.6559 94.9599 83.9799Z" fill="url(#paint1_linear_645_157)"/>
<defs>
<linearGradient id="paint0_linear_645_157" x1="0" y1="0" x2="124.866" y2="170.618" gradientUnits="userSpaceOnUse">
<stop offset="0.125652" stop-color="#F5F5F5"/>
<stop offset="0.869819" stop-color="#E5E5E5"/>
</linearGradient>
<linearGradient id="paint1_linear_645_157" x1="61.0459" y1="94.8299" x2="126.894" y2="88.9728" gradientUnits="userSpaceOnUse">
<stop offset="0.323057" stop-color="#F98D1B"/>
<stop offset="1" stop-color="#FFC180"/>
</linearGradient>
</defs>
</svg>
