<svg width="179" height="131" viewBox="0 0 179 131" fill="none" xmlns="http://www.w3.org/2000/svg">
<rect width="179" height="131" rx="20" fill="url(#paint0_linear_645_169)"/>
<path d="M106.517 70.0633C105.429 63.291 105.023 60.2558 100.901 56.0459C98.0929 53.1325 97.7302 50.301 97.6834 49.4351C98.5727 47.7736 98.5844 44.8134 98.4908 43.0583C103.397 42.4943 103.416 35.1978 99.9884 32.949C97.894 31.5098 95.8581 32.4926 94.5828 33.6627C93.2489 32.6331 90.5461 31.3928 86.0764 32.7852C80.741 34.4466 78.5179 38.4717 79.6528 44.4156C80.2729 47.6449 78.8689 49.751 78.8104 49.8329C78.2663 50.5677 78.8478 51.7109 79.7698 51.6816H81.4781C82.8845 55.7242 85.5523 59.9656 90.6397 56.0225C90.7684 58.3744 90.2535 63.3705 84.0405 65.6521C81.4547 66.5999 79.9804 67.9922 79.6411 69.8058C79.3018 71.6779 80.308 73.433 81.2441 74.6031C76.4234 76.5454 73.4047 79.3418 72.258 82.9222C70.8072 87.4854 72.8314 91.9785 74.0131 94.0495C74.7702 93.9418 75.7682 93.7417 76.4819 93.5932C80.074 92.8443 85.2223 91.4753 88.323 89.2873C91.4236 87.0993 95.8581 85.6016 98.5376 84.8177C98.6429 84.455 99.4853 81.3192 97.8472 77.9378C96.3379 74.8254 96.3379 69.8409 96.3379 69.6303C96.3379 68.9868 96.8644 68.472 97.5079 68.472C98.1632 68.472 98.678 68.9985 98.678 69.642C98.678 69.6888 98.678 74.2989 99.9533 76.9198C101.369 79.845 101.299 82.5712 101.065 84.1742C102.441 84.111 102.767 86.1562 101.381 86.4792C101.299 86.5026 93.9275 88.2109 89.6685 91.2062C87.2196 92.925 83.7527 94.1758 80.5889 95.0323C78.9625 95.4652 77.418 95.8046 76.1309 96.062C78.7051 97.2203 81.3845 97.7001 84.0522 97.7001C95.9166 97.7001 107.57 88.246 108.179 87.7429C108.378 87.579 108.518 87.345 108.577 87.0876C109.337 83.6476 106.798 71.3854 106.517 70.0633Z" fill="url(#paint1_linear_645_169)"/>
<defs>
<linearGradient id="paint0_linear_645_169" x1="0" y1="0" x2="124.866" y2="170.618" gradientUnits="userSpaceOnUse">
<stop offset="0.125652" stop-color="#F5F5F5"/>
<stop offset="0.869819" stop-color="#E5E5E5"/>
</linearGradient>
<linearGradient id="paint1_linear_645_169" x1="71.7539" y1="97.7001" x2="114.143" y2="95.5737" gradientUnits="userSpaceOnUse">
<stop offset="0.323057" stop-color="#F98D1B"/>
<stop offset="1" stop-color="#FFC180"/>
</linearGradient>
</defs>
</svg>
