<svg width="179" height="131" viewBox="0 0 179 131" fill="none" xmlns="http://www.w3.org/2000/svg">
<rect width="179" height="131" rx="20" fill="url(#paint0_linear_645_163)"/>
<path d="M106.388 70.5483C115.192 61.7466 115.192 47.4252 106.388 38.6236C97.5831 29.8218 83.2573 29.8218 74.4527 38.6236C65.6483 47.4252 65.6483 61.7466 74.4527 70.5483C78.1795 74.2739 82.8956 76.422 87.7633 76.9937V84.5513H82.4502C80.983 84.5513 79.7936 85.7404 79.7936 87.2071C79.7936 88.6738 80.983 89.8629 82.4502 89.8629H87.7633V97.3442C87.7635 98.8109 88.9528 99.9999 90.4202 99.9999C91.8874 99.9999 93.0768 98.8109 93.0768 97.3442V89.8629H98.39C99.8573 89.8629 101.047 88.6738 101.047 87.2071C101.047 85.7404 99.8573 84.5513 98.39 84.5513H93.0768V76.9938C97.9446 76.422 102.661 74.2739 106.388 70.5483ZM78.2098 66.7924C71.477 60.0617 71.477 49.1101 78.2098 42.3793C84.9425 35.6489 95.8974 35.6485 102.631 42.3793C109.363 49.1101 109.363 60.0617 102.631 66.7924C95.8977 73.523 84.9427 73.523 78.2098 66.7924Z" fill="url(#paint1_linear_645_163)"/>
<defs>
<linearGradient id="paint0_linear_645_163" x1="0" y1="0" x2="124.866" y2="170.618" gradientUnits="userSpaceOnUse">
<stop offset="0.125652" stop-color="#F5F5F5"/>
<stop offset="0.869819" stop-color="#E5E5E5"/>
</linearGradient>
<linearGradient id="paint1_linear_645_163" x1="67.8494" y1="99.9999" x2="119.566" y2="96.9456" gradientUnits="userSpaceOnUse">
<stop offset="0.323057" stop-color="#F98D1B"/>
<stop offset="1" stop-color="#FFC180"/>
</linearGradient>
</defs>
</svg>
