<svg width="260" height="206" viewBox="0 0 260 206" fill="none" xmlns="http://www.w3.org/2000/svg">
<rect width="260" height="206" rx="20" fill="url(#paint0_linear_1054_545)"/>
<path d="M180.91 44H127.38C125.166 44 123.365 45.8009 123.365 48.0147V88.3155C120.892 85.2264 118.173 82.3118 114.987 80.6634V74.074H119.017V63.2251H114.987V58.0553H74.0752V93.8971H114.987V87.4101C117.686 88.2795 120.506 89.6675 123.365 91.2982V156.985C123.365 159.199 125.166 161 127.38 161H180.91C183.123 161 184.924 159.199 184.924 156.985V48.0147C184.924 45.8009 183.123 44 180.91 44ZM183.013 156.985C183.013 158.145 182.069 159.088 180.91 159.088H127.38C126.823 159.088 126.288 158.866 125.894 158.472C125.5 158.077 125.278 157.543 125.277 156.985V92.4174C125.451 92.5217 125.625 92.6261 125.799 92.732C128.795 96.681 131.695 100.352 135.03 101.564C135.01 104.079 135.083 106.769 135.251 109.639C135.274 110.04 135.377 110.433 135.552 110.794C135.727 111.156 135.972 111.479 136.272 111.746C136.572 112.013 136.922 112.218 137.301 112.35C137.681 112.482 138.082 112.538 138.483 112.514C139.293 112.467 140.051 112.1 140.59 111.494C141.129 110.887 141.406 110.092 141.359 109.282C141.238 107.26 141.168 105.234 141.15 103.208C141.332 103.223 141.515 103.232 141.697 103.232C141.892 103.232 142.088 103.221 142.283 103.204C142.662 103.343 143.039 103.471 143.41 103.572L143.493 103.267C143.353 103.206 143.215 103.15 143.072 103.085L143.388 102.388C142.659 102.058 141.911 101.681 141.153 101.28L141.155 101.076C142.021 100.672 142.819 100.134 143.519 99.4836L142.999 98.9227C142.45 99.4307 141.835 99.8633 141.172 100.209C141.359 92.4384 142.529 87.7813 143.804 85.1301V98.0697C146.609 94.7011 146.979 89.5853 147.008 87.5431C146.668 87.4121 146.385 87.1662 146.208 86.8482C146.03 86.5302 145.97 86.16 146.037 85.8021C146.104 85.4441 146.294 85.1208 146.574 84.8884C146.855 84.656 147.208 84.5292 147.572 84.5298C147.986 84.5298 148.383 84.6943 148.676 84.987C148.969 85.2798 149.133 85.6769 149.133 86.0909C149.133 86.8828 148.541 87.5301 147.777 87.6314C147.747 89.9573 147.296 95.6853 143.803 99.203V102.144C150.648 100.255 151.358 91.6022 151.404 88.785C151.064 88.6541 150.78 88.4082 150.603 88.0901C150.425 87.7719 150.365 87.4016 150.432 87.0434C150.499 86.6853 150.689 86.362 150.97 86.1297C151.251 85.8974 151.604 85.7709 151.969 85.7721C152.383 85.7721 152.78 85.9365 153.072 86.2293C153.365 86.5221 153.53 86.9192 153.53 87.3332C153.53 88.1281 152.933 88.777 152.165 88.8749C152.102 91.8779 151.307 100.62 144.321 102.79C144.626 102.916 144.923 103.029 145.215 103.136C145.794 103.192 146.347 103.184 146.881 103.109C154.899 101.978 155.688 92.4648 155.736 89.4862C155.397 89.355 155.114 89.109 154.936 88.7909C154.759 88.4728 154.699 88.1027 154.766 87.7448C154.833 87.3869 155.023 87.0638 155.304 86.8315C155.584 86.5993 155.937 86.4725 156.301 86.4733C156.715 86.4733 157.112 86.6378 157.405 86.9305C157.698 87.2233 157.862 87.6204 157.862 88.0344C157.862 88.8294 157.266 89.4782 156.497 89.5761C156.431 92.7531 155.541 102.339 147.384 103.793C148.603 104.068 149.683 104.137 150.64 104.002C158.665 102.87 159.449 93.3572 159.496 90.3786C159.156 90.2478 158.873 90.0019 158.695 89.6837C158.518 89.3655 158.457 88.9952 158.524 88.6371C158.591 88.2789 158.782 87.9556 159.063 87.7234C159.343 87.4911 159.697 87.3645 160.061 87.3657C160.475 87.3657 160.872 87.5302 161.165 87.823C161.458 88.1157 161.622 88.5128 161.622 88.9269C161.622 89.7218 161.026 90.371 160.257 90.4685C160.19 93.6975 159.279 103.556 150.747 104.759C150.395 104.809 150.029 104.833 149.65 104.833C148.299 104.833 146.764 104.517 145.015 103.881C144.607 103.835 144.202 103.764 143.803 103.668V142.494C143.803 145.105 145.92 147.221 148.53 147.221C151.14 147.221 153.257 145.105 153.257 142.494V107.978H155.03V142.494C155.03 145.105 157.147 147.221 159.757 147.221C162.367 147.221 164.484 145.105 164.484 142.494V85.1297C166.194 88.6844 167.716 95.8467 166.93 109.282C166.906 109.698 166.967 110.115 167.11 110.507C167.252 110.899 167.474 111.258 167.76 111.561C168.046 111.864 168.392 112.105 168.775 112.27C169.158 112.435 169.57 112.52 169.987 112.52C170.767 112.519 171.517 112.22 172.084 111.685C172.651 111.149 172.992 110.418 173.038 109.639C173.983 93.486 171.963 82.9469 167.033 78.315C167 78.2833 166.966 78.2573 166.933 78.2263C167.845 78.0715 168.693 77.8891 169.423 77.6723L169.884 78.1334C170.735 78.9849 172.128 78.9849 172.98 78.1334C173.831 77.2819 173.831 75.8886 172.98 75.0375L172.615 74.6727C174.239 70.0891 174.239 60.3659 172.615 55.7822L172.98 55.4174C173.831 54.5659 173.831 53.1726 172.98 52.3215C172.128 51.47 170.735 51.47 169.884 52.3215L169.423 52.7826C164.467 51.3102 154.145 51.3859 154.144 51.3859C154.143 51.3859 143.821 51.3102 138.866 52.7826L138.405 52.3215C137.553 51.47 136.16 51.47 135.309 52.3215C134.457 53.173 134.457 54.5659 135.309 55.4174L135.673 55.7822C134.05 60.3659 134.05 70.0891 135.673 74.6727L135.309 75.0375C134.457 75.889 134.457 77.2823 135.309 78.1334C136.16 78.9849 137.553 78.9849 138.405 78.1334L138.866 77.6723C139.595 77.8891 140.443 78.0715 141.356 78.2263C141.322 78.2573 141.289 78.2833 141.255 78.315C137.663 81.6897 135.618 88.2038 135.137 97.7374C134.079 97.0688 133.023 96.3957 131.971 95.7182L131.336 95.311C130.964 95.0227 130.591 94.7325 130.215 94.4408C129.037 93.5246 127.852 92.6039 126.661 91.7066C126.203 91.2489 125.741 90.7942 125.277 90.3423V48.0147C125.277 46.8554 126.22 45.9118 127.38 45.9118H180.909C182.068 45.9118 183.012 46.8554 183.012 48.0147V156.985H183.013ZM135.064 99.606C133.711 98.5717 132.34 97.3237 130.948 95.9767C132.351 97.0633 133.731 98.1175 135.081 99.0829C135.075 99.2569 135.069 99.4301 135.064 99.606ZM127.897 94.029C130.329 96.4726 132.698 98.8279 135.043 100.545L135.039 100.742C132.437 99.6809 130.046 96.9712 127.626 93.8596L127.897 94.029ZM136.755 74.2892C135.225 69.9698 135.225 60.4844 136.755 56.1649L136.997 55.4824L136.12 54.6061C135.925 54.4105 135.816 54.1454 135.816 53.8691C135.816 53.5928 135.925 53.3277 136.12 53.1321C136.316 52.9371 136.577 52.8297 136.858 52.8297C137.138 52.8297 137.399 52.9371 137.595 53.1325L138.539 54.0765L139.194 53.8819C143.609 52.5701 152.849 52.5322 153.888 52.5322H154.401C155.441 52.5322 164.681 52.5701 169.097 53.8823L169.752 54.0769L170.696 53.1325C170.892 52.9375 171.153 52.8301 171.433 52.8301C171.714 52.8301 171.975 52.9375 172.171 53.1329C172.366 53.3285 172.475 53.5935 172.475 53.8699C172.475 54.1462 172.366 54.4112 172.171 54.6069L171.294 55.4832L171.535 56.1653C173.065 60.4848 173.065 69.9706 171.535 74.29L171.294 74.9721L172.171 75.8485C172.366 76.0441 172.475 76.3091 172.475 76.5855C172.475 76.8618 172.366 77.1268 172.171 77.3224C171.975 77.5174 171.714 77.6249 171.433 77.6249C171.153 77.6249 170.892 77.5174 170.696 77.3224L169.752 76.378L169.097 76.5726C168.144 76.856 166.966 77.0796 165.694 77.2563C164.048 76.1719 162.563 75.9467 161.714 75.9272C161.654 75.9234 161.593 75.9181 161.532 75.9181H146.76C146.695 75.9181 146.631 75.9238 146.567 75.9276C145.716 75.9486 144.237 76.1765 142.597 77.2563C141.326 77.0793 140.148 76.856 139.194 76.5726L138.54 76.378L137.595 77.3224C137.4 77.5174 137.139 77.6249 136.858 77.6249C136.578 77.6249 136.317 77.5174 136.121 77.3224C135.926 77.1268 135.816 76.8618 135.816 76.5855C135.816 76.3091 135.926 76.0441 136.121 75.8485L136.998 74.9721L136.755 74.2892ZM120.409 86.0091C118.657 84.6384 116.856 83.4791 114.987 82.6742V81.5107C116.946 82.5867 118.727 84.1734 120.409 86.0091ZM122.271 88.5743C119.85 86.9719 117.417 85.6149 114.987 84.7431V83.5112C117.51 84.6567 119.924 86.4771 122.271 88.5743ZM118.137 73.1942H101.046V64.1049H118.137V73.1942ZM113.075 91.9853H75.987V59.9671H113.075V63.2251H108.678V62.5261H80.384V74.7733H108.678V74.074H113.075V79.8574C111.942 79.4831 110.752 79.2721 109.496 79.2721V80.0368C110.757 80.0368 111.946 80.2555 113.075 80.6497V81.9891C111.912 81.6568 110.72 81.4706 109.496 81.4706V82.2353C110.716 82.2353 111.908 82.4326 113.075 82.7866V84.162C111.88 83.8664 110.686 83.7009 109.496 83.7009V84.4656C110.681 84.4656 111.875 84.6395 113.075 84.9504V86.0971C111.854 85.8275 110.659 85.6765 109.496 85.6765V86.4412C110.653 86.4412 111.849 86.5987 113.075 86.8801V91.9853ZM114.987 86.6079V85.5568C117.768 86.5953 120.572 88.286 123.365 90.246V90.4184C120.515 88.8125 117.699 87.454 114.987 86.6079Z" fill="url(#paint1_linear_1054_545)"/>
<path d="M154.145 73.7391C158.896 73.7391 162.748 69.8874 162.748 65.1361C162.748 60.3849 158.896 56.5332 154.145 56.5332C149.394 56.5332 145.542 60.3849 145.542 65.1361C145.542 69.8874 149.394 73.7391 154.145 73.7391Z" fill="url(#paint2_linear_1054_545)"/>
<path d="M80.3838 89.2289H108.678V76.2289H80.3838V89.2289ZM104.557 79.6384H105.831V80.9127H104.557V79.6384ZM104.557 82.0919H105.831V83.3663H104.557V82.0919ZM104.557 84.5451H105.831V85.8195H104.557V84.5451ZM102.164 79.6384H103.438V80.9127H102.164V79.6384ZM102.164 82.0919H103.438V83.3663H102.164V82.0919ZM102.164 84.5451H103.438V85.8195H102.164V84.5451ZM99.7706 79.6384H101.045V80.9127H99.7706V79.6384ZM99.7706 82.0919H101.045V83.3663H99.7706V82.0919ZM99.7706 84.5451H101.045V85.8195H99.7706V84.5451ZM97.3771 79.6384H98.6515V80.9127H97.3771V79.6384ZM97.3771 82.0919H98.6515V83.3663H97.3771V82.0919ZM97.3771 84.5451H98.6515V85.8195H97.3771V84.5451ZM94.9839 79.6384H96.2583V80.9127H94.9839V79.6384ZM94.9839 82.0919H96.2583V83.3663H94.9839V82.0919ZM94.9839 84.5451H96.2583V85.8195H94.9839V84.5451ZM92.5908 79.6384H93.8652V80.9127H92.5908V79.6384ZM92.5908 82.0919H93.8652V83.3663H92.5908V82.0919ZM92.5908 84.5451H93.8652V85.8195H92.5908V84.5451ZM90.1976 79.6384H91.472V80.9127H90.1976V79.6384ZM90.1976 82.0919H91.472V83.3663H90.1976V82.0919ZM90.1976 84.5451H91.472V85.8195H90.1976V84.5451ZM87.8041 79.6384H89.0785V80.9127H87.8041V79.6384ZM87.8041 82.0919H89.0785V83.3663H87.8041V82.0919ZM87.8041 84.5451H89.0785V85.8195H87.8041V84.5451ZM85.411 79.6384H86.6853V80.9127H85.411V79.6384ZM85.411 82.0919H86.6853V83.3663H85.411V82.0919ZM85.411 84.5451H86.6853V85.8195H85.411V84.5451ZM83.0178 79.6384H84.2922V80.9127H83.0178V79.6384ZM83.0178 82.0919H84.2922V83.3663H83.0178V82.0919ZM83.0178 84.5451H84.2922V85.8195H83.0178V84.5451ZM114.541 68.5283L113.943 69.6161L113.081 64.9086L111.472 68.5283H107.722L107.124 69.6165L106.263 64.9082L104.654 68.5283H102.008V69.4081H105.225L105.91 67.8669L106.705 72.2069L108.242 69.4081H112.043L112.729 67.8665L113.524 72.2073L115.061 69.4081H117.334V68.5283H114.541Z" fill="url(#paint3_linear_1054_545)"/>
<path d="M147.543 86.8715C147.978 86.8715 148.331 86.5184 148.331 86.0827C148.331 85.6471 147.978 85.2939 147.543 85.2939C147.107 85.2939 146.754 85.6471 146.754 86.0827C146.754 86.5184 147.107 86.8715 147.543 86.8715Z" fill="url(#paint4_linear_1054_545)"/>
<path d="M151.972 88.1459C152.408 88.1459 152.761 87.7928 152.761 87.3572C152.761 86.9215 152.408 86.5684 151.972 86.5684C151.537 86.5684 151.184 86.9215 151.184 87.3572C151.184 87.7928 151.537 88.1459 151.972 88.1459Z" fill="url(#paint5_linear_1054_545)"/>
<path d="M156.258 88.7827C156.693 88.7827 157.046 88.4295 157.046 87.9939C157.046 87.5582 156.693 87.2051 156.258 87.2051C155.822 87.2051 155.469 87.5582 155.469 87.9939C155.469 88.4295 155.822 88.7827 156.258 88.7827Z" fill="url(#paint6_linear_1054_545)"/>
<path d="M160.05 89.7709C160.485 89.7709 160.838 89.4178 160.838 88.9822C160.838 88.5465 160.485 88.1934 160.05 88.1934C159.614 88.1934 159.261 88.5465 159.261 88.9822C159.261 89.4178 159.614 89.7709 160.05 89.7709Z" fill="url(#paint7_linear_1054_545)"/>
<defs>
<linearGradient id="paint0_linear_1054_545" x1="0" y1="0" x2="200.541" y2="253.11" gradientUnits="userSpaceOnUse">
<stop offset="0.125652" stop-color="#F5F5F5"/>
<stop offset="0.869819" stop-color="#E5E5E5"/>
</linearGradient>
<linearGradient id="paint1_linear_1054_545" x1="74.0752" y1="161" x2="200.615" y2="150.338" gradientUnits="userSpaceOnUse">
<stop offset="0.323057" stop-color="#F98D1B"/>
<stop offset="1" stop-color="#FFC180"/>
</linearGradient>
<linearGradient id="paint2_linear_1054_545" x1="145.542" y1="73.7391" x2="165.168" y2="71.9936" gradientUnits="userSpaceOnUse">
<stop offset="0.323057" stop-color="#F98D1B"/>
<stop offset="1" stop-color="#FFC180"/>
</linearGradient>
<linearGradient id="paint3_linear_1054_545" x1="80.3838" y1="89.2289" x2="122.102" y2="83.592" gradientUnits="userSpaceOnUse">
<stop offset="0.323057" stop-color="#F98D1B"/>
<stop offset="1" stop-color="#FFC180"/>
</linearGradient>
<linearGradient id="paint4_linear_1054_545" x1="146.754" y1="86.8715" x2="148.553" y2="86.7115" gradientUnits="userSpaceOnUse">
<stop offset="0.323057" stop-color="#F98D1B"/>
<stop offset="1" stop-color="#FFC180"/>
</linearGradient>
<linearGradient id="paint5_linear_1054_545" x1="151.184" y1="88.1459" x2="152.983" y2="87.9859" gradientUnits="userSpaceOnUse">
<stop offset="0.323057" stop-color="#F98D1B"/>
<stop offset="1" stop-color="#FFC180"/>
</linearGradient>
<linearGradient id="paint6_linear_1054_545" x1="155.469" y1="88.7827" x2="157.268" y2="88.6226" gradientUnits="userSpaceOnUse">
<stop offset="0.323057" stop-color="#F98D1B"/>
<stop offset="1" stop-color="#FFC180"/>
</linearGradient>
<linearGradient id="paint7_linear_1054_545" x1="159.261" y1="89.7709" x2="161.06" y2="89.6109" gradientUnits="userSpaceOnUse">
<stop offset="0.323057" stop-color="#F98D1B"/>
<stop offset="1" stop-color="#FFC180"/>
</linearGradient>
</defs>
</svg>
