<svg width="260" height="206" viewBox="0 0 260 206" fill="none" xmlns="http://www.w3.org/2000/svg">
<rect width="260" height="206" rx="20" fill="url(#paint0_linear_1054_530)"/>
<g clip-path="url(#clip0_1054_530)">
<path d="M78.9277 159.788C78.9277 162.114 80.8135 164 83.1393 164C85.4651 164 87.3509 162.114 87.3509 159.788C87.3509 159.764 87.3478 159.741 87.3471 159.717H78.9314C78.9308 159.741 78.9277 159.764 78.9277 159.788ZM146.65 159.788C146.65 162.114 148.535 164 150.861 164C153.187 164 155.073 162.114 155.073 159.788C155.073 159.764 155.069 159.741 155.069 159.717H146.653C146.653 159.741 146.65 159.764 146.65 159.788Z" fill="url(#paint1_linear_1054_530)"/>
<path d="M124.386 79.2991C125.336 75.2227 122.802 71.1479 118.725 70.1977C114.649 69.2476 110.574 71.7819 109.624 75.8583C108.674 79.9347 111.208 84.0095 115.285 84.9597C119.361 85.9098 123.436 83.3755 124.386 79.2991Z" fill="url(#paint2_linear_1054_530)"/>
<path d="M116.273 112.426L120.124 112.426C118.743 111.444 117.348 110.698 116.103 110.103C115.951 107.882 116.099 105.562 116.389 103.296C117.302 103.652 118.274 103.835 119.254 103.836L119.328 103.836C122.005 103.819 124.858 102.735 128.254 100.533C128.852 100.142 129.271 99.5299 129.419 98.8305C129.566 98.131 129.429 97.4017 129.039 96.803C128.846 96.5064 128.596 96.2509 128.304 96.0509C128.012 95.8509 127.683 95.7105 127.337 95.6375C126.991 95.5646 126.633 95.5606 126.285 95.6258C125.937 95.691 125.606 95.8242 125.309 96.0176C122.421 97.9121 120.412 98.4613 119.328 98.4448C118.503 98.4259 118.148 98.2413 117.728 97.8996C117.608 97.8019 117.488 97.6685 117.369 97.5186C117.599 96.3602 117.828 95.2615 118.024 94.2595C118.991 90.9064 117.726 86.893 114.85 86.176C114.636 86.1232 114.418 86.0835 114.198 86.0571C113.768 85.8584 113.293 85.777 112.822 85.8213C112.35 85.8657 111.899 86.0341 111.513 86.3094C110.394 86.6511 109.278 87.2939 108.309 88.2825C109.061 88.2835 109.764 88.3064 110.384 88.3377C111.642 88.4011 112.552 88.4998 112.786 88.5264C113.527 88.6144 114.217 88.9448 114.75 89.4661C115.284 89.9873 115.629 90.6702 115.734 91.4085C115.776 91.6946 115.78 91.9851 115.747 92.2723C115.545 93.9654 114.107 95.2433 112.404 95.2433C112.271 95.2433 112.136 95.2349 112.003 95.2191C111.992 95.2181 111.913 95.2086 111.743 95.1918C111.475 95.1649 111.206 95.1418 110.937 95.1224C110.876 95.1177 110.808 95.1133 110.74 95.1086C109.918 95.0515 109.094 95.022 108.269 95.0203C107.074 95.0203 105.976 95.0921 105.101 95.2248C104.959 95.7364 104.826 96.2507 104.703 96.7672C105.471 97.6554 106.805 98.9835 109.103 100.797C109.452 101.071 109.742 101.41 109.958 101.797C110.174 102.183 110.311 102.609 110.361 103.049C110.414 103.488 110.379 103.934 110.258 104.36C110.138 104.786 109.934 105.184 109.659 105.531C109.344 105.931 108.941 106.254 108.483 106.476C108.025 106.698 107.522 106.812 107.012 106.811C106.258 106.811 105.517 106.553 104.925 106.084C104.546 105.784 104.171 105.479 103.799 105.17C103.827 106.85 103.959 108.642 104.194 110.661C104.321 111.319 104.489 111.904 104.69 112.426H106.062H116.273Z" fill="url(#paint3_linear_1054_530)"/>
<path d="M107.013 106.137C107.573 106.137 108.119 105.963 108.576 105.639C109.032 105.314 109.376 104.856 109.56 104.327C109.744 103.798 109.759 103.225 109.602 102.687C109.446 102.15 109.126 101.674 108.686 101.327C106.822 99.8565 105.457 98.5964 104.522 97.5773C104.267 97.3009 104.022 97.0146 103.789 96.7191C103.346 96.1558 103.081 95.7026 102.948 95.4044C102.915 95.3301 102.886 95.254 102.86 95.1767C103.129 95.0274 103.742 94.7686 104.544 94.6362C104.795 94.5891 105.047 94.5496 105.3 94.5176C106.233 94.3963 107.287 94.3461 108.269 94.3472C109.146 94.3472 109.966 94.3839 110.62 94.426C111.017 94.4511 111.413 94.4828 111.809 94.5213C111.999 94.5405 112.082 94.551 112.082 94.551C112.792 94.6352 113.506 94.4342 114.068 93.9922C114.629 93.5501 114.993 92.9032 115.078 92.1935C115.162 91.4836 114.961 90.7692 114.519 90.2074C114.077 89.6456 113.43 89.2824 112.72 89.1976C112.674 89.1925 111.73 89.08 110.344 89.0106C109.653 88.9758 108.961 88.9579 108.269 88.957C108.087 88.9577 107.9 88.9607 107.713 88.9638C105.922 88.9924 103.937 89.1373 102.07 89.6973C101.039 90.0197 100.005 90.4634 99.0721 91.3084C98.1345 92.1241 97.3976 93.5439 97.4273 94.9998C97.4545 96.8401 98.2787 98.4051 99.5492 100.047C100.572 101.347 101.958 102.732 103.792 104.285C104.302 104.717 104.819 105.141 105.344 105.557C105.819 105.933 106.407 106.137 107.013 106.137ZM97.15 148.252C97.7059 148.512 98.3122 148.647 98.9259 148.647C100.513 148.647 102.032 147.746 102.746 146.213C108.53 133.796 111.739 123.715 113.293 118.107C113.687 118.313 114.084 118.537 114.471 118.78C115.636 119.499 116.676 120.372 117.31 121.217C117.949 122.083 118.22 122.79 118.231 123.723C118.229 124.471 118.032 125.489 117.245 126.935C116.46 128.372 115.071 130.193 112.842 132.307C111.155 133.909 111.086 136.574 112.687 138.261C114.289 139.948 116.955 140.017 118.642 138.415C121.335 135.855 123.296 133.416 124.632 130.982C125.964 128.557 126.657 126.094 126.654 123.724C126.665 121.216 125.867 118.961 124.727 117.142H104.812C103.24 122.588 100.238 131.652 95.1109 142.656C94.1284 144.764 95.0415 147.27 97.15 148.252Z" fill="url(#paint4_linear_1054_530)"/>
<path d="M71.3008 159.043H162.699C163.257 159.043 163.71 158.59 163.71 158.032V150.957C163.71 150.689 163.604 150.432 163.414 150.242C163.225 150.053 162.967 149.946 162.699 149.946H158.324L144.924 107.763C144.817 107.427 144.532 107.196 144.198 107.126L152.553 96.9013C152.633 96.8026 152.672 96.6759 152.659 96.5491C152.646 96.4222 152.584 96.3056 152.485 96.2248L150.5 94.6038C150.452 94.5638 150.395 94.5338 150.335 94.5156C150.275 94.4973 150.211 94.4912 150.148 94.4975C150.086 94.5039 150.025 94.5225 149.969 94.5524C149.913 94.5824 149.864 94.623 149.825 94.6719L134.766 113.1L121.02 113.099H116.266L105.9 113.099H92.1898C87.5372 113.1 83.7677 116.87 83.767 121.523V149.946H71.3008C71.0327 149.946 70.7756 150.053 70.5861 150.242C70.3965 150.432 70.29 150.689 70.29 150.957V158.032C70.29 158.165 70.3161 158.296 70.3669 158.419C70.4177 158.542 70.4921 158.653 70.586 158.747C70.6798 158.841 70.7913 158.915 70.9139 158.966C71.0366 159.017 71.168 159.043 71.3008 159.043ZM105.004 116.469H139.912L150.546 149.946H87.1363V121.523C87.1417 118.732 89.3997 116.474 92.1898 116.469H105.004Z" fill="url(#paint5_linear_1054_530)"/>
</g>
<path d="M161.459 63.6758C161.779 63.1945 162.341 62.9378 162.935 62.9859C163.512 63.0501 164.025 63.4191 164.25 63.9646L166.657 69.6279L168.245 65.4085C168.453 64.847 168.983 64.4459 169.576 64.3817C170.186 64.3175 170.764 64.6063 171.101 65.1197L173.283 68.5209L173.555 68.2161C173.704 68.0433 173.889 67.905 174.097 67.8108C174.305 67.7166 174.53 67.6688 174.759 67.6706H179.924V61.7987H154.849V67.5904H158.811L161.459 63.6758Z" fill="url(#paint6_linear_1054_530)"/>
<path d="M179.924 70.8637H175.48L174.277 72.2274C174.114 72.4167 173.908 72.5648 173.677 72.6596C173.445 72.7543 173.195 72.7932 172.945 72.7728C172.696 72.7558 172.454 72.68 172.239 72.5518C172.025 72.4235 171.843 72.2464 171.71 72.0348L170.106 69.5321L168.229 74.5055C168.004 75.1152 167.41 75.5323 166.753 75.5484H166.721C166.079 75.5484 165.501 75.1633 165.245 74.5697L162.437 67.9277L160.961 70.0936C160.656 70.5268 160.159 70.7995 159.629 70.7995H154.816V76.5751H179.892V70.8637H179.924Z" fill="url(#paint7_linear_1054_530)"/>
<path d="M150.035 84.6124H184.753C186.534 84.6124 187.978 83.1685 187.978 81.3877V56.9536C187.978 55.1728 186.534 53.7289 184.753 53.7289H182.283V44.0868C182.283 43.2044 181.561 42.4824 180.678 42.4824C179.796 42.4824 179.074 43.2044 179.074 44.0868V53.7449H155.715V44.0868C155.715 43.2044 154.993 42.4824 154.11 42.4824C153.228 42.4824 152.506 43.2044 152.506 44.0868V53.7449H150.035C148.254 53.7449 146.811 55.1888 146.811 56.9696V81.4037C146.811 83.1685 148.254 84.6124 150.035 84.6124ZM151.64 60.1783C151.64 59.2959 152.362 58.574 153.244 58.574H181.528C182.411 58.574 183.133 59.2959 183.133 60.1783V78.163C183.133 79.0454 182.411 79.7673 181.528 79.7673H153.244C152.362 79.7673 151.64 79.0454 151.64 78.163V60.1783Z" fill="url(#paint8_linear_1054_530)"/>
<defs>
<linearGradient id="paint0_linear_1054_530" x1="0" y1="0" x2="200.541" y2="253.11" gradientUnits="userSpaceOnUse">
<stop offset="0.125652" stop-color="#F5F5F5"/>
<stop offset="0.869819" stop-color="#E5E5E5"/>
</linearGradient>
<linearGradient id="paint1_linear_1054_530" x1="78.9277" y1="164" x2="103.939" y2="124.453" gradientUnits="userSpaceOnUse">
<stop offset="0.323057" stop-color="#F98D1B"/>
<stop offset="1" stop-color="#FFC180"/>
</linearGradient>
<linearGradient id="paint2_linear_1054_530" x1="122.666" y1="86.68" x2="125.093" y2="69.4932" gradientUnits="userSpaceOnUse">
<stop offset="0.323057" stop-color="#F98D1B"/>
<stop offset="1" stop-color="#FFC180"/>
</linearGradient>
<linearGradient id="paint3_linear_1054_530" x1="103.799" y1="112.426" x2="133.103" y2="109.912" gradientUnits="userSpaceOnUse">
<stop offset="0.323057" stop-color="#F98D1B"/>
<stop offset="1" stop-color="#FFC180"/>
</linearGradient>
<linearGradient id="paint4_linear_1054_530" x1="94.7158" y1="148.647" x2="131.351" y2="146.904" gradientUnits="userSpaceOnUse">
<stop offset="0.323057" stop-color="#F98D1B"/>
<stop offset="1" stop-color="#FFC180"/>
</linearGradient>
<linearGradient id="paint5_linear_1054_530" x1="70.29" y1="159.043" x2="175.94" y2="145.444" gradientUnits="userSpaceOnUse">
<stop offset="0.323057" stop-color="#F98D1B"/>
<stop offset="1" stop-color="#FFC180"/>
</linearGradient>
<linearGradient id="paint6_linear_1054_530" x1="154.849" y1="69.6279" x2="181.513" y2="62.0323" gradientUnits="userSpaceOnUse">
<stop offset="0.323057" stop-color="#F98D1B"/>
<stop offset="1" stop-color="#FFC180"/>
</linearGradient>
<linearGradient id="paint7_linear_1054_530" x1="154.816" y1="76.5751" x2="181.877" y2="69.5872" gradientUnits="userSpaceOnUse">
<stop offset="0.323057" stop-color="#F98D1B"/>
<stop offset="1" stop-color="#FFC180"/>
</linearGradient>
<linearGradient id="paint8_linear_1054_530" x1="146.811" y1="84.6124" x2="193.784" y2="80.5302" gradientUnits="userSpaceOnUse">
<stop offset="0.323057" stop-color="#F98D1B"/>
<stop offset="1" stop-color="#FFC180"/>
</linearGradient>
<clipPath id="clip0_1054_530">
<rect width="94" height="94" fill="white" transform="translate(70 70)"/>
</clipPath>
</defs>
</svg>
