<svg width="260" height="206" viewBox="0 0 260 206" fill="none" xmlns="http://www.w3.org/2000/svg">
<rect width="260" height="206" rx="20" fill="url(#paint0_linear_1054_558)"/>
<path d="M132.842 98.8745C120.467 101.58 114.281 95.8172 113.96 95.5092C113.207 94.7501 112.184 94.321 111.115 94.3164C110.046 94.3118 109.019 94.7321 108.26 95.4847C107.501 96.2373 107.072 97.2606 107.067 98.3295C107.063 99.3985 107.483 100.425 108.236 101.185C108.545 101.499 114.745 107.654 126.51 107.654C128.956 107.654 131.642 107.39 134.565 106.749C135.082 106.636 135.572 106.422 136.006 106.12C136.44 105.818 136.811 105.433 137.097 104.987C137.382 104.541 137.577 104.044 137.671 103.523C137.764 103.002 137.754 102.468 137.641 101.951C137.528 101.434 137.314 100.944 137.012 100.509C136.709 100.075 136.324 99.7043 135.879 99.4187C135.433 99.1331 134.936 98.938 134.415 98.8446C133.894 98.7512 133.359 98.7614 132.842 98.8745Z" fill="url(#paint1_linear_1054_558)"/>
<path d="M180.128 125.499L163.148 118.641C162.56 118.405 161.933 118.283 161.299 118.283H156.972V117.343C156.972 116.861 156.848 116.414 156.64 116.014L172.648 120.382C173.861 120.673 175.14 120.48 176.215 119.845C177.289 119.209 178.073 118.18 178.402 116.976C178.73 115.772 178.577 114.487 177.975 113.394C177.373 112.301 176.369 111.485 175.176 111.12L154.089 105.363C153.669 105.248 153.236 105.191 152.8 105.194L138.425 105.265C138.086 106.073 137.557 106.787 136.884 107.348C136.211 107.91 135.413 108.301 134.557 108.489C132.199 109.007 129.793 109.269 127.379 109.272C115.71 109.272 107.76 103.033 107.428 102.767C106.864 102.32 106.395 101.766 106.047 101.136C105.699 100.507 105.479 99.8143 105.401 99.0993C105.318 98.3839 105.377 97.6592 105.576 96.9671C105.776 96.275 106.11 95.6294 106.561 95.0678C107.073 94.4222 107.725 93.9012 108.467 93.5437C109.209 93.1863 110.023 93.0018 110.847 93.0041C112.072 93.0041 113.278 93.4228 114.242 94.1837C114.404 94.3092 117.524 96.6922 122.485 97.7783L113.632 92.0698C113.394 91.9169 113.046 91.5131 113.046 91.5131C112.11 90.71 110.519 88.6954 109.242 87.0766C108.77 86.4789 108.336 85.929 107.975 85.4898C106.699 84.0102 106.258 81.7982 106.905 80.1099C107.254 79.1973 107.891 78.5139 108.777 78.0782H117.659V73.2082H115.146V52.0205H82.4611V73.2105H80.1772V75.4977C78.2413 75.6666 76.6956 76.5484 76.2803 77.8603C76.0704 78.5196 75.8936 80.2228 78.757 81.8062C79.7038 82.3025 80.8925 82.4998 82.0424 82.6903C83.4376 82.923 84.8807 83.1626 85.7659 83.9064C86.4469 84.5361 86.8188 85.4008 87.177 86.2359C87.2455 86.3956 87.3151 86.545 87.3847 86.699C87.0527 88.4695 87.2554 90.2988 87.9671 91.9537C88.6789 93.6085 89.8672 95.0139 91.3808 95.9907C93.4016 97.2934 95.8571 97.74 98.2072 97.2323C100.557 96.7247 102.609 95.3043 103.912 93.2836C105.161 91.2635 105.568 88.834 105.044 86.5173C104.521 84.2006 103.11 82.1817 101.114 80.8945C99.1181 79.6072 96.6968 79.1544 94.3706 79.6333C92.0443 80.1123 89.9988 81.4848 88.6737 83.4558C88.3587 83.9461 88.0917 84.4657 87.8763 85.0072C87.5546 84.3285 87.1531 83.6349 86.5211 83.0508C85.378 82.088 83.7787 81.8222 82.2306 81.5644C81.1195 81.3796 80.0723 81.2062 79.3 80.8012C77.8101 79.9776 77.1074 79.0307 77.3698 78.2048C77.6059 77.4599 78.6623 76.7891 80.1795 76.6351V78.0804H106.871C106.421 78.5469 106.07 79.0994 105.839 79.7049C105.051 81.7674 105.574 84.4528 107.103 86.2267C107.453 86.6511 107.881 87.1953 108.348 87.785C109.216 88.8859 110.223 90.1579 111.101 91.1492C108.62 90.8309 106.065 92.0014 104.385 93.5905C104.385 93.5905 103.627 94.2373 103.095 95.1031C102.587 95.9313 102.19 96.9637 102.19 96.9637L102.177 96.9877C101.152 99.956 101.481 104.032 104.614 106.053L121.433 116.9C121.633 117.029 121.837 117.145 122.04 117.248C122.04 117.279 122.031 117.311 122.031 117.341V118.281H117.247L94.8727 102.755C94.9834 102.635 95.0895 102.504 95.1807 102.36C95.5751 101.729 95.7029 100.967 95.5361 100.242C95.3692 99.5174 94.9214 98.8884 94.2909 98.4935L86.674 93.7228C86.061 93.3396 85.3235 93.2084 84.616 93.3569C83.9085 93.5053 83.2859 93.9218 82.8786 94.5191C80.7248 93.4661 78.0713 94.0947 76.6625 96.1241C76.2927 96.657 76.0315 97.2575 75.8938 97.8913C75.7561 98.5251 75.7446 99.1798 75.86 99.818C75.9754 100.456 76.2153 101.066 76.5662 101.611C76.917 102.157 77.3719 102.628 77.9048 102.997L112.887 127.279C113.713 127.853 114.696 128.16 115.702 128.159H122.224C122.431 128.722 122.805 129.207 123.296 129.551C123.786 129.894 124.371 130.079 124.97 130.081H131.175V153.263H128.153C127.525 153.263 126.922 153.513 126.478 153.957C126.034 154.401 125.785 155.003 125.785 155.631C125.785 156.259 126.034 156.861 126.478 157.305C126.922 157.749 127.525 157.999 128.153 157.999H150.885C151.504 157.985 152.093 157.73 152.526 157.287C152.959 156.845 153.201 156.25 153.201 155.631C153.201 155.012 152.959 154.418 152.526 153.975C152.093 153.532 151.504 153.277 150.885 153.263H147.828V130.081H154.032C154.632 130.079 155.216 129.894 155.707 129.551C156.198 129.207 156.572 128.722 156.779 128.159H160.337L176.428 134.658C177.643 135.149 179.002 135.136 180.207 134.624C181.413 134.113 182.366 133.143 182.856 131.929C183.1 131.327 183.222 130.684 183.216 130.035C183.211 129.387 183.078 128.746 182.824 128.148C182.571 127.551 182.202 127.01 181.74 126.556C181.277 126.101 180.729 125.742 180.128 125.499ZM85.1955 54.7538H112.409V72.2978H85.1955V54.7538Z" fill="url(#paint2_linear_1054_558)"/>
<path d="M112.462 86.3329C112.462 87.3514 112.867 88.3282 113.587 89.0485C114.307 89.7688 115.284 90.1736 116.302 90.1739C125.281 90.1739 130.257 87.7725 133.502 84.9297V91.1538C133.212 92.4041 132.68 94.7267 132.053 97.5125C132.294 97.4646 132.531 97.4258 132.772 97.3733C133.158 97.2885 133.553 97.2456 133.949 97.2456C135.202 97.252 136.415 97.6832 137.391 98.4688C138.367 99.2544 139.047 100.348 139.321 101.57C139.476 102.281 139.488 103.015 139.356 103.73L153.034 103.661C153.635 103.661 154.162 103.732 154.717 103.88L156.72 104.428C155.803 99.9961 154.813 95.5795 153.752 91.1801V83.7821C155.221 86.8405 156.138 91.2223 156.045 97.9392C156.03 98.9574 156.421 99.9396 157.131 100.67C157.841 101.4 158.811 101.818 159.83 101.833H159.886C160.894 101.833 161.863 101.435 162.581 100.727C163.299 100.018 163.709 99.0552 163.722 98.0464C163.979 79.7894 157.255 72.2226 146.04 67.9709C146.031 67.9686 146.022 67.9686 146.016 67.9664L143.625 70.4749L141.161 67.9937C139.791 68.3303 137.209 69.8087 137.177 69.827C134.566 71.4286 132.939 73.6258 131.509 75.5651C128.761 79.2829 126.387 82.4919 116.301 82.4919C115.283 82.4928 114.307 82.8978 113.587 83.618C112.867 84.3382 112.463 85.3147 112.462 86.3329ZM143.773 67.2169C146.232 67.2166 148.59 66.2397 150.329 64.5011C152.067 62.7625 153.044 60.4045 153.044 57.9458C153.044 55.8045 152.303 53.8481 151.078 52.2818H148.08V50.8752H149.726C149.15 50.385 148.517 49.9666 147.84 49.6295C147.487 48.8471 146.915 48.1831 146.195 47.7168C145.474 47.2505 144.634 47.0017 143.776 47C142.918 47.0023 142.079 47.251 141.358 47.7166C140.638 48.1822 140.066 48.845 139.712 49.6261C139.032 49.9634 138.397 50.3829 137.819 50.8752H139.702V52.2818H136.469C135.199 53.8971 134.507 55.8912 134.503 57.9458C134.504 60.4043 135.48 62.7621 137.219 64.5007C138.957 66.2393 141.315 67.2163 143.773 67.2169ZM143.776 48.9553C144.444 48.9553 145.084 49.2207 145.557 49.693C146.029 50.1654 146.294 50.8061 146.294 51.4741C146.294 52.1422 146.029 52.7828 145.557 53.2552C145.084 53.7276 144.444 53.993 143.776 53.993C142.387 53.993 141.258 52.8636 141.258 51.4741C141.258 50.0847 142.387 48.9553 143.776 48.9553ZM101.279 57.964C100.348 57.964 99.5099 58.3564 98.9167 58.9827C98.6131 58.6609 98.2469 58.4045 97.8406 58.2294C97.4343 58.0542 96.9966 57.9639 96.5541 57.964C96.126 57.964 95.7021 58.0484 95.3066 58.2122C94.9111 58.3761 94.5518 58.6163 94.2491 58.919C93.9465 59.2218 93.7064 59.5812 93.5427 59.9768C93.379 60.3723 93.2948 60.7963 93.2949 61.2244C93.2949 65.7453 98.9178 68.612 98.9178 68.612C98.9178 68.612 104.541 65.7464 104.541 61.2244C104.54 60.3597 104.196 59.5305 103.585 58.9192C102.973 58.3079 102.144 57.9643 101.279 57.964Z" fill="url(#paint3_linear_1054_558)"/>
<defs>
<linearGradient id="paint0_linear_1054_558" x1="0" y1="0" x2="200.541" y2="253.11" gradientUnits="userSpaceOnUse">
<stop offset="0.125652" stop-color="#F5F5F5"/>
<stop offset="0.869819" stop-color="#E5E5E5"/>
</linearGradient>
<linearGradient id="paint1_linear_1054_558" x1="107.067" y1="107.654" x2="140.908" y2="100.734" gradientUnits="userSpaceOnUse">
<stop offset="0.323057" stop-color="#F98D1B"/>
<stop offset="1" stop-color="#FFC180"/>
</linearGradient>
<linearGradient id="paint2_linear_1054_558" x1="75.7812" y1="157.999" x2="198.298" y2="146.953" gradientUnits="userSpaceOnUse">
<stop offset="0.323057" stop-color="#F98D1B"/>
<stop offset="1" stop-color="#FFC180"/>
</linearGradient>
<linearGradient id="paint3_linear_1054_558" x1="93.2949" y1="104.428" x2="173.318" y2="95.6991" gradientUnits="userSpaceOnUse">
<stop offset="0.323057" stop-color="#F98D1B"/>
<stop offset="1" stop-color="#FFC180"/>
</linearGradient>
</defs>
</svg>
