<svg width="51" height="51" viewBox="0 0 51 51" fill="none" xmlns="http://www.w3.org/2000/svg">
<path fill-rule="evenodd" clip-rule="evenodd" d="M5.77402 45.1489C5.77393 45.5215 5.87889 45.8865 6.07686 46.2021C6.27483 46.5178 6.55779 46.7711 6.89325 46.9332C7.22871 47.0953 7.60307 47.1595 7.97336 47.1184C8.34365 47.0774 8.69486 46.9328 8.98668 46.7011C9.27849 46.4695 9.49907 46.1603 9.62311 45.809C9.74715 45.4577 9.76961 45.0785 9.68792 44.715C9.60622 44.3516 9.42368 44.0185 9.16126 43.754C8.89883 43.4896 8.56715 43.3045 8.20429 43.22V31.7308H14.7961C14.6278 31.4391 14.4721 31.1396 14.3289 30.8323H7.75508C7.63594 30.8323 7.52168 30.8797 7.43743 30.9639C7.35319 31.0482 7.30586 31.1624 7.30586 31.2816V43.2155C6.87072 43.3171 6.48283 43.563 6.20546 43.9134C5.92808 44.2637 5.77759 44.6976 5.77851 45.1445L5.77402 45.1489ZM25.563 14.0549C27.8391 14.0549 30.0641 14.7299 31.9566 15.9944C33.8491 17.2589 35.3241 19.0562 36.1951 21.1591C37.0661 23.2619 37.294 25.5758 36.85 27.8081C36.4059 30.0405 35.3099 32.091 33.7004 33.7004C32.091 35.3099 30.0405 36.4059 27.8081 36.85C25.5758 37.294 23.2619 37.0661 21.1591 36.1951C19.0562 35.3241 17.2589 33.8491 15.9944 31.9566C14.7299 30.0641 14.0549 27.8391 14.0549 25.563C14.0549 22.5109 15.2674 19.5837 17.4256 17.4256C19.5837 15.2674 22.5109 14.0549 25.563 14.0549ZM23.086 28.04V31.5241C23.0863 31.6949 23.1542 31.8586 23.275 31.9794C23.3957 32.1001 23.5594 32.1681 23.7302 32.1683H27.3958C27.5666 32.1681 27.7303 32.1001 27.8511 31.9794C27.9718 31.8586 28.0398 31.6949 28.04 31.5241V28.04H31.5241C31.6949 28.0398 31.8586 27.9718 31.9794 27.8511C32.1001 27.7303 32.1681 27.5666 32.1683 27.3958V23.7302C32.1681 23.5594 32.1001 23.3957 31.9794 23.275C31.8586 23.1542 31.6949 23.0863 31.5241 23.086H28.04V19.6019C28.0398 19.4311 27.9718 19.2674 27.8511 19.1466C27.7303 19.0259 27.5666 18.9579 27.3958 18.9577H23.7302C23.5594 18.9579 23.3957 19.0259 23.275 19.1466C23.1542 19.2674 23.0863 19.4311 23.086 19.6019V23.086H19.6019C19.4311 23.0863 19.2674 23.1542 19.1466 23.275C19.0259 23.3957 18.9579 23.5594 18.9577 23.7302V27.3958C18.9579 27.5666 19.0259 27.7303 19.1466 27.8511C19.2674 27.9718 19.4311 28.0398 19.6019 28.04H23.086ZM23.5864 45.1489C23.587 45.5215 23.6926 45.8864 23.8912 46.2017C24.0898 46.517 24.3732 46.7699 24.709 46.9314C25.0448 47.0928 25.4194 47.1563 25.7896 47.1146C26.1599 47.0728 26.5109 46.9274 26.8022 46.6952C27.0936 46.4629 27.3136 46.1532 27.4369 45.8016C27.5602 45.45 27.5819 45.0707 27.4994 44.7074C27.4169 44.344 27.2336 44.0113 26.9705 43.7474C26.7075 43.4835 26.3753 43.2992 26.0122 43.2155V37.9614C25.8631 37.9668 25.713 37.9704 25.563 37.9704C25.413 37.9704 25.2629 37.9704 25.1138 37.9614V43.2164C24.6781 43.3181 24.2897 43.5646 24.0123 43.9157C23.7348 44.2667 23.5847 44.7015 23.5864 45.1489ZM14.3325 20.2937C14.4763 19.9876 14.632 19.6881 14.7997 19.3952H10.9589V16.2193C11.4313 16.109 11.8466 15.8289 12.1259 15.4323C12.4051 15.0357 12.5288 14.5502 12.4733 14.0683C12.4178 13.5864 12.187 13.1418 11.825 12.819C11.4629 12.4962 10.9948 12.3179 10.5097 12.3179C10.0246 12.3179 9.55649 12.4962 9.19441 12.819C8.83233 13.1418 8.60158 13.5864 8.5461 14.0683C8.49061 14.5502 8.61426 15.0357 8.89351 15.4323C9.17275 15.8289 9.58809 16.109 10.0605 16.2193V19.8462C10.0605 19.9654 10.1078 20.0796 10.192 20.1639C10.2763 20.2481 10.3905 20.2955 10.5097 20.2955L14.3325 20.2937ZM19.3988 14.7961C19.6911 14.6278 19.9906 14.4721 20.2973 14.3289V7.75508C20.2973 7.63594 20.2499 7.52168 20.1657 7.43743C20.0814 7.35319 19.9672 7.30586 19.848 7.30586H7.91051C7.80024 6.83226 7.51965 6.41577 7.12216 6.13568C6.72467 5.85559 6.23805 5.73147 5.75497 5.78696C5.27189 5.84246 4.82609 6.07369 4.50246 6.43661C4.17884 6.79954 4 7.26882 4 7.75508C4 8.24134 4.17884 8.71061 4.50246 9.07354C4.82609 9.43647 5.27189 9.66769 5.75497 9.72319C6.23805 9.77868 6.72467 9.65457 7.12216 9.37448C7.51965 9.09439 7.80024 8.67789 7.91051 8.20429H19.3952V14.7961H19.3988ZM25.1138 13.1646V7.91051C24.6402 7.80024 24.2237 7.51965 23.9436 7.12216C23.6635 6.72467 23.5394 6.23805 23.5949 5.75497C23.6504 5.27189 23.8816 4.82609 24.2445 4.50246C24.6075 4.17884 25.0767 4 25.563 4C26.0493 4 26.5185 4.17884 26.8815 4.50246C27.2444 4.82609 27.4756 5.27189 27.5311 5.75497C27.5866 6.23805 27.4625 6.72467 27.1824 7.12216C26.9023 7.51965 26.4858 7.80024 26.0122 7.91051V13.1646C25.8631 13.1592 25.713 13.1556 25.563 13.1556C25.413 13.1556 25.2629 13.1556 25.1138 13.1646ZM30.8323 14.3325C31.139 14.4763 31.4385 14.632 31.7308 14.7997V10.9589H34.9068C35.017 11.4313 35.2971 11.8466 35.6937 12.1259C36.0903 12.4051 36.5758 12.5288 37.0577 12.4733C37.5396 12.4178 37.9842 12.187 38.307 11.825C38.6298 11.4629 38.8082 10.9948 38.8082 10.5097C38.8082 10.0246 38.6298 9.55649 38.307 9.19441C37.9842 8.83233 37.5396 8.60158 37.0577 8.5461C36.5758 8.49061 36.0903 8.61426 35.6937 8.89351C35.2971 9.17275 35.017 9.58809 34.9068 10.0605H31.2816C31.1624 10.0605 31.0482 10.1078 30.9639 10.192C30.8797 10.2763 30.8323 10.3905 30.8323 10.5097V14.3325ZM36.3299 19.3988C36.4982 19.6911 36.6539 19.9906 36.7971 20.2973H43.3709C43.4901 20.2973 43.6043 20.2499 43.6886 20.1657C43.7728 20.0814 43.8202 19.9672 43.8202 19.848V7.91051C44.2937 7.80024 44.7102 7.51965 44.9903 7.12216C45.2704 6.72467 45.3945 6.23805 45.339 5.75497C45.2836 5.27189 45.0523 4.82609 44.6894 4.50246C44.3265 4.17884 43.8572 4 43.3709 4C42.8847 4 42.4154 4.17884 42.0525 4.50246C41.6895 4.82609 41.4583 5.27189 41.4028 5.75497C41.3473 6.23805 41.4714 6.72467 41.7515 7.12216C42.0316 7.51965 42.4481 7.80024 42.9217 7.91051V19.3952L36.3299 19.3988ZM37.9614 25.1138H43.2164C43.3267 24.6402 43.6073 24.2237 44.0047 23.9436C44.4022 23.6635 44.8889 23.5394 45.3719 23.5949C45.855 23.6504 46.3008 23.8816 46.6244 24.2445C46.9481 24.6075 47.1269 25.0767 47.1269 25.563C47.1269 26.0493 46.9481 26.5185 46.6244 26.8815C46.3008 27.2444 45.855 27.4756 45.3719 27.5311C44.8889 27.5866 44.4022 27.4625 44.0047 27.1824C43.6073 26.9023 43.3267 26.4858 43.2164 26.0122H37.9614C37.9668 25.8631 37.9704 25.713 37.9704 25.563C37.9704 25.413 37.9704 25.2629 37.9614 25.1138ZM36.7935 30.8323C36.6497 31.139 36.494 31.4385 36.3263 31.7308H40.1635V34.9068C39.6911 35.017 39.2758 35.2971 38.9966 35.6937C38.7173 36.0903 38.5937 36.5758 38.6491 37.0577C38.7046 37.5396 38.9354 37.9842 39.2975 38.307C39.6595 38.6298 40.1277 38.8082 40.6127 38.8082C41.0978 38.8082 41.5659 38.6298 41.928 38.307C42.2901 37.9842 42.5208 37.5396 42.5763 37.0577C42.6318 36.5758 42.5082 36.0903 42.2289 35.6937C41.9497 35.2971 41.5343 35.017 41.062 34.9068V31.2816C41.062 31.1624 41.0146 31.0482 40.9304 30.9639C40.8461 30.8797 40.7319 30.8323 40.6127 30.8323H36.7935ZM31.7272 36.3299C31.4355 36.4982 31.136 36.6539 30.8287 36.7971V43.3709C30.8287 43.4901 30.8761 43.6043 30.9603 43.6886C31.0446 43.7728 31.1588 43.8202 31.278 43.8202H43.2155C43.3258 44.2937 43.6064 44.7102 44.0039 44.9903C44.4013 45.2704 44.888 45.3945 45.371 45.339C45.8541 45.2836 46.2999 45.0523 46.6235 44.6894C46.9472 44.3265 47.126 43.8572 47.126 43.3709C47.126 42.8847 46.9472 42.4154 46.6235 42.0525C46.2999 41.6895 45.8541 41.4583 45.371 41.4028C44.888 41.3473 44.4013 41.4714 44.0039 41.7515C43.6064 42.0316 43.3258 42.4481 43.2155 42.9217H31.7308V36.3299H31.7272ZM20.2937 36.7935V40.6127C20.2937 40.7319 20.2463 40.8461 20.1621 40.9304C20.0779 41.0146 19.9636 41.062 19.8445 41.062H16.2193C16.109 41.5355 15.8284 41.952 15.4309 42.2321C15.0334 42.5122 14.5468 42.6363 14.0637 42.5808C13.5806 42.5253 13.1348 42.2941 12.8112 41.9312C12.4876 41.5683 12.3087 41.099 12.3087 40.6127C12.3087 40.1265 12.4876 39.6572 12.8112 39.2943C13.1348 38.9313 13.5806 38.7001 14.0637 38.6446C14.5468 38.5891 15.0334 38.7132 15.4309 38.9933C15.8284 39.2734 16.109 39.6899 16.2193 40.1635H19.397V36.3299C19.6893 36.4982 19.9888 36.6539 20.2955 36.7971L20.2937 36.7935ZM13.1646 26.0122H7.91051C7.80024 26.4858 7.51965 26.9023 7.12216 27.1824C6.72467 27.4625 6.23805 27.5866 5.75497 27.5311C5.27189 27.4756 4.82609 27.2444 4.50246 26.8815C4.17884 26.5185 4 26.0493 4 25.563C4 25.0767 4.17884 24.6075 4.50246 24.2445C4.82609 23.8816 5.27189 23.6504 5.75497 23.5949C6.23805 23.5394 6.72467 23.6635 7.12216 23.9436C7.51965 24.2237 7.80024 24.6402 7.91051 25.1138H13.1646C13.1592 25.2629 13.1556 25.413 13.1556 25.563C13.1556 25.713 13.1646 25.8631 13.1646 26.0122Z" fill="white"/>
</svg>
