<svg width="51" height="51" viewBox="0 0 51 51" fill="none" xmlns="http://www.w3.org/2000/svg">
<path fill-rule="evenodd" clip-rule="evenodd" d="M45.824 18.9375V41.9375C45.824 43.0812 45.3696 44.1782 44.5609 44.9869C43.7521 45.7957 42.6552 46.25 41.5115 46.25H18.5029C17.9364 46.2502 17.3755 46.1388 16.8521 45.9221C16.3287 45.7055 15.8532 45.3879 15.4525 44.9874C15.0519 44.5869 14.7342 44.1115 14.5173 43.5882C14.3005 43.0648 14.1889 42.5039 14.1889 41.9375V31.6853C14.889 31.8103 15.6106 31.875 16.3452 31.875C23.0914 31.875 28.5682 26.3996 28.5682 19.6563C28.5682 12.9129 23.0914 7.4375 16.3466 7.4375C15.9757 7.4375 15.6077 7.45475 15.2455 7.48638C15.6504 7.01912 16.1511 6.64452 16.7137 6.38804C17.2763 6.13156 17.8875 5.99922 18.5057 6H32.8851V14.625C32.8851 15.7687 33.3394 16.8657 34.1482 17.6744C34.9569 18.4832 36.0538 18.9375 37.1976 18.9375H45.824ZM22.8182 39.0625V37.625C22.8182 37.2438 22.6668 36.8781 22.3972 36.6085C22.1276 36.339 21.762 36.1875 21.3807 36.1875C20.9995 36.1875 20.6339 36.339 20.3643 36.6085C20.0947 36.8781 19.9432 37.2438 19.9432 37.625V39.0625C19.9432 39.4438 20.0947 39.8094 20.3643 40.079C20.6339 40.3486 20.9995 40.5 21.3807 40.5C21.762 40.5 22.1276 40.3486 22.3972 40.079C22.6668 39.8094 22.8182 39.4438 22.8182 39.0625ZM28.5711 39.0625V33.3125C28.5711 32.9313 28.4197 32.5656 28.1501 32.296C27.8805 32.0265 27.5149 31.875 27.1336 31.875C26.7524 31.875 26.3867 32.0265 26.1172 32.296C25.8476 32.5656 25.6961 32.9313 25.6961 33.3125V39.0625C25.6961 39.4438 25.8476 39.8094 26.1172 40.079C26.3867 40.3486 26.7524 40.5 27.1336 40.5C27.5149 40.5 27.8805 40.3486 28.1501 40.079C28.4197 39.8094 28.5711 39.4438 28.5711 39.0625ZM34.3211 39.0625V34.75C34.3211 34.3688 34.1697 34.0031 33.9001 33.7335C33.6305 33.464 33.2649 33.3125 32.8836 33.3125C32.5024 33.3125 32.1367 33.464 31.8672 33.7335C31.5976 34.0031 31.4461 34.3688 31.4461 34.75V39.0625C31.4461 39.4438 31.5976 39.8094 31.8672 40.079C32.1367 40.3486 32.5024 40.5 32.8836 40.5C33.2649 40.5 33.6305 40.3486 33.9001 40.079C34.1697 39.8094 34.3211 39.4438 34.3211 39.0625ZM40.074 39.0625V29C40.074 28.6188 39.9225 28.2531 39.653 27.9835C39.3834 27.714 39.0177 27.5625 38.6365 27.5625C38.2552 27.5625 37.8896 27.714 37.62 27.9835C37.3504 28.2531 37.199 28.6188 37.199 29V39.0625C37.199 39.4438 37.3504 39.8094 37.62 40.079C37.8896 40.3486 38.2552 40.5 38.6365 40.5C39.0177 40.5 39.3834 40.3486 39.653 40.079C39.9225 39.8094 40.074 39.4438 40.074 39.0625ZM35.7615 6.02732C36.8003 6.14613 37.7606 6.63804 38.464 7.41163L44.7042 14.2728C45.1699 14.7874 45.5034 15.4013 45.6802 16.0625H37.199C37.0101 16.0631 36.8229 16.0263 36.6482 15.9542C36.4736 15.8822 36.3149 15.7763 36.1813 15.6427C36.0477 15.5091 35.9418 15.3504 35.8698 15.1758C35.7977 15.0011 35.7609 14.8139 35.7615 14.625V6.02732ZM25.5811 21.0938C25.2365 23.2958 24.1168 25.3024 22.4237 26.7519C20.7306 28.2015 18.5755 28.9987 16.3466 29C13.8686 28.9989 11.4923 28.0142 9.73984 26.2622C7.98734 24.5102 7.0019 22.1343 7 19.6563C7.00174 17.4272 7.79954 15.2721 9.24965 13.5793C10.6998 11.8864 12.7068 10.7672 14.9091 10.4232V18.2188C14.9091 18.9813 15.212 19.7125 15.7512 20.2517C16.2904 20.7909 17.0216 21.0938 17.7841 21.0938H25.5811ZM17.7841 10.4232C19.742 10.7293 21.5522 11.6492 22.9537 13.0502C24.3552 14.4512 25.2757 16.261 25.5826 18.2188H17.7841V10.4232Z" fill="white"/>
</svg>
