<svg width="51" height="51" viewBox="0 0 51 51" fill="none" xmlns="http://www.w3.org/2000/svg">
<path d="M30.8211 11C27.9427 11 25.1288 11.8536 22.7355 13.4528C20.3421 15.0519 18.4767 17.3249 17.3752 19.9843C16.2736 22.6436 15.9854 25.5699 16.547 28.3931C17.1085 31.2162 18.4947 33.8095 20.53 35.8449C22.5654 37.8802 25.1587 39.2664 27.9818 39.8279C30.805 40.3895 33.7313 40.1013 36.3906 38.9997C39.05 37.8982 41.323 36.0328 42.9221 33.6394C44.5213 31.2461 45.3749 28.4322 45.3749 25.5538C45.3699 21.6954 43.835 17.9965 41.1067 15.2682C38.3784 12.5399 34.6795 11.005 30.8211 11ZM35.5722 30.3049C35.3081 30.5686 34.9502 30.7168 34.5769 30.7168C34.2037 30.7168 33.8457 30.5686 33.5816 30.3049L29.8258 26.5491C29.5616 26.2852 29.413 25.9272 29.4127 25.5538V18.0422C29.4127 17.6686 29.5611 17.3104 29.8252 17.0462C30.0893 16.7821 30.4476 16.6337 30.8211 16.6337C31.1947 16.6337 31.5529 16.7821 31.817 17.0462C32.0812 17.3104 32.2296 17.6686 32.2296 18.0422V24.9716L35.5722 28.3143C35.836 28.5784 35.9841 28.9364 35.9841 29.3096C35.9841 29.6828 35.836 30.0408 35.5722 30.3049Z" fill="white"/>
<path d="M17.6759 15.6948H12.0422C11.6686 15.6948 11.3104 15.5464 11.0462 15.2823C10.7821 15.0181 10.6337 14.6599 10.6337 14.2864C10.6337 13.9128 10.7821 13.5546 11.0462 13.2904C11.3104 13.0263 11.6686 12.8779 12.0422 12.8779H17.6759C18.0494 12.8779 18.4076 13.0263 18.6718 13.2904C18.9359 13.5546 19.0843 13.9128 19.0843 14.2864C19.0843 14.6599 18.9359 15.0181 18.6718 15.2823C18.4076 15.5464 18.0494 15.6948 17.6759 15.6948ZM13.9201 21.3285H8.28634C7.9128 21.3285 7.55456 21.1801 7.29043 20.916C7.02629 20.6519 6.87791 20.2936 6.87791 19.9201C6.87791 19.5465 7.02629 19.1883 7.29043 18.9242C7.55456 18.66 7.9128 18.5117 8.28634 18.5117H13.9201C14.2936 18.5117 14.6518 18.66 14.916 18.9242C15.1801 19.1883 15.3285 19.5465 15.3285 19.9201C15.3285 20.2936 15.1801 20.6519 14.916 20.916C14.6518 21.1801 14.2936 21.3285 13.9201 21.3285ZM13.9201 32.596H8.28634C7.9128 32.596 7.55456 32.4476 7.29043 32.1834C7.02629 31.9193 6.87791 31.5611 6.87791 31.1875C6.87791 30.814 7.02629 30.4557 7.29043 30.1916C7.55456 29.9275 7.9128 29.7791 8.28634 29.7791H13.9201C14.2936 29.7791 14.6518 29.9275 14.916 30.1916C15.1801 30.4557 15.3285 30.814 15.3285 31.1875C15.3285 31.5611 15.1801 31.9193 14.916 32.1834C14.6518 32.4476 14.2936 32.596 13.9201 32.596ZM13.9201 26.9622H6.40843C6.03489 26.9622 5.67665 26.8138 5.41252 26.5497C5.14839 26.2856 5 25.9273 5 25.5538C5 25.1803 5.14839 24.822 5.41252 24.5579C5.67665 24.2938 6.03489 24.1454 6.40843 24.1454H13.9201C14.2936 24.1454 14.6518 24.2938 14.916 24.5579C15.1801 24.822 15.3285 25.1803 15.3285 25.5538C15.3285 25.9273 15.1801 26.2856 14.916 26.5497C14.6518 26.8138 14.2936 26.9622 13.9201 26.9622ZM17.6759 38.2297H12.0422C11.6686 38.2297 11.3104 38.0813 11.0462 37.8172C10.7821 37.553 10.6337 37.1948 10.6337 36.8212C10.6337 36.4477 10.7821 36.0895 11.0462 35.8253C11.3104 35.5612 11.6686 35.4128 12.0422 35.4128H17.6759C18.0494 35.4128 18.4076 35.5612 18.6718 35.8253C18.9359 36.0895 19.0843 36.4477 19.0843 36.8212C19.0843 37.1948 18.9359 37.553 18.6718 37.8172C18.4076 38.0813 18.0494 38.2297 17.6759 38.2297Z" fill="white"/>
</svg>
