<svg width="51" height="51" viewBox="0 0 51 51" fill="none" xmlns="http://www.w3.org/2000/svg">
<path fill-rule="evenodd" clip-rule="evenodd" d="M7.3258 28.9845C8.8037 26.5034 11.5123 24.8412 14.6089 24.8412C14.8654 24.8412 15.1191 24.8526 15.3697 24.8749C14.3151 26.0873 13.4869 27.4793 12.9243 28.9845H7.3258ZM14.6485 28.9845C16.4644 24.7895 20.6396 21.8542 25.5 21.8542C30.3629 21.8542 34.5387 24.7895 36.353 28.9845H14.6485ZM38.0771 28.9845C37.515 27.4792 36.687 26.0871 35.6325 24.8747C35.8848 24.8524 36.1379 24.8412 36.3911 24.8412C39.4893 24.8412 42.1984 26.5034 43.6756 28.9845H38.0771ZM36.3911 23.8412C34.0321 23.8412 32.1093 21.9161 32.1093 19.5572C32.1093 17.1982 34.0321 15.2731 36.3911 15.2731C38.7523 15.2731 40.6751 17.1982 40.6751 19.5572C40.6751 21.9161 38.7523 23.8412 36.3911 23.8412ZM14.6089 23.8412C12.25 23.8412 10.3271 21.9161 10.3271 19.5572C10.3271 17.1982 12.25 15.2731 14.6089 15.2731C16.9701 15.2731 18.893 17.1982 18.893 19.5572C18.893 21.9161 16.9701 23.8412 14.6089 23.8412ZM25.5 20.8542C22.2091 20.8542 19.5265 18.1685 19.5265 14.8775C19.5265 11.5866 22.2091 8.90088 25.5 8.90088C28.7941 8.90088 31.4766 11.5866 31.4766 14.8775C31.4766 18.1685 28.7941 20.8542 25.5 20.8542ZM49.5 32.2772V40.4064C49.5 41.3412 48.7421 42.0991 47.8073 42.0991H3.1927C2.2579 42.0991 1.5 41.3412 1.5 40.4064V32.2772C1.5 31.3423 2.2579 30.5845 3.1927 30.5845H47.8073C48.7421 30.5845 49.5 31.3423 49.5 32.2772ZM41.8392 32.8001L41.2393 34.6465C41.2047 34.7531 41.1371 34.8461 41.0464 34.912C40.9557 34.9779 40.8464 35.0135 40.7343 35.0135H38.7929C38.6808 35.0134 38.5715 35.0489 38.4808 35.1148C38.39 35.1807 38.3225 35.2737 38.2879 35.3804C38.2532 35.487 38.2532 35.6019 38.2879 35.7085C38.3225 35.8152 38.3901 35.9081 38.4808 35.974L40.0514 37.1152C40.1421 37.1811 40.2097 37.274 40.2443 37.3807C40.279 37.4873 40.279 37.6022 40.2443 37.7089L39.6444 39.5553C39.6097 39.6619 39.6097 39.7768 39.6443 39.8835C39.679 39.9902 39.7465 40.0831 39.8372 40.149C39.928 40.2149 40.0372 40.2504 40.1494 40.2504C40.2615 40.2504 40.3708 40.2148 40.4615 40.1489L42.0321 39.0078C42.1228 38.9419 42.2321 38.9064 42.3443 38.9064C42.4564 38.9064 42.5657 38.9419 42.6564 39.0078L44.227 40.1489C44.3177 40.2149 44.427 40.2505 44.5392 40.2506C44.6513 40.2506 44.7607 40.2151 44.8514 40.1492C44.9422 40.0833 45.0097 39.9903 45.0443 39.8836C45.0789 39.7769 45.0789 39.6619 45.0441 39.5553L44.4442 37.7089C44.4095 37.6022 44.4095 37.4873 44.4442 37.3807C44.4789 37.274 44.5464 37.1811 44.6371 37.1152L46.2078 35.974C46.2985 35.9081 46.366 35.8151 46.4006 35.7085C46.4352 35.6018 46.4352 35.487 46.4006 35.3803C46.3659 35.2737 46.2984 35.1808 46.2077 35.1149C46.117 35.049 46.0077 35.0135 45.8956 35.0135H43.9542C43.8421 35.0135 43.7328 34.9779 43.6421 34.912C43.5514 34.8461 43.4839 34.7531 43.4492 34.6465L42.8493 32.8001C42.8147 32.6934 42.7472 32.6004 42.6564 32.5345C42.5657 32.4686 42.4564 32.433 42.3443 32.433C42.2321 32.433 42.1228 32.4686 42.0321 32.5345C41.9414 32.6004 41.8738 32.6934 41.8392 32.8001ZM30.6097 32.8001L30.0098 34.6465C29.9752 34.7531 29.9076 34.8461 29.8169 34.912C29.7262 34.9779 29.6169 35.0135 29.5048 35.0135H27.5634C27.4513 35.0134 27.342 35.0489 27.2513 35.1148C27.1605 35.1807 27.093 35.2737 27.0584 35.3804C27.0237 35.487 27.0237 35.6019 27.0584 35.7085C27.093 35.8152 27.1606 35.9081 27.2513 35.974L28.8219 37.1152C28.9126 37.1811 28.9802 37.274 29.0148 37.3807C29.0495 37.4873 29.0495 37.6022 29.0148 37.7089L28.4149 39.5553C28.3802 39.6619 28.3802 39.7768 28.4148 39.8835C28.4495 39.9902 28.517 40.0831 28.6077 40.149C28.6985 40.2149 28.8077 40.2504 28.9199 40.2504C29.032 40.2504 29.1413 40.2148 29.232 40.1489L30.8026 39.0078C30.8933 38.9419 31.0026 38.9064 31.1148 38.9064C31.2269 38.9064 31.3362 38.9419 31.4269 39.0078L32.9975 40.1489C33.0882 40.2148 33.1975 40.2504 33.3096 40.2504C33.4217 40.2504 33.531 40.2148 33.6217 40.1489C33.7124 40.083 33.78 39.9901 33.8146 39.8834C33.8493 39.7768 33.8493 39.6619 33.8146 39.5553L33.2147 37.7089C33.18 37.6022 33.18 37.4873 33.2147 37.3807C33.2494 37.274 33.3169 37.1811 33.4076 37.1152L34.9783 35.974C35.069 35.9081 35.1365 35.8151 35.1711 35.7085C35.2057 35.6018 35.2057 35.487 35.1711 35.3803C35.1364 35.2737 35.0689 35.1808 34.9782 35.1149C34.8875 35.049 34.7782 35.0135 34.6661 35.0135H32.7247C32.6126 35.0135 32.5033 34.9779 32.4126 34.912C32.3219 34.8461 32.2544 34.7531 32.2197 34.6465L31.6198 32.8001C31.5852 32.6934 31.5177 32.6004 31.4269 32.5345C31.3362 32.4686 31.2269 32.433 31.1148 32.433C31.0026 32.433 30.8933 32.4686 30.8026 32.5345C30.7119 32.6004 30.6443 32.6934 30.6097 32.8001ZM8.1507 32.8001L7.5508 34.6465C7.51615 34.7531 7.44863 34.8461 7.35791 34.912C7.2672 34.9779 7.15794 35.0135 7.0458 35.0135H5.1044C4.99228 35.0135 4.88304 35.049 4.79233 35.1149C4.70162 35.1808 4.6341 35.2737 4.59944 35.3803C4.56478 35.487 4.56477 35.6018 4.59939 35.7085C4.63402 35.8151 4.70151 35.9081 4.7922 35.974L6.3629 37.1152C6.45363 37.1811 6.52115 37.274 6.55581 37.3807C6.59046 37.4873 6.59046 37.6022 6.5558 37.7089L5.9559 39.5553C5.92114 39.6619 5.92106 39.7769 5.95568 39.8836C5.9903 39.9903 6.05783 40.0833 6.14859 40.1492C6.23935 40.2151 6.34867 40.2506 6.46085 40.2506C6.57303 40.2505 6.68231 40.2149 6.773 40.1489L8.3436 39.0078C8.43434 38.9419 8.54361 38.9064 8.65575 38.9064C8.7679 38.9064 8.87716 38.9419 8.9679 39.0078L10.5385 40.1489C10.6292 40.2148 10.7385 40.2504 10.8506 40.2504C10.9628 40.2504 11.072 40.2149 11.1628 40.149C11.2535 40.0831 11.321 39.9902 11.3557 39.8835C11.3903 39.7768 11.3903 39.6619 11.3556 39.5553L10.7557 37.7089C10.721 37.6022 10.721 37.4873 10.7557 37.3807C10.7903 37.274 10.8579 37.1811 10.9486 37.1152L12.5192 35.974C12.6099 35.9081 12.6775 35.8152 12.7121 35.7085C12.7468 35.6019 12.7468 35.487 12.7121 35.3804C12.6775 35.2737 12.61 35.1807 12.5192 35.1148C12.4285 35.0489 12.3192 35.0134 12.2071 35.0135H10.2657C10.1536 35.0135 10.0443 34.9779 9.95359 34.912C9.86287 34.8461 9.79535 34.7531 9.7607 34.6465L9.1608 32.8001C9.12617 32.6934 9.05865 32.6004 8.96792 32.5345C8.87719 32.4686 8.76791 32.433 8.65575 32.433C8.54359 32.433 8.43432 32.4686 8.34359 32.5345C8.25286 32.6004 8.18533 32.6934 8.1507 32.8001ZM19.3802 32.8001L18.7803 34.6465C18.7457 34.7531 18.6781 34.8461 18.5874 34.912C18.4967 34.9779 18.3874 35.0135 18.2753 35.0135H16.3339C16.2218 35.0135 16.1125 35.049 16.0218 35.1149C15.9311 35.1808 15.8636 35.2737 15.8289 35.3803C15.7943 35.487 15.7943 35.6018 15.8289 35.7085C15.8635 35.8151 15.931 35.9081 16.0217 35.974L17.5924 37.1152C17.6831 37.1811 17.7507 37.274 17.7853 37.3807C17.82 37.4873 17.82 37.6022 17.7853 37.7089L17.1854 39.5553C17.1507 39.6619 17.1507 39.7768 17.1854 39.8834C17.22 39.9901 17.2876 40.083 17.3783 40.1489C17.469 40.2148 17.5783 40.2504 17.6904 40.2504C17.8025 40.2504 17.9118 40.2148 18.0025 40.1489L19.5731 39.0078C19.6638 38.9419 19.7731 38.9064 19.8853 38.9064C19.9974 38.9064 20.1067 38.9419 20.1974 39.0078L21.768 40.1489C21.8587 40.2148 21.968 40.2504 22.0801 40.2504C22.1923 40.2504 22.3015 40.2149 22.3923 40.149C22.483 40.0831 22.5505 39.9902 22.5852 39.8835C22.6198 39.7768 22.6198 39.6619 22.5851 39.5553L21.9852 37.7089C21.9505 37.6022 21.9505 37.4873 21.9852 37.3807C22.0198 37.274 22.0874 37.1811 22.1781 37.1152L23.7487 35.974C23.8394 35.9081 23.907 35.8152 23.9416 35.7085C23.9763 35.6019 23.9763 35.487 23.9416 35.3804C23.907 35.2737 23.8395 35.1807 23.7487 35.1148C23.658 35.0489 23.5487 35.0134 23.4366 35.0135H21.4952C21.3831 35.0135 21.2738 34.9779 21.1831 34.912C21.0924 34.8461 21.0249 34.7531 20.9902 34.6465L20.3903 32.8001C20.3557 32.6934 20.2881 32.6004 20.1974 32.5345C20.1067 32.4686 19.9974 32.433 19.8853 32.433C19.7731 32.433 19.6638 32.4686 19.5731 32.5345C19.4824 32.6004 19.4148 32.6934 19.3802 32.8001Z" fill="white"/>
</svg>
