<svg width="184" height="166" viewBox="0 0 184 166" fill="none" xmlns="http://www.w3.org/2000/svg">
<rect width="184" height="166" rx="20" fill="url(#paint0_linear_1346_1047)"/>
<g clip-path="url(#clip0_1346_1047)">
<path d="M118.783 74.7956C115.091 85.6669 108.117 95.1815 98.8204 102.004C104.855 104.622 111.475 106.065 118.358 106.065H123.687V91.7715C123.687 85.6264 121.96 79.7888 118.783 74.7956ZM113.54 68.53L113.513 68.5049C108.009 74.255 100.291 77.716 91.9999 77.716C83.709 77.716 75.9909 74.255 70.487 68.5049L70.458 68.5316C73.5568 81.1713 81.4994 91.7421 92.0362 98.4108C102.798 91.581 110.517 80.8586 113.54 68.53Z" fill="url(#paint1_linear_1346_1047)"/>
<path d="M69.547 42.5718H65.6426C62.6712 42.5718 60.2539 44.9891 60.2539 47.9604C60.2539 50.9317 62.6712 53.3491 65.6426 53.3491H69.547L70.3477 55.6142C73.584 64.7696 82.2855 70.9208 92.0003 70.9208C101.715 70.9208 110.417 64.7696 113.653 55.6142L114.454 53.3491H118.358C121.329 53.3491 123.747 50.9317 123.747 47.9604C123.747 44.9891 121.329 42.5718 118.358 42.5718H114.454L113.653 40.3066C111.861 35.2355 108.389 31.0887 104 28.3958C104.105 29.0376 104.162 29.6956 104.162 30.3669C104.162 37.0728 98.7062 42.5285 92.0003 42.5285C88.7518 42.5285 85.6976 41.2636 83.4007 38.9663L88.2055 34.1617C88.7027 34.6617 89.294 35.058 89.9454 35.3278C90.5968 35.5976 91.2953 35.7356 92.0003 35.7336C94.9596 35.7336 97.3672 33.326 97.3672 30.3667C97.3672 27.4074 94.9596 25 92.0003 25C82.2855 25 73.5837 31.1512 70.3477 40.3066L69.547 42.5718ZM92.0003 141C108.274 141 121.719 128.668 123.488 112.859H118.358C105.353 112.859 92.6771 108.308 82.6637 100.044C74.5977 93.3877 68.5545 84.5909 65.2179 74.7938C62.0402 79.7872 60.3135 85.6252 60.3135 91.7708V109.313C60.3135 126.785 74.528 141 92.0003 141Z" fill="url(#paint2_linear_1346_1047)"/>
</g>
<defs>
<linearGradient id="paint0_linear_1346_1047" x1="0" y1="0" x2="165.124" y2="183.029" gradientUnits="userSpaceOnUse">
<stop offset="0.125652" stop-color="#F5F5F5"/>
<stop offset="0.869819" stop-color="#E5E5E5"/>
</linearGradient>
<linearGradient id="paint1_linear_1346_1047" x1="70.458" y1="106.065" x2="130.696" y2="98.4726" gradientUnits="userSpaceOnUse">
<stop offset="0.323057" stop-color="#F98D1B"/>
<stop offset="1" stop-color="#FFC180"/>
</linearGradient>
<linearGradient id="paint2_linear_1346_1047" x1="60.2539" y1="141" x2="133.076" y2="137.455" gradientUnits="userSpaceOnUse">
<stop offset="0.323057" stop-color="#F98D1B"/>
<stop offset="1" stop-color="#FFC180"/>
</linearGradient>
<clipPath id="clip0_1346_1047">
<rect width="116" height="116" fill="white" transform="translate(34 25)"/>
</clipPath>
</defs>
</svg>
