<svg width="184" height="166" viewBox="0 0 184 166" fill="none" xmlns="http://www.w3.org/2000/svg">
<rect width="184" height="166" rx="20" fill="url(#paint0_linear_1346_1008)"/>
<path fill-rule="evenodd" clip-rule="evenodd" d="M48.8807 90.8516C52.4019 84.94 58.8555 80.9796 66.2335 80.9796C66.8447 80.9796 67.4491 81.0068 68.0462 81.0599C65.5336 83.9487 63.5601 87.2652 62.2197 90.8516H48.8807ZM66.3279 90.8516C70.6545 80.8565 80.6024 73.8628 92.1828 73.8628C103.769 73.8628 113.719 80.8565 118.041 90.8516H66.3279ZM122.149 90.8516C120.81 87.265 118.837 83.9483 116.325 81.0595C116.926 81.0063 117.529 80.9797 118.132 80.9796C125.514 80.9796 131.969 84.94 135.488 90.8516H122.149ZM118.132 78.597C112.512 78.597 107.93 74.0103 107.93 68.3899C107.93 62.7693 112.512 58.1825 118.132 58.1825C123.758 58.1825 128.339 62.7693 128.339 68.3899C128.339 74.0103 123.758 78.597 118.132 78.597ZM66.2335 78.597C60.6131 78.597 56.0316 74.0103 56.0316 68.3899C56.0316 62.7693 60.6131 58.1825 66.2335 58.1825C71.8593 58.1825 76.4409 62.7693 76.4409 68.3899C76.4409 74.0103 71.8593 78.597 66.2335 78.597ZM92.1828 71.4802C84.3419 71.4802 77.9503 65.0812 77.9503 57.24C77.9503 49.399 84.3419 43 92.1828 43C100.031 43 106.423 49.399 106.423 57.24C106.423 65.0812 100.031 71.4802 92.1828 71.4802ZM149.366 98.6968V118.066C149.366 120.293 147.56 122.099 145.333 122.099H39.0331C36.8058 122.099 35 120.293 35 118.066V98.6968C35 96.4693 36.8058 94.6637 39.0331 94.6637H145.333C147.56 94.6637 149.366 96.4693 149.366 98.6968ZM131.113 99.9427L129.684 104.342C129.601 104.596 129.44 104.818 129.224 104.975C129.008 105.132 128.748 105.216 128.48 105.216H123.855C123.588 105.216 123.327 105.301 123.111 105.458C122.895 105.615 122.734 105.836 122.652 106.091C122.569 106.345 122.569 106.618 122.651 106.872C122.734 107.126 122.895 107.348 123.111 107.505L126.853 110.224C127.069 110.381 127.23 110.602 127.313 110.857C127.395 111.111 127.395 111.384 127.313 111.638L125.884 116.038C125.801 116.292 125.801 116.566 125.883 116.82C125.966 117.074 126.127 117.295 126.343 117.452C126.559 117.609 126.82 117.694 127.087 117.694C127.354 117.694 127.614 117.609 127.83 117.452L131.573 114.733C131.789 114.576 132.049 114.492 132.316 114.492C132.583 114.492 132.844 114.576 133.06 114.733L136.802 117.452C137.018 117.609 137.279 117.694 137.546 117.694C137.813 117.694 138.074 117.61 138.29 117.453C138.506 117.296 138.667 117.074 138.75 116.82C138.832 116.566 138.832 116.292 138.749 116.038L137.32 111.638C137.237 111.384 137.237 111.111 137.32 110.857C137.402 110.602 137.563 110.381 137.779 110.224L141.522 107.505C141.738 107.348 141.899 107.126 141.981 106.872C142.064 106.618 142.063 106.344 141.981 106.09C141.898 105.836 141.737 105.615 141.521 105.458C141.305 105.301 141.045 105.216 140.778 105.216H136.152C135.885 105.216 135.625 105.132 135.409 104.975C135.192 104.818 135.031 104.596 134.949 104.342L133.52 99.9427C133.437 99.6885 133.276 99.467 133.06 99.3099C132.844 99.1528 132.583 99.0682 132.316 99.0682C132.049 99.0682 131.789 99.1528 131.572 99.3099C131.356 99.467 131.195 99.6885 131.113 99.9427ZM104.357 99.9427L102.928 104.342C102.845 104.596 102.685 104.818 102.468 104.975C102.252 105.132 101.992 105.216 101.725 105.216H97.0991C96.8319 105.216 96.5716 105.301 96.3554 105.458C96.1392 105.615 95.9784 105.836 95.8959 106.091C95.8133 106.345 95.8133 106.618 95.8959 106.872C95.9784 107.126 96.1394 107.348 96.3555 107.505L100.098 110.224C100.314 110.381 100.475 110.602 100.557 110.857C100.64 111.111 100.64 111.384 100.557 111.638L99.1279 116.038C99.0453 116.292 99.0452 116.566 99.1278 116.82C99.2103 117.074 99.3712 117.295 99.5874 117.452C99.8036 117.609 100.064 117.694 100.331 117.694C100.598 117.694 100.859 117.609 101.075 117.452L104.817 114.733C105.033 114.576 105.293 114.492 105.561 114.492C105.828 114.492 106.088 114.576 106.304 114.733L110.047 117.452C110.263 117.609 110.523 117.694 110.79 117.694C111.057 117.694 111.318 117.609 111.534 117.452C111.75 117.295 111.911 117.074 111.993 116.82C112.076 116.566 112.076 116.292 111.993 116.038L110.564 111.638C110.481 111.384 110.481 111.111 110.564 110.857C110.647 110.602 110.807 110.381 111.024 110.224L114.766 107.505C114.982 107.348 115.143 107.126 115.225 106.872C115.308 106.618 115.308 106.344 115.225 106.09C115.143 105.836 114.982 105.615 114.766 105.458C114.55 105.301 114.289 105.216 114.022 105.216H109.397C109.129 105.216 108.869 105.132 108.653 104.975C108.437 104.818 108.276 104.596 108.193 104.342L106.764 99.9427C106.681 99.6885 106.521 99.467 106.304 99.3099C106.088 99.1528 105.828 99.0682 105.561 99.0682C105.293 99.0682 105.033 99.1528 104.817 99.3099C104.601 99.467 104.44 99.6885 104.357 99.9427ZM50.8461 99.9427L49.4167 104.342C49.3342 104.596 49.1733 104.818 48.9572 104.975C48.741 105.132 48.4807 105.216 48.2135 105.216H43.5879C43.3208 105.216 43.0605 105.301 42.8444 105.458C42.6282 105.615 42.4674 105.836 42.3848 106.09C42.3022 106.344 42.3022 106.618 42.3847 106.872C42.4672 107.126 42.628 107.348 42.8441 107.505L46.5864 110.224C46.8026 110.381 46.9635 110.602 47.0461 110.857C47.1286 111.111 47.1286 111.384 47.046 111.638L45.6167 116.038C45.5339 116.292 45.5337 116.566 45.6162 116.82C45.6987 117.074 45.8596 117.296 46.0758 117.453C46.2921 117.61 46.5525 117.694 46.8198 117.694C47.0871 117.694 47.3475 117.609 47.5635 117.452L51.3057 114.733C51.5219 114.576 51.7822 114.492 52.0494 114.492C52.3166 114.492 52.577 114.576 52.7932 114.733L56.5353 117.452C56.7514 117.609 57.0117 117.694 57.2789 117.694C57.5462 117.694 57.8065 117.609 58.0227 117.452C58.2389 117.295 58.3998 117.074 58.4823 116.82C58.5649 116.566 58.5648 116.292 58.4821 116.038L57.0528 111.638C56.9702 111.384 56.9702 111.111 57.0528 110.857C57.1353 110.602 57.2962 110.381 57.5124 110.224L61.2545 107.505C61.4707 107.348 61.6316 107.126 61.7142 106.872C61.7968 106.618 61.7968 106.345 61.7142 106.091C61.6317 105.836 61.4708 105.615 61.2547 105.458C61.0385 105.301 60.7781 105.216 60.5109 105.216H55.8853C55.6181 105.216 55.3578 105.132 55.1417 104.975C54.9255 104.818 54.7647 104.596 54.6821 104.342L53.2528 99.9427C53.1702 99.6885 53.0094 99.467 52.7932 99.3099C52.577 99.1528 52.3167 99.0682 52.0494 99.0682C51.7822 99.0682 51.5218 99.1528 51.3057 99.3099C51.0895 99.467 50.9286 99.6885 50.8461 99.9427ZM77.6017 99.9427L76.1724 104.342C76.0898 104.596 75.9289 104.818 75.7128 104.975C75.4966 105.132 75.2363 105.216 74.9691 105.216H70.3435C70.0764 105.216 69.8161 105.301 69.6 105.458C69.3839 105.615 69.223 105.836 69.1404 106.09C69.0578 106.344 69.0578 106.618 69.1403 106.872C69.2228 107.126 69.3836 107.348 69.5997 107.505L73.342 110.224C73.5582 110.381 73.7191 110.602 73.8017 110.857C73.8842 111.111 73.8842 111.384 73.8017 111.638L72.3723 116.038C72.2897 116.292 72.2897 116.566 72.3722 116.82C72.4548 117.074 72.6157 117.295 72.8319 117.452C73.048 117.609 73.3084 117.694 73.5755 117.694C73.8427 117.694 74.1031 117.609 74.3192 117.452L78.0613 114.733C78.2775 114.576 78.5378 114.492 78.805 114.492C79.0722 114.492 79.3326 114.576 79.5488 114.733L83.2909 117.452C83.507 117.609 83.7673 117.694 84.0346 117.694C84.3018 117.694 84.5621 117.609 84.7783 117.452C84.9945 117.295 85.1554 117.074 85.2379 116.82C85.3205 116.566 85.3204 116.292 85.2377 116.038L83.8084 111.638C83.7258 111.384 83.7258 111.111 83.8084 110.857C83.891 110.602 84.0519 110.381 84.268 110.224L88.0102 107.505C88.2263 107.348 88.3872 107.126 88.4698 106.872C88.5524 106.618 88.5524 106.345 88.4698 106.091C88.3873 105.836 88.2264 105.615 88.0103 105.458C87.7941 105.301 87.5337 105.216 87.2665 105.216H82.6409C82.3737 105.216 82.1134 105.132 81.8973 104.975C81.6811 104.818 81.5203 104.596 81.4377 104.342L80.0084 99.9427C79.9259 99.6885 79.765 99.467 79.5488 99.3099C79.3326 99.1528 79.0723 99.0682 78.805 99.0682C78.5378 99.0682 78.2774 99.1528 78.0613 99.3099C77.8451 99.467 77.6842 99.6885 77.6017 99.9427Z" fill="url(#paint1_linear_1346_1008)"/>
<defs>
<linearGradient id="paint0_linear_1346_1008" x1="0" y1="0" x2="165.124" y2="183.029" gradientUnits="userSpaceOnUse">
<stop offset="0.125652" stop-color="#F5F5F5"/>
<stop offset="0.869819" stop-color="#E5E5E5"/>
</linearGradient>
<linearGradient id="paint1_linear_1346_1008" x1="35" y1="122.099" x2="164.342" y2="105.466" gradientUnits="userSpaceOnUse">
<stop offset="0.323057" stop-color="#F98D1B"/>
<stop offset="1" stop-color="#FFC180"/>
</linearGradient>
</defs>
</svg>
