<svg width="184" height="166" viewBox="0 0 184 166" fill="none" xmlns="http://www.w3.org/2000/svg">
<rect width="184" height="166" rx="20" fill="url(#paint0_linear_1346_1041)"/>
<g clip-path="url(#clip0_1346_1041)">
<path d="M126.781 51.3594C126.781 39.148 116.844 29 104.633 29C99.8742 29 95.4278 31.0362 91.9765 34.7008C88.5249 31.0362 84.0785 29 79.3202 29C67.1088 29 57.1718 39.148 57.1718 51.3594C57.1718 63.6418 66.1849 69.9822 76.6227 77.3268C80.9269 80.3548 85.3796 83.4881 89.9032 87.4124L91.9733 89.2106L94.0466 87.4153C99.1604 82.9905 104.024 79.5269 108.313 76.4709C118.63 69.1264 126.781 63.3235 126.781 51.3594ZM101.469 60.8516H95.1405V67.1797H88.8124V60.8516H82.4843V54.5234H88.8124V48.1953H95.1405V54.5234H101.469V60.8516ZM142.18 57.9404C135.725 57.9404 134.059 87.9357 133.932 88.5687C133.289 92.9638 130.193 99.47 124.964 103.388L111.259 113.338L107.465 108.271L121.17 98.3231C126.599 94.2529 129.073 87.3029 122.288 87.3029C116.211 87.3029 104.853 94.3383 101.485 97.1292C99.4994 98.7757 97.9013 100.84 96.8046 103.175C95.708 105.509 95.1397 108.057 95.1403 110.637V137H114.125C114.125 133.962 115.77 130.651 118.301 127.487C120.959 124.006 124.756 120.462 128.679 116.855C136.146 109.831 143.888 102.617 144.9 95.2766C145.502 90.3457 146.001 81.8888 145.976 74.3516C145.949 65.9109 145.234 58.2132 142.18 57.9404ZM81.7249 96.5422C72.802 90.4037 66.0314 87.3029 61.665 87.3029C54.8799 87.3029 57.3542 94.2529 62.7831 98.3231L76.488 108.271L72.6936 113.338L58.9888 103.388C53.7597 99.47 50.6635 92.9638 50.0208 88.5687C49.894 87.9357 48.2278 57.9404 41.7729 57.9404C38.2292 58.2568 37.8495 68.5717 38.0395 78.4435C38.1663 85.6576 38.7356 92.6818 39.0518 95.2766C40.0645 102.617 47.8059 109.831 55.2731 116.855C59.1966 120.462 62.9932 124.006 65.6513 127.487C68.1823 130.651 69.8276 133.962 69.8276 137H88.812V110.763C88.8122 108.006 88.1722 105.286 86.9424 102.818C85.7125 100.351 83.9265 98.2022 81.7249 96.5422Z" fill="url(#paint1_linear_1346_1041)"/>
</g>
<defs>
<linearGradient id="paint0_linear_1346_1041" x1="0" y1="0" x2="165.124" y2="183.029" gradientUnits="userSpaceOnUse">
<stop offset="0.125652" stop-color="#F5F5F5"/>
<stop offset="0.869819" stop-color="#E5E5E5"/>
</linearGradient>
<linearGradient id="paint1_linear_1346_1041" x1="38" y1="137" x2="161.162" y2="126.049" gradientUnits="userSpaceOnUse">
<stop offset="0.323057" stop-color="#F98D1B"/>
<stop offset="1" stop-color="#FFC180"/>
</linearGradient>
<clipPath id="clip0_1346_1041">
<rect width="108" height="108" fill="white" transform="translate(38 29)"/>
</clipPath>
</defs>
</svg>
