<svg width="184" height="166" viewBox="0 0 184 166" fill="none" xmlns="http://www.w3.org/2000/svg">
<rect width="184" height="166" rx="20" fill="url(#paint0_linear_1346_1021)"/>
<g clip-path="url(#clip0_1346_1021)">
<path d="M145.303 113.701C141.878 108.537 136.045 106.661 127.965 108.124C121.293 109.332 113.961 112.612 108.07 115.247L107.65 115.435C107.454 111.929 104.541 109.136 100.988 109.136H86.283C82.9782 109.125 80.5628 107.849 77.6687 104.585C75.8444 102.527 74.8901 102.527 71.7284 102.527H59.6513V99.8322C59.6513 98.1439 58.2777 96.7704 56.5891 96.7704H42.0105C40.3221 96.7704 38.9482 98.1439 38.9482 99.8322V132.811C38.9482 134.499 40.3219 135.872 42.0105 135.872H56.5889C58.2772 135.872 59.6511 134.499 59.6511 132.811V130.093C63.7876 131.116 67.5905 132.065 70.9926 132.914C77.7043 134.59 83.0056 135.913 87.0635 136.853C90.3632 137.616 92.8635 137.986 95.0188 137.986C98.9175 137.986 101.687 136.776 106.02 134.498C132.164 121.513 144.618 115.743 144.741 115.687C144.919 115.604 145.077 115.485 145.204 115.336C145.332 115.187 145.425 115.012 145.479 114.823C145.532 114.635 145.544 114.437 145.514 114.243C145.484 114.049 145.412 113.865 145.303 113.701H145.303ZM104.796 132.07L104.768 132.084C98.5421 135.358 96.3608 136.213 87.6764 134.203C83.6413 133.269 78.3502 131.948 71.6512 130.276C67.6525 129.276 63.6525 128.282 59.6513 127.292V105.245H71.7284C73.6569 105.245 74.9588 105.626 75.6342 106.388C79.065 110.258 82.1476 111.841 86.2787 111.854H100.988C103.168 111.854 104.942 113.629 104.942 115.81C104.942 117.992 103.168 119.768 100.988 119.768H86.3136C85.5195 119.727 84.7728 119.694 84.0713 119.663C76.9851 119.349 76.0651 119.11 75.769 115.726C75.7035 114.978 75.044 114.423 74.2961 114.49C73.9369 114.521 73.605 114.694 73.3732 114.97C73.1415 115.246 73.029 115.603 73.0604 115.963C73.3101 118.813 74.326 120.477 76.3548 121.359C78.1078 122.12 80.4323 122.223 83.951 122.379C84.6565 122.41 85.4085 122.444 86.2085 122.485C86.2321 122.486 86.2552 122.487 86.2787 122.487H100.988C103.633 122.487 105.925 120.938 107.003 118.699C107.709 118.387 108.435 118.062 109.18 117.729C120.199 112.8 135.098 106.136 142.063 113.937C137.997 115.848 125.806 121.635 104.797 132.069L104.796 132.07ZM76.1693 93.0158L81.6304 93.1858L82.0284 98.2365C82.049 98.4988 82.1453 98.7494 82.3055 98.958C82.4658 99.1666 82.6831 99.3242 82.9312 99.4118C83.1792 99.4993 83.4474 99.5129 83.703 99.4511C83.9587 99.3892 84.1909 99.2545 84.3715 99.0632L99.3577 83.2034L114.104 99.0555C114.284 99.2488 114.516 99.3856 114.772 99.4491C115.029 99.5127 115.298 99.5003 115.547 99.4134C115.796 99.3266 116.015 99.1691 116.176 98.9601C116.337 98.7511 116.434 98.4997 116.455 98.2365L116.853 93.1858L122.314 93.0158C122.576 93.0077 122.829 92.9242 123.045 92.7755C123.26 92.6267 123.428 92.419 123.528 92.1772C123.628 91.9354 123.656 91.6698 123.609 91.4124C123.562 91.155 123.442 90.9166 123.262 90.726C120.667 87.9653 117.984 85.2651 115.389 82.654C112.707 79.955 109.977 77.2063 107.296 74.3423C114.922 64.9742 119.28 56.3868 120.246 48.8105C121.329 40.3167 117.915 35.116 114.86 32.2486C110.983 28.6096 105.29 26.5225 99.2413 26.5225C93.1923 26.5225 87.4997 28.6096 83.6225 32.2486C80.568 35.116 77.1539 40.3167 78.2369 48.8105C79.1916 56.3002 83.4592 64.7775 90.9242 74.0208L75.2207 90.7262C75.0416 90.9169 74.9214 91.1553 74.8744 91.4126C74.8274 91.67 74.8556 91.9354 74.9557 92.1772C75.0558 92.4189 75.2235 92.6266 75.4386 92.7754C75.6538 92.9242 75.9074 93.0077 76.1688 93.0161L76.1693 93.0158ZM99.1726 37.8671C104.082 37.8671 108.409 39.2589 110.392 41.4416C109.464 48.6594 104.365 57.874 99.2365 64.9268C94.0935 57.9165 88.9825 48.7179 88.0781 41.455C90.0653 39.2333 94.256 37.8671 99.1726 37.8671Z" fill="url(#paint1_linear_1346_1021)"/>
</g>
<defs>
<linearGradient id="paint0_linear_1346_1021" x1="0" y1="0" x2="165.124" y2="183.029" gradientUnits="userSpaceOnUse">
<stop offset="0.125652" stop-color="#F5F5F5"/>
<stop offset="0.869819" stop-color="#E5E5E5"/>
</linearGradient>
<linearGradient id="paint1_linear_1346_1021" x1="38.9482" y1="137.986" x2="160.6" y2="127.64" gradientUnits="userSpaceOnUse">
<stop offset="0.323057" stop-color="#F98D1B"/>
<stop offset="1" stop-color="#FFC180"/>
</linearGradient>
<clipPath id="clip0_1346_1021">
<rect width="116" height="116" fill="white" transform="translate(34 25)"/>
</clipPath>
</defs>
</svg>
