<svg width="184" height="166" viewBox="0 0 184 166" fill="none" xmlns="http://www.w3.org/2000/svg">
<rect width="184" height="166" rx="20" fill="url(#paint0_linear_1346_1035)"/>
<g clip-path="url(#clip0_1346_1035)">
<path fill-rule="evenodd" clip-rule="evenodd" d="M113.289 53.5891C121.959 55.6008 125.276 60.6705 129.434 67.6484H113.289V53.5891ZM62.6207 68.2344C64.3184 68.2344 65.5504 69.0537 65.5504 70.9688C65.5504 72.584 64.2436 73.8939 62.6291 73.8984H44.9297C43.3115 73.8984 42 75.2107 42 76.8281C42 78.4463 43.3115 79.7578 44.9297 79.7578H71.2969C72.9303 79.7578 74.2381 81.0684 74.2381 82.6875C74.2381 84.3057 72.9266 85.6172 71.3084 85.6172H44.9297C43.3115 85.6172 42 86.9287 42 88.5469C42 90.165 43.3115 91.4766 44.9297 91.4766H51.375V100.266C51.375 101.884 52.6865 103.195 54.3047 103.195H60.1938C61.2436 108.367 65.8129 112.18 71.1992 112.18C76.5855 112.18 81.1549 108.367 82.2047 103.195H111.952C113.001 108.367 117.571 112.18 122.957 112.18C128.343 112.18 132.913 108.367 133.963 103.195H139.07C140.688 103.195 142 101.884 142 100.266V82.6875C142 74.0914 132.933 73.5207 132.925 73.5078H110.359C108.741 73.5078 107.43 72.1963 107.43 70.5781V53H54.3047C52.6865 53 51.375 54.3115 51.375 55.9297V62.375H47.8594C46.2412 62.375 44.9297 63.6865 44.9297 65.3047C44.9297 66.9229 46.2412 68.2344 47.8594 68.2344H62.6207ZM126.755 97.1514C128.852 99.2486 128.852 102.651 126.755 104.748C123.381 108.122 117.586 105.721 117.586 100.949C117.586 96.1777 123.381 93.7775 126.755 97.1514ZM74.9971 97.1514C77.0945 99.2486 77.0945 102.651 74.9971 104.748C71.6234 108.122 65.8281 105.721 65.8281 100.949C65.8281 96.1777 71.6234 93.7775 74.9971 97.1514Z" fill="url(#paint1_linear_1346_1035)"/>
</g>
<defs>
<linearGradient id="paint0_linear_1346_1035" x1="0" y1="0" x2="165.124" y2="183.029" gradientUnits="userSpaceOnUse">
<stop offset="0.125652" stop-color="#F5F5F5"/>
<stop offset="0.869819" stop-color="#E5E5E5"/>
</linearGradient>
<linearGradient id="paint1_linear_1346_1035" x1="42" y1="112.18" x2="154.426" y2="95.284" gradientUnits="userSpaceOnUse">
<stop offset="0.323057" stop-color="#F98D1B"/>
<stop offset="1" stop-color="#FFC180"/>
</linearGradient>
<clipPath id="clip0_1346_1035">
<rect width="100" height="59" fill="white" transform="translate(42 53)"/>
</clipPath>
</defs>
</svg>
