<svg width="20" height="20" viewBox="0 0 20 20" fill="none" xmlns="http://www.w3.org/2000/svg">
<g clip-path="url(#clip0_695_534)">
<path d="M10 20C4.478 20 0 15.522 0 10C0 4.478 4.478 0 10 0C15.522 0 20 4.478 20 10C20 15.522 15.522 20 10 20Z" fill="url(#paint0_linear_695_534)"/>
<path d="M10.0001 4.40401C11.8221 4.40401 12.0381 4.41001 12.7581 4.44401C13.4241 4.47401 13.7861 4.58601 14.0261 4.68001C14.3441 4.80401 14.5721 4.95201 14.8101 5.19001C15.0481 5.42801 15.1961 5.65601 15.3201 5.97401C15.4141 6.21401 15.5241 6.57601 15.5561 7.24201C15.5881 7.96201 15.5961 8.17801 15.5961 10C15.5961 11.822 15.5901 12.038 15.5561 12.758C15.5261 13.424 15.4141 13.786 15.3201 14.026C15.1961 14.344 15.0481 14.572 14.8101 14.81C14.5721 15.048 14.3441 15.196 14.0261 15.32C13.7861 15.414 13.4241 15.524 12.7581 15.556C12.0381 15.588 11.8221 15.596 10.0001 15.596C8.17812 15.596 7.96212 15.59 7.24212 15.556C6.57612 15.526 6.21412 15.414 5.97412 15.32C5.65612 15.196 5.42812 15.048 5.19012 14.81C4.95212 14.572 4.80412 14.344 4.68012 14.026C4.58612 13.786 4.47612 13.424 4.44412 12.758C4.41212 12.038 4.40412 11.822 4.40412 10C4.40412 8.17801 4.41012 7.96201 4.44412 7.24201C4.47412 6.57601 4.58612 6.21401 4.68012 5.97401C4.80412 5.65601 4.95212 5.42801 5.19012 5.19001C5.42812 4.95201 5.65612 4.80401 5.97412 4.68001C6.21412 4.58601 6.57612 4.47601 7.24212 4.44401C7.96212 4.41001 8.17812 4.40401 10.0001 4.40401ZM10.0001 3.17401C8.14612 3.17401 7.91412 3.18201 7.18612 3.21601C6.46012 3.25001 5.96412 3.36401 5.52812 3.53401C5.08012 3.70601 4.69812 3.94001 4.32012 4.32001C3.94012 4.70001 3.70812 5.08001 3.53212 5.53001C3.36412 5.96401 3.24812 6.46001 3.21412 7.18801C3.18012 7.91601 3.17212 8.14801 3.17212 10.002C3.17212 11.856 3.18012 12.088 3.21412 12.816C3.24812 13.542 3.36212 14.038 3.53212 14.474C3.70612 14.92 3.94012 15.302 4.32012 15.68C4.70012 16.06 5.08012 16.292 5.53012 16.468C5.96412 16.636 6.46012 16.752 7.18812 16.786C7.91612 16.82 8.14812 16.828 10.0021 16.828C11.8561 16.828 12.0881 16.82 12.8161 16.786C13.5421 16.752 14.0381 16.638 14.4741 16.468C14.9201 16.294 15.3021 16.06 15.6801 15.68C16.0601 15.3 16.2921 14.92 16.4681 14.47C16.6361 14.036 16.7521 13.54 16.7861 12.812C16.8201 12.084 16.8281 11.852 16.8281 9.99801C16.8281 8.14401 16.8201 7.91201 16.7861 7.18401C16.7521 6.45801 16.6381 5.96201 16.4681 5.52601C16.2941 5.08001 16.0601 4.69801 15.6801 4.32001C15.3001 3.94001 14.9201 3.70801 14.4701 3.53201C14.0361 3.36401 13.5401 3.24801 12.8121 3.21401C12.0861 3.18201 11.8541 3.17401 10.0001 3.17401Z" fill="white"/>
<path d="M10.0001 6.49432C8.06414 6.49432 6.49414 8.06432 6.49414 10.0003C6.49414 11.9363 8.06414 13.5063 10.0001 13.5063C11.9361 13.5063 13.5061 11.9363 13.5061 10.0003C13.5061 8.06432 11.9361 6.49432 10.0001 6.49432ZM10.0001 12.2763C8.74414 12.2763 7.72414 11.2583 7.72414 10.0003C7.72414 8.74232 8.74414 7.72432 10.0001 7.72432C11.2561 7.72432 12.2761 8.74232 12.2761 10.0003C12.2761 11.2583 11.2561 12.2763 10.0001 12.2763Z" fill="white"/>
<path d="M13.6442 7.17601C14.0971 7.17601 14.4642 6.80888 14.4642 6.35601C14.4642 5.90314 14.0971 5.53601 13.6442 5.53601C13.1913 5.53601 12.8242 5.90314 12.8242 6.35601C12.8242 6.80888 13.1913 7.17601 13.6442 7.17601Z" fill="white"/>
</g>
<defs>
<linearGradient id="paint0_linear_695_534" x1="2.92894" y1="17.0711" x2="17.0711" y2="2.92894" gradientUnits="userSpaceOnUse">
<stop stop-color="#FFD521"/>
<stop offset="0.055" stop-color="#FFD020"/>
<stop offset="0.124" stop-color="#FEC01E"/>
<stop offset="0.2" stop-color="#FCA71B"/>
<stop offset="0.282" stop-color="#FA8316"/>
<stop offset="0.368" stop-color="#F85510"/>
<stop offset="0.456" stop-color="#F51E09"/>
<stop offset="0.5" stop-color="#F30005"/>
<stop offset="0.503" stop-color="#F20007"/>
<stop offset="0.597" stop-color="#E1003B"/>
<stop offset="0.688" stop-color="#D30067"/>
<stop offset="0.776" stop-color="#C70088"/>
<stop offset="0.859" stop-color="#BF00A0"/>
<stop offset="0.936" stop-color="#BB00AF"/>
<stop offset="1" stop-color="#B900B4"/>
</linearGradient>
<clipPath id="clip0_695_534">
<rect width="20" height="20" fill="white"/>
</clipPath>
</defs>
</svg>
