<svg width="20" height="20" viewBox="0 0 20 20" fill="none" xmlns="http://www.w3.org/2000/svg">
<path d="M10 19.9998C15.5228 19.9998 20 15.5227 20 9.99982C20 4.47697 15.5228 -0.000183105 10 -0.000183105C4.47715 -0.000183105 0 4.47697 0 9.99982C0 15.5227 4.47715 19.9998 10 19.9998Z" fill="#007AB9"/>
<path d="M15.9747 10.8043V14.9271H13.5844V11.0806C13.5844 10.1148 13.2393 9.45524 12.3739 9.45524C11.7134 9.45524 11.3211 9.89928 11.1478 10.3292C11.0849 10.4829 11.0687 10.6963 11.0687 10.9118V14.9269H8.67821C8.67821 14.9269 8.71029 8.41224 8.67821 7.73789H11.0688V8.75664C11.064 8.76466 11.0573 8.7725 11.053 8.78017H11.0688V8.75664C11.3865 8.26785 11.953 7.56907 13.2231 7.56907C14.7957 7.56907 15.9747 8.59656 15.9747 10.8043ZM6.17758 4.27252C5.35991 4.27252 4.82495 4.80926 4.82495 5.51446C4.82495 6.20468 5.3444 6.75692 6.14621 6.75692H6.16172C6.99544 6.75692 7.51382 6.20468 7.51382 5.51446C7.49795 4.80926 6.99544 4.27252 6.17758 4.27252ZM4.96702 14.9271H7.35659V7.73789H4.96702V14.9271Z" fill="#F1F2F2"/>
</svg>
