<svg width="17" height="17" viewBox="0 0 17 17" fill="none" xmlns="http://www.w3.org/2000/svg">
<path d="M9.92073 10.4156C9.49779 10.6976 9.00651 10.8466 8.5 10.8466C7.99352 10.8466 7.50225 10.6976 7.0793 10.4156L0.113189 5.77139C0.0747337 5.74567 0.0369897 5.71891 0 5.69113L0 13.3012C0 14.1737 0.708057 14.8662 1.56496 14.8662H15.435C16.3075 14.8662 17 14.1581 17 13.3012V5.6911C16.9629 5.71895 16.9251 5.74577 16.8865 5.77152L9.92073 10.4156Z" fill="#F38919"/>
<path d="M0.665723 4.94257L7.63184 9.58682C7.89554 9.76263 8.19775 9.85052 8.49997 9.85052C8.80222 9.85052 9.10446 9.7626 9.36816 9.58682L16.3343 4.94257C16.7511 4.66482 17 4.19998 17 3.69828C17 2.83563 16.2982 2.13385 15.4356 2.13385H1.56443C0.701815 2.13388 8.23472e-07 2.83566 8.23472e-07 3.69911C-0.000257782 3.94522 0.0603975 4.18756 0.176557 4.40452C0.292716 4.62149 0.460768 4.80633 0.665723 4.94257Z" fill="#F38919"/>
</svg>
