<svg width="18" height="17" viewBox="0 0 18 17" fill="none" xmlns="http://www.w3.org/2000/svg">
<path d="M10.6174 14.5668C10.8731 14.4192 11.059 14.1748 11.1341 13.8874C11.2093 13.6 11.1676 13.2931 11.0182 13.0343L10.4548 12.0585C10.3054 11.7997 10.0605 11.6102 9.77401 11.5316C9.48753 11.4529 9.18293 11.4917 8.92722 11.6394C6.99886 12.7527 5.87208 10.8011 5.30869 9.82525C4.7453 8.84943 3.61853 6.8978 5.54688 5.78446C5.8026 5.63682 5.98849 5.39242 6.06365 5.10502C6.13881 4.81762 6.09709 4.51077 5.94767 4.25197L5.38429 3.27615C5.23487 3.01735 4.98998 2.82779 4.70351 2.74919C4.41703 2.67058 4.11243 2.70936 3.85672 2.857C1.44627 4.24868 0.563389 6.0595 3.38033 10.9386C6.19728 15.8177 8.20694 15.9585 10.6174 14.5668Z" fill="#F38919"/>
<path d="M15.749 10.5365C16.2611 8.57396 15.9758 6.47901 14.9555 4.71196C13.9353 2.94491 12.2638 1.6503 10.308 1.11256M12.7969 9.72652C12.9495 9.14365 12.9861 8.53506 12.9047 7.9355C12.8232 7.33595 12.6253 6.75719 12.3223 6.23228C12.0192 5.70737 11.617 5.2466 11.1384 4.87629C10.6599 4.50598 10.1146 4.23339 9.53351 4.07409M9.86079 8.9106C9.96318 8.51789 9.90604 8.09873 9.7019 7.74516C9.49777 7.39159 9.16333 7.13252 8.77204 7.02483" stroke="#F38919" stroke-linecap="round" stroke-linejoin="round"/>
</svg>
