<svg width="227" height="204" viewBox="0 0 227 204" fill="none" xmlns="http://www.w3.org/2000/svg">
<rect width="227" height="204" rx="20" fill="url(#paint0_linear_1330_1285)"/>
<path d="M164.603 124.877H95.349C93.417 124.877 91.8363 126.458 91.8363 128.39V129.602C91.8363 131.534 93.417 133.114 95.349 133.114H164.621C166.553 133.114 168.134 131.534 168.134 129.602V128.39C168.116 126.458 166.553 124.877 164.603 124.877ZM163.339 155.297H61.6441C60.6781 155.297 59.8877 156.088 59.8877 157.054C59.8877 158.02 60.6781 158.81 61.6441 158.81H163.339C164.305 158.81 165.095 158.02 165.095 157.054C165.095 156.088 164.305 155.297 163.339 155.297ZM73.5172 143.793C71.5676 143.793 69.9869 145.374 69.9869 147.324V151.785H96.6312V147.324C96.6312 145.374 95.0505 143.793 93.1009 143.793H73.5172Z" fill="url(#paint1_linear_1330_1285)"/>
<path d="M103.007 121.364C107.158 121.364 110.524 117.998 110.524 113.846C110.524 109.695 107.158 106.329 103.007 106.329C98.8549 106.329 95.4893 109.695 95.4893 113.846C95.4893 117.998 98.8549 121.364 103.007 121.364Z" fill="url(#paint2_linear_1330_1285)"/>
<path d="M133.779 69.6028C134.13 69.0759 134.745 68.7949 135.395 68.8476C136.027 68.9178 136.589 69.3218 136.835 69.919L139.469 76.119L141.208 71.4997C141.437 70.885 142.016 70.4459 142.666 70.3756C143.333 70.3054 143.966 70.6215 144.335 71.1836L146.723 74.9071L147.022 74.5734C147.185 74.3842 147.387 74.2328 147.615 74.1297C147.842 74.0266 148.089 73.9742 148.339 73.9762H153.995V67.5479H126.542V73.8884H130.881L133.779 69.6028Z" fill="url(#paint3_linear_1330_1285)"/>
<path d="M153.994 77.472H149.129L147.812 78.9649C147.633 79.1722 147.408 79.3343 147.154 79.4381C146.901 79.5418 146.627 79.5843 146.354 79.5621C146.081 79.5434 145.816 79.4605 145.581 79.3201C145.346 79.1797 145.147 78.9858 145.002 78.7541L143.245 76.0142L141.19 81.459C140.944 82.1264 140.294 82.5831 139.574 82.6006H139.539C138.837 82.6006 138.204 82.1791 137.923 81.5292L134.85 74.2578L133.234 76.6289C132.9 77.1031 132.356 77.4017 131.776 77.4017H126.507V83.7247H153.959V77.472H153.994Z" fill="url(#paint4_linear_1330_1285)"/>
<path d="M121.273 92.524H159.281C161.231 92.524 162.812 90.9432 162.812 88.9936V62.2439C162.812 60.2943 161.231 58.7136 159.281 58.7136H156.576V48.1577C156.576 47.1917 155.786 46.4014 154.82 46.4014C153.854 46.4014 153.064 47.1917 153.064 48.1577V58.7312H127.491V48.1577C127.491 47.1917 126.7 46.4014 125.734 46.4014C124.768 46.4014 123.978 47.1917 123.978 48.1577V58.7312H121.273C119.324 58.7312 117.743 60.3119 117.743 62.2615V89.0112C117.743 90.9432 119.324 92.524 121.273 92.524ZM123.03 65.7743C123.03 64.8083 123.82 64.0179 124.786 64.0179H155.751C156.717 64.0179 157.507 64.8083 157.507 65.7743V85.4633C157.507 86.4293 156.717 87.2197 155.751 87.2197H124.786C123.82 87.2197 123.03 86.4293 123.03 85.4633V65.7743ZM70.6016 140.947C71.4798 140.508 72.4809 140.28 73.5347 140.28H80.1036C75.6248 134.15 72.7795 124.525 72.7795 113.478C72.7795 100.006 77.0124 88.6424 83.2827 83.1624H77.1705C68.5993 83.1624 61.644 96.7393 61.644 113.478C61.644 125.632 65.3149 136.117 70.6016 140.947Z" fill="url(#paint5_linear_1330_1285)"/>
<path d="M76.9067 121.838H83.9323C83.3702 119.273 83.0541 116.446 83.0541 113.477C83.0541 102.834 87.0762 93.8409 91.836 93.8409C94.9799 93.8409 97.7901 97.7401 99.3357 103.448C100.477 103.027 101.724 102.798 103.007 102.798C104.218 102.798 105.378 102.992 106.467 103.361C104.341 91.5927 98.598 83.1621 91.836 83.1621C83.2473 83.1621 76.292 96.7389 76.292 113.477C76.292 116.375 76.5203 119.186 76.9067 121.838ZM101.83 136.626H97.7023C88.9379 137.065 86.1804 129.004 84.8983 125.35H77.539C78.9266 131.761 81.4382 137.048 84.5646 140.28H93.1181C94.734 140.28 96.2269 140.824 97.4213 141.755C99.0371 140.526 100.53 138.787 101.83 136.626ZM132.672 136.626L122.415 151.784H139.364L149.603 136.626H132.672ZM160.932 121.363C160.932 116.797 157.683 112.968 153.38 112.09L147.742 110.983L140.33 109.174C133.989 107.629 127.385 107.646 121.045 109.209L113.668 111.036C113.896 111.932 114.037 112.863 114.037 113.829C114.037 116.744 112.895 119.379 111.051 121.346H160.932V121.363Z" fill="#F98D1B"/>
<defs>
<linearGradient id="paint0_linear_1330_1285" x1="0" y1="0" x2="202.841" y2="225.711" gradientUnits="userSpaceOnUse">
<stop offset="0.125652" stop-color="#F5F5F5"/>
<stop offset="0.869819" stop-color="#E5E5E5"/>
</linearGradient>
<linearGradient id="paint1_linear_1330_1285" x1="59.8877" y1="158.81" x2="175.062" y2="126.135" gradientUnits="userSpaceOnUse">
<stop offset="0.323057" stop-color="#F98D1B"/>
<stop offset="1" stop-color="#FFC180"/>
</linearGradient>
<linearGradient id="paint2_linear_1330_1285" x1="95.4893" y1="121.364" x2="112.638" y2="119.839" gradientUnits="userSpaceOnUse">
<stop offset="0.323057" stop-color="#F98D1B"/>
<stop offset="1" stop-color="#FFC180"/>
</linearGradient>
<linearGradient id="paint3_linear_1330_1285" x1="126.542" y1="76.119" x2="155.734" y2="67.8036" gradientUnits="userSpaceOnUse">
<stop offset="0.323057" stop-color="#F98D1B"/>
<stop offset="1" stop-color="#FFC180"/>
</linearGradient>
<linearGradient id="paint4_linear_1330_1285" x1="126.507" y1="83.7247" x2="156.132" y2="76.0745" gradientUnits="userSpaceOnUse">
<stop offset="0.323057" stop-color="#F98D1B"/>
<stop offset="1" stop-color="#FFC180"/>
</linearGradient>
<linearGradient id="paint5_linear_1330_1285" x1="61.644" y1="140.947" x2="176.908" y2="129.978" gradientUnits="userSpaceOnUse">
<stop offset="0.323057" stop-color="#F98D1B"/>
<stop offset="1" stop-color="#FFC180"/>
</linearGradient>
</defs>
</svg>
