<svg width="227" height="204" viewBox="0 0 227 204" fill="none" xmlns="http://www.w3.org/2000/svg">
<rect width="227" height="204" rx="20" fill="url(#paint0_linear_1330_1273)"/>
<g clip-path="url(#clip0_1330_1273)">
<path d="M127.985 94.4258L103.7 88.3541V85.7205C103.7 85.1477 103.472 84.5983 103.067 84.1932C102.662 83.7881 102.113 83.5605 101.54 83.5605H88.5799C88.007 83.5605 87.4576 83.7881 87.0526 84.1932C86.6475 84.5983 86.4199 85.1477 86.4199 85.7205V98.6805C86.4199 99.2533 86.6475 99.8027 87.0526 100.208C87.4576 100.613 88.007 100.84 88.5799 100.84H99.3798V103C99.3798 103.573 99.6074 104.123 100.012 104.528C100.418 104.933 100.967 105.16 101.54 105.16H127.46C128.033 105.16 128.582 104.933 128.987 104.528C129.392 104.123 129.62 103.573 129.62 103V96.5205C129.62 96.0391 129.459 95.5714 129.163 95.1919C128.866 94.8124 128.452 94.5428 127.985 94.4258Z" fill="url(#paint1_linear_1330_1273)"/>
<path d="M127.46 109.479H88.5799C88.007 109.479 87.4576 109.707 87.0526 110.112C86.6475 110.517 86.4199 111.067 86.4199 111.639V120.279C86.4199 120.852 86.6475 121.402 87.0526 121.807C87.4576 122.212 88.007 122.439 88.5799 122.439H120.98C125.751 122.439 129.62 118.572 129.62 113.799V111.639C129.62 111.067 129.392 110.517 128.987 110.112C128.582 109.707 128.033 109.479 127.46 109.479Z" fill="url(#paint2_linear_1330_1273)"/>
<path d="M120.98 66.2793H108.02C107.691 66.2794 107.367 66.3543 107.072 66.4983C106.777 66.6423 106.518 66.8516 106.316 67.1104C106.114 67.3693 105.974 67.6709 105.906 67.9921C105.838 68.3134 105.844 68.6459 105.924 68.9644L110.244 86.2443C110.361 86.7113 110.631 87.1258 111.011 87.422C111.39 87.7182 111.858 87.8791 112.34 87.8792H120.98C121.552 87.8792 122.102 87.6516 122.507 87.2465C122.912 86.8415 123.14 86.292 123.14 85.7192V68.4393C123.14 67.8664 122.912 67.317 122.507 66.9119C122.102 66.5069 121.552 66.2793 120.98 66.2793Z" fill="url(#paint3_linear_1330_1273)"/>
<path d="M114.5 49H88.5799C88.007 49 87.4576 49.2276 87.0526 49.6326C86.6475 50.0377 86.4199 50.5871 86.4199 51.16V68.4399C86.4199 69.0128 86.6475 69.5622 87.0526 69.9672C87.4576 70.3723 88.007 70.5999 88.5799 70.5999H127.46C128.033 70.5999 128.582 70.3723 128.987 69.9672C129.392 69.5622 129.62 69.0128 129.62 68.4399V64.1199C129.61 55.7743 122.846 49.0094 114.5 49Z" fill="url(#paint4_linear_1330_1273)"/>
<path d="M101.54 144.039H97.22C93.6414 144.039 90.74 141.139 90.74 137.559V51.16C90.74 50.5871 90.5124 50.0377 90.1074 49.6326C89.7023 49.2276 89.1529 49 88.58 49H71.3001C70.7273 49 70.1779 49.2276 69.7728 49.6326C69.3677 50.0377 69.1401 50.5871 69.1401 51.16V154.839C69.1401 155.412 69.3677 155.962 69.7728 156.367C70.1779 156.772 70.7273 156.999 71.3001 156.999H101.54C102.113 156.999 102.662 156.772 103.067 156.367C103.472 155.962 103.7 155.412 103.7 154.839V146.199C103.7 145.627 103.472 145.077 103.067 144.672C102.662 144.267 102.113 144.039 101.54 144.039ZM167.502 88.2194C166.743 87.7353 165.899 87.2512 165.02 86.7501C162.415 85.4948 160.086 83.7325 158.17 81.5664C161.844 77.2971 163.963 71.9083 164.18 66.2799C164.18 55.6212 158.386 49 149.06 49C139.733 49 133.94 55.6212 133.94 66.2799C134.158 71.919 136.283 77.3173 139.966 81.5929C137.949 84.5407 134.471 86.28 130.815 88.1066C130.302 88.362 129.913 88.8104 129.731 89.3532C129.549 89.896 129.59 90.4889 129.844 91.0015L134.136 99.6414C134.271 99.913 134.461 100.153 134.694 100.347C134.928 100.54 135.199 100.682 135.491 100.763C135.783 100.845 136.089 100.864 136.389 100.82C136.689 100.775 136.976 100.668 137.232 100.505C141.347 97.4881 145.296 94.2489 149.06 90.8022C152.817 94.2439 156.756 97.4815 160.859 100.501C161.206 100.722 161.609 100.839 162.02 100.84C162.214 100.84 162.408 100.814 162.597 100.763C162.888 100.682 163.16 100.541 163.393 100.348C163.627 100.156 163.818 99.9165 163.953 99.6458L168.273 91.0058C168.511 90.5282 168.564 89.9792 168.422 89.4647C168.28 88.9502 167.952 88.5066 167.502 88.2194ZM150.751 78.4255C150.549 78.68 150.292 78.8856 149.999 79.0269C149.706 79.1682 149.385 79.2416 149.06 79.2416C148.734 79.2416 148.413 79.1682 148.121 79.0269C147.828 78.8856 147.571 78.68 147.368 78.4255C144.612 74.9361 142.947 70.7113 142.58 66.2799C142.58 60.6078 145.839 57.64 149.06 57.64C152.281 57.64 155.54 60.6078 155.54 66.2799C155.173 70.7113 153.507 74.936 150.751 78.4255Z" fill="url(#paint5_linear_1330_1273)"/>
<path d="M79.9398 122.44C79.3669 122.44 78.8175 122.213 78.4124 121.808C78.0074 121.403 77.7798 120.853 77.7798 120.28V85.7205C77.7798 85.1477 78.0074 84.5983 78.4124 84.1932C78.8175 83.7881 79.3669 83.5605 79.9398 83.5605C80.5126 83.5605 81.062 83.7881 81.4671 84.1932C81.8722 84.5983 82.0998 85.1477 82.0998 85.7205V120.28C82.0998 120.853 81.8722 121.403 81.4671 121.808C81.062 122.213 80.5126 122.44 79.9398 122.44Z" fill="#F0F0F0"/>
<path d="M62.66 49H71.2999C71.8728 49 72.4222 49.2276 72.8273 49.6326C73.2324 50.0377 73.4599 50.5871 73.4599 51.16V154.839C73.4599 155.412 73.2324 155.962 72.8273 156.367C72.4222 156.772 71.8728 156.999 71.2999 156.999H62.66C62.0871 156.999 61.5377 156.772 61.1326 156.367C60.7276 155.962 60.5 155.412 60.5 154.839V51.16C60.5 50.5871 60.7276 50.0377 61.1326 49.6326C61.5377 49.2276 62.0871 49 62.66 49Z" fill="url(#paint6_linear_1330_1273)"/>
</g>
<defs>
<linearGradient id="paint0_linear_1330_1273" x1="0" y1="0" x2="202.841" y2="225.711" gradientUnits="userSpaceOnUse">
<stop offset="0.125652" stop-color="#F5F5F5"/>
<stop offset="0.869819" stop-color="#E5E5E5"/>
</linearGradient>
<linearGradient id="paint1_linear_1330_1273" x1="86.4199" y1="105.16" x2="134.561" y2="96.5973" gradientUnits="userSpaceOnUse">
<stop offset="0.323057" stop-color="#F98D1B"/>
<stop offset="1" stop-color="#FFC180"/>
</linearGradient>
<linearGradient id="paint2_linear_1330_1273" x1="86.4199" y1="122.439" x2="132.072" y2="108.905" gradientUnits="userSpaceOnUse">
<stop offset="0.323057" stop-color="#F98D1B"/>
<stop offset="1" stop-color="#FFC180"/>
</linearGradient>
<linearGradient id="paint3_linear_1330_1273" x1="105.859" y1="87.8792" x2="125.626" y2="86.4728" gradientUnits="userSpaceOnUse">
<stop offset="0.323057" stop-color="#F98D1B"/>
<stop offset="1" stop-color="#FFC180"/>
</linearGradient>
<linearGradient id="paint4_linear_1330_1273" x1="86.4199" y1="70.5999" x2="134.561" y2="62.0368" gradientUnits="userSpaceOnUse">
<stop offset="0.323057" stop-color="#F98D1B"/>
<stop offset="1" stop-color="#FFC180"/>
</linearGradient>
<linearGradient id="paint5_linear_1330_1273" x1="69.1401" y1="156.999" x2="182.61" y2="147.715" gradientUnits="userSpaceOnUse">
<stop offset="0.323057" stop-color="#F98D1B"/>
<stop offset="1" stop-color="#FFC180"/>
</linearGradient>
<linearGradient id="paint6_linear_1330_1273" x1="60.5" y1="156.999" x2="75.3977" y2="156.84" gradientUnits="userSpaceOnUse">
<stop offset="0.323057" stop-color="#F98D1B"/>
<stop offset="1" stop-color="#FFC180"/>
</linearGradient>
<clipPath id="clip0_1330_1273">
<rect width="108" height="122" fill="white" transform="translate(60.5 42)"/>
</clipPath>
</defs>
</svg>
