<svg width="227" height="204" viewBox="0 0 227 204" fill="none" xmlns="http://www.w3.org/2000/svg">
<rect width="227" height="204" rx="20" fill="url(#paint0_linear_1330_1265)"/>
<path fill-rule="evenodd" clip-rule="evenodd" d="M75.6254 121.918V48.1338H94.442C95.2153 48.1338 95.9242 48.8426 95.9242 49.6159V59.6686H86.2581C84.6471 59.6686 83.2938 60.9575 83.2938 62.6329V117.858C83.2938 119.534 84.6471 120.823 86.2581 120.823H95.9242V128.749H75.6254V121.918ZM75.6254 135.644V130.424H95.9242V138.351H75.6254V135.644ZM67.5703 138.351V49.6159C67.5703 48.8426 68.2147 48.1338 69.0525 48.1338H73.9499V138.351H67.5703ZM62.6729 144.923V144.601C62.6729 141.959 64.7994 139.833 67.377 139.833H96.1175C98.6951 139.833 100.822 141.959 100.822 144.601V144.923H62.6729Z" fill="url(#paint1_linear_1330_1265)"/>
<path fill-rule="evenodd" clip-rule="evenodd" d="M99.9199 119.34H86.2585C85.4852 119.34 84.7764 118.696 84.7764 117.858V62.6325C84.7764 61.7948 85.4852 61.1504 86.2585 61.1504H118.672C119.51 61.1504 120.154 61.7948 120.154 62.6325V71.6542C120.154 72.4919 119.51 73.1363 118.672 73.1363H101.402V117.858C101.402 118.696 100.758 119.34 99.9199 119.34Z" fill="url(#paint2_linear_1330_1265)"/>
<path fill-rule="evenodd" clip-rule="evenodd" d="M118.672 81.8999H114.097C113.259 81.8999 112.615 81.2555 112.615 80.4177V74.6181H118.672C119.252 74.6181 119.703 74.4892 120.154 74.2314V80.4177C120.154 81.2555 119.51 81.8999 118.672 81.8999ZM115.837 114.507H102.884V106.967H111.841C112.228 106.967 112.679 107.161 112.937 107.483L116.803 111.994C117.125 112.251 117.319 112.638 117.319 113.089C117.319 113.862 116.674 114.507 115.837 114.507ZM111.841 92.2104H102.884V84.6708H115.837C116.417 84.6708 116.932 84.993 117.19 85.5085C117.383 86.0241 117.319 86.6685 116.932 87.0551L112.937 91.6948C112.679 92.017 112.228 92.2104 111.841 92.2104ZM103.013 155.942H60.4821C59.6444 155.942 59 155.233 59 154.46V147.887C59 147.049 59.6444 146.405 60.4821 146.405H103.013C103.851 146.405 104.495 147.049 104.495 147.887V154.46C104.495 155.233 103.851 155.942 103.013 155.942Z" fill="url(#paint3_linear_1330_1265)"/>
<path fill-rule="evenodd" clip-rule="evenodd" d="M164.94 151.367C165.198 151.367 165.52 151.303 165.713 151.174C166.422 150.723 166.616 149.821 166.165 149.112C160.558 140.541 162.878 129.006 165.585 115.667C169.451 96.5282 173.833 74.8117 155.339 55.4151C154.243 54.3196 154.307 53.6108 154.436 51.9998C154.501 51.4198 154.501 50.711 154.501 50.0021C154.501 49.1644 153.856 48.52 153.083 48.52C147.992 48.3267 142.708 48.3267 137.682 48.0044C136.909 47.94 136.2 48.5844 136.135 49.3577C135.298 62.568 132.011 71.0097 124.02 80.4825C115.708 90.3419 111.132 95.7549 111.712 101.039C112.163 105.485 116.03 109.223 124.6 115.925C127.822 118.438 130.787 144.15 128.402 149.434C128.08 150.143 128.402 151.045 129.111 151.367C129.305 151.432 129.562 151.496 129.756 151.496C141.484 151.496 153.212 151.432 164.94 151.367ZM156.176 148.596C156.305 148.596 156.37 148.532 156.498 148.467C156.885 148.338 157.078 147.823 156.885 147.436C153.792 140.412 160.365 105.357 162.169 96.5282C162.234 96.1415 161.976 95.6904 161.525 95.5616C161.074 95.4971 160.623 95.7549 160.558 96.206C158.625 105.55 151.988 140.477 155.403 148.081C155.532 148.403 155.854 148.596 156.176 148.596ZM138.777 149.241C139.035 149.241 139.293 149.112 139.422 148.918C142.064 145.181 142.128 138.801 141.87 134.419C141.484 127.331 140.195 120.049 139.035 113.025C138.648 110.705 138.262 108.45 137.94 106.13C136.844 99.428 135.877 92.3395 135.942 85.5733C136.006 80.9336 136.651 74.6828 140.195 71.3319C143.739 68.0455 149.023 68.4965 153.405 69.5276C153.792 69.592 154.243 69.3343 154.372 68.8832C154.501 68.4321 154.179 67.981 153.728 67.9166C148.894 66.7566 143.03 66.4989 139.1 70.172C134.653 74.2318 134.202 81.9646 134.266 87.5709C134.46 95.3038 135.749 103.23 137.037 110.834C137.166 111.672 137.295 112.509 137.424 113.283C138.52 119.985 139.744 126.88 140.195 133.646C140.453 137.77 140.646 144.408 138.068 147.952C137.811 148.274 137.94 148.789 138.262 149.112C138.455 149.176 138.584 149.241 138.777 149.241Z" fill="url(#paint4_linear_1330_1265)"/>
<defs>
<linearGradient id="paint0_linear_1330_1265" x1="0" y1="0" x2="202.841" y2="225.711" gradientUnits="userSpaceOnUse">
<stop offset="0.125652" stop-color="#F5F5F5"/>
<stop offset="0.869819" stop-color="#E5E5E5"/>
</linearGradient>
<linearGradient id="paint1_linear_1330_1265" x1="62.6729" y1="144.923" x2="106.477" y2="143.388" gradientUnits="userSpaceOnUse">
<stop offset="0.323057" stop-color="#F98D1B"/>
<stop offset="1" stop-color="#FFC180"/>
</linearGradient>
<linearGradient id="paint2_linear_1330_1265" x1="84.7764" y1="119.34" x2="125.33" y2="117.147" gradientUnits="userSpaceOnUse">
<stop offset="0.323057" stop-color="#F98D1B"/>
<stop offset="1" stop-color="#FFC180"/>
</linearGradient>
<linearGradient id="paint3_linear_1330_1265" x1="59" y1="155.942" x2="128.996" y2="151.283" gradientUnits="userSpaceOnUse">
<stop offset="0.323057" stop-color="#F98D1B"/>
<stop offset="1" stop-color="#FFC180"/>
</linearGradient>
<linearGradient id="paint4_linear_1330_1265" x1="111.663" y1="151.496" x2="177.419" y2="148.256" gradientUnits="userSpaceOnUse">
<stop offset="0.323057" stop-color="#F98D1B"/>
<stop offset="1" stop-color="#FFC180"/>
</linearGradient>
</defs>
</svg>
