<svg width="227" height="204" viewBox="0 0 227 204" fill="none" xmlns="http://www.w3.org/2000/svg">
<rect width="227" height="204" rx="20" fill="url(#paint0_linear_1330_1259)"/>
<path d="M133.461 111.245V106.737C133.461 104.136 131.354 102.029 128.753 102.029H100.104C97.5026 102.029 95.3958 104.136 95.3958 106.737V111.245L94.9602 112.093C90.0989 107.161 87.0857 100.393 87.0857 92.9305C87.0857 77.8527 99.3502 65.5882 114.428 65.5882C129.506 65.5882 141.771 77.8527 141.771 92.9305C141.771 100.393 138.757 107.161 133.896 112.093L133.461 111.245ZM79.6979 154.995C79.6979 156.945 81.2788 158.526 83.2291 158.526H145.628C147.578 158.526 149.159 156.946 149.159 154.995V147.211H79.6979V154.995ZM147.962 144.861L132.308 114.176H96.5492L80.8948 144.861H147.962ZM100.104 104.384C98.8039 104.384 97.7498 105.438 97.7498 106.738V111.822H131.107V106.738C131.107 105.438 130.053 104.384 128.753 104.384H100.104ZM161.357 93.8132V136.786C161.357 140.047 158.72 142.672 155.471 142.672H149.48L137.769 119.696C145.243 113.199 149.963 103.618 149.963 92.9303C149.963 73.3092 134.049 57.3959 114.428 57.3959C94.8191 57.3959 78.894 73.3094 78.894 92.9303C78.894 103.606 83.6139 113.187 91.0879 119.696L79.3764 142.672H73.3852C70.1367 142.672 67.5 140.047 67.5 136.786V92.9303C67.5 66.6824 89.1807 45.3785 115.57 46.0139C141.182 46.6259 161.357 68.1892 161.357 93.8132ZM80.4946 125.487C80.4953 125.232 80.4456 124.979 80.3482 124.743C80.2509 124.507 80.1079 124.292 79.9274 124.112C79.7469 123.932 79.5325 123.788 79.2965 123.691C79.0606 123.594 78.8077 123.544 78.5524 123.545H73.9857C73.7304 123.544 73.4775 123.594 73.2416 123.691C73.0056 123.788 72.7912 123.932 72.6107 124.112C72.4302 124.292 72.2872 124.507 72.1898 124.743C72.0925 124.979 72.0427 125.232 72.0435 125.487C72.0435 126.558 72.9145 127.429 73.9857 127.429H78.5524C79.6236 127.429 80.4946 126.558 80.4946 125.487ZM78.5524 115.659H73.9857C72.9145 115.659 72.0435 116.53 72.0435 117.601C72.0435 118.672 72.9145 119.543 73.9857 119.543H78.5524C79.6236 119.543 80.4946 118.672 80.4946 117.601C80.4946 116.53 79.6236 115.659 78.5524 115.659ZM117.677 51.6991C117.677 49.898 116.229 48.4505 114.428 48.4505C112.628 48.4505 111.18 49.8984 111.18 51.6991C111.18 53.4997 112.627 54.9476 114.428 54.9476C116.229 54.9476 117.677 53.4997 117.677 51.6991ZM156.813 125.487C156.814 125.232 156.764 124.979 156.667 124.743C156.569 124.507 156.426 124.292 156.246 124.112C156.065 123.932 155.851 123.788 155.615 123.691C155.379 123.594 155.126 123.544 154.871 123.545H150.304C150.049 123.544 149.796 123.594 149.56 123.691C149.324 123.788 149.11 123.932 148.929 124.112C148.749 124.292 148.606 124.507 148.508 124.743C148.411 124.979 148.361 125.232 148.362 125.487C148.362 126.558 149.233 127.429 150.304 127.429H154.871C155.942 127.429 156.813 126.558 156.813 125.487ZM156.813 117.601C156.813 116.53 155.942 115.659 154.871 115.659H150.304C149.233 115.659 148.362 116.53 148.362 117.601C148.362 118.672 149.233 119.543 150.304 119.543H154.871C155.942 119.543 156.813 118.672 156.813 117.601Z" fill="url(#paint1_linear_1330_1259)"/>
<defs>
<linearGradient id="paint0_linear_1330_1259" x1="0" y1="0" x2="202.841" y2="225.711" gradientUnits="userSpaceOnUse">
<stop offset="0.125652" stop-color="#F5F5F5"/>
<stop offset="0.869819" stop-color="#E5E5E5"/>
</linearGradient>
<linearGradient id="paint1_linear_1330_1259" x1="67.5" y1="158.526" x2="174.812" y2="150.566" gradientUnits="userSpaceOnUse">
<stop offset="0.323057" stop-color="#F98D1B"/>
<stop offset="1" stop-color="#FFC180"/>
</linearGradient>
</defs>
</svg>
