<svg width="227" height="204" viewBox="0 0 227 204" fill="none" xmlns="http://www.w3.org/2000/svg">
<rect width="227" height="204" rx="20" fill="url(#paint0_linear_1346_835)"/>
<g clip-path="url(#clip0_1346_835)">
<path d="M78.3496 156.894H72.6201C73.5466 147.78 78.33 139.581 85.9533 134.089C87.5214 135.101 89.1655 135.991 90.8709 136.749C83.9686 141.21 79.3321 148.617 78.3496 156.894ZM85.9554 74.9386C87.5231 73.9294 89.1649 73.0402 90.8666 72.2784C83.9662 67.8196 79.3321 60.4128 78.3494 52.1358H72.6222C73.5466 61.2504 78.33 69.4451 85.9554 74.9386ZM93.9965 129.522C93.9352 129.501 93.8752 129.477 93.8168 129.449C84.4208 124.823 78.3494 115.038 78.3494 104.516C78.3494 93.9904 84.4206 84.2027 93.8168 79.5773C93.8752 79.5492 93.9337 79.5231 93.9965 79.5037C106.336 75.2938 114.888 64.6554 116.158 52.136H110.431C109.323 61.4736 103.568 69.7029 95.1544 73.8415C95.0957 73.8712 95.0349 73.8965 94.9725 73.9172C92.1219 74.8869 89.3989 76.2485 86.8774 77.9626C77.9684 84.0361 72.648 93.9624 72.648 104.516C72.648 115.064 77.9682 124.99 86.8774 131.07C89.3845 132.773 92.1076 134.133 94.9746 135.116C95.0373 135.137 95.0957 135.161 95.1544 135.189C103.568 139.33 109.323 147.559 110.431 156.895H116.158C114.888 144.373 106.336 133.732 93.9965 129.522ZM85.2283 91.2759C84.6149 92.2471 84.0696 93.2596 83.5963 94.3062H99.7865C100.206 93.2672 100.69 92.2552 101.235 91.2759H85.2283ZM98.3385 99.092H81.9881C81.7616 100.091 81.5982 101.103 81.4989 102.122H97.8797C97.9757 101.104 98.1289 100.093 98.3385 99.092ZM81.9881 109.934H98.2714C98.075 108.932 97.9356 107.919 97.8537 106.902H81.4966C81.5958 107.922 81.7599 108.935 81.9881 109.934ZM83.5963 114.719C84.0696 115.766 84.615 116.779 85.2283 117.75H101.083C100.552 116.769 100.081 115.757 99.672 114.719H83.5963ZM106.025 57.5491C106.395 56.5591 106.701 55.5461 106.94 54.5166H81.8408C82.0806 55.5461 82.3864 56.559 82.7563 57.5491H106.025ZM101.983 64.6096C102.761 63.6524 103.468 62.6396 104.098 61.5793H84.6849C85.3125 62.6412 86.0194 63.6542 86.7995 64.6096H101.983ZM82.7542 151.483C82.3847 152.472 82.0796 153.485 81.8408 154.513H106.94C106.701 153.485 106.395 152.472 106.025 151.483H82.7542ZM104.094 147.446C103.464 146.385 102.757 145.371 101.977 144.414H86.8017C86.0219 145.371 85.3144 146.385 84.6849 147.446H104.094ZM157.178 64.3058L153.447 70.7725C153.314 71.0031 153.123 71.1945 152.892 71.3276C152.662 71.4608 152.401 71.5309 152.134 71.5309H145.542L142.25 77.2338C142.117 77.4641 141.925 77.6555 141.695 77.7885C141.464 77.9215 141.203 77.9916 140.937 77.9917H134.345L132.464 81.2481C137.985 82.9251 142.691 86.4579 145.865 91.356C149.424 96.8495 150.63 103.4 149.26 109.802C146.806 121.295 136.612 129.186 125.3 129.187C123.61 129.187 121.895 129.01 120.177 128.644C106.966 125.816 98.5142 112.77 101.335 99.5607C102.705 93.1581 106.484 87.6726 111.977 84.1139C117.174 80.7465 123.317 79.4874 129.384 80.5212L131.72 76.4761L128.427 70.7732C128.294 70.5428 128.224 70.2816 128.224 70.0156C128.224 69.7497 128.294 69.4884 128.427 69.258L131.721 63.5486L128.865 58.5974H122.273C121.871 58.5974 121.486 58.4378 121.201 58.1535C120.917 57.8693 120.758 57.4838 120.758 57.0819C120.758 56.6799 120.917 56.2944 121.201 56.0102C121.486 55.726 121.871 55.5663 122.273 55.5663H128.865L132.158 49.8632C132.291 49.6328 132.482 49.4415 132.713 49.3085C132.943 49.1755 133.205 49.1055 133.471 49.1055H140.937C141.203 49.1055 141.465 49.1756 141.695 49.3086C141.925 49.4416 142.117 49.6328 142.25 49.8632L145.543 55.5663H151.26L154.552 49.8632C154.652 49.6908 154.784 49.5398 154.942 49.4186C155.1 49.2975 155.28 49.2086 155.473 49.1571C155.665 49.1056 155.865 49.0925 156.063 49.1185C156.26 49.1445 156.45 49.2091 156.623 49.3086C156.795 49.4081 156.946 49.5406 157.067 49.6985C157.188 49.8564 157.277 50.0366 157.329 50.2288C157.38 50.4211 157.393 50.6215 157.367 50.8188C157.341 51.0161 157.277 51.2064 157.177 51.3787L153.884 57.0823L157.177 62.7915C157.31 63.0217 157.38 63.2828 157.38 63.5486C157.38 63.8145 157.31 64.0756 157.178 64.3058ZM134.346 62.0332H140.062L142.087 58.5228L142.918 57.0825L140.062 52.1366H134.345L131.49 57.0825L134.346 62.0332ZM129.786 83.6828L129.785 83.6826C128.295 83.3627 126.776 83.201 125.252 83.2001C121.157 83.2001 117.144 84.3778 113.626 86.6576C108.812 89.7763 105.5 94.5836 104.3 100.194C101.828 111.769 109.235 123.202 120.811 125.68C122.287 125.995 123.792 126.155 125.3 126.156C135.213 126.156 144.146 119.241 146.297 109.169C147.497 103.558 146.44 97.8179 143.322 93.0041C140.203 88.1905 135.396 84.8803 129.786 83.6828ZM142.918 70.0151L142.087 68.5748L140.062 65.0642H134.346L131.49 70.0151L134.345 74.9607H140.062L142.918 70.0151ZM154.115 63.5486L151.259 58.5974H145.543L142.687 63.5486L145.543 68.4999H151.259L154.115 63.5486ZM142.732 125.977C142.654 126.044 142.574 126.109 142.494 126.172C140.983 127.378 139.349 128.423 137.619 129.289L145.981 142.158C146.896 143.567 148.788 143.972 150.195 143.063C151.604 142.147 152.009 140.258 151.098 138.853L142.732 125.977ZM107.806 125.936C106.448 124.815 105.201 123.566 104.083 122.206C102.316 124.375 100.224 126.257 97.8818 127.786C99.5934 128.535 101.245 129.414 102.821 130.416C104.631 129.097 106.301 127.595 107.806 125.936ZM104.206 86.9622C105.34 85.617 106.6 84.384 107.97 83.2803C106.434 81.5531 104.711 79.9924 102.821 78.6116C101.244 79.6131 99.593 80.4923 97.8818 81.2414C100.278 82.8037 102.412 84.7344 104.206 86.9622ZM130.057 97.4918L129.126 99.1487C128.612 99.0119 128.082 98.9426 127.55 98.9426C126.128 98.9413 124.751 99.435 123.655 100.339L119.528 97.2908C119.721 96.7611 119.82 96.2014 119.82 95.6374C119.82 92.9773 117.653 90.8133 114.99 90.8133C112.33 90.8133 110.166 92.9775 110.166 95.6374C110.166 98.2974 112.33 100.461 114.99 100.461C115.969 100.461 116.88 100.168 117.642 99.6663L121.857 102.78C121.384 103.941 121.28 105.22 121.559 106.442L117.364 108.585C116.514 107.909 115.459 107.541 114.373 107.542C111.71 107.542 109.543 109.706 109.543 112.366C109.543 115.029 111.71 117.195 114.373 117.195C117.033 117.195 119.197 115.029 119.197 112.366C119.197 111.94 119.141 111.528 119.037 111.134L122.939 109.14C124.066 110.42 125.714 111.23 127.549 111.23C128.48 111.23 129.362 111.021 130.153 110.649L131.751 112.592C131.238 113.375 130.965 114.291 130.965 115.228C130.965 117.888 133.132 120.052 135.795 120.052C138.455 120.052 140.619 117.888 140.619 115.228C140.619 112.565 138.455 110.398 135.795 110.398C135.206 110.398 134.641 110.505 134.119 110.699L132.495 108.725C133.274 107.672 133.694 106.396 133.693 105.086C133.693 103.333 132.953 101.75 131.771 100.629L132.744 98.8952C132.997 98.9361 133.255 98.958 133.519 98.958C136.179 98.958 138.343 96.7938 138.343 94.1339C138.343 91.471 136.179 89.3047 133.519 89.3047C130.856 89.3047 128.689 91.471 128.689 94.1339C128.69 95.4383 129.211 96.6225 130.057 97.4918Z" fill="url(#paint1_linear_1346_835)"/>
</g>
<defs>
<linearGradient id="paint0_linear_1346_835" x1="0" y1="0" x2="202.841" y2="225.711" gradientUnits="userSpaceOnUse">
<stop offset="0.125652" stop-color="#F5F5F5"/>
<stop offset="0.869819" stop-color="#E5E5E5"/>
</linearGradient>
<linearGradient id="paint1_linear_1346_835" x1="72.6201" y1="156.895" x2="169.591" y2="150.113" gradientUnits="userSpaceOnUse">
<stop offset="0.323057" stop-color="#F98D1B"/>
<stop offset="1" stop-color="#FFC180"/>
</linearGradient>
<clipPath id="clip0_1346_835">
<rect width="108" height="122" fill="white" transform="translate(60.5 42)"/>
</clipPath>
</defs>
</svg>
