<svg width="227" height="204" viewBox="0 0 227 204" fill="none" xmlns="http://www.w3.org/2000/svg">
<rect width="227" height="204" rx="20" fill="url(#paint0_linear_1346_830)"/>
<path d="M68.4131 157.059H61C62.1328 147.505 68.0098 138.893 77.3714 133.127C79.2995 134.219 81.3181 135.175 83.407 135.984C75.1352 140.649 69.5867 148.395 68.4131 157.059ZM113.248 109.035L106.274 106.751C104.785 114.869 99.4023 122.128 91.6358 126.589C93.7383 127.398 95.7751 128.356 97.719 129.448C105.685 124.466 111.263 117.125 113.248 109.035ZM97.719 75.0231C95.7773 76.1129 93.7405 77.0712 91.638 77.8778C99.4046 82.3411 104.785 89.5979 106.274 97.7224L113.248 95.4319C111.263 87.3413 105.685 80.0007 97.719 75.0231ZM77.3669 71.3415C79.2904 70.2517 81.3113 69.2979 83.4093 68.4823C75.1352 63.8196 69.5845 56.0712 68.4131 47.4074H61C62.1328 56.957 68.0076 65.5687 77.3669 71.3415ZM106.689 47.4074C105.356 57.213 98.4236 65.8428 88.2895 70.1611C88.2328 70.186 88.1762 70.2064 88.1173 70.2245C84.6078 71.2622 81.2887 72.6986 78.2505 74.493C67.4706 80.8639 61.034 91.2337 61.034 102.233C61.034 113.24 67.4706 123.609 78.2505 129.974C81.3091 131.779 84.6282 133.216 88.115 134.242C88.1739 134.26 88.2328 134.281 88.2895 134.305C98.4236 138.624 105.356 147.254 106.689 157.059H114.099C112.296 141.306 98.6637 131.82 87.2178 128.435C87.1589 128.417 87.1023 128.397 87.0456 128.374C75.7266 123.548 68.4131 113.287 68.4131 102.233C68.4131 91.1793 75.7266 80.9183 87.0456 76.0925C87.1023 76.0698 87.1589 76.0494 87.2178 76.0313C98.666 72.651 112.296 63.1671 114.099 47.4074H106.689ZM76.2748 88.3812C75.5272 89.3985 74.8634 90.4588 74.2879 91.5531H100.8C100.217 90.448 99.5517 89.3878 98.811 88.3812H76.2748ZM71.73 99.7297H103.367C103.243 98.6586 103.042 97.5978 102.765 96.5556H72.3281C72.0519 97.5977 71.852 98.6586 71.73 99.7297ZM72.3281 107.911H102.765C103.041 106.871 103.245 105.811 103.369 104.737H71.73C71.8501 105.808 72.0517 106.869 72.3281 107.911ZM98.8133 116.085C99.5587 115.07 100.222 114.01 100.802 112.913H74.2856C74.8634 114.008 75.5272 115.068 76.2726 116.085H98.8133ZM101.836 53.0715C102.284 52.0406 102.658 50.9803 102.95 49.8973H72.1491C72.4437 50.9803 72.8175 52.0406 73.2661 53.0715H101.836ZM96.9011 60.4687C97.8527 59.4673 98.7136 58.4093 99.4816 57.2969H75.6178C76.3836 58.4093 77.2468 59.4696 78.1961 60.4687H96.9011ZM73.2661 151.395C72.8175 152.426 72.4437 153.486 72.1491 154.569H102.95C102.656 153.486 102.282 152.426 101.833 151.395H73.2661ZM99.4794 147.17C98.7136 146.06 97.8504 144.999 96.9011 143.998H78.1938C77.2468 144.999 76.3836 146.06 75.6178 147.17H99.4794ZM119.673 99.1561C119.822 99.3299 120.007 99.4694 120.214 99.5649C120.422 99.6604 120.649 99.7097 120.878 99.7094C121.256 99.7096 121.623 99.5739 121.91 99.3269L130.599 91.8707C130.918 91.5968 131.116 91.2072 131.148 90.7877C131.18 90.3682 131.044 89.9532 130.77 89.6339C130.496 89.3146 130.106 89.1173 129.687 89.0852C129.267 89.0532 128.852 89.1891 128.533 89.4631L119.844 96.9192C119.686 97.0549 119.556 97.2203 119.462 97.4062C119.367 97.592 119.311 97.7946 119.295 98.0023C119.279 98.21 119.304 98.4188 119.369 98.6168C119.434 98.8147 119.537 98.998 119.673 99.1561ZM130.599 113.161L121.91 105.705C121.752 105.569 121.568 105.466 121.37 105.401C121.172 105.336 120.964 105.311 120.756 105.327C120.548 105.343 120.346 105.399 120.16 105.494C119.974 105.588 119.809 105.718 119.673 105.876C119.537 106.034 119.434 106.217 119.369 106.415C119.304 106.613 119.279 106.822 119.295 107.03C119.311 107.237 119.367 107.44 119.462 107.626C119.556 107.811 119.686 107.977 119.844 108.113L128.533 115.569C128.82 115.816 129.186 115.952 129.565 115.951C129.889 115.951 130.206 115.852 130.472 115.667C130.738 115.482 130.941 115.22 131.053 114.916C131.166 114.612 131.183 114.281 131.102 113.967C131.02 113.653 130.845 113.372 130.599 113.161ZM123.747 104.102H133.978C134.399 104.102 134.802 103.935 135.1 103.638C135.397 103.34 135.564 102.937 135.564 102.516C135.564 102.095 135.397 101.692 135.1 101.394C134.802 101.097 134.399 100.929 133.978 100.929H123.747C122.871 100.929 122.161 101.64 122.161 102.516C122.161 103.392 122.871 104.102 123.747 104.102ZM141.19 115.018L144.679 119.302C145.954 118.48 147.438 118.038 148.992 118.038C150.551 118.038 152.033 118.48 153.306 119.302L156.791 115.018C154.52 113.405 151.804 112.528 148.992 112.528C146.181 112.528 143.462 113.405 141.19 115.018ZM162.457 126.321C162.459 126.222 162.461 126.115 162.461 126.002C162.459 122.748 161.282 119.603 159.147 117.148L151.038 127.121L156.424 133.739L162.457 126.321ZM131.49 151.141L137.975 156.416L146.946 145.387L141.557 138.764L131.49 151.141ZM143.21 122.526L138.836 117.15C136.71 119.592 135.519 122.739 135.519 126.002C135.519 126.115 135.521 126.222 135.523 126.321L160.012 156.413L166.492 151.141L143.21 122.526ZM131.486 63.8672C131.04 63.8672 130.609 63.9442 130.213 64.0847C128.717 64.6103 127.646 66.0354 127.646 67.7074C127.646 69.8258 129.368 71.5476 131.486 71.5476C131.57 71.5476 131.654 71.5454 131.737 71.5386H131.76C131.769 71.5386 131.778 71.5363 131.787 71.5363C132.791 71.4548 133.717 70.9835 134.375 70.2313C133.865 69.2397 133.599 68.1405 133.6 67.0255C133.6 66.2393 133.731 65.4848 133.971 64.778C133.287 64.1912 132.415 63.8672 131.486 63.8672ZM129.836 58.1578C129.836 59.0799 130.049 59.9658 130.457 60.7701C130.793 60.718 131.137 60.693 131.486 60.693C132.999 60.693 134.463 61.1892 135.659 62.0751C136.534 61.196 137.639 60.5503 138.872 60.2331C138.872 58.3961 139.441 56.6042 140.501 55.1037C139.982 54.2724 139.26 53.5869 138.403 53.112C137.546 52.6371 136.582 52.3885 135.603 52.3895C132.424 52.3895 129.836 54.9769 129.836 58.1578ZM147.914 64.4381C146.233 64.4381 144.715 65.1631 143.659 66.3186C143.657 66.3231 143.652 66.3276 143.648 66.3322C143.63 66.3503 143.614 66.3707 143.598 66.3888C142.663 67.443 142.147 68.8039 142.148 70.2132C142.148 73.3919 144.735 75.9792 147.914 75.9792C151.097 75.9792 153.689 73.3919 153.689 70.2132C153.689 67.0277 151.097 64.4381 147.914 64.4381ZM147.914 61.2662C149.79 61.2662 151.53 61.8462 152.969 62.834C153.367 62.0388 153.578 61.1552 153.578 60.2444C153.578 57.0635 150.991 54.4784 147.812 54.4784C144.631 54.4784 142.044 57.0635 142.044 60.2444C142.044 61.196 142.275 62.1181 142.712 62.9405C144.178 61.887 145.975 61.2662 147.914 61.2662ZM139.434 63.371C138.503 63.6746 137.728 64.3226 137.256 65.1631C137.25 65.1767 137.241 65.1903 137.234 65.2062C137.225 65.2265 137.213 65.2492 137.202 65.2696C136.926 65.7952 136.772 66.3933 136.772 67.0255C136.772 68.5593 137.676 69.8869 138.978 70.5032C138.976 70.4058 138.974 70.3106 138.974 70.2132C138.974 68.403 139.513 66.7196 140.442 65.3104C140.027 64.708 139.688 64.0566 139.434 63.371ZM136.443 72.6623C135.649 73.4593 134.675 74.0524 133.602 74.391C134.019 76.4346 135.566 78.0681 137.56 78.6051C137.562 78.6051 137.565 78.6073 137.567 78.6073C137.585 78.6121 137.603 78.6164 137.621 78.6232C138.058 78.7365 138.521 78.7976 138.994 78.7976C140.365 78.7976 141.647 78.3015 142.637 77.4247C141.432 76.5411 140.455 75.3607 139.814 73.9945C138.593 73.8553 137.43 73.3957 136.443 72.6623ZM136.975 86.9607L138.317 81.9469C137.227 81.8608 136.194 81.573 135.254 81.1222L133.91 86.1405C133.684 86.9856 134.186 87.8556 135.032 88.0822C135.438 88.1911 135.871 88.1342 136.236 87.9239C136.6 87.7136 136.866 87.3671 136.975 86.9607ZM119.378 72.5377C119.514 72.5377 119.652 72.5196 119.791 72.4833L125.301 71.0062C124.794 70.0623 124.512 69.0139 124.478 67.943L118.971 69.418C118.123 69.6445 117.62 70.5145 117.849 71.3619C118.037 72.0687 118.678 72.5377 119.378 72.5377ZM129.125 52.0021C129.857 51.234 130.722 50.5929 131.683 50.1216L129.136 46.6484C128.62 45.9415 127.627 45.7897 126.921 46.3063C126.214 46.8251 126.06 47.8175 126.579 48.5244L129.125 52.0021ZM155.789 56.2094L159.827 53.1689C160.162 52.9151 160.383 52.5385 160.442 52.1218C160.5 51.7051 160.39 51.2823 160.137 50.9463C159.884 50.6108 159.507 50.3897 159.091 50.3315C158.675 50.2733 158.252 50.3828 157.917 50.6359L153.875 53.6809C154.654 54.3991 155.304 55.2555 155.789 56.2094ZM156.933 83.6483C157.257 83.6483 157.586 83.5487 157.869 83.3402C158.576 82.8237 158.728 81.8313 158.211 81.1244L154.582 76.165C153.871 76.9593 153.025 77.6213 152.083 78.1202L155.651 82.9981C155.799 83.1997 155.992 83.3637 156.214 83.4767C156.437 83.5897 156.684 83.6485 156.933 83.6483ZM126.554 81.9131C126.554 78.9669 124.157 76.5698 121.211 76.5698C118.264 76.5698 115.867 78.9669 115.867 81.9131C115.867 84.8632 118.264 87.2629 121.211 87.2629C124.157 87.2629 126.554 84.8632 126.554 81.9131Z" fill="url(#paint1_linear_1346_830)"/>
<defs>
<linearGradient id="paint0_linear_1346_830" x1="0" y1="0" x2="202.841" y2="225.711" gradientUnits="userSpaceOnUse">
<stop offset="0.125652" stop-color="#F5F5F5"/>
<stop offset="0.869819" stop-color="#E5E5E5"/>
</linearGradient>
<linearGradient id="paint1_linear_1346_830" x1="61" y1="157.059" x2="181.42" y2="146.886" gradientUnits="userSpaceOnUse">
<stop offset="0.323057" stop-color="#F98D1B"/>
<stop offset="1" stop-color="#FFC180"/>
</linearGradient>
</defs>
</svg>
