<svg width="227" height="204" viewBox="0 0 227 204" fill="none" xmlns="http://www.w3.org/2000/svg">
<rect width="227" height="204" rx="20" fill="url(#paint0_linear_1346_823)"/>
<path d="M133.281 112.684C132.541 110.229 130.929 108.302 128.742 107.259C124.19 105.088 118.518 107.444 116.102 112.511C115.454 113.851 115.127 115.325 115.148 116.813C115.169 118.302 115.537 119.766 116.223 121.087L116.507 121.779C116.544 121.889 116.576 121.994 116.6 122.082C116.923 123.286 117.673 124.163 119.018 124.901L124.718 124.93C124.868 124.931 125.015 124.961 125.153 125.019C125.29 125.077 125.415 125.162 125.52 125.268L126.588 126.353C126.695 126.459 126.78 126.584 126.838 126.723C126.896 126.862 126.926 127.01 126.926 127.161C126.926 127.311 126.897 127.46 126.839 127.598C126.78 127.737 126.695 127.862 126.588 127.968C126.481 128.073 126.354 128.156 126.215 128.212C126.075 128.268 125.926 128.296 125.776 128.293C125.626 128.291 125.478 128.259 125.34 128.199C125.202 128.139 125.078 128.052 124.974 127.943L124.236 127.193L118.728 127.165C118.551 127.164 118.376 127.121 118.218 127.04C116.735 126.282 115.675 125.324 115.009 124.139C114.716 124.468 114.499 124.858 114.374 125.281C114.248 125.703 114.218 126.148 114.284 126.584C114.35 127.02 114.512 127.436 114.757 127.802C115.002 128.169 115.325 128.476 115.702 128.704C117.189 129.602 118.829 130.217 120.539 130.518L123.612 131.062C123.891 131.111 124.141 131.263 124.314 131.488C124.486 131.713 124.568 131.994 124.544 132.276C124.519 132.558 124.39 132.821 124.181 133.013C123.972 133.204 123.699 133.31 123.416 133.311C123.349 133.311 123.283 133.305 123.217 133.293L120.144 132.749C118.159 132.4 116.257 131.686 114.532 130.644C114.037 130.345 113.593 129.967 113.22 129.524L113.187 136.992C113.185 137.291 113.065 137.578 112.853 137.79C112.641 138.001 112.353 138.12 112.054 138.12H112.049C111.9 138.119 111.753 138.089 111.616 138.031C111.478 137.974 111.354 137.89 111.249 137.784C111.144 137.679 111.061 137.553 111.005 137.416C110.949 137.278 110.92 137.13 110.921 136.982L110.967 126.638C110.969 126.219 110.854 125.808 110.636 125.45C110.417 125.093 110.103 124.803 109.73 124.614C109.356 124.424 108.937 124.342 108.519 124.377C108.102 124.412 107.702 124.563 107.365 124.812L107.357 124.818L107.353 124.821L97.7841 131.901C97.5429 132.071 97.2446 132.141 96.9529 132.094C96.6612 132.048 96.3992 131.889 96.2226 131.653C96.046 131.416 95.9688 131.12 96.0076 130.827C96.0463 130.534 96.1979 130.268 96.43 130.085L96.4807 126.733C96.4815 126.678 96.4666 126.624 96.4379 126.577C96.4092 126.53 96.3677 126.492 96.3183 126.467C96.2688 126.443 96.2135 126.433 96.1586 126.438C96.1038 126.444 96.0516 126.465 96.0081 126.499L94.7373 127.495C94.6231 127.584 94.5283 127.697 94.459 127.825C94.3896 127.952 94.347 128.093 94.3338 128.238C94.2016 129.747 94.3765 131.267 94.8481 132.706C95.3197 134.146 96.0782 135.475 97.0777 136.613C97.1562 136.626 97.2364 136.622 97.3137 136.603C97.3909 136.585 97.4635 136.55 97.5272 136.503L103.701 131.894C103.82 131.802 103.956 131.735 104.101 131.696C104.246 131.658 104.397 131.648 104.546 131.669C104.695 131.689 104.838 131.739 104.968 131.815C105.097 131.891 105.21 131.993 105.3 132.113C105.39 132.234 105.455 132.371 105.491 132.516C105.528 132.662 105.535 132.814 105.512 132.962C105.489 133.111 105.437 133.253 105.359 133.381C105.281 133.51 105.178 133.621 105.056 133.709L102.496 135.62C102.006 137.466 101.914 139.17 102.249 140.447C102.658 142.012 103.66 143.181 105.225 143.921C108.539 145.489 113.874 144.959 119.147 142.537C122.963 140.783 126.081 138.149 127.927 135.118C129.679 132.24 130.057 129.364 128.992 127.014L128.983 126.998C128.74 126.55 128.664 126.03 128.769 125.532C128.874 125.033 129.153 124.588 129.557 124.276C131.24 122.918 132.49 121.096 133.151 119.037C133.813 116.977 133.858 114.769 133.281 112.684ZM129.535 120.353L127.641 122.486C127.542 122.597 127.423 122.688 127.289 122.753C127.155 122.818 127.01 122.856 126.861 122.864C126.713 122.873 126.564 122.853 126.423 122.804C126.283 122.755 126.153 122.68 126.042 122.581C125.93 122.482 125.84 122.362 125.775 122.229C125.71 122.095 125.672 121.949 125.663 121.801C125.654 121.652 125.675 121.504 125.723 121.363C125.772 121.222 125.848 121.093 125.947 120.982L127.84 118.849C127.955 118.72 128.033 118.563 128.068 118.394C128.102 118.225 128.09 118.05 128.035 117.887C127.979 117.724 127.881 117.578 127.751 117.465C127.621 117.352 127.463 117.276 127.294 117.244C127.147 117.217 127.007 117.161 126.882 117.08C126.756 116.998 126.648 116.893 126.564 116.77C126.48 116.646 126.421 116.508 126.39 116.362C126.359 116.216 126.358 116.065 126.386 115.918C126.414 115.771 126.47 115.632 126.552 115.507C126.634 115.382 126.74 115.275 126.864 115.191C126.988 115.108 127.127 115.049 127.273 115.019C127.419 114.99 127.57 114.989 127.717 115.018C128.28 115.125 128.804 115.379 129.237 115.755C129.669 116.13 129.995 116.614 130.179 117.156C130.364 117.698 130.402 118.28 130.289 118.842C130.175 119.403 129.915 119.925 129.535 120.353Z" fill="url(#paint1_linear_1346_823)"/>
<path d="M87.6877 143.396C87.6815 144.75 87.9421 146.091 88.4545 147.344C88.9669 148.597 89.7211 149.737 90.674 150.698C91.6269 151.659 92.7599 152.423 94.0081 152.947C95.2564 153.47 96.5956 153.743 97.9491 153.748L129.733 153.883H129.778C132.502 153.879 135.114 152.799 137.044 150.877C138.975 148.955 140.067 146.348 140.082 143.624L140.309 93.6362L87.914 93.4008L87.6877 143.396ZM92.4371 98.0281C92.4395 97.7293 92.56 97.4436 92.7722 97.2331C92.9843 97.0227 93.2711 96.9046 93.5699 96.9046H93.5794C93.7282 96.9058 93.8753 96.9363 94.0122 96.9944C94.1492 97.0524 94.2734 97.1369 94.3777 97.243C94.4821 97.349 94.5645 97.4746 94.6203 97.6125C94.6761 97.7504 94.7042 97.8979 94.7029 98.0467L94.693 99.2627C94.6905 99.5615 94.5701 99.8473 94.3579 100.058C94.1457 100.268 93.859 100.386 93.5602 100.386H93.5506C93.4019 100.385 93.2548 100.354 93.1178 100.296C92.9809 100.238 92.8567 100.154 92.7523 100.048C92.648 99.9418 92.5656 99.8162 92.5098 99.6783C92.454 99.5404 92.4259 99.3929 92.4271 99.2441L92.4371 98.0281ZM92.409 104.855C92.4106 104.555 92.5307 104.269 92.7429 104.058C92.9552 103.846 93.2424 103.728 93.5418 103.728H93.5482C93.6969 103.729 93.8441 103.759 93.9813 103.817C94.1184 103.874 94.2428 103.958 94.3475 104.064C94.4521 104.17 94.5349 104.295 94.591 104.433C94.6472 104.571 94.6757 104.718 94.6749 104.867L94.6069 117.137C94.6053 117.436 94.4852 117.723 94.2729 117.934C94.0607 118.145 93.7735 118.264 93.4741 118.264H93.4677C93.319 118.263 93.1718 118.233 93.0347 118.175C92.8975 118.118 92.7731 118.033 92.6685 117.928C92.5639 117.822 92.4811 117.697 92.4249 117.559C92.3687 117.421 92.3402 117.274 92.341 117.125L92.409 104.855ZM92.0769 128.038C92.1178 127.585 92.251 127.144 92.4682 126.744C92.6854 126.344 92.982 125.993 93.3399 125.711L94.611 124.714C94.9911 124.417 95.4477 124.233 95.9281 124.183C96.4085 124.134 96.8929 124.222 97.3254 124.437C97.758 124.651 98.1209 124.984 98.3722 125.397C98.6236 125.809 98.7531 126.284 98.7457 126.767L98.7213 128.388L105.305 123.517C103.048 117.728 104.826 113.172 106.271 109.478C108.032 104.976 109.196 102.001 103.598 98.2003C103.349 98.0316 103.178 97.771 103.121 97.4759C103.065 97.1808 103.128 96.8753 103.297 96.6267C103.466 96.3781 103.726 96.2068 104.021 96.1503C104.316 96.0939 104.622 96.157 104.87 96.3257C111.965 101.143 110.143 105.8 108.382 110.303C106.986 113.871 105.548 117.553 107.279 122.334C108.205 122.027 109.204 122.026 110.13 122.332C111.056 122.637 111.859 123.233 112.419 124.031C112.654 123.492 112.977 122.996 113.375 122.564L114.062 121.816C113.287 120.214 112.884 118.456 112.883 116.676C112.882 114.895 113.284 113.138 114.058 111.534C117.012 105.34 124.037 102.504 129.718 105.213C132.489 106.534 134.525 108.955 135.45 112.029C136.155 114.537 136.111 117.196 135.324 119.679C134.537 122.162 133.041 124.361 131.021 126.005C131.026 126.016 131.031 126.026 131.036 126.036C132.443 129.098 132.026 132.742 129.862 136.295C127.784 139.707 124.315 142.655 120.093 144.594C116.55 146.222 112.934 147.059 109.764 147.059C107.686 147.059 105.802 146.699 104.257 145.968C102.088 144.942 100.637 143.231 100.058 141.02C99.7863 139.904 99.7107 138.749 99.8339 137.607L98.8823 138.317C98.4649 138.63 97.9697 138.822 97.4507 138.872C96.9316 138.923 96.4086 138.831 95.9386 138.605C95.8094 138.543 95.6931 138.457 95.5958 138.352C94.3239 136.972 93.3539 135.342 92.748 133.566C92.1421 131.79 91.9137 129.908 92.0773 128.038L92.0769 128.038ZM144.894 81.1538C144.761 81.0195 144.602 80.913 144.428 80.8405C144.253 80.768 144.066 80.7309 143.877 80.7314H127.462C127.349 72.6973 121.781 68.3074 115.987 64.2973C121.827 60.2418 127.438 55.8032 127.428 47.6236C127.428 47.3234 127.308 47.0356 127.096 46.8235C126.884 46.6114 126.596 46.4922 126.295 46.4922H126.294C126.145 46.4924 125.998 46.5218 125.861 46.5789C125.723 46.636 125.599 46.7196 125.494 46.8249C125.388 46.9303 125.305 47.0552 125.248 47.1927C125.192 47.3303 125.163 47.4776 125.163 47.6264C125.178 49.3064 124.866 50.9735 124.245 52.5344L103.73 52.5636C103.103 51.0027 102.787 49.3347 102.799 47.6529C102.798 47.3527 102.679 47.0649 102.466 46.8527C102.254 46.6406 101.966 46.5214 101.666 46.5214H101.665C101.516 46.5216 101.368 46.5511 101.231 46.6082C101.094 46.6653 100.969 46.7489 100.864 46.8542C100.759 46.9595 100.676 47.0845 100.619 47.222C100.562 47.3595 100.533 47.5068 100.533 47.6556C100.543 55.825 106.152 60.2563 111.993 64.3005C106.215 68.3133 100.672 72.7084 100.577 80.7314H84.1574C83.7785 80.7323 83.4152 80.8827 83.1467 81.15C82.8781 81.4173 82.726 81.7799 82.7235 82.1588L82.6895 89.677C82.6885 89.8654 82.7247 90.052 82.796 90.2264C82.8672 90.4007 82.9721 90.5593 83.1047 90.6931C83.2372 90.8269 83.3948 90.9333 83.5685 91.0061C83.7422 91.079 83.9285 91.1169 84.1168 91.1178L143.836 91.386H143.843C144.222 91.386 144.585 91.2358 144.854 90.9684C145.123 90.7009 145.275 90.3378 145.277 89.9587L145.311 82.1719C145.313 81.983 145.276 81.7957 145.205 81.6209C145.133 81.4461 145.027 81.2873 144.894 81.1538ZM104.916 54.8274L123.064 54.8018C120.976 58.019 117.576 60.4546 113.99 62.9245C110.405 60.4641 107.008 58.0349 104.916 54.8274ZM113.991 65.6732C117.202 67.8774 120.265 70.0551 122.375 72.7873L105.576 72.8743C107.677 70.1029 110.757 67.9005 113.991 65.6732ZM104.158 75.148L123.812 75.0463C124.707 76.8086 125.18 78.7548 125.195 80.7314H102.843C102.852 78.7945 103.302 76.8851 104.159 75.148H104.158Z" fill="url(#paint2_linear_1346_823)"/>
<defs>
<linearGradient id="paint0_linear_1346_823" x1="0" y1="0" x2="202.841" y2="225.711" gradientUnits="userSpaceOnUse">
<stop offset="0.125652" stop-color="#F5F5F5"/>
<stop offset="0.869819" stop-color="#E5E5E5"/>
</linearGradient>
<linearGradient id="paint1_linear_1346_823" x1="94.291" y1="144.811" x2="139.204" y2="140.709" gradientUnits="userSpaceOnUse">
<stop offset="0.323057" stop-color="#F98D1B"/>
<stop offset="1" stop-color="#FFC180"/>
</linearGradient>
<linearGradient id="paint2_linear_1346_823" x1="82.6895" y1="153.883" x2="154.489" y2="150.159" gradientUnits="userSpaceOnUse">
<stop offset="0.323057" stop-color="#F98D1B"/>
<stop offset="1" stop-color="#FFC180"/>
</linearGradient>
</defs>
</svg>
