<svg width="227" height="204" viewBox="0 0 227 204" fill="none" xmlns="http://www.w3.org/2000/svg">
<rect width="227" height="204" rx="20" fill="url(#paint0_linear_1346_843)"/>
<g clip-path="url(#clip0_1346_843)">
<path d="M155.018 86.3291V83.9739C158.023 83.2709 160.29 80.5818 160.29 77.3655C160.29 73.6394 157.232 70.5812 153.488 70.5812C149.762 70.5812 146.704 73.6394 146.704 77.3655C146.704 80.4588 148.778 83.0424 151.608 83.8509V86.3291C151.608 88.0164 150.219 89.4049 148.532 89.4049H129.55V92.8145H148.532C150.251 92.8099 151.898 92.1251 153.113 90.9099C154.328 89.6946 155.013 88.0477 155.018 86.3291ZM142.064 70.423V68.0679C145.07 67.3649 147.337 64.6758 147.337 61.4594C147.337 57.7333 144.279 54.6927 140.535 54.6927C136.809 54.6927 133.751 57.7333 133.751 61.4594C133.751 64.5527 135.825 67.1364 138.655 67.9448V70.423C138.655 72.1103 137.266 73.4988 135.579 73.4988H129.55V76.9085H135.579C137.297 76.9039 138.944 76.2191 140.16 75.0038C141.375 73.7886 142.06 72.1417 142.064 70.423ZM155.018 129.038V126.683C155.013 124.969 154.33 123.327 153.118 122.115C151.906 120.903 150.264 120.22 148.55 120.215H129.568V123.625H148.55C150.237 123.625 151.625 125.013 151.625 126.701V129.179C148.796 130.005 146.722 132.588 146.722 135.664C146.722 139.39 149.78 142.448 153.506 142.448C157.25 142.448 160.308 139.39 160.308 135.664C160.29 134.128 159.76 132.642 158.802 131.442C157.844 130.241 156.512 129.395 155.018 129.038ZM139.199 140.392V138.037C139.199 134.452 136.299 131.569 132.732 131.569H129.568V134.979H132.732C134.419 134.979 135.807 136.35 135.807 138.055V140.515C132.995 141.359 130.921 143.925 130.921 147.018C130.921 150.744 133.962 153.785 137.688 153.785C141.432 153.785 144.49 150.744 144.49 147.018C144.475 145.481 143.946 143.994 142.988 142.793C142.029 141.592 140.695 140.746 139.199 140.392ZM153.295 113.29C155.098 113.286 156.825 112.568 158.1 111.293C159.374 110.018 160.092 108.291 160.097 106.488C160.097 102.762 157.039 99.7218 153.295 99.7218C150.167 99.7218 147.513 101.884 146.775 104.801H129.568V108.211H146.775C147.53 111.128 150.149 113.29 153.295 113.29ZM111.289 50C103.169 50 96.5782 56.5909 96.5782 64.8515C96.5782 65.6952 96.7188 66.5388 96.8594 67.3648C95.3127 66.8024 93.643 66.5212 91.8152 66.5212C83.6952 66.5212 77.1042 73.1121 77.1042 81.3727C77.1042 82.2515 77.1921 83.0952 77.3503 83.9388C77.3679 83.9564 77.403 83.9739 77.4206 83.9915C79.9164 86.6279 83.3085 88.0691 86.9643 88.0691C87.9133 88.0691 88.6691 88.8249 88.6691 89.7739C88.6691 90.723 87.9133 91.4788 86.9643 91.4788C83.1679 91.4788 79.6 90.2133 76.6824 87.9109C74.096 89.0608 71.8989 90.9367 70.3577 93.3109C68.8165 95.6851 67.9975 98.4555 68 101.286C68 108.158 72.763 114.028 79.2133 115.575C77.8073 117.825 77.1042 120.338 77.1042 123.133C77.1042 131.112 83.6952 137.844 91.8152 137.844C92.5533 137.844 93.2915 137.773 94.0297 137.668C94.8619 135.124 96.3098 132.826 98.2446 130.977C100.179 129.128 102.541 127.786 105.12 127.07C102.997 125.032 101.467 122.456 100.691 119.618C99.1618 120.883 97.2988 121.797 95.1897 122.201C95.0842 122.219 94.9788 122.236 94.8733 122.236C94.4513 122.23 94.0466 122.067 93.7368 121.78C93.4271 121.493 93.2341 121.102 93.195 120.682C93.1558 120.262 93.2731 119.842 93.5244 119.503C93.7758 119.163 94.1434 118.929 94.557 118.844C95.699 118.627 96.7862 118.183 97.7549 117.541C98.7237 116.898 99.5545 116.068 100.199 115.101C100.269 114.837 100.392 114.608 100.585 114.415C101.517 112.728 101.921 110.724 101.57 108.633C101.495 108.185 101.601 107.726 101.865 107.357C102.129 106.988 102.528 106.739 102.976 106.664C103.423 106.59 103.882 106.696 104.251 106.96C104.62 107.223 104.87 107.623 104.944 108.07C105.436 110.988 104.892 113.8 103.573 116.173C104.048 122.975 109.672 128.212 116.632 128.212C117.581 128.212 118.337 128.968 118.337 129.917C118.337 130.866 117.581 131.622 116.632 131.622C114.028 131.628 111.458 131.026 109.127 129.864C102.941 130.075 97.9667 134.522 96.8418 140.427C98.0721 147.317 104.065 152.555 111.307 152.555C119.427 152.555 126.158 145.964 126.158 137.844V100.302C125.736 100.337 125.315 100.39 124.91 100.39C122.661 100.39 120.446 99.7921 118.442 98.6497C116.107 97.2958 114.257 95.2423 113.152 92.7794C111.184 93.9218 108.969 94.5194 106.649 94.5194C106.421 94.5194 106.192 94.5194 105.964 94.5018C105.015 94.4491 104.294 93.6582 104.347 92.7091C104.399 91.76 105.208 91.057 106.139 91.0921C108.671 91.2224 111.152 90.3511 113.047 88.6667C113.993 87.8249 114.761 86.8015 115.305 85.6572C115.848 84.5129 116.156 83.2711 116.21 82.0055C116.263 81.0564 117.089 80.3358 118.003 80.3885C118.935 80.4412 119.673 81.2321 119.62 82.1812C119.472 85.3263 118.178 88.3083 115.982 90.5648C116.738 92.7267 118.179 94.537 120.165 95.6794C121.993 96.7339 124.084 97.1206 126.176 96.8394V64.8515C126.141 56.5733 119.409 50 111.289 50Z" fill="url(#paint1_linear_1346_843)"/>
</g>
<defs>
<linearGradient id="paint0_linear_1346_843" x1="0" y1="0" x2="202.841" y2="225.711" gradientUnits="userSpaceOnUse">
<stop offset="0.125652" stop-color="#F5F5F5"/>
<stop offset="0.869819" stop-color="#E5E5E5"/>
</linearGradient>
<linearGradient id="paint1_linear_1346_843" x1="68" y1="153.785" x2="173.462" y2="145.443" gradientUnits="userSpaceOnUse">
<stop offset="0.323057" stop-color="#F98D1B"/>
<stop offset="1" stop-color="#FFC180"/>
</linearGradient>
<clipPath id="clip0_1346_843">
<rect width="116" height="116" fill="white" transform="translate(56 44)"/>
</clipPath>
</defs>
</svg>
