<svg width="227" height="204" viewBox="0 0 227 204" fill="none" xmlns="http://www.w3.org/2000/svg">
<rect width="227" height="204" rx="20" fill="url(#paint0_linear_1346_850)"/>
<path fill-rule="evenodd" clip-rule="evenodd" d="M110.641 51.9871C110.461 49.941 108.773 48.3965 106.718 48.3965H106.355C105.332 48.3924 104.347 48.7884 103.612 49.5C102.877 50.2116 102.449 51.1824 102.42 52.2051C102.244 57.5535 101.358 61.6809 99.7149 64.8239C97.4907 69.0707 93.7149 71.5715 89.9649 73.2262L90.1665 73.2825C92.9204 74.0535 96.3141 75.3403 99.736 77.4684C102.52 75.3356 104.85 72.7246 106.664 69.6942C109.823 64.4184 111.199 58.2942 110.641 51.9871ZM97.6266 141.457H73.5563C72.9399 142.84 72.4665 144.439 72.136 146.279H99.0469C98.7165 144.436 98.243 142.838 97.6266 141.457ZM92.8313 103.475H71.6344C71.9883 106.224 72.7711 108.291 74.168 110.178H92.2735C92.2641 109.873 92.2571 109.566 92.2571 109.259C92.2571 107.29 92.4516 105.359 92.8313 103.475ZM96.6071 93.9567H74.168C72.7711 95.8434 71.986 97.9106 71.6344 100.66H93.5461C94.2727 98.3043 95.2993 96.059 96.6071 93.9567ZM73.5563 62.677C72.9399 61.2942 72.4665 59.6957 72.136 57.8559H99.0469C98.7165 59.6957 98.243 61.2942 97.6266 62.677H73.5563ZM143.091 135.071L147.096 131.065L143.712 127.683C143.11 128.413 142.474 129.113 141.804 129.781C141.129 130.458 140.426 131.091 139.704 131.686L143.091 135.071ZM166.324 147.312C168.251 149.239 168.251 152.372 166.324 154.299C165.396 155.227 164.156 155.738 162.83 155.738C161.503 155.738 160.266 155.227 159.338 154.299L143.588 138.549L150.574 131.562L166.324 147.312ZM136.676 93.8629C145.163 102.35 145.163 116.161 136.676 124.648C132.431 128.893 126.858 131.014 121.284 131.014C115.711 131.014 110.135 128.893 105.891 124.648C97.404 116.161 97.404 102.35 105.891 93.8629C114.377 85.3785 128.187 85.3785 136.676 93.8629ZM139.816 127.793C129.595 138.012 112.966 138.012 102.748 127.793C97.7977 122.841 95.0696 116.26 95.0696 109.259C95.0696 102.256 97.7954 95.6746 102.748 90.7223C107.698 85.7723 114.281 83.0465 121.282 83.0465C128.283 83.0465 134.866 85.7723 139.816 90.7223C144.766 95.6746 147.495 102.256 147.495 109.259C147.495 116.26 144.766 122.839 139.816 127.793ZM107.878 122.663C100.488 115.271 100.488 103.245 107.878 95.8551C115.268 88.4629 127.294 88.4629 134.686 95.8551C142.076 103.245 142.076 115.271 134.686 122.663C130.99 126.357 126.136 128.206 121.282 128.206C116.428 128.204 111.574 126.354 107.878 122.663ZM133.165 103.318C133.428 103.054 133.576 102.697 133.576 102.324C133.576 101.951 133.428 101.594 133.165 101.33C133.035 101.199 132.88 101.095 132.709 101.024C132.539 100.953 132.356 100.917 132.171 100.917C131.986 100.917 131.804 100.953 131.633 101.024C131.463 101.095 131.308 101.199 131.177 101.33L118.303 114.204L111.389 107.29C110.841 106.742 109.95 106.742 109.399 107.29C109.136 107.554 108.988 107.911 108.988 108.284C108.988 108.657 109.136 109.014 109.399 109.278L117.307 117.188C117.572 117.45 117.928 117.598 118.301 117.598C118.673 117.598 119.032 117.45 119.295 117.188L133.165 103.318ZM71.4446 126.668C74.8641 128.797 78.2579 130.083 81.0141 130.854L81.2157 130.911C77.4657 132.565 73.6899 135.066 71.4657 139.313C69.8204 142.456 68.9368 146.583 68.761 151.932C68.6907 154.067 66.961 155.74 64.8258 155.74H64.4649C62.4094 155.74 60.7219 154.196 60.5415 152.15C59.9836 145.84 61.3594 139.718 64.5188 134.443C66.3329 131.41 68.6602 128.799 71.4446 126.668ZM77.9391 84.2184C79.029 84.6239 80.1094 84.9801 81.1758 85.32C78.2368 86.5457 75.3352 88.2614 72.7711 91.2075C70.2258 94.1325 69.0001 97.3504 68.679 101.968C68.6743 102.033 68.6743 102.099 68.679 102.164C69.0001 106.782 70.2258 110 72.7711 112.925C76.9454 117.72 81.9868 119.276 87.3235 120.922C88.9383 121.421 90.6071 121.936 92.2594 122.55C93.7829 123.118 95.2524 123.811 96.6352 124.606C97.7954 126.46 99.1711 128.194 100.756 129.779C102.534 131.557 104.487 133.055 106.559 134.274C106.591 134.33 106.627 134.384 106.659 134.44C109.819 139.716 111.195 145.838 110.637 152.147C110.456 154.193 108.769 155.738 106.713 155.738H106.35C105.327 155.742 104.343 155.346 103.607 154.634C102.872 153.923 102.444 152.952 102.415 151.929C102.239 146.581 101.353 142.454 99.7102 139.311C96.2297 132.664 89.236 130.236 81.7665 128.143C75.204 126.305 69.3961 122.588 65.4188 117.678C62.0157 113.48 60.204 107.811 60.4477 102.127C60.4501 102.087 60.4501 102.047 60.4477 102.005C60.204 96.3215 62.018 90.6543 65.4188 86.4543C67.1157 84.359 69.1243 82.491 71.393 80.8879C73.411 82.2285 75.5977 83.3512 77.9391 84.2184ZM89.4094 75.9895C95.4704 77.6864 100.884 80.9887 104.81 85.3504C103.376 86.3442 102.019 87.4715 100.76 88.7325C99.9446 89.5457 99.1875 90.4035 98.4821 91.2918C98.4563 91.2637 98.4352 91.2356 98.4094 91.2075C94.2352 86.4121 89.1938 84.8559 83.8571 83.2106C82.2422 82.7114 80.5711 82.1957 78.9188 81.5817C72.7922 79.3035 67.8094 75.1926 64.5165 69.6918C61.3571 64.4184 59.9813 58.2942 60.5391 51.9871C60.7196 49.941 62.4071 48.3965 64.4626 48.3965H64.8235C66.961 48.3965 68.6883 50.07 68.7586 52.2051C68.9344 57.5535 69.8204 61.6809 71.4633 64.8239C74.9438 71.4684 81.9399 73.8965 89.4094 75.9895Z" fill="url(#paint1_linear_1346_850)"/>
<defs>
<linearGradient id="paint0_linear_1346_850" x1="0" y1="0" x2="202.841" y2="225.711" gradientUnits="userSpaceOnUse">
<stop offset="0.125652" stop-color="#F5F5F5"/>
<stop offset="0.869819" stop-color="#E5E5E5"/>
</linearGradient>
<linearGradient id="paint1_linear_1346_850" x1="60.418" y1="155.74" x2="182.866" y2="144.849" gradientUnits="userSpaceOnUse">
<stop offset="0.323057" stop-color="#F98D1B"/>
<stop offset="1" stop-color="#FFC180"/>
</linearGradient>
</defs>
</svg>
