<svg width="227" height="204" viewBox="0 0 227 204" fill="none" xmlns="http://www.w3.org/2000/svg">
<rect width="227" height="204" rx="20" fill="url(#paint0_linear_1346_856)"/>
<g clip-path="url(#clip0_1346_856)">
<g clip-path="url(#clip1_1346_856)">
<path d="M112.59 69.2728C112.311 69.3673 112.022 69.4334 111.729 69.47V62.3007C112.021 62.339 112.31 62.4031 112.59 62.4922C112.879 62.5891 113.15 62.7325 113.392 62.9166C114.127 63.4847 114.791 64.6387 115.371 65.8824C114.791 67.1322 114.126 68.2871 113.392 68.8482C113.15 69.0324 112.879 69.1758 112.59 69.2728ZM100.835 77.7926V53.9777C100.836 53.3803 101.074 52.8078 101.497 52.3854C101.919 51.963 102.492 51.7251 103.089 51.7236H145.926C146.523 51.7248 147.096 51.9626 147.518 52.3851C147.941 52.8075 148.179 53.3802 148.18 53.9777V77.7926C148.178 78.389 147.939 78.9602 147.517 79.3814C147.095 79.8027 146.523 80.0397 145.926 80.0407H139.408V86.9595L133.418 83.5033L127.427 80.0411H103.089C102.492 80.04 101.921 79.803 101.498 79.3817C101.076 78.9604 100.837 78.3891 100.835 77.7926ZM106.599 69.5529C106.207 69.5529 105.832 69.7085 105.555 69.9854C105.278 70.2623 105.122 70.6379 105.122 71.0295C105.122 71.4211 105.278 71.7967 105.555 72.0736C105.832 72.3505 106.207 72.506 106.599 72.506C107.926 72.506 106.539 72.4999 107.412 72.4999C107.669 72.4999 107.939 72.506 108.219 72.506L108.705 72.5119C109.183 72.5179 109.661 72.524 110.139 72.5179C110.175 72.5179 110.211 72.524 110.253 72.524C110.309 72.5229 110.365 72.5189 110.42 72.5119C110.934 72.4999 111.448 72.4698 111.951 72.4103C112.494 72.352 113.029 72.2357 113.547 72.0635C114.136 71.8657 114.688 71.5706 115.18 71.1904C115.843 70.656 116.411 70.0131 116.86 69.289C117.068 69.6847 117.301 70.0662 117.56 70.431C118.005 71.0564 118.527 71.623 119.114 72.1173L119.132 72.1352C120.637 73.3787 122.52 74.0743 124.472 74.1083C126.408 74.1193 128.287 73.4507 129.781 72.219C130.747 71.4099 131.54 70.4143 132.113 69.2918C132.574 70.0197 133.156 70.6628 133.835 71.1932C134.327 71.5733 134.878 71.8684 135.467 72.0662C135.985 72.2397 136.521 72.356 137.064 72.413C137.566 72.4727 138.081 72.5027 138.595 72.5147C138.65 72.5218 138.706 72.5258 138.762 72.5267C138.798 72.5267 138.84 72.5206 138.876 72.5206C139.354 72.5267 139.832 72.5206 140.305 72.5147L140.795 72.5088C141.076 72.5088 141.339 72.5027 141.602 72.5027C142.475 72.5027 141.088 72.5088 142.416 72.5088C142.807 72.5088 143.183 72.3532 143.46 72.0763C143.737 71.7994 143.892 71.4238 143.892 71.0322C143.892 70.6406 143.737 70.265 143.46 69.9881C143.183 69.7112 142.807 69.5557 142.416 69.5557C141.632 69.5557 143.019 69.5557 141.602 69.5616C141.315 69.5616 141.04 69.5677 140.771 69.5677L140.239 69.5736V62.1931L140.771 62.199C141.04 62.2051 141.315 62.2051 141.602 62.2051C143.019 62.211 141.632 62.211 142.416 62.211C142.807 62.211 143.183 62.0555 143.46 61.7785C143.737 61.5016 143.892 61.1261 143.892 60.7345C143.892 60.3429 143.737 59.9673 143.46 59.6904C143.183 59.4135 142.807 59.2579 142.416 59.2579C141.088 59.2579 142.475 59.2699 141.602 59.2638C141.339 59.2638 141.075 59.2638 140.795 59.2579L140.305 59.252C139.832 59.2459 139.354 59.24 138.876 59.2459H138.762C138.706 59.2448 138.65 59.2468 138.595 59.252C138.081 59.2638 137.566 59.2942 137.064 59.3537C136.521 59.4133 135.986 59.5296 135.467 59.7004C134.879 59.9005 134.328 60.1953 133.835 60.5733C133.155 61.1043 132.572 61.7498 132.113 62.4808C131.541 61.3554 130.748 60.3569 129.781 59.5448C128.287 58.3128 126.408 57.644 124.471 57.6548C122.519 57.6889 120.637 58.3845 119.131 59.6279V59.634L119.113 59.6458C118.526 60.1402 118.004 60.7067 117.559 61.332C117.301 61.697 117.067 62.0786 116.859 62.4743C116.409 61.7513 115.841 61.1086 115.179 60.5727C114.686 60.1947 114.135 59.8998 113.547 59.6998C113.028 59.5302 112.493 59.414 111.95 59.353C111.448 59.2931 110.934 59.2632 110.419 59.2514C110.364 59.2463 110.308 59.2442 110.252 59.2452H110.138C109.66 59.2393 109.182 59.2452 108.709 59.2514L108.219 59.2573C107.938 59.2632 107.675 59.2632 107.412 59.2632C106.539 59.2693 107.926 59.2573 106.599 59.2573C106.405 59.2573 106.213 59.2955 106.034 59.3697C105.854 59.4439 105.692 59.5526 105.554 59.6897C105.417 59.8269 105.309 59.9896 105.234 60.1688C105.16 60.3479 105.122 60.5399 105.122 60.7338C105.122 60.9277 105.16 61.1197 105.234 61.2989C105.309 61.478 105.417 61.6408 105.554 61.7779C105.692 61.915 105.854 62.0238 106.034 62.098C106.213 62.1722 106.405 62.2104 106.599 62.2104C107.382 62.2104 105.989 62.2104 107.412 62.2045C107.699 62.2045 107.974 62.2045 108.243 62.1984L108.775 62.1925V69.5711L108.243 69.5651C107.974 69.5651 107.699 69.559 107.412 69.559C105.989 69.5538 107.382 69.5529 106.599 69.5529ZM125.524 71.0717V60.6923C125.185 60.6276 124.84 60.5956 124.495 60.5967C124.156 60.6029 123.818 60.6389 123.485 60.7043V71.0613C123.817 71.1295 124.156 71.1656 124.495 71.1689C124.841 71.1727 125.185 71.1395 125.524 71.0717ZM119.15 67.2518C119.363 67.7738 119.636 68.2693 119.963 68.7284C120.138 68.9744 120.33 69.2081 120.537 69.428V62.3426C120.327 62.56 120.135 62.794 119.963 63.0423C119.634 63.5005 119.361 63.9962 119.15 64.5189L119.023 64.8239C118.886 65.1648 118.736 65.5234 118.587 65.8822C118.736 66.2471 118.886 66.5994 119.023 66.9466L119.15 67.2518ZM135.624 68.8482C135.866 69.0336 136.136 69.1771 136.426 69.2728C136.705 69.3673 136.994 69.4334 137.286 69.47V62.3007C136.994 62.3384 136.706 62.4025 136.426 62.4922C136.136 62.5878 135.866 62.7312 135.624 62.9166C134.78 63.5625 134.201 64.6687 133.662 65.8824C134.2 67.1022 134.78 68.2025 135.623 68.8488L135.624 68.8482ZM128.478 62.3606V69.4044C129.333 68.4594 129.907 67.1685 130.457 65.8818C129.907 64.5969 129.333 63.3054 128.478 62.3606ZM167.523 92.0184C167.132 92.0193 166.757 92.1752 166.48 92.4519C166.204 92.7286 166.048 93.1036 166.047 93.495V128.577H156.916C158.487 127.642 159.788 126.316 160.693 124.729C161.597 123.141 162.074 121.345 162.076 119.518V93.0644C162.067 91.7894 161.555 90.5695 160.65 89.6709C159.746 88.7723 158.523 88.268 157.248 88.268C155.972 88.268 154.749 88.7723 153.845 89.6709C152.94 90.5695 152.428 91.7894 152.419 93.0644V94.2482H153.483C155.157 94.2579 156.758 94.9293 157.937 96.1157C159.117 97.3022 159.779 98.9073 159.779 100.58C159.779 102.254 159.117 103.859 157.937 105.045C156.758 106.232 155.157 106.903 153.483 106.913H152.42V119.517C152.42 119.633 152.397 119.748 152.352 119.855C152.306 119.962 152.24 120.058 152.157 120.139C152.077 120.221 151.981 120.286 151.875 120.33C151.769 120.374 151.656 120.397 151.541 120.396H146.553C144.288 120.39 142.085 121.139 140.293 122.525C138.529 123.876 137.405 125.814 136.496 127.829L125.56 152.123H136.101L145.572 131.088C145.698 130.747 145.898 130.438 146.158 130.185C146.27 130.095 146.41 130.048 146.553 130.053H150.939L141.274 151.519C141.194 151.696 141.15 151.886 141.145 152.079C141.139 152.272 141.171 152.465 141.24 152.646C141.308 152.826 141.412 152.992 141.544 153.132C141.677 153.273 141.836 153.386 142.012 153.466C142.188 153.545 142.378 153.589 142.572 153.595C142.765 153.6 142.957 153.568 143.138 153.5C143.319 153.431 143.484 153.328 143.625 153.195C143.766 153.062 143.879 152.904 143.958 152.727L153.507 131.53H166.052V152.805C166.057 153.192 166.214 153.562 166.489 153.834C166.765 154.106 167.136 154.259 167.523 154.259C167.91 154.259 168.282 154.106 168.557 153.834C168.832 153.562 168.989 153.192 168.994 152.805V130.185C168.999 130.141 169.001 130.097 169 130.053V93.4954C169 93.3014 168.962 93.1094 168.888 92.9302C168.814 92.751 168.705 92.5882 168.568 92.451C168.431 92.3139 168.268 92.2051 168.089 92.1308C167.909 92.0566 167.717 92.0184 167.523 92.0184ZM157.245 87.2109C158.367 87.2109 159.464 86.8781 160.397 86.2546C161.33 85.6311 162.057 84.745 162.487 83.7081C162.916 82.6713 163.029 81.5304 162.81 80.4297C162.591 79.329 162.05 78.318 161.257 77.5244C160.463 76.7309 159.452 76.1904 158.352 75.9715C157.251 75.7526 156.11 75.8649 155.073 76.2944C154.036 76.7239 153.15 77.4511 152.527 78.3843C151.903 79.3174 151.57 80.4144 151.57 81.5367C151.574 83.0405 152.173 84.4816 153.236 85.5449C154.3 86.6082 155.741 87.2072 157.245 87.2109ZM90.8432 115.338H139.163V110.919H90.8432V115.338ZM143.354 103.959H153.483C154.379 103.959 155.239 103.603 155.872 102.97C156.506 102.336 156.862 101.477 156.862 100.581C156.862 99.685 156.506 98.8257 155.872 98.1921C155.239 97.5585 154.379 97.2026 153.483 97.2026H144.263L131.797 90.0033C131.02 89.5545 130.096 89.4328 129.229 89.6649C128.363 89.8971 127.623 90.464 127.175 91.2411C126.726 92.0182 126.604 92.9417 126.836 93.8085C127.068 94.6753 127.635 95.4144 128.412 95.8631L141.662 103.511C142.178 103.804 142.761 103.959 143.354 103.959ZM73.748 97.8244C73.2993 98.6 73.177 99.5219 73.408 100.388C73.639 101.253 74.2044 101.992 74.9799 102.441L83.7576 107.511C84.2708 107.806 84.8519 107.963 85.4439 107.965H100.745C101.192 107.969 101.635 107.884 102.048 107.716C102.462 107.547 102.838 107.298 103.156 106.984C103.473 106.669 103.724 106.295 103.896 105.882C104.068 105.47 104.156 105.028 104.156 104.581C104.156 104.134 104.068 103.692 103.896 103.28C103.724 102.867 103.473 102.493 103.156 102.178C102.838 101.864 102.462 101.615 102.048 101.447C101.635 101.278 101.192 101.193 100.745 101.197L86.3467 101.203L78.3642 96.5926C77.5882 96.1457 76.6669 96.0244 75.8017 96.2553C74.9365 96.4861 74.1981 97.0504 73.748 97.8244ZM131.342 118.293H98.6582V132.088L107.681 152.125H122.32L131.343 132.088L131.342 118.293ZM89.713 122.525C87.9211 121.139 85.7181 120.39 83.4526 120.397H78.4656C78.3502 120.397 78.2358 120.374 78.1291 120.33C78.0224 120.286 77.9254 120.221 77.8438 120.14C77.7621 120.058 77.6974 119.961 77.6533 119.854C77.6092 119.748 77.5865 119.633 77.5866 119.518V107.356L73.5029 105C72.2291 104.263 71.2519 103.105 70.7393 101.725C70.2267 100.346 70.2107 98.831 70.6941 97.441C71.1775 96.051 72.13 94.8729 73.388 94.1091C74.6459 93.3454 76.1306 93.0438 77.5869 93.2562V93.0644C77.5869 91.7839 77.0782 90.5558 76.1727 89.6503C75.2672 88.7448 74.0391 88.2361 72.7585 88.2361C71.4779 88.2361 70.2498 88.7448 69.3443 89.6503C68.4388 90.5558 67.9301 91.7839 67.9301 93.0644V119.518C67.93 121.345 68.4051 123.141 69.3089 124.729C70.2126 126.317 71.514 127.643 73.085 128.577H63.9531V93.4954C63.9531 93.1038 63.7976 92.7282 63.5206 92.4513C63.2437 92.1744 62.8682 92.0188 62.4766 92.0188C62.085 92.0188 61.7094 92.1744 61.4325 92.4513C61.1556 92.7282 61 93.1038 61 93.4954V130.053C61 130.101 61.0059 130.143 61.0059 130.185V152.805C61.0105 153.192 61.1676 153.562 61.4429 153.834C61.7183 154.106 62.0898 154.259 62.4769 154.259C62.864 154.259 63.2355 154.106 63.5108 153.834C63.7862 153.562 63.9432 153.192 63.9479 152.805V131.53H76.4986L86.0419 152.727C86.202 153.084 86.4974 153.363 86.8629 153.502C87.2285 153.641 87.6343 153.629 87.9911 153.469C88.348 153.309 88.6265 153.013 88.7656 152.648C88.9046 152.282 88.8928 151.876 88.7326 151.519L79.0668 130.053H83.4526C83.5939 130.048 83.7322 130.095 83.8414 130.185C84.1055 130.435 84.3064 130.745 84.4274 131.088L93.8984 152.123H104.445L93.504 127.829C92.5953 125.814 91.4712 123.877 89.713 122.525ZM72.7555 87.2109C73.8778 87.2109 74.9749 86.8781 75.908 86.2546C76.8411 85.6311 77.5684 84.745 77.9978 83.7081C78.4273 82.6713 78.5397 81.5304 78.3207 80.4297C78.1018 79.329 77.5614 78.318 76.7678 77.5244C75.9743 76.7309 74.9632 76.1904 73.8625 75.9715C72.7618 75.7526 71.6209 75.8649 70.5841 76.2944C69.5473 76.7239 68.6611 77.4511 68.0376 78.3843C67.4141 79.3174 67.0813 80.4144 67.0813 81.5367C67.0836 83.0409 67.6822 84.4828 68.7458 85.5464C69.8094 86.6101 71.2514 87.2086 72.7555 87.2109Z" fill="url(#paint1_linear_1346_856)"/>
</g>
</g>
<defs>
<linearGradient id="paint0_linear_1346_856" x1="0" y1="0" x2="202.841" y2="225.711" gradientUnits="userSpaceOnUse">
<stop offset="0.125652" stop-color="#F5F5F5"/>
<stop offset="0.869819" stop-color="#E5E5E5"/>
</linearGradient>
<linearGradient id="paint1_linear_1346_856" x1="61" y1="154.259" x2="184.083" y2="142.728" gradientUnits="userSpaceOnUse">
<stop offset="0.323057" stop-color="#F98D1B"/>
<stop offset="1" stop-color="#FFC180"/>
</linearGradient>
<clipPath id="clip0_1346_856">
<rect width="108" height="122" fill="white" transform="translate(60.5 42)"/>
</clipPath>
<clipPath id="clip1_1346_856">
<rect width="108" height="108" fill="white" transform="translate(61 49)"/>
</clipPath>
</defs>
</svg>
