<svg width="184" height="166" viewBox="0 0 184 166" fill="none" xmlns="http://www.w3.org/2000/svg">
<rect width="184" height="166" rx="20" fill="url(#paint0_linear_1094_429)"/>
<path d="M115.508 71.5197C115.97 70.6129 116.074 69.7621 116.078 68.9992C116.044 67.0999 115.469 65.3252 114.44 62.809C113.395 60.3193 111.821 57.1943 109.554 53.1817C108.669 51.6168 106.74 51.0178 105.138 51.7598C104.99 53.4293 104.442 55.0385 103.54 56.451C103.558 56.4848 103.572 56.5191 103.591 56.5521C105.57 60.0517 106.959 62.7936 107.86 64.8453C106.857 64.0999 105.878 63.3226 104.925 62.5145C104.199 61.9026 103.485 61.2768 102.783 60.6375C102.732 60.5904 102.68 60.5429 102.63 60.4949C102.52 60.3941 102.404 60.3006 102.282 60.2149C101.898 59.7923 101.472 59.4296 101.039 59.1723C99.2171 60.5655 96.9865 61.3194 94.6926 61.3174C90.5875 61.3174 87.0279 58.9458 85.3059 55.5022L84.453 55.3126C84.3785 55.2955 84.2942 55.2873 84.2116 55.2783C83.8747 55.1706 83.5231 55.1157 83.1694 55.1156C81.063 55.1426 79.2399 55.9235 77.4605 57.044C74.8154 58.7523 72.2834 61.4026 70.3143 64.8479C68.3555 68.2876 67 72.5494 67 77.3404C66.9957 81.8637 68.2267 86.8234 71.1419 91.8362C71.4431 92.3558 71.8758 92.7871 72.3965 93.0866C72.9171 93.3861 73.5075 93.5433 74.1081 93.5423C74.7097 93.5416 75.3005 93.3824 75.8211 93.0808C76.3416 92.7792 76.7736 92.3459 77.0735 91.8243C77.3733 91.3028 77.5306 90.7115 77.5294 90.1099C77.5282 89.5083 77.3686 88.9176 77.0666 88.3973C74.7135 84.332 73.8564 80.6414 73.8512 77.3399C73.847 73.174 75.268 69.5442 77.1561 66.828C76.8097 73.6587 78.0843 79.3235 79.8997 86.8812C79.9249 86.9972 79.9463 87.1133 79.9793 87.2293C80.0123 87.3453 79.9793 87.2293 79.9827 87.2434L79.9836 87.2438C80.0731 87.5782 81.134 91.712 81.1319 98.1539C81.1302 105.161 79.8933 114.868 74.8604 125.603C73.6042 128.278 74.7568 131.465 77.4327 132.721C78.1424 133.055 78.917 133.229 79.7014 133.229C81.7133 133.229 83.6408 132.09 84.5515 130.149C90.3623 117.76 91.839 106.415 91.8369 98.1543C91.8362 97.3134 91.8204 96.4725 91.7893 95.6321C92.7135 97.3441 93.551 99.1014 94.2987 100.897C96.5375 106.251 98.6804 113.598 98.6748 121.846C98.6748 123.609 98.5785 125.418 98.3653 127.264C98.0275 130.2 100.134 132.855 103.07 133.193C103.278 133.217 103.485 133.229 103.689 133.229C106.371 133.229 108.686 131.217 108.999 128.489C109.252 126.283 109.378 124.066 109.378 121.846C109.373 111.423 106.633 102.513 103.922 96.1724C102.999 94.0153 101.966 91.9069 100.828 89.8555C100.583 89.2433 100.339 88.6486 100.225 88.1691C96.9108 78.8346 97.9821 73.6981 100.992 68.1544C101.492 68.5697 102.031 69.0073 102.596 69.4487C103.87 70.4416 105.255 71.4499 106.653 72.2754C107.356 72.6885 108.06 73.0593 108.815 73.359C109.575 73.6497 110.373 73.9092 111.447 73.9216C112.039 73.9248 112.627 73.8186 113.181 73.6082C114.131 73.2695 115.066 72.4265 115.508 71.5197ZM103.162 46.2354C101.53 43.2328 98.3486 41.1948 94.6918 41.1948C92.7084 41.1925 90.773 41.8052 89.1524 42.9485C91.4284 43.6926 93.9699 44.3982 96.6741 45.0135C98.8204 45.5029 100.985 45.9106 103.162 46.2354Z" fill="url(#paint1_linear_1094_429)"/>
<path d="M94.6911 60.4614C100.011 60.4614 104.324 56.1491 104.324 50.8281C104.324 49.5308 104.066 48.2947 103.601 47.1648C101.211 46.8254 98.8366 46.3862 96.4834 45.8483C93.539 45.1782 90.7847 44.4033 88.3451 43.5834C86.3307 45.3491 85.0578 47.9389 85.0578 50.8276C85.0578 56.1487 89.3701 60.4614 94.6911 60.4614ZM87.5907 43.1141L87.747 42.6701L87.8082 42.4955L87.8074 42.495C85.0403 41.5249 82.7458 40.5046 81.1685 39.5537C79.5707 38.6203 78.7837 37.6728 78.8373 37.2605C78.836 37.227 78.8393 37.1934 78.8471 37.1607C78.8839 36.9124 79.2577 36.5618 80.1166 36.3164C80.957 36.0702 82.1837 35.9255 83.6886 35.9028L83.6753 35.0465C82.1216 35.0718 80.8388 35.2148 79.8764 35.4948C78.9314 35.7761 78.21 36.1923 78.0139 36.9629C77.9908 37.0604 77.9795 37.1603 77.9805 37.2605C78.0332 38.3763 79.0886 39.2715 80.7267 40.2871C82.3648 41.2731 84.6661 42.2942 87.428 43.2687C87.4606 43.2803 87.4914 43.2918 87.5244 43.3029L87.5907 43.1141ZM104.077 47.2355C104.243 47.2578 104.403 47.2757 104.567 47.2967C105.264 47.3853 105.947 47.4645 106.603 47.5266L106.684 46.6746V46.6738C105.851 46.5944 105.02 46.4986 104.191 46.3865H104.19L104.077 47.2355ZM115.328 46.3171C114.785 46.541 113.974 46.7114 112.958 46.8039L113.038 47.6568C114.104 47.5579 114.982 47.3841 115.654 47.1092C116.316 46.8373 116.832 46.4421 116.98 45.8277C117.001 45.7284 117.013 45.6295 117.012 45.5297C116.972 44.5347 116.116 43.7294 114.798 42.8376C113.463 41.9586 111.578 41.0466 109.282 40.1561L108.973 40.9546H108.972C111.23 41.8288 113.073 42.7262 114.327 43.5526C115.599 44.3682 116.195 45.1675 116.155 45.5302C116.155 45.5674 116.151 45.6047 116.144 45.6436C116.107 45.8324 115.884 46.0898 115.328 46.3171ZM91.1452 35.5864L91.0292 36.435C93.2979 36.7471 95.7607 37.195 98.3201 37.7777C99.918 38.1408 101.458 38.5351 102.922 38.9504L103.156 38.1271C101.618 37.6912 100.069 37.2961 98.5098 36.9424C95.9276 36.3545 93.4409 35.9024 91.1452 35.5864ZM88.4997 34.4527L87.9401 33L87.1275 34.3281L85.5729 34.4116L86.5846 35.5946L86.1843 37.0987L87.6216 36.5027L88.9287 37.3483L88.805 35.7967L90.0141 34.8149L88.4997 34.4527ZM80.7695 45.7477L81.8099 46.9058L82.0967 45.3756L83.5199 44.7445L82.1537 43.9991L81.9931 42.4505L80.8615 43.52L79.3386 43.1942L80.0061 44.6007L79.226 45.9476L80.7695 45.7477ZM110.54 46.1446L109.817 44.7659L109.163 46.1784L107.628 46.4404L108.769 47.4992L108.544 49.0397L109.904 48.2815L111.299 48.9716L110.998 47.4444L112.085 46.3308L110.54 46.1446ZM106.043 40.1569L107.199 41.2012L107.324 39.6491L108.674 38.8738L107.238 38.2739L106.917 36.7506L105.903 37.9314L104.354 37.7661L105.165 39.0955L104.528 40.5166L106.043 40.1569Z" fill="url(#paint2_linear_1094_429)"/>
<defs>
<linearGradient id="paint0_linear_1094_429" x1="0" y1="0" x2="165.124" y2="183.029" gradientUnits="userSpaceOnUse">
<stop offset="0.125652" stop-color="#F5F5F5"/>
<stop offset="0.869819" stop-color="#E5E5E5"/>
</linearGradient>
<linearGradient id="paint1_linear_1094_429" x1="67" y1="133.229" x2="123.296" y2="130.559" gradientUnits="userSpaceOnUse">
<stop offset="0.323057" stop-color="#F98D1B"/>
<stop offset="1" stop-color="#FFC180"/>
</linearGradient>
<linearGradient id="paint2_linear_1094_429" x1="77.9805" y1="60.4614" x2="122.147" y2="54.8784" gradientUnits="userSpaceOnUse">
<stop offset="0.323057" stop-color="#F98D1B"/>
<stop offset="1" stop-color="#FFC180"/>
</linearGradient>
</defs>
</svg>
