<svg width="184" height="166" viewBox="0 0 184 166" fill="none" xmlns="http://www.w3.org/2000/svg">
<rect width="184" height="166" rx="20" fill="url(#paint0_linear_1094_436)"/>
<path d="M119.587 66.4196L115.902 70.1045C112.741 73.2656 112.741 78.4083 115.902 81.5695L116.115 81.7824C117.646 83.3134 119.682 84.157 121.848 84.157C124.013 84.157 126.049 83.3134 127.58 81.7824L131.265 78.0971C134.425 74.9363 134.425 69.7932 131.265 66.6325L131.052 66.4196C129.521 64.8886 127.485 64.045 125.319 64.045C123.154 64.045 121.118 64.8886 119.587 66.4196ZM103.274 127.095L117.871 114.483C119.466 113.104 120.126 110.984 119.596 108.951L116.07 95.3095C115.544 96.3851 114.791 97.3338 113.863 98.0905L110.441 100.873L112.619 109.329C112.661 109.493 112.657 109.664 112.607 109.825C112.556 109.986 112.462 110.13 112.334 110.24L98.8047 121.933C98.4646 122.225 98.1859 122.582 97.9847 122.983C97.7835 123.384 97.6638 123.821 97.6325 124.269C97.5991 124.716 97.6547 125.165 97.7961 125.591C97.9374 126.017 98.1616 126.41 98.4558 126.749C98.7763 127.12 99.1733 127.418 99.6195 127.623C100.066 127.827 100.551 127.933 101.042 127.933C101.862 127.929 102.654 127.632 103.274 127.095ZM89.4914 115.476C89.5691 115.429 89.6522 115.394 89.7374 115.372L112.72 96.6859C113.47 96.0766 114.074 95.3073 114.488 94.4344C114.902 93.5616 115.115 92.6072 115.113 91.6412C115.113 91.6152 115.114 91.5867 115.111 91.5598C115.11 91.5362 115.106 91.4854 115.106 91.4618C115.095 90.8894 114.739 89.83 114.132 88.5611C113.459 87.1535 112.399 85.9664 111.077 85.1382L96.8384 76.2164C96.6957 76.1268 96.5808 75.9992 96.5066 75.8478C96.4325 75.6964 96.4021 75.5273 96.4189 75.3596L98.1867 57.566C98.3723 55.6924 96.9996 54.0167 95.1264 53.8307C94.6802 53.786 94.2295 53.8298 93.8003 53.9596C93.371 54.0894 92.9716 54.3026 92.6249 54.5871C92.2771 54.8705 91.9889 55.2201 91.777 55.6157C91.5651 56.0112 91.4338 56.4448 91.3907 56.8914L89.4828 76.0945C89.3779 77.114 89.5619 78.1424 90.0137 79.0623C90.4656 79.9822 91.167 80.7565 92.038 81.2967L108.573 91.6338C108.673 91.6967 108.761 91.7789 108.83 91.8757C108.899 91.9725 108.948 92.082 108.975 92.1978C109.002 92.3137 109.005 92.4337 108.986 92.551C108.966 92.6682 108.923 92.7804 108.86 92.8812C108.733 93.0847 108.53 93.2293 108.296 93.2833C108.062 93.3373 107.816 93.2963 107.613 93.1693L101.296 89.2199L84.157 103.163L88.7892 104.506C88.9034 104.539 89.01 104.594 89.1028 104.669C89.1956 104.743 89.2729 104.835 89.3302 104.939C89.3875 105.043 89.4238 105.158 89.4369 105.276C89.45 105.394 89.4396 105.514 89.4065 105.628C89.3734 105.742 89.3181 105.849 89.2437 105.941C89.1694 106.034 89.0775 106.111 88.9734 106.169C88.8692 106.226 88.7547 106.262 88.6365 106.275C88.5183 106.289 88.3987 106.278 88.2845 106.245L67.8815 100.332C66.1327 99.8229 64.2681 99.8771 62.5518 100.487C60.8355 101.096 59.3543 102.23 58.3178 103.727L46.1191 121.321C45.7364 121.87 45.467 122.489 45.3265 123.143C45.1861 123.796 45.1774 124.472 45.3011 125.129C45.4202 125.785 45.669 126.411 46.033 126.97C46.3969 127.529 46.8687 128.01 47.4207 128.384C48.2624 128.959 49.2584 129.265 50.2777 129.263C51.1011 129.265 51.9124 129.065 52.6409 128.681C53.3694 128.297 53.993 127.741 54.4573 127.061L65.4974 110.875C65.6047 110.717 65.7594 110.597 65.9391 110.532C66.1188 110.468 66.3144 110.462 66.4977 110.516L85.454 116.013C86.8341 116.415 88.2672 116.224 89.4914 115.476Z" fill="url(#paint1_linear_1094_436)"/>
<path d="M75.9358 85.0506C74.8091 83.4527 73.1807 82.2773 71.3094 81.7113L47.5406 74.5945C44.8585 73.7926 42.0193 75.3232 41.2112 78.0078C41.0693 78.4815 40.9982 78.9736 41 79.4681C41 81.698 42.4897 83.6994 44.6221 84.3347L67.6497 91.2278C67.8452 91.2861 68.0151 91.4089 68.1321 91.5759L74.2333 100.287L82.0411 102.55L85.9674 99.3556L75.9358 85.0506ZM122.479 59.192C122.335 59.192 122.189 59.1577 122.054 59.085C121.984 59.0474 115.085 55.2414 118.894 47.1392C120.501 43.7205 123.216 42.061 125.799 41.5014L125.834 41.4257C127.243 38.3848 130.312 36.3752 134.046 36.0503C141.316 35.413 143.53 41.0405 143.552 41.0971C143.637 41.3218 143.629 41.571 143.531 41.79C143.432 42.009 143.25 42.1798 143.026 42.2648C142.801 42.3498 142.552 42.3421 142.333 42.2433C142.114 42.1446 141.943 41.9629 141.858 41.7382C141.79 41.5621 140.084 37.3469 134.202 37.8545C131.524 38.0876 129.273 39.3442 127.986 41.2769C128.315 41.2806 128.635 41.3009 128.942 41.3368C131.885 41.6795 134.092 43.3564 134.566 45.6082C135.114 48.211 133.902 49.7527 132.586 50.3273C130.798 51.1085 128.033 50.5476 126.205 47.9655C125.313 46.7073 124.973 45.1486 125.197 43.5531C123.408 44.1901 121.649 45.5334 120.532 47.9101C117.467 54.4329 122.687 57.3684 122.91 57.4903C123.088 57.5861 123.228 57.7384 123.309 57.923C123.39 58.1076 123.407 58.3139 123.358 58.5093C123.308 58.7047 123.195 58.878 123.036 59.0017C122.876 59.1254 122.68 59.1923 122.479 59.192ZM127.133 43.1224C126.755 44.5038 126.942 45.8732 127.683 46.9185C128.938 48.6921 130.775 49.1414 131.862 48.6673C132.747 48.2808 133.077 47.3265 132.794 45.9802C132.484 44.503 130.889 43.3862 128.733 43.1348C128.202 43.0744 127.665 43.0703 127.133 43.1224ZM116.018 62.2585C115.79 62.2589 115.57 62.1728 115.403 62.0176L109.534 56.5884C109.358 56.4254 109.254 56.199 109.245 55.959C109.235 55.7191 109.322 55.4852 109.485 55.309C109.648 55.1327 109.874 55.0284 110.114 55.0191C110.354 55.0097 110.588 55.0961 110.764 55.2592L116.633 60.6883C116.767 60.8119 116.86 60.973 116.901 61.1505C116.942 61.3281 116.928 61.5138 116.862 61.6835C116.795 61.8531 116.679 61.9988 116.529 62.1014C116.378 62.204 116.2 62.2587 116.018 62.2585ZM131.854 60.4812C131.681 60.4811 131.511 60.4312 131.365 60.3374C131.219 60.2436 131.104 60.1099 131.032 59.9521C130.959 59.7944 130.934 59.6192 130.959 59.4475C130.983 59.2759 131.057 59.1149 131.17 58.9837L136.397 52.9346C136.724 52.556 137.296 52.5146 137.674 52.8416C138.053 53.1685 138.095 53.7402 137.767 54.1188L132.54 60.1679C132.455 60.2664 132.35 60.3453 132.231 60.3994C132.113 60.4535 131.985 60.4814 131.854 60.4812Z" fill="url(#paint2_linear_1094_436)"/>
<defs>
<linearGradient id="paint0_linear_1094_436" x1="0" y1="0" x2="165.124" y2="183.029" gradientUnits="userSpaceOnUse">
<stop offset="0.125652" stop-color="#F5F5F5"/>
<stop offset="0.869819" stop-color="#E5E5E5"/>
</linearGradient>
<linearGradient id="paint1_linear_1094_436" x1="45.2144" y1="129.263" x2="145.775" y2="118.782" gradientUnits="userSpaceOnUse">
<stop offset="0.323057" stop-color="#F98D1B"/>
<stop offset="1" stop-color="#FFC180"/>
</linearGradient>
<linearGradient id="paint2_linear_1094_436" x1="41" y1="102.55" x2="156.789" y2="86.6718" gradientUnits="userSpaceOnUse">
<stop offset="0.323057" stop-color="#F98D1B"/>
<stop offset="1" stop-color="#FFC180"/>
</linearGradient>
</defs>
</svg>
