<svg width="184" height="166" viewBox="0 0 184 166" fill="none" xmlns="http://www.w3.org/2000/svg">
<rect width="184" height="166" rx="20" fill="url(#paint0_linear_1094_375)"/>
<path fill-rule="evenodd" clip-rule="evenodd" d="M94.2526 39.2808V51.2628C94.2526 52.5227 93.2283 53.545 91.9704 53.545H72.2893V36.9967H91.9704C93.2303 36.9967 94.2526 38.0209 94.2526 39.2808ZM117.957 52.0714C113.239 52.0714 109.413 55.8971 109.413 60.6152C109.413 65.3333 113.239 69.1589 117.957 69.1589C122.675 69.1589 126.501 65.3333 126.501 60.6152C126.499 55.8951 122.675 52.0714 117.957 52.0714ZM83.5225 107.133L72.3732 97.9507V111.4L59.1533 121.671C56.7233 123.56 56.2841 127.062 58.1729 129.492C60.0618 131.922 63.5639 132.361 65.9938 130.472L81.2683 118.606C82.632 117.594 83.5165 115.973 83.5225 114.144V107.133ZM108.099 65.5988L110.376 69.9216C111.687 72.4134 111.43 74.5459 111.43 77.2074V101.82C111.43 104.526 109.238 106.718 106.532 106.718C103.827 106.718 101.636 104.526 101.634 101.82L101.63 84.1977L88.1089 93.8775L95.3627 99.8515C96.377 100.686 97.0679 101.838 97.3095 103.13L101.401 125.021C101.968 128.052 99.971 130.969 96.9401 131.537C93.9092 132.104 90.992 130.107 90.425 127.076L86.7052 107.167L73.4274 96.2336C68.0883 91.7092 69.0148 81.9355 75.7935 77.5269L97.0719 63.686C100.646 61.3619 105.546 60.7469 108.099 65.5988ZM99.0226 42.8249C99.0785 42.8249 99.1165 42.8688 99.1165 42.9208V47.6209C99.1165 47.6728 99.0785 47.7167 99.0226 47.7167H96.2433V42.8249H99.0226ZM66.5908 55.5436H91.9724C94.3285 55.5436 96.2453 53.6229 96.2453 51.2628V49.7134H99.0246C100.179 49.7134 101.119 48.775 101.119 47.6209V42.9208C101.119 41.7667 100.181 40.8283 99.0246 40.8283H96.2453V39.2808C96.2453 36.9208 94.3305 35 91.9724 35H66.5908C64.2348 35 62.308 36.9208 62.308 39.2808V51.2628C62.308 53.6229 64.2348 55.5436 66.5908 55.5436Z" fill="url(#paint1_linear_1094_375)"/>
<defs>
<linearGradient id="paint0_linear_1094_375" x1="0" y1="0" x2="165.124" y2="183.029" gradientUnits="userSpaceOnUse">
<stop offset="0.125652" stop-color="#F5F5F5"/>
<stop offset="0.869819" stop-color="#E5E5E5"/>
</linearGradient>
<linearGradient id="paint1_linear_1094_375" x1="57" y1="131.645" x2="136.576" y2="126.556" gradientUnits="userSpaceOnUse">
<stop offset="0.323057" stop-color="#F98D1B"/>
<stop offset="1" stop-color="#FFC180"/>
</linearGradient>
</defs>
</svg>
