<svg width="184" height="166" viewBox="0 0 184 166" fill="none" xmlns="http://www.w3.org/2000/svg">
<rect width="184" height="166" rx="20" fill="url(#paint0_linear_1094_451)"/>
<path d="M99.9516 40.5888H99.0165V47.6621C99.3237 47.5518 99.6364 47.4557 99.9516 47.3681V40.5888ZM99.0165 111.757H99.9516V73.0788C99.6364 72.9928 99.3245 72.8952 99.0165 72.7863V111.757ZM93.4055 68.9004V102.226H94.3406V69.8858C94.2509 69.8002 94.1598 69.7166 94.0722 69.6285C93.8412 69.3939 93.6189 69.151 93.4055 68.9004ZM96.2112 93.6473H97.1463V71.9418C96.827 71.767 96.515 71.579 96.2112 71.3783V93.6473ZM97.1463 28H96.2112V49.067C96.515 48.8672 96.827 48.6801 97.1463 48.5061V28ZM81.716 58.4754V49.5127H80.781V58.4728C80.9214 58.4688 81.0619 58.4598 81.2024 58.4598C81.3746 58.4603 81.5453 58.4693 81.716 58.4754ZM87.3271 46.079H86.392V59.4754C86.7108 59.6063 87.023 59.7483 87.3271 59.9029V46.079ZM84.5218 35.8216H83.5867V58.6667C83.9006 58.72 84.2125 58.7844 84.5218 58.8596V35.8216ZM64.9312 56.2879H63.9961V66.0533C64.3033 65.8332 64.6165 65.6152 64.9312 65.3997V56.2879ZM70.5423 53.6529H69.6072V62.5143C69.9174 62.3406 70.223 62.1664 70.5423 61.9932V53.6529ZM67.7365 45.7804H66.8014V64.1745C67.1086 63.9817 67.4203 63.7898 67.7365 63.5995V45.7804ZM56.7782 102.446H57.7133V115.095H56.7782V102.446ZM63.3244 112.46V104.669L62.3893 103.813V112.46H63.3244ZM60.5191 102.102L59.584 101.246V122.04H60.081L60.5191 121.363V102.102ZM41.0005 82.1931H41.9356V94.8413H41.0005V82.1931ZM46.6115 79.558H47.5466V92.2062H46.6115V79.558ZM43.8058 71.6855H44.7409V101.786H43.8058V71.6855ZM135.584 85.9188H136.519V104.938H135.584V85.9188ZM141.195 81.9564H142.13V100.976H141.195V81.9564ZM138.39 70.1184H139.325V115.382H138.39V70.1184ZM123.415 68.8057H124.35V88.5071H123.415V68.8057ZM129.026 64.7013H129.961V84.4027H129.026V64.7013ZM126.22 52.4388H127.155V99.3244H126.22V52.4388ZM113.691 51.5687V35.8639H112.756V50.5797C112.839 50.6588 112.923 50.7358 113.004 50.8174C113.245 51.0596 113.472 51.3119 113.691 51.5687ZM118.367 42.5304H119.303V63.6247H118.367V42.5304ZM115.562 79.6023H116.497V63.4192C116.277 64.3176 115.964 65.1903 115.562 66.0231V79.6023ZM116.497 29.4014H115.562V54.4253C115.964 55.2543 116.277 56.1232 116.497 57.0176V29.4014ZM111.524 68.2603C115.962 63.8498 115.986 56.6767 111.575 52.2374C107.165 47.7986 99.9914 47.7754 95.5521 52.186C91.1133 56.5966 91.0906 63.7702 95.5007 68.209C99.9118 72.6478 107.085 72.6704 111.524 68.2603ZM108.392 61.0968C108.96 61.0968 109.504 61.3223 109.905 61.7237C110.307 62.125 110.532 62.6693 110.532 63.2369C110.532 63.8045 110.307 64.3489 109.905 64.7502C109.504 65.1515 108.96 65.377 108.392 65.377C107.825 65.377 107.28 65.1515 106.879 64.7502C106.478 64.3489 106.252 63.8045 106.252 63.2369C106.252 62.6693 106.478 62.125 106.879 61.7237C107.28 61.3223 107.825 61.0968 108.392 61.0968Z" fill="url(#paint1_linear_1094_451)"/>
<path d="M74.9074 62.0088C65.286 66.7381 60.0768 70.8763 53.0593 79.6844C49.4816 84.9515 50.6398 88.848 52.867 91.8381C53.2054 92.4987 53.6586 93.094 54.2054 93.596L70.9646 108.928L59.0863 127.286C57.198 130.204 58.0329 134.101 60.9515 135.989C61.9677 136.649 63.1534 137 64.365 137C65.417 137.001 66.4525 136.739 67.3767 136.236C68.3009 135.734 69.0844 135.008 69.6553 134.124L83.224 113.155C81.2516 112.518 79.7762 110.728 79.6342 108.559L79.0244 99.2393L68.338 89.4634C71.2536 86.6163 74.6329 84.0744 77.8848 81.826L77.2836 72.6397C77.0968 69.7861 79.2666 67.3122 82.1202 67.1254C82.2355 67.1178 82.3508 67.1143 82.4646 67.1143C85.1858 67.1143 87.4568 69.2438 87.6346 71.962L87.83 74.9475C90.6468 72.1271 91.9978 68.1315 90.243 65.1902C87.9735 61.3854 81.9248 58.6103 74.9074 62.0088ZM104.019 82.1095C103.393 82.1005 102.803 87.7296 102.764 90.3128C102.726 92.8956 103.223 93.6272 103.849 93.6363C104.476 93.6453 104.994 92.9293 105.032 90.3461C105.07 87.7629 104.645 82.1186 104.019 82.1095ZM118.863 99.5903C119.443 99.3541 119.64 98.4925 118.667 96.0996C117.694 93.7068 115.099 88.6763 114.519 88.912C113.939 89.1476 115.593 94.5613 116.566 96.9542C117.539 99.347 118.283 99.8264 118.863 99.5903Z" fill="url(#paint2_linear_1094_451)"/>
<path d="M122.444 126.732C121.911 126.512 121.363 126.329 120.803 126.187C117.124 102.471 106.416 74.2646 106.416 74.2646L104.402 74.6423C108.24 87.3086 109.201 113.918 109.441 125.856C106.361 126.391 104.276 127.411 104.276 128.585C104.276 128.729 104.318 128.869 104.378 129.007C100.434 129.595 97.7715 130.707 97.7715 131.984C97.7715 133.873 103.596 135.404 110.78 135.404C117.191 135.404 122.515 134.185 123.587 132.58C129.153 132.315 133.355 131.116 133.355 129.676C133.356 128.139 128.568 126.877 122.444 126.732Z" fill="url(#paint3_linear_1094_451)"/>
<path d="M103.479 126.92C103.479 126.767 103.322 126.624 103.054 126.501C102.527 126.259 101.563 126.097 100.457 126.097C98.7886 126.097 97.436 126.466 97.436 126.92C97.436 127.376 98.7886 127.744 100.457 127.744C100.516 127.744 100.573 127.743 100.631 127.742C102.218 127.718 103.479 127.36 103.479 126.92Z" fill="url(#paint4_linear_1094_451)"/>
<path d="M128.321 136.747C130.361 136.747 132.014 136.296 132.014 135.74C132.014 135.184 130.361 134.733 128.321 134.733C126.282 134.733 124.629 135.184 124.629 135.74C124.629 136.296 126.282 136.747 128.321 136.747Z" fill="url(#paint5_linear_1094_451)"/>
<path d="M80.7901 108.483C80.8703 109.542 81.3647 110.526 82.1662 111.221C82.9676 111.917 84.0111 112.268 85.0701 112.199C86.1291 112.13 87.118 111.645 87.8219 110.851C88.5258 110.057 88.8878 109.017 88.8293 107.957L86.4792 72.0375C86.4452 71.5095 86.3073 70.9934 86.0735 70.5187C85.8398 70.044 85.5147 69.6201 85.1169 69.2711C84.7191 68.9222 84.2564 68.6552 83.7553 68.4853C83.2542 68.3154 82.7245 68.246 82.1965 68.2811C81.1305 68.3509 80.1358 68.8413 79.4314 69.6445C78.7269 70.4476 78.3703 71.4977 78.44 72.5638L80.7901 108.483ZM54.2379 70.2313C53.041 71.11 52.8355 72.5839 52.827 72.6463C52.8177 72.7174 52.8237 72.7896 52.8447 72.8581C52.8656 72.9266 52.9009 72.9899 52.9482 73.0437C52.9956 73.0975 53.0538 73.1405 53.1192 73.1699C53.1845 73.1994 53.2553 73.2145 53.327 73.2143C53.5742 73.2143 53.7903 73.0311 53.8255 72.7793C53.827 72.7682 53.9907 71.6569 54.8407 71.038C55.385 70.6422 56.1131 70.5219 57.0044 70.6775C57.0696 70.6889 57.1363 70.6874 57.2009 70.673C57.2654 70.6587 57.3265 70.6317 57.3807 70.5938C57.4348 70.5558 57.4809 70.5075 57.5164 70.4518C57.5519 70.396 57.5761 70.3337 57.5875 70.2686C57.599 70.2034 57.5975 70.1367 57.5831 70.0721C57.5688 70.0076 57.5418 69.9465 57.5039 69.8923C57.4659 69.8382 57.4176 69.792 57.3618 69.7566C57.306 69.7211 57.2438 69.6969 57.1786 69.6855C56.0039 69.48 55.0129 69.6628 54.2379 70.2313Z" fill="url(#paint6_linear_1094_451)"/>
<path d="M57.7264 68.0473C57.7545 67.9167 57.7296 67.7803 57.6571 67.6682C57.5847 67.556 57.4707 67.4772 57.3401 67.449C55.6009 67.0739 54.1199 67.2819 52.9401 68.0669C51.1455 69.2618 50.7386 71.3526 50.722 71.4412C50.6974 71.5725 50.726 71.7081 50.8014 71.8183C50.8769 71.9285 50.993 72.0042 51.1243 72.0288C51.2556 72.0534 51.3913 72.0248 51.5015 71.9494C51.6117 71.8739 51.6874 71.7578 51.712 71.6265C51.715 71.6089 52.066 69.853 53.5061 68.8998C54.4493 68.2764 55.6673 68.1193 57.1271 68.4335C57.2578 68.4613 57.3941 68.4363 57.5064 68.364C57.6187 68.2916 57.6978 68.1777 57.7264 68.0473Z" fill="url(#paint7_linear_1094_451)"/>
<defs>
<linearGradient id="paint0_linear_1094_451" x1="0" y1="0" x2="165.124" y2="183.029" gradientUnits="userSpaceOnUse">
<stop offset="0.125652" stop-color="#F5F5F5"/>
<stop offset="0.869819" stop-color="#E5E5E5"/>
</linearGradient>
<linearGradient id="paint1_linear_1094_451" x1="41.0005" y1="122.04" x2="156.21" y2="111.021" gradientUnits="userSpaceOnUse">
<stop offset="0.323057" stop-color="#F98D1B"/>
<stop offset="1" stop-color="#FFC180"/>
</linearGradient>
<linearGradient id="paint2_linear_1094_451" x1="50.7715" y1="137" x2="129.112" y2="130.756" gradientUnits="userSpaceOnUse">
<stop offset="0.323057" stop-color="#F98D1B"/>
<stop offset="1" stop-color="#FFC180"/>
</linearGradient>
<linearGradient id="paint3_linear_1094_451" x1="97.7715" y1="135.404" x2="138.571" y2="133.292" gradientUnits="userSpaceOnUse">
<stop offset="0.323057" stop-color="#F98D1B"/>
<stop offset="1" stop-color="#FFC180"/>
</linearGradient>
<linearGradient id="paint4_linear_1094_451" x1="97.436" y1="127.744" x2="103.715" y2="125.696" gradientUnits="userSpaceOnUse">
<stop offset="0.323057" stop-color="#F98D1B"/>
<stop offset="1" stop-color="#FFC180"/>
</linearGradient>
<linearGradient id="paint5_linear_1094_451" x1="124.629" y1="136.747" x2="132.303" y2="134.245" gradientUnits="userSpaceOnUse">
<stop offset="0.323057" stop-color="#F98D1B"/>
<stop offset="1" stop-color="#FFC180"/>
</linearGradient>
<linearGradient id="paint6_linear_1094_451" x1="52.8228" y1="112.208" x2="94.0059" y2="109.205" gradientUnits="userSpaceOnUse">
<stop offset="0.323057" stop-color="#F98D1B"/>
<stop offset="1" stop-color="#FFC180"/>
</linearGradient>
<linearGradient id="paint7_linear_1094_451" x1="50.7134" y1="72.0374" x2="58.6526" y2="70.9975" gradientUnits="userSpaceOnUse">
<stop offset="0.323057" stop-color="#F98D1B"/>
<stop offset="1" stop-color="#FFC180"/>
</linearGradient>
</defs>
</svg>
