<svg width="184" height="166" viewBox="0 0 184 166" fill="none" xmlns="http://www.w3.org/2000/svg">
<rect width="184" height="166" rx="20" fill="url(#paint0_linear_1094_442)"/>
<path fill-rule="evenodd" clip-rule="evenodd" d="M111.627 57.7286C111.338 58.9651 110.925 60.1695 110.396 61.3236C110.221 61.0361 110.052 60.7448 109.89 60.4501C109.627 59.9687 109.239 59.567 108.767 59.2872C108.295 59.0074 107.757 58.8597 107.208 58.8597C106.66 58.8597 106.121 59.0074 105.649 59.2872C105.178 59.567 104.79 59.9687 104.527 60.4501C103.222 62.8365 100.889 65.9682 100.002 68.8837C99.7477 69.7195 99.5899 70.5424 99.5464 71.3448C97.5006 72.0917 95.2921 72.4992 92.9891 72.4992C82.4257 72.4992 73.8495 63.923 73.8495 53.3597C73.8495 52.0572 73.98 50.7849 74.2284 49.5551C76.1931 49.401 78.1135 48.5766 79.6069 47.0821C82.1247 44.5648 82.4218 41.4172 81.4083 38.1246C84.6246 35.6751 88.6382 34.2201 92.9891 34.2201C98.9894 34.2201 104.349 36.9874 107.859 41.314C107.18 42.7775 106.843 44.3759 106.871 45.9889C106.9 47.6018 107.293 49.1873 108.023 50.626L111.627 57.7286ZM104.63 51.0877C103.399 49.8262 101.68 49.0429 99.78 49.0429C98.1032 49.0409 96.4857 49.6628 95.2421 50.7875C94.9626 51.0398 94.7947 51.3927 94.7754 51.7687C94.756 52.1447 94.8867 52.513 95.1388 52.7926C95.3911 53.0721 95.744 53.2399 96.12 53.2593C96.496 53.2787 96.8643 53.1479 97.1439 52.8958C97.8664 52.2425 98.806 51.8813 99.78 51.8824C100.305 51.8819 100.826 51.9869 101.31 52.191C101.794 52.3952 102.232 52.6945 102.598 53.0711C102.861 53.3403 103.221 53.4941 103.597 53.4986C103.974 53.5032 104.336 53.3581 104.606 53.0953C104.875 52.8322 105.029 52.4729 105.034 52.0965C105.038 51.7201 104.893 51.3572 104.63 51.0877ZM97.7158 61.2562C96.4845 59.9948 94.7658 59.2116 92.8655 59.2116C91.1888 59.2096 89.5712 59.8314 88.3276 60.956C88.0481 61.2083 87.8803 61.5612 87.8609 61.9372C87.8415 62.3132 87.9723 62.6815 88.2244 62.9611C88.4766 63.2406 88.8295 63.4084 89.2055 63.4278C89.5815 63.4472 89.9498 63.3164 90.2294 63.0643C90.9519 62.411 91.8915 62.0498 92.8655 62.0509C93.3909 62.0504 93.9111 62.1554 94.3952 62.3595C94.8793 62.5637 95.3175 62.863 95.6839 63.2396C95.947 63.5089 96.3062 63.6626 96.6826 63.6672C97.059 63.6717 97.4218 63.5267 97.6913 63.2638C97.9606 63.0007 98.1145 62.6415 98.119 62.2651C98.1236 61.8886 97.9786 61.5257 97.7158 61.2562ZM90.8013 51.0877C89.57 49.8262 87.8511 49.0429 85.951 49.0429C84.2742 49.0409 82.6566 49.6628 81.4129 50.7875C81.1335 51.0398 80.9657 51.3928 80.9464 51.7687C80.9271 52.1447 81.0578 52.513 81.3099 52.7926C81.5621 53.0721 81.9151 53.2399 82.291 53.2593C82.667 53.2787 83.0353 53.1479 83.3149 52.8958C84.0374 52.2425 84.977 51.8813 85.951 51.8824C86.4764 51.8819 86.9966 51.9869 87.4807 52.191C87.9648 52.3952 88.403 52.6945 88.7694 53.0711C89.0325 53.3403 89.3917 53.494 89.7681 53.4986C90.1445 53.5031 90.5073 53.3581 90.7769 53.0953C91.0461 52.8322 91.2 52.473 91.2046 52.0965C91.2091 51.7201 91.0641 51.3572 90.8013 51.0877ZM114.842 126.494V135.863H73.1966V102.056L57.1072 118.867C55.717 120.319 53.8068 121.16 51.7968 121.204C49.7868 121.248 47.8416 120.492 46.3891 119.102L46.3391 119.054C45.6199 118.366 45.0432 117.542 44.6422 116.631C44.2411 115.72 44.0235 114.738 44.0018 113.743C43.9801 112.747 44.1546 111.757 44.5155 110.83C44.8764 109.902 45.4166 109.054 46.1052 108.335L66.6229 86.904C68.7009 84.7336 71.1967 83.0064 73.9601 81.8265C76.7234 80.6465 79.6971 80.0382 82.7018 80.0382H113.187C117.41 79.9504 121.535 79.3556 122.558 75.3523C122.796 74.4178 122.654 72.7808 122.364 72.1371L110.748 49.2435C110.296 48.3523 110.024 47.3809 109.947 46.3846C109.871 45.3882 109.991 44.3866 110.301 43.4367C110.612 42.4869 111.106 41.6075 111.757 40.8488C112.407 40.0901 113.2 39.467 114.092 39.0149L114.092 39.0145C114.985 38.562 115.957 38.2898 116.954 38.2135C117.952 38.1371 118.954 38.2582 119.905 38.5698C120.855 38.8813 121.735 39.3772 122.494 40.029C123.253 40.6809 123.875 41.4759 124.327 42.3687L137.427 68.2981C139.364 72.1319 140.186 76.6757 138.844 80.7556C137.502 84.8358 135.918 88.3743 131.49 91.1957C125.08 95.2791 115.954 97.1921 115.954 97.1921C115.619 97.3609 115.338 97.6191 115.142 97.9381C114.946 98.257 114.842 98.6242 114.842 98.9987V106.223C114.375 106.292 113.931 106.469 113.544 106.739C113.157 107.009 112.837 107.365 112.611 107.779C111.307 110.166 108.973 113.298 108.086 116.213C107.19 119.159 107.491 121.943 109.781 124.233C111.183 125.635 112.997 126.389 114.842 126.494ZM92.6826 88.854C92.4195 88.3727 92.0317 87.971 91.5599 87.6912C91.0881 87.4114 90.5497 87.2637 90.0011 87.2637C89.4526 87.2637 88.9141 87.4114 88.4423 87.6912C87.9705 87.971 87.5827 88.3727 87.3196 88.854C86.0152 91.2404 83.6814 94.3722 82.7948 97.2875C81.8988 100.234 82.1991 103.017 84.4895 105.308C87.5215 108.34 92.4818 108.339 95.5112 105.307C97.8112 103.008 98.0901 100.133 97.1494 97.1229C96.2125 94.126 93.8333 90.9602 92.6826 88.854ZM90.0009 90.3195C91.7971 93.6059 96.9248 99.5737 93.3501 103.147C91.5087 104.99 88.4933 104.99 86.6504 103.147C83.1178 99.6145 87.9683 94.0385 90.0009 90.3195ZM73.5498 30C75.6391 33.8228 81.6041 40.765 77.4458 44.9216C75.3036 47.0655 71.7962 47.0655 69.6523 44.9216C65.5431 40.8126 71.1855 34.3262 73.5498 30ZM107.208 61.9156C109.004 65.2019 114.132 71.1699 110.557 74.7431C108.716 76.586 105.701 76.586 103.858 74.7431C100.325 71.2105 105.176 65.6345 107.208 61.9156ZM67.3244 63.6962C69.1204 66.9826 74.2483 72.9504 70.6734 76.5238C68.832 78.3666 65.8168 78.3666 63.9737 76.5238C60.4414 72.9912 65.2919 67.4152 67.3244 63.6962ZM115.292 109.245C117.088 112.532 122.216 118.499 118.641 122.072C116.8 123.915 113.785 123.915 111.942 122.072C108.409 118.54 113.26 112.964 115.292 109.245Z" fill="url(#paint1_linear_1094_442)"/>
<defs>
<linearGradient id="paint0_linear_1094_442" x1="0" y1="0" x2="165.124" y2="183.029" gradientUnits="userSpaceOnUse">
<stop offset="0.125652" stop-color="#F5F5F5"/>
<stop offset="0.869819" stop-color="#E5E5E5"/>
</linearGradient>
<linearGradient id="paint1_linear_1094_442" x1="44" y1="135.863" x2="153.094" y2="127.11" gradientUnits="userSpaceOnUse">
<stop offset="0.323057" stop-color="#F98D1B"/>
<stop offset="1" stop-color="#FFC180"/>
</linearGradient>
</defs>
</svg>
