<svg width="184" height="166" viewBox="0 0 184 166" fill="none" xmlns="http://www.w3.org/2000/svg">
<rect width="184" height="166" rx="20" fill="url(#paint0_linear_1094_396)"/>
<path d="M98.9218 130H88.5313V128.663L85.5913 113.963L90.1101 101.276C91.0668 98.7248 95.7321 101.199 94.4687 106.25L92.9844 113.672L94.4687 118.125C94.4687 110.703 101.891 110.703 101.891 118.125C101.891 126.58 101.891 125.547 98.9218 129.12V130Z" fill="url(#paint1_linear_1094_396)"/>
<path d="M123.548 59.9258C123.201 52.3526 121.124 45.9932 117.699 42.0192C115.067 38.966 111.832 37.5846 108.502 38.0671C96.057 25.1345 68.9068 57.7245 61.8018 50.7378C60.8369 49.6191 58.9364 50.504 59.2585 52.0486C60.6443 58.6973 65.0054 66.9054 71.8331 69.3283C72.5092 71.6426 73.3416 74.5464 74.3604 78.2042C71.824 84.8987 71.1412 85.1844 71.6514 86.2235C72.1468 87.2347 72.9799 86.9638 77.2345 88.3109C78.7226 92.3688 78.3793 95.9238 82.0067 97.9463C82.7719 98.3762 83.6148 98.6499 84.4865 98.7515C85.3583 98.8531 86.2416 98.7806 87.0851 98.5381L96.3661 95.9015L97.8653 101.18C97.7057 101.687 97.4263 102.612 97.0843 103.889C115.897 95.5425 117.919 90.2983 118.649 89.7754C118.469 89.1445 118.267 88.4411 118.038 87.6541C118.63 86.9442 124.175 73.6016 123.548 59.9258ZM82.593 83.9847C82.2995 83.9847 82.0125 83.8977 81.7684 83.7346C81.5243 83.5714 81.334 83.3396 81.2217 83.0684C81.1093 82.7972 81.0799 82.4987 81.1372 82.2108C81.1945 81.9228 81.3358 81.6583 81.5434 81.4507C81.751 81.2431 82.0155 81.1018 82.3035 81.0445C82.5914 80.9872 82.8898 81.0166 83.1611 81.129C83.4323 81.2413 83.6641 81.4316 83.8272 81.6757C83.9903 81.9198 84.0774 82.2068 84.0774 82.5003C84.0774 82.894 83.921 83.2716 83.6426 83.5499C83.3643 83.8283 82.9867 83.9847 82.593 83.9847ZM88.5305 83.9847C88.2369 83.9847 87.9499 83.8977 87.7058 83.7346C87.4617 83.5714 87.2715 83.3396 87.1591 83.0684C87.0468 82.7972 87.0174 82.4987 87.0746 82.2108C87.1319 81.9228 87.2733 81.6583 87.4809 81.4507C87.6885 81.2431 87.953 81.1018 88.2409 81.0445C88.5288 80.9872 88.8273 81.0166 89.0985 81.129C89.3698 81.2413 89.6016 81.4316 89.7647 81.6757C89.9278 81.9198 90.0149 82.2068 90.0149 82.5003C90.0149 82.894 89.8585 83.2716 89.5801 83.5499C89.3017 83.8283 88.9242 83.9847 88.5305 83.9847ZM94.4679 85.4691C94.1744 85.4691 93.8874 85.382 93.6433 85.2189C93.3992 85.0558 93.2089 84.824 93.0966 84.5527C92.9842 84.2815 92.9548 83.9831 93.0121 83.6951C93.0694 83.4072 93.2107 83.1427 93.4183 82.9351C93.6259 82.7275 93.8904 82.5861 94.1784 82.5289C94.4663 82.4716 94.7648 82.501 95.036 82.6133C95.3072 82.7257 95.539 82.9159 95.7021 83.16C95.8652 83.4041 95.9523 83.6911 95.9523 83.9847C95.9523 84.3784 95.7959 84.7559 95.5175 85.0343C95.2392 85.3127 94.8616 85.4691 94.4679 85.4691ZM98.921 88.4378C98.6275 88.4378 98.3405 88.3507 98.0964 88.1876C97.8523 88.0245 97.662 87.7927 97.5497 87.5215C97.4373 87.2502 97.4079 86.9518 97.4652 86.6638C97.5225 86.3759 97.6638 86.1114 97.8714 85.9038C98.079 85.6962 98.3435 85.5549 98.6314 85.4976C98.9194 85.4403 99.2178 85.4697 99.4891 85.5821C99.7603 85.6944 99.9921 85.8847 100.155 86.1288C100.318 86.3729 100.405 86.6599 100.405 86.9534C100.405 87.3471 100.249 87.7247 99.9706 88.003C99.6923 88.2814 99.3147 88.4378 98.921 88.4378ZM103.374 92.8909C103.081 92.8909 102.794 92.8038 102.549 92.6407C102.305 92.4776 102.115 92.2458 102.003 91.9746C101.89 91.7033 101.861 91.4049 101.918 91.1169C101.976 90.829 102.117 90.5645 102.325 90.3569C102.532 90.1493 102.797 90.008 103.085 89.9507C103.372 89.8934 103.671 89.9228 103.942 90.0352C104.213 90.1475 104.445 90.3378 104.608 90.5819C104.771 90.826 104.858 91.1129 104.858 91.4065C104.858 91.8002 104.702 92.1778 104.424 92.4561C104.145 92.7345 103.768 92.8909 103.374 92.8909Z" fill="url(#paint2_linear_1094_396)"/>
<path d="M45.4849 97.3442C46.3046 97.3442 46.9692 96.6796 46.9692 95.8599C46.9692 95.0401 46.3046 94.3755 45.4849 94.3755C44.6651 94.3755 44.0005 95.0401 44.0005 95.8599C44.0005 96.6796 44.6651 97.3442 45.4849 97.3442Z" fill="url(#paint3_linear_1094_396)"/>
<path d="M51.4224 97.3442C52.2421 97.3442 52.9067 96.6796 52.9067 95.8599C52.9067 95.0401 52.2421 94.3755 51.4224 94.3755C50.6026 94.3755 49.938 95.0401 49.938 95.8599C49.938 96.6796 50.6026 97.3442 51.4224 97.3442Z" fill="url(#paint4_linear_1094_396)"/>
<path d="M57.3599 97.3442C58.1796 97.3442 58.8442 96.6796 58.8442 95.8599C58.8442 95.0401 58.1796 94.3755 57.3599 94.3755C56.5401 94.3755 55.8755 95.0401 55.8755 95.8599C55.8755 96.6796 56.5401 97.3442 57.3599 97.3442Z" fill="url(#paint5_linear_1094_396)"/>
<path d="M75.1719 103.282C75.9917 103.282 76.6562 102.617 76.6562 101.797C76.6562 100.978 75.9917 100.313 75.1719 100.313C74.3521 100.313 73.6875 100.978 73.6875 101.797C73.6875 102.617 74.3521 103.282 75.1719 103.282Z" fill="url(#paint6_linear_1094_396)"/>
<path d="M69.2347 91.4066H55.8754C54.3007 91.4066 52.7905 90.7811 51.677 89.6676C50.5635 88.5541 49.938 87.0439 49.938 85.4692C49.938 83.8945 50.5635 82.3843 51.677 81.2708C52.7905 80.1573 54.3007 79.5317 55.8754 79.5317C61.5374 79.5317 63.4457 86.9536 60.3285 86.9536C59.9349 86.9536 59.5573 86.7972 59.2789 86.5188C59.0006 86.2404 58.8442 85.8629 58.8442 85.4692C58.8442 84.882 58.6701 84.3081 58.3438 83.8199C58.0176 83.3316 57.554 82.9511 57.0115 82.7264C56.4691 82.5017 55.8721 82.443 55.2963 82.5575C54.7204 82.6721 54.1914 82.9548 53.7762 83.37C53.3611 83.7852 53.0783 84.3141 52.9638 84.89C52.8492 85.4659 52.908 86.0628 53.1327 86.6053C53.3574 87.1477 53.7379 87.6114 54.2261 87.9376C54.7143 88.2638 55.2883 88.4379 55.8754 88.4379H69.2347C69.6284 88.4379 70.0059 88.5943 70.2843 88.8727C70.5627 89.151 70.7191 89.5286 70.7191 89.9223C70.7191 90.316 70.5627 90.6935 70.2843 90.9719C70.0059 91.2503 69.6284 91.4066 69.2347 91.4066ZM55.8754 112.188C54.3007 112.188 52.7905 111.562 51.677 110.449C50.5635 109.335 49.938 107.825 49.938 106.25C49.938 104.676 50.5635 103.165 51.677 102.052C52.7905 100.938 54.3007 100.313 55.8754 100.313H69.2347C69.6284 100.313 70.0059 100.469 70.2843 100.748C70.5627 101.026 70.7191 101.404 70.7191 101.797C70.7191 102.191 70.5627 102.568 70.2843 102.847C70.0059 103.125 69.6284 103.282 69.2347 103.282H55.8754C55.2883 103.282 54.7143 103.456 54.2261 103.782C53.7379 104.108 53.3574 104.572 53.1327 105.114C52.908 105.657 52.8492 106.254 52.9638 106.829C53.0783 107.405 53.3611 107.934 53.7762 108.349C54.1914 108.765 54.7204 109.047 55.2963 109.162C55.8721 109.277 56.4691 109.218 57.0115 108.993C57.554 108.768 58.0176 108.388 58.3438 107.9C58.6701 107.411 58.8442 106.837 58.8442 106.25C58.8442 105.857 59.0006 105.479 59.2789 105.201C59.5573 104.922 59.9349 104.766 60.3285 104.766C63.447 104.766 61.5346 112.188 55.8754 112.188ZM75.1722 97.3441H63.2973C62.9036 97.3441 62.526 97.1877 62.2477 96.9093C61.9693 96.631 61.8129 96.2534 61.8129 95.8597C61.8129 95.4661 61.9693 95.0885 62.2477 94.8101C62.526 94.5318 62.9036 94.3754 63.2973 94.3754H75.1722C75.5658 94.3754 75.9434 94.5318 76.2218 94.8101C76.5001 95.0885 76.6565 95.4661 76.6565 95.8597C76.6565 96.2534 76.5001 96.631 76.2218 96.9093C75.9434 97.1877 75.5658 97.3441 75.1722 97.3441ZM119.9 92.9188C114.375 99.5777 101.789 105.055 97.342 107.022L96.7941 109.761C100.664 108.796 104.859 111.923 104.859 118.125C104.859 125.75 104.858 126.755 102.07 130H107.779V115.162C107.773 113.797 108.035 112.445 108.552 111.182C109.069 109.919 109.829 108.77 110.79 107.801C111.751 106.832 112.894 106.062 114.152 105.535C115.411 105.008 116.761 104.734 118.126 104.729H118.17C120.917 104.732 123.552 105.822 125.499 107.76C127.445 109.699 128.546 112.329 128.56 115.076V130H138.98C139.41 113.718 132.862 102.782 119.9 92.9188Z" fill="url(#paint7_linear_1094_396)"/>
<defs>
<linearGradient id="paint0_linear_1094_396" x1="0" y1="0" x2="165.124" y2="183.029" gradientUnits="userSpaceOnUse">
<stop offset="0.125652" stop-color="#F5F5F5"/>
<stop offset="0.869819" stop-color="#E5E5E5"/>
</linearGradient>
<linearGradient id="paint1_linear_1094_396" x1="85.5913" y1="130" x2="104.285" y2="129.089" gradientUnits="userSpaceOnUse">
<stop offset="0.323057" stop-color="#F98D1B"/>
<stop offset="1" stop-color="#FFC180"/>
</linearGradient>
<linearGradient id="paint2_linear_1094_396" x1="59.2222" y1="103.889" x2="132.724" y2="97.7806" gradientUnits="userSpaceOnUse">
<stop offset="0.323057" stop-color="#F98D1B"/>
<stop offset="1" stop-color="#FFC180"/>
</linearGradient>
<linearGradient id="paint3_linear_1094_396" x1="44.0005" y1="97.3442" x2="47.3867" y2="97.0431" gradientUnits="userSpaceOnUse">
<stop offset="0.323057" stop-color="#F98D1B"/>
<stop offset="1" stop-color="#FFC180"/>
</linearGradient>
<linearGradient id="paint4_linear_1094_396" x1="49.938" y1="97.3442" x2="53.3242" y2="97.0431" gradientUnits="userSpaceOnUse">
<stop offset="0.323057" stop-color="#F98D1B"/>
<stop offset="1" stop-color="#FFC180"/>
</linearGradient>
<linearGradient id="paint5_linear_1094_396" x1="55.8755" y1="97.3442" x2="59.2617" y2="97.0431" gradientUnits="userSpaceOnUse">
<stop offset="0.323057" stop-color="#F98D1B"/>
<stop offset="1" stop-color="#FFC180"/>
</linearGradient>
<linearGradient id="paint6_linear_1094_396" x1="73.6875" y1="103.282" x2="77.0737" y2="102.981" gradientUnits="userSpaceOnUse">
<stop offset="0.323057" stop-color="#F98D1B"/>
<stop offset="1" stop-color="#FFC180"/>
</linearGradient>
<linearGradient id="paint7_linear_1094_396" x1="49.938" y1="130" x2="149.867" y2="114.316" gradientUnits="userSpaceOnUse">
<stop offset="0.323057" stop-color="#F98D1B"/>
<stop offset="1" stop-color="#FFC180"/>
</linearGradient>
</defs>
</svg>
