<svg width="184" height="166" viewBox="0 0 184 166" fill="none" xmlns="http://www.w3.org/2000/svg">
<rect width="184" height="166" rx="20" fill="url(#paint0_linear_967_2108)"/>
<g clip-path="url(#clip0_967_2108)">
<path d="M101.414 81.8078L100.844 85.0497C100.62 86.3257 99.3771 87.1639 98.1087 86.8873C95.7701 86.3798 93.1024 86.3627 90.6636 86.9124C90.1348 87.0316 89.5809 86.9589 89.1007 86.7073C88.6205 86.4557 88.2454 86.0416 88.0424 85.539C87.083 83.1637 84.8092 81.6288 82.25 81.6288C78.806 81.6288 76.0039 84.4309 76.0039 87.8749C76.0039 92.0697 80.0919 95.1036 84.1269 93.8346C84.4779 93.7242 84.8505 93.7003 85.2128 93.7648C85.5751 93.8293 85.9165 93.9803 86.2079 94.2051C88.1189 95.6787 91.1953 96.5585 94.4375 96.5585C100.105 96.5585 104.34 93.9042 104.34 91.5312V85.4374C104.34 84.943 104.5 84.4619 104.797 84.0663L107.264 80.7767L105.237 78.7495L101.414 81.8078Z" fill="url(#paint1_linear_967_2108)"/>
<path d="M130.514 90.1231L104.768 57.2169C103.694 55.8441 101.542 56.1346 100.865 57.733C99.293 61.4396 95.979 63.6523 91.9997 63.6523C88.0203 63.6523 84.7064 61.4396 83.1348 57.733C82.4561 56.1324 80.3032 55.847 79.2311 57.2169L53.485 90.1231C53.1432 90.5599 52.9719 91.1061 53.0031 91.6598C53.0343 92.2136 53.2659 92.7371 53.6546 93.1327C58.864 98.4359 64.6125 102.514 70.7403 105.254C83.8834 111.13 100.068 111.152 113.259 105.254C119.387 102.514 125.135 98.4358 130.345 93.1327C130.733 92.737 130.965 92.2136 130.996 91.6598C131.027 91.1061 130.856 90.5599 130.514 90.1231ZM112.109 81.9336L108.91 86.1992V91.5312C108.91 96.9131 102.553 101.129 94.4372 101.129C90.6281 101.129 87.0275 100.175 84.3616 98.485C77.6826 99.8075 71.4333 94.6921 71.4333 87.875C71.4333 81.9109 76.2856 77.0586 82.2497 77.0586C86.0401 77.0586 89.4683 79.0017 91.4205 82.1365C93.1535 81.8995 94.9786 81.8705 96.7307 82.0495L97.0615 80.1672C97.1576 79.6194 97.4503 79.1256 97.8846 78.7782L103.978 73.9032C104.888 73.1758 106.198 73.2486 107.022 74.0717L111.897 78.9467C112.286 79.3357 112.521 79.8518 112.56 80.4005C112.599 80.9492 112.439 81.4936 112.109 81.9336ZM55.2848 54.8164C56.5468 54.8164 57.57 53.7933 57.57 52.5312V48.5703H61.5309C62.7929 48.5703 63.8161 47.5472 63.8161 46.2852C63.8161 45.0231 62.7929 44 61.5309 44H55.2848C54.0228 44 52.9997 45.0231 52.9997 46.2852V52.5312C52.9997 53.7933 54.0228 54.8164 55.2848 54.8164ZM128.715 44H122.468C121.206 44 120.183 45.0231 120.183 46.2852C120.183 47.5472 121.206 48.5703 122.468 48.5703H126.429V52.5312C126.429 53.7933 127.453 54.8164 128.715 54.8164C129.977 54.8164 131 53.7933 131 52.5312V46.2852C131 45.0231 129.977 44 128.715 44ZM128.715 111.184C127.453 111.184 126.429 112.207 126.429 113.469V117.43H122.468C121.206 117.43 120.183 118.453 120.183 119.715C120.183 120.977 121.206 122 122.468 122H128.715C129.977 122 131 120.977 131 119.715V113.469C131 112.207 129.977 111.184 128.715 111.184ZM61.5309 117.43H57.57V113.469C57.57 112.207 56.5468 111.184 55.2848 111.184C54.0228 111.184 52.9997 112.207 52.9997 113.469V119.715C52.9997 120.977 54.0228 122 55.2848 122H61.5309C62.7929 122 63.8161 120.977 63.8161 119.715C63.8161 118.453 62.7929 117.43 61.5309 117.43ZM61.6833 54.9688C61.6833 56.2308 62.7064 57.2539 63.9684 57.2539H68.8434C70.1054 57.2539 71.1286 56.2308 71.1286 54.9688C71.1286 53.7067 70.1054 52.6836 68.8434 52.6836H63.9684C62.7064 52.6836 61.6833 53.7067 61.6833 54.9688ZM63.9684 61.2148C62.7064 61.2148 61.6833 62.238 61.6833 63.5C61.6833 64.762 62.7064 65.7852 63.9684 65.7852H65.1872C66.4492 65.7852 67.4723 64.762 67.4723 63.5C67.4723 62.238 66.4492 61.2148 65.1872 61.2148H63.9684Z" fill="url(#paint2_linear_967_2108)"/>
</g>
<defs>
<linearGradient id="paint0_linear_967_2108" x1="0" y1="0" x2="165.124" y2="183.029" gradientUnits="userSpaceOnUse">
<stop offset="0.125652" stop-color="#F5F5F5"/>
<stop offset="0.869819" stop-color="#E5E5E5"/>
</linearGradient>
<linearGradient id="paint1_linear_967_2108" x1="76.0039" y1="96.5585" x2="111.087" y2="91.0816" gradientUnits="userSpaceOnUse">
<stop offset="0.323057" stop-color="#F98D1B"/>
<stop offset="1" stop-color="#FFC180"/>
</linearGradient>
<linearGradient id="paint2_linear_967_2108" x1="52.9995" y1="122" x2="141.969" y2="114.087" gradientUnits="userSpaceOnUse">
<stop offset="0.323057" stop-color="#F98D1B"/>
<stop offset="1" stop-color="#FFC180"/>
</linearGradient>
<clipPath id="clip0_967_2108">
<rect width="78" height="78" fill="white" transform="translate(53 44)"/>
</clipPath>
</defs>
</svg>
