<svg width="135" height="135" viewBox="0 0 135 135" fill="none" xmlns="http://www.w3.org/2000/svg">
<path fill-rule="evenodd" clip-rule="evenodd" d="M104.871 83.9616L85.4167 89.6575C85.6859 92.7874 84.1195 95.7527 81.391 97.3279C79.6188 98.351 77.4654 98.7115 75.3468 98.1694L56.5877 93.1436C56.3972 93.0927 56.2185 93.0047 56.062 92.8847C55.9054 92.7648 55.774 92.6151 55.6753 92.4444C55.4759 92.0995 55.4216 91.6896 55.5245 91.3047C55.5754 91.1142 55.6634 90.9355 55.7833 90.779C55.9033 90.6224 56.0529 90.491 56.2237 90.3923C56.5685 90.1929 56.9785 90.1386 57.3633 90.2415L76.0337 95.2443C78.7418 95.9701 81.5435 94.3549 82.2697 91.6463C82.9089 88.8766 81.46 86.1564 78.6709 85.4092L64.6222 81.6449C64.4493 81.598 64.2861 81.5205 64.1406 81.4159C59.6505 78.2319 56.3241 77.078 53.2783 77.1564C50.2122 77.2355 47.2362 78.575 43.5886 80.3587C40.2068 82.0123 36.9158 83.5856 33.6598 85.1282L42.3623 106.025L45.7098 104.397C48.1654 103.203 50.684 102.992 53.3056 103.753L68.7997 108.252C72.8903 109.439 78.2266 107.363 82.4599 105.716L112.484 94.143C115.416 93.0132 117.82 89.129 116.857 86.0069C115.459 81.4724 108.067 83.0262 104.871 83.9616ZM39.9058 116.227L32.4567 119.32C30.8404 119.991 28.9751 119.222 28.3025 117.606L15.6884 87.3168C15.5257 86.9314 15.4411 86.5175 15.4395 86.0992C15.4378 85.6809 15.5191 85.2663 15.6787 84.8796C15.8382 84.4929 16.0729 84.1417 16.369 83.8462C16.6652 83.5507 17.017 83.3169 17.4041 83.1583L24.8532 80.0652C26.4694 79.394 28.3347 80.1636 29.0074 81.7792L41.6213 112.069C41.7839 112.454 41.8685 112.868 41.8702 113.286C41.8718 113.704 41.7906 114.119 41.631 114.505C41.4715 114.892 41.2369 115.243 40.9407 115.539C40.6446 115.834 40.2928 116.068 39.9058 116.227ZM94.8465 23.9321C94.8465 28.0719 98.2023 31.4278 102.342 31.4278C106.482 31.4278 109.838 28.0719 109.838 23.9321C109.838 19.7934 106.482 16.4375 102.342 16.4375C98.2023 16.4375 94.8465 19.7934 94.8465 23.9321ZM74.5414 29.5453C74.5414 33.6854 77.8972 37.041 82.037 37.041C86.1769 37.041 89.5327 33.6854 89.5327 29.5453C89.5327 25.4066 86.1769 22.0507 82.037 22.0507C77.8972 22.0507 74.5414 25.4066 74.5414 29.5453ZM98.2547 57.5781C98.2547 66.5348 65.8187 66.5348 65.8187 57.5781C65.8187 48.6217 73.0806 41.3607 82.0373 41.3607C90.9939 41.3607 98.2547 48.6217 98.2547 57.5781ZM54.2363 23.9321C54.2363 28.0719 57.5921 31.4278 61.7319 31.4278C65.872 31.4278 69.2278 28.0719 69.2278 23.9321C69.2278 19.7934 65.872 16.4375 61.7319 16.4375C57.5921 16.4375 54.2363 19.7934 54.2363 23.9321ZM118.56 51.9649C118.56 43.0083 111.299 35.7474 102.342 35.7474C97.8629 35.7474 93.8075 37.5637 90.8723 40.4996C97.0443 43.6995 101.263 50.1467 101.263 57.5781C101.263 57.9423 101.234 58.3059 101.177 58.6655C109.655 58.8904 118.56 56.6582 118.56 51.9649ZM62.8968 58.6655C62.8392 58.3059 62.8104 57.9423 62.8109 57.5781C62.8109 50.1467 67.0296 43.6997 73.2018 40.4998C70.2668 37.5637 66.2117 35.7474 61.7322 35.7474C52.7755 35.7474 45.5136 43.0085 45.5136 51.9649C45.5134 56.6582 54.4184 58.8904 62.8968 58.6655Z" fill="url(#paint0_linear_1109_2953)"/>
<defs>
<linearGradient id="paint0_linear_1109_2953" x1="15.4395" y1="119.563" x2="133.062" y2="109.102" gradientUnits="userSpaceOnUse">
<stop offset="0.323057" stop-color="#F98D1B"/>
<stop offset="1" stop-color="#FFC180"/>
</linearGradient>
</defs>
</svg>
