<svg width="135" height="135" viewBox="0 0 135 135" fill="none" xmlns="http://www.w3.org/2000/svg">
<g clip-path="url(#clip0_1109_2892)">
<path fill-rule="evenodd" clip-rule="evenodd" d="M114.225 62.7779L113.674 48.4943C113.5 43.969 120.54 43.3322 121.254 47.8118L124.952 71.0304C125.683 75.6235 124.462 79.9221 121.173 83.2111L102.29 102.094C100.708 103.676 99.9665 105.657 100.121 107.889L100.145 108.24H75.2277L75.3667 96.6277C75.4098 93.0296 76.6492 89.9325 79.1938 87.3879L84.4171 82.1646C86.1133 80.4685 87.9576 79.4035 90.2748 78.7826L92.8021 78.1055L105.519 65.3888C107.559 63.349 110.896 63.349 112.936 65.3888C113.872 66.3254 114.336 67.4546 114.449 68.6864C114.544 70.1932 114.08 71.6618 112.936 72.8058L102.094 83.6478C101.834 83.9122 101.689 84.2688 101.69 84.6397C101.692 85.0107 101.84 85.3661 102.102 85.6284C102.364 85.8907 102.72 86.0387 103.091 86.0403C103.462 86.0418 103.818 85.8966 104.083 85.6364L114.925 74.7945C118.322 71.3972 117.998 65.7612 114.225 62.7774V62.7779ZM20.7751 62.7779L21.3257 48.4943C21.5003 43.969 14.4601 43.3322 13.7465 47.8118L10.0485 71.0304C9.31702 75.6235 10.5383 79.9221 13.8273 83.2111L32.71 102.094C34.2918 103.676 35.0336 105.657 34.8791 107.889L34.8547 108.24H59.7723L59.6333 96.6277C59.5902 93.0296 58.3508 89.9325 55.8062 87.3879L50.583 82.1646C48.8868 80.4685 47.0425 79.4035 44.7252 78.7826L42.198 78.1055L29.481 65.3888C27.4412 63.349 24.1037 63.349 22.064 65.3888C21.1274 66.3254 20.6643 67.4546 20.5504 68.6864C20.4562 70.1932 20.92 71.6618 22.064 72.8058L32.9059 83.6478C33.0365 83.7784 33.1401 83.9334 33.2107 84.104C33.2814 84.2746 33.3178 84.4575 33.3178 84.6422C33.3177 84.8269 33.2814 85.0097 33.2107 85.1803C33.14 85.351 33.0364 85.506 32.9058 85.6366C32.7752 85.7671 32.6202 85.8707 32.4496 85.9414C32.2789 86.012 32.0961 86.0484 31.9114 86.0484C31.7267 86.0484 31.5438 86.012 31.3732 85.9413C31.2026 85.8706 31.0476 85.767 30.917 85.6364L20.0751 74.7945C16.6778 71.3972 17.0015 65.7612 20.7747 62.7774L20.7751 62.7779ZM64.3701 121.961H30.0962V111.052H64.3701V121.961ZM67.4999 79.467C97.2172 65.1488 94.9525 40.9254 95.0055 24.1334C85.5644 24.1334 74.4883 21.0282 67.5001 14.04C60.512 21.0282 49.4359 24.1334 39.9948 24.1334C40.0478 40.9254 37.783 65.1488 67.5001 79.467H67.4999ZM54.5505 49.1867L61.8526 59.1183C63.358 61.1691 66.3716 61.0571 67.8088 59.0546L80.6887 41.5364C81.8847 39.9047 81.5315 37.6123 79.8997 36.4161C78.268 35.22 75.9756 35.5732 74.7796 37.205L64.8074 50.7682L60.46 44.8552C59.264 43.2235 56.9713 42.8703 55.3398 44.0663C53.7081 45.2623 53.3549 47.5547 54.5509 49.1864L54.5505 49.1867ZM70.6298 121.961H104.904V111.052H70.63V121.961H70.6298Z" fill="url(#paint0_linear_1109_2892)"/>
</g>
<defs>
<linearGradient id="paint0_linear_1109_2892" x1="9.84375" y1="121.961" x2="141.227" y2="109.476" gradientUnits="userSpaceOnUse">
<stop offset="0.323057" stop-color="#F98D1B"/>
<stop offset="1" stop-color="#FFC180"/>
</linearGradient>
<clipPath id="clip0_1109_2892">
<rect width="135" height="135" fill="white"/>
</clipPath>
</defs>
</svg>
