<svg width="135" height="135" viewBox="0 0 135 135" fill="none" xmlns="http://www.w3.org/2000/svg">
<g clip-path="url(#clip0_1109_2936)">
<path fill-rule="evenodd" clip-rule="evenodd" d="M20.4724 114.347C20.4722 115.217 20.7171 116.068 21.179 116.805C21.641 117.541 22.3012 118.132 23.0839 118.511C23.8667 118.889 24.7402 119.038 25.6042 118.943C26.4682 118.847 27.2877 118.509 27.9686 117.969C28.6495 117.429 29.1642 116.707 29.4536 115.887C29.743 115.068 29.7954 114.183 29.6048 113.335C29.4142 112.487 28.9883 111.709 28.3759 111.092C27.7636 110.475 26.9897 110.043 26.143 109.846V83.0382H41.524C41.1313 82.3575 40.7679 81.6588 40.4339 80.9418H25.0949C24.8169 80.9418 24.5502 81.0522 24.3537 81.2488C24.1571 81.4454 24.0467 81.712 24.0467 81.99V109.836C23.0314 110.073 22.1263 110.647 21.4791 111.464C20.8319 112.282 20.4807 113.294 20.4829 114.337L20.4724 114.347ZM66.6467 41.7945C71.9576 41.7945 77.1491 43.3693 81.565 46.3199C85.9808 49.2705 89.4225 53.4642 91.4549 58.3708C93.4873 63.2774 94.019 68.6765 92.9829 73.8853C91.9468 79.0941 89.3894 83.8787 85.6341 87.6341C81.8787 91.3894 77.0941 93.9468 71.8853 94.9829C66.6765 96.019 61.2774 95.4873 56.3708 93.4549C51.4642 91.4225 47.2705 87.9808 44.3199 83.565C41.3693 79.1492 39.7945 73.9576 39.7945 68.6467C39.7945 61.525 42.6236 54.6951 47.6593 49.6593C52.6951 44.6236 59.525 41.7945 66.6467 41.7945ZM60.867 74.4263V82.556C60.8676 82.9545 61.0261 83.3365 61.3079 83.6182C61.5897 83.9 61.9717 84.0585 62.3701 84.0591H70.9232C71.3217 84.0585 71.7037 83.9 71.9855 83.6182C72.2672 83.3365 72.4258 82.9545 72.4263 82.556V74.4263H80.556C80.9545 74.4258 81.3365 74.2672 81.6182 73.9855C81.9 73.7037 82.0585 73.3217 82.0591 72.9233V64.3701C82.0585 63.9717 81.9 63.5897 81.6182 63.3079C81.3365 63.0261 80.9545 62.8676 80.556 62.867H72.4263V54.7374C72.4258 54.3389 72.2672 53.9569 71.9855 53.6752C71.7037 53.3934 71.3217 53.2348 70.9232 53.2343H62.3701C61.9717 53.2348 61.5897 53.3934 61.3079 53.6752C61.0261 53.9569 60.8676 54.3389 60.867 54.7374V62.867H52.7374C52.3389 62.8676 51.9569 63.0261 51.6751 63.3079C51.3934 63.5897 51.2348 63.9717 51.2343 64.3701V72.9233C51.2348 73.3217 51.3934 73.7037 51.6751 73.9855C51.9569 74.2672 52.3389 74.4258 52.7374 74.4263H60.867ZM62.0347 114.347C62.036 115.217 62.2825 116.068 62.7458 116.804C63.2091 117.539 63.8705 118.13 64.6541 118.506C65.4376 118.883 66.3116 119.031 67.1755 118.934C68.0394 118.836 68.8584 118.497 69.5383 117.955C70.2181 117.413 70.7314 116.691 71.0191 115.87C71.3069 115.05 71.3574 114.165 71.1649 113.317C70.9724 112.469 70.5447 111.693 69.9309 111.077C69.3171 110.461 68.5421 110.031 67.6949 109.836V97.5764C67.3469 97.589 66.9968 97.5973 66.6467 97.5973C66.2966 97.5973 65.9465 97.5973 65.5985 97.5764V109.838C64.5818 110.075 63.6757 110.65 63.0283 111.47C62.3809 112.289 62.0306 113.303 62.0347 114.347ZM40.4423 56.3516C40.7777 55.6374 41.141 54.9386 41.5324 54.2552H32.5704V46.8446C33.6727 46.5874 34.6418 45.9338 35.2934 45.0084C35.9449 44.0829 36.2334 42.9502 36.104 41.8258C35.9745 40.7014 35.4361 39.6638 34.5913 38.9107C33.7464 38.1575 32.6541 37.7413 31.5223 37.7413C30.3904 37.7413 29.2981 38.1575 28.4533 38.9107C27.6084 39.6638 27.07 40.7014 26.9406 41.8258C26.8111 42.9502 27.0996 44.0829 27.7512 45.0084C28.4028 45.9338 29.3719 46.5874 30.4741 46.8446V55.3076C30.4741 55.5856 30.5845 55.8522 30.7811 56.0488C30.9777 56.2453 31.2443 56.3558 31.5223 56.3558L40.4423 56.3516ZM52.2636 43.524C52.9456 43.1313 53.6444 42.7679 54.36 42.4339V27.0949C54.36 26.8169 54.2495 26.5503 54.053 26.3537C53.8564 26.1571 53.5898 26.0467 53.3118 26.0467H25.4575C25.2002 24.9416 24.5455 23.9698 23.618 23.3163C22.6906 22.6627 21.5551 22.3731 20.4279 22.5026C19.3007 22.6321 18.2605 23.1716 17.5054 24.0184C16.7503 24.8653 16.333 25.9602 16.333 27.0949C16.333 28.2295 16.7503 29.3244 17.5054 30.1713C18.2605 31.0181 19.3007 31.5576 20.4279 31.6871C21.5551 31.8166 22.6906 31.527 23.618 30.8735C24.5455 30.2199 25.2002 29.2481 25.4575 28.143H52.2552V43.524H52.2636ZM65.5985 39.717V27.4575C64.4935 27.2002 63.5216 26.5455 62.8681 25.618C62.2145 24.6906 61.9249 23.5551 62.0544 22.4279C62.1839 21.3007 62.7234 20.2605 63.5703 19.5054C64.4171 18.7503 65.5121 18.333 66.6467 18.333C67.7813 18.333 68.8763 18.7503 69.7231 19.5054C70.5699 20.2605 71.1095 21.3007 71.2389 22.4279C71.3684 23.5551 71.0788 24.6906 70.4253 25.618C69.7717 26.5455 68.7999 27.2002 67.6949 27.4575V39.717C67.3469 39.7044 66.9968 39.696 66.6467 39.696C66.2966 39.696 65.9465 39.696 65.5985 39.717ZM78.9418 42.4423C79.6574 42.7777 80.3561 43.141 81.0382 43.5324V34.5704H88.4488C88.706 35.6727 89.3596 36.6418 90.285 37.2934C91.2105 37.9449 92.3432 38.2334 93.4676 38.104C94.592 37.9745 95.6295 37.4361 96.3827 36.5913C97.1358 35.7464 97.552 34.6541 97.552 33.5223C97.552 32.3905 97.1358 31.2981 96.3827 30.4533C95.6295 29.6084 94.592 29.07 93.4676 28.9406C92.3432 28.8111 91.2105 29.0996 90.285 29.7512C89.3596 30.4028 88.706 31.3719 88.4488 32.4741H79.99C79.712 32.4741 79.4454 32.5845 79.2488 32.7811C79.0522 32.9777 78.9418 33.2443 78.9418 33.5223V42.4423ZM91.7694 54.2636C92.1621 54.9456 92.5255 55.6444 92.8595 56.36H108.199C108.477 56.36 108.743 56.2495 108.94 56.053C109.136 55.8564 109.247 55.5898 109.247 55.3118V27.4575C110.352 27.2002 111.324 26.5455 111.977 25.618C112.631 24.6906 112.92 23.5551 112.791 22.4279C112.661 21.3007 112.122 20.2605 111.275 19.5054C110.428 18.7503 109.333 18.333 108.199 18.333C107.064 18.333 105.969 18.7503 105.122 19.5054C104.275 20.2605 103.736 21.3007 103.606 22.4279C103.477 23.5551 103.766 24.6906 104.42 25.618C105.073 26.5455 106.045 27.2002 107.15 27.4575V54.2552L91.7694 54.2636ZM95.5764 67.5985H107.838C108.095 66.4935 108.75 65.5216 109.677 64.8681C110.605 64.2146 111.74 63.9249 112.868 64.0544C113.995 64.1839 115.035 64.7234 115.79 65.5703C116.545 66.4171 116.962 67.5121 116.962 68.6467C116.962 69.7813 116.545 70.8763 115.79 71.7231C115.035 72.5699 113.995 73.1095 112.868 73.239C111.74 73.3684 110.605 73.0788 109.677 72.4253C108.75 71.7717 108.095 70.7999 107.838 69.6949H95.5764C95.5889 69.3469 95.5973 68.9968 95.5973 68.6467C95.5973 68.2966 95.5973 67.9465 95.5764 67.5985ZM92.8511 80.9418C92.5157 81.6574 92.1523 82.3561 91.761 83.0382H100.715V90.4488C99.6123 90.706 98.6432 91.3596 97.9916 92.285C97.34 93.2105 97.0515 94.3432 97.181 95.4676C97.3105 96.592 97.8489 97.6295 98.6937 98.3827C99.5386 99.1359 100.631 99.552 101.763 99.552C102.895 99.552 103.987 99.1359 104.832 98.3827C105.677 97.6295 106.215 96.592 106.344 95.4676C106.474 94.3432 106.185 93.2105 105.534 92.285C104.882 91.3596 103.913 90.706 102.811 90.4488V81.99C102.811 81.712 102.7 81.4454 102.504 81.2488C102.307 81.0522 102.041 80.9418 101.763 80.9418H92.8511ZM81.0298 93.7694C80.3492 94.1621 79.6504 94.5255 78.9334 94.8595V110.199C78.9334 110.477 79.0438 110.743 79.2404 110.94C79.437 111.136 79.7036 111.247 79.9816 111.247H107.836C108.093 112.352 108.748 113.324 109.675 113.977C110.603 114.631 111.738 114.92 112.865 114.791C113.993 114.661 115.033 114.122 115.788 113.275C116.543 112.428 116.96 111.333 116.96 110.199C116.96 109.064 116.543 107.969 115.788 107.122C115.033 106.275 113.993 105.736 112.865 105.606C111.738 105.477 110.603 105.766 109.675 106.42C108.748 107.073 108.093 108.045 107.836 109.15H81.0382V93.7694H81.0298ZM54.3516 94.8511V103.763C54.3516 104.041 54.2411 104.307 54.0446 104.504C53.848 104.7 53.5814 104.811 53.3034 104.811H44.8446C44.5873 105.916 43.9326 106.888 43.0051 107.541C42.0777 108.195 40.9422 108.484 39.815 108.355C38.6878 108.225 37.6476 107.686 36.8925 106.839C36.1374 105.992 35.7201 104.897 35.7201 103.763C35.7201 102.628 36.1374 101.533 36.8925 100.686C37.6476 99.8395 38.6878 99.2999 39.815 99.1705C40.9422 99.041 42.0777 99.3306 43.0051 99.9841C43.9326 100.638 44.5873 101.609 44.8446 102.715H52.2594V93.7694C52.9414 94.1621 53.6402 94.5255 54.3558 94.8595L54.3516 94.8511ZM37.717 69.6949H25.4575C25.2002 70.7999 24.5455 71.7717 23.618 72.4253C22.6906 73.0788 21.5551 73.3684 20.4279 73.239C19.3007 73.1095 18.2605 72.5699 17.5054 71.7231C16.7503 70.8763 16.333 69.7813 16.333 68.6467C16.333 67.5121 16.7503 66.4171 17.5054 65.5703C18.2605 64.7234 19.3007 64.1839 20.4279 64.0544C21.5551 63.9249 22.6906 64.2146 23.618 64.8681C24.5455 65.5216 25.2002 66.4935 25.4575 67.5985H37.717C37.7044 67.9465 37.696 68.2966 37.696 68.6467C37.696 68.9968 37.717 69.3469 37.717 69.6949Z" fill="url(#paint0_linear_1109_2936)"/>
</g>
<defs>
<linearGradient id="paint0_linear_1109_2936" x1="16.333" y1="118.971" x2="131.114" y2="108.763" gradientUnits="userSpaceOnUse">
<stop offset="0.323057" stop-color="#F98D1B"/>
<stop offset="1" stop-color="#FFC180"/>
</linearGradient>
<clipPath id="clip0_1109_2936">
<rect width="135" height="135" fill="white"/>
</clipPath>
</defs>
</svg>
