<svg width="135" height="135" viewBox="0 0 135 135" fill="none" xmlns="http://www.w3.org/2000/svg">
<g clip-path="url(#clip0_1109_2982)">
<path fill-rule="evenodd" clip-rule="evenodd" d="M82.0759 70.5344C82.5901 70.4566 83.1095 70.4175 83.6295 70.4175H88.0143L93.846 76.0203L99.6534 70.4175H104.062C106.812 70.4176 109.45 71.5102 111.394 73.4548C113.339 75.3994 114.431 78.0367 114.432 80.7868V95.7675H108.409V83.0925C108.409 82.1489 107.643 81.3827 106.699 81.3827C105.755 81.3827 104.989 82.1489 104.989 83.0925V95.7675H93.5008C92.583 93.4489 91.124 91.3835 89.2457 89.7435C87.3673 88.1034 85.1239 86.9364 82.7028 86.3396V83.0925C82.7028 82.1489 81.9366 81.3827 80.993 81.3827C80.0494 81.3827 79.2832 82.1489 79.2832 83.0925V85.8886C79.1756 85.8863 79.0679 85.8852 78.9603 85.8852H73.5831C73.4748 85.8852 73.3671 85.8912 73.2604 85.9027V84.6212C78.4755 82.0984 82.0759 76.7555 82.0759 70.5782V70.5344ZM96.9901 83.2468V84.6097C96.9901 85.4355 97.6606 86.1058 98.4862 86.1058C99.3118 86.1058 99.9823 85.4355 99.9823 84.6097V83.2468H101.345C102.171 83.2468 102.842 82.5763 102.842 81.7507C102.842 80.9249 102.171 80.2546 101.345 80.2546H99.9823V78.8915C99.9823 78.0659 99.3118 77.3954 98.4862 77.3954C97.6606 77.3954 96.9901 78.0659 96.9901 78.8915V80.2546H95.627C94.8014 80.2546 94.1309 80.9249 94.1309 81.7507C94.1309 82.5763 94.8014 83.2468 95.627 83.2468H96.9901ZM93.8338 45.0831C99.5352 45.0831 104.164 49.7118 104.164 55.4131C104.164 61.1142 99.5352 65.7429 93.8338 65.7429C88.1327 65.7429 83.5041 61.1142 83.5041 55.4131C83.5041 49.7118 88.1327 45.0831 93.8338 45.0831ZM59.7406 84.6356V85.906C59.6237 85.8922 59.5061 85.8853 59.3883 85.8852H54.0407C53.933 85.8852 53.8253 85.8863 53.7178 85.8886V83.0925C53.7178 82.1489 52.9516 81.3827 52.008 81.3827C51.0644 81.3827 50.2982 82.1489 50.2982 83.0925V86.3396C47.877 86.9364 45.6337 88.1034 43.7553 89.7435C41.8769 91.3835 40.418 93.4489 39.5001 95.7675H28.0117V83.0925C28.0117 82.1489 27.2457 81.3827 26.3019 81.3827C25.3583 81.3827 24.5921 82.1489 24.5921 83.0925V95.7675H18.5693V80.7868C18.5695 78.0367 19.662 75.3994 21.6066 73.4548C23.5512 71.5102 26.1886 70.4176 28.9387 70.4175H33.3234L39.1549 76.0203L44.9625 70.4175H49.3715C49.8846 70.4175 50.3939 70.4555 50.8955 70.5301V70.5782C50.8955 76.767 54.5096 82.1185 59.7406 84.6356ZM42.2991 83.2468V84.6097C42.2991 85.4355 42.9695 86.1058 43.7951 86.1058C44.621 86.1058 45.2912 85.4355 45.2912 84.6097V83.2468H46.6544C47.48 83.2468 48.1504 82.5763 48.1504 81.7507C48.1504 80.9249 47.48 80.2546 46.6544 80.2546H45.2912V78.8915C45.2912 78.0659 44.621 77.3954 43.7951 77.3954C42.9695 77.3954 42.2991 78.0659 42.2991 78.8915V80.2546H40.9361C40.1103 80.2546 39.4401 80.9249 39.4401 81.7507C39.4401 82.5763 40.1103 83.2468 40.9361 83.2468H42.2991ZM39.143 45.0831C44.8441 45.0831 49.4728 49.7118 49.4728 55.4131C49.4728 61.1142 44.8441 65.7429 39.143 65.7429C33.4416 65.7429 28.8132 61.1142 28.8132 55.4131C28.8132 49.7118 33.4416 45.0831 39.143 45.0831ZM49.1154 119.794H41.3944V101.524C41.3943 99.863 41.7213 98.2184 42.3568 96.6841C42.9923 95.1497 43.9239 93.7556 45.0982 92.5812C46.2725 91.4069 47.6667 90.4754 49.2011 89.8399C50.7354 89.2043 52.3799 88.8773 54.0407 88.8774H59.3883L66.5005 95.7104L73.5831 88.8774H78.9603C80.621 88.8773 82.2655 89.2044 83.7998 89.84C85.3342 90.4755 86.7283 91.407 87.9026 92.5813C89.077 93.7557 90.0085 95.1498 90.644 96.6842C91.2795 98.2185 91.6066 99.863 91.6066 101.524V119.794H83.8856V104.336C83.8856 103.392 83.1196 102.626 82.1757 102.626C81.2321 102.626 80.4659 103.392 80.4659 104.336V119.794H52.535V104.336C52.535 103.392 51.7688 102.626 50.8252 102.626C49.8814 102.626 49.1154 103.392 49.1154 104.336V119.794ZM70.6636 104.195V106.186C70.6636 107.012 71.3339 107.682 72.1597 107.682C72.9853 107.682 73.6558 107.012 73.6558 106.186V104.195H75.6467C76.4723 104.195 77.1427 103.525 77.1427 102.699C77.1427 101.873 76.4723 101.203 75.6467 101.203H73.6558V99.2123C73.6558 98.3865 72.9853 97.7162 72.1597 97.7162C71.3339 97.7162 70.6636 98.3865 70.6636 99.2123V101.203H68.6728C67.847 101.203 67.1767 101.873 67.1767 102.699C67.1767 103.525 67.847 104.195 68.6728 104.195H70.6636ZM66.4857 57.9799C73.4389 57.9799 79.0838 63.6251 79.0838 70.5782C79.0838 77.5311 73.4389 83.1763 66.4857 83.1763C59.5326 83.1763 53.8877 77.5311 53.8877 70.5782C53.8877 63.6251 59.5326 57.9799 66.4857 57.9799ZM66.5005 17.2058C75.5022 17.2058 82.8105 24.5142 82.8105 33.5158C82.8105 42.5177 75.5022 49.8259 66.5005 49.8259C57.4988 49.8259 50.1904 42.5177 50.1904 33.5158C50.1904 24.5142 57.4988 17.2058 66.5005 17.2058ZM56.8987 34.2652L62.8 40.1668C63.8308 41.1974 65.502 41.1974 66.5325 40.1668L76.1023 30.597C77.1325 29.5671 77.1325 27.8944 76.1023 26.8645C75.0724 25.8346 73.4 25.8346 72.3698 26.8645L64.6663 34.568L60.6312 30.5327C59.601 29.5027 57.9286 29.5027 56.8987 30.5327C55.8685 31.5628 55.8685 33.2352 56.8987 34.2652Z" fill="url(#paint0_linear_1109_2982)"/>
</g>
<defs>
<linearGradient id="paint0_linear_1109_2982" x1="18.5693" y1="119.794" x2="128.022" y2="110.698" gradientUnits="userSpaceOnUse">
<stop offset="0.323057" stop-color="#F98D1B"/>
<stop offset="1" stop-color="#FFC180"/>
</linearGradient>
<clipPath id="clip0_1109_2982">
<rect width="135" height="135" fill="white"/>
</clipPath>
</defs>
</svg>
