<svg width="113" height="110" viewBox="0 0 113 110" fill="none" xmlns="http://www.w3.org/2000/svg">
<rect width="113" height="110" rx="20" fill="url(#paint0_linear_621_1875)"/>
<g clip-path="url(#clip0_621_1875)">
<path d="M84.3239 40.5471C83.423 39.646 81.9617 39.6459 81.0603 40.5471C80.4425 41.1649 79.7071 41.6503 78.9068 42.0309L67.9689 31.093C68.3495 30.2927 68.8348 29.5572 69.4526 28.9394C70.3539 28.0383 70.3539 26.5772 69.4526 25.6759C68.5515 24.7747 67.0903 24.7747 66.189 25.6759C62.1263 29.7386 61.6399 36.3641 62.3181 42.0606C48.0196 40.3695 40.2351 46.8856 42.0604 62.3183C36.3677 61.6406 29.7398 62.1252 25.6759 66.1893C24.7747 67.0903 24.7747 68.5515 25.6759 69.4528C26.5768 70.354 28.038 70.354 28.9394 69.4528C29.5572 68.835 30.2927 68.3496 31.0931 67.969L42.0307 78.9066C41.6456 79.7167 41.1588 80.4492 40.5474 81.0607C39.6462 81.9617 39.6462 83.4229 40.5474 84.3242C41.4485 85.2255 42.9097 85.2255 43.811 84.3242C47.8737 80.2616 48.3601 73.6364 47.6819 67.9398C61.9801 69.6302 69.7649 63.1149 67.9394 47.6819C73.6252 48.3588 80.2605 47.8745 84.3239 43.811C85.2251 42.9093 85.2251 41.4483 84.3239 40.5471ZM43.2649 73.6133L36.3876 66.7361C38.5412 66.592 40.8297 66.7574 42.9158 67.0996C43.2028 68.8098 43.43 71.2034 43.2649 73.6133ZM46.8411 63.1585C46.4982 61.062 46.3369 58.7732 46.4794 56.6437L53.3556 63.5199C51.2092 63.6635 48.9259 63.4995 46.8411 63.1585ZM58.65 62.2875L47.712 51.3495C48.5 49.6925 49.6066 48.5408 51.3493 47.712L62.2873 58.65C61.4993 60.3071 60.3927 61.4587 58.65 62.2875ZM63.5202 53.3556L56.644 46.4794C58.7903 46.3359 61.0731 46.4997 63.1585 46.8408C63.5015 48.9368 63.6628 51.2261 63.5202 53.3556ZM67.0976 42.9019C66.7547 40.8053 66.5935 38.5169 66.736 36.3871L73.6121 43.2633C71.4663 43.4068 69.1829 43.2431 67.0976 42.9019Z" fill="url(#paint1_linear_621_1875)"/>
</g>
<defs>
<linearGradient id="paint0_linear_621_1875" x1="0" y1="0" x2="109.96" y2="112.959" gradientUnits="userSpaceOnUse">
<stop offset="0.125652" stop-color="#F5F5F5"/>
<stop offset="0.869819" stop-color="#E5E5E5"/>
</linearGradient>
<linearGradient id="paint1_linear_621_1875" x1="25" y1="85.0002" x2="93.4375" y2="78.9136" gradientUnits="userSpaceOnUse">
<stop offset="0.323057" stop-color="#F98D1B"/>
<stop offset="1" stop-color="#FFC180"/>
</linearGradient>
<clipPath id="clip0_621_1875">
<rect width="60" height="60" fill="white" transform="translate(25 25)"/>
</clipPath>
</defs>
</svg>
