<svg width="115" height="110" viewBox="0 0 115 110" fill="none" xmlns="http://www.w3.org/2000/svg">
<rect width="115" height="110" rx="20" fill="url(#paint0_linear_621_1920)"/>
<g clip-path="url(#clip0_621_1920)">
<path d="M64.0383 26C59.5433 26 55.4108 27.8608 52.5833 31.0025C49.7558 27.8608 45.6233 26 41.1283 26C32.7908 26 26 32.5008 26 40.5C26 60.9692 50.3117 75.7833 51.3508 76.4117C51.7133 76.6292 52.1483 76.75 52.5833 76.75C52.8008 76.75 52.9942 76.7258 53.2117 76.6533C51.375 73.6083 50.1667 70.0558 50.1667 65.9958V56.305C50.1667 53.4533 51.9792 50.9158 54.6858 49.9975L67.3492 45.6958C68.7267 45.2125 70.2733 45.2125 71.6508 45.6958L78.1275 47.895C78.78 45.5267 79.1667 43.0617 79.1667 40.5C79.1667 32.5008 72.3758 26 64.0383 26Z" fill="url(#paint1_linear_621_1920)"/>
<path d="M82.7699 54.5796L70.0824 50.2634C69.7051 50.1329 69.2949 50.1329 68.9176 50.2634L56.2301 54.5796C55.8711 54.7007 55.5592 54.9314 55.3385 55.2393C55.1178 55.5472 54.9994 55.9166 55 56.2954V66.0056C55 77.8569 68.2288 83.6183 68.7919 83.8575C69.016 83.952 69.2568 84.0007 69.5 84.0007C69.7432 84.0007 69.984 83.952 70.2081 83.8575C70.7712 83.6159 84 77.8569 84 66.0056V56.2954C84.0006 55.9166 83.8822 55.5472 83.6615 55.2393C83.4408 54.9314 83.1289 54.7007 82.7699 54.5796ZM77.4412 63.7436L70.7953 72.2019C70.594 72.4584 70.3429 72.6714 70.057 72.8282C69.7712 72.9851 69.4566 73.0825 69.1322 73.1145C68.8077 73.1466 68.4802 73.1127 68.1692 73.0148C67.8582 72.9169 67.5702 72.7572 67.3226 72.5451L63.0934 68.9201C62.8424 68.7168 62.6348 68.4652 62.4826 68.1803C62.3305 67.8953 62.2371 67.5828 62.2078 67.2611C62.1786 66.9395 62.2141 66.6152 62.3123 66.3075C62.4105 65.9998 62.5694 65.7149 62.7796 65.4696C62.9898 65.2244 63.247 65.0237 63.5361 64.8796C63.8252 64.7354 64.1402 64.6507 64.4625 64.6304C64.7849 64.6101 65.1081 64.6546 65.4129 64.7613C65.7178 64.868 65.9982 65.0347 66.2375 65.2516L68.5527 67.2357L73.6398 60.7614C73.8355 60.5115 74.0787 60.3027 74.3554 60.1469C74.632 59.9912 74.9367 59.8916 75.2519 59.8539C75.5672 59.8162 75.8868 59.841 76.1924 59.9271C76.498 60.0132 76.7835 60.1587 77.0328 60.3554C77.2827 60.5506 77.4917 60.7932 77.6476 61.0694C77.8035 61.3455 77.9033 61.6498 77.9412 61.9646C77.9792 62.2795 77.9545 62.5987 77.8687 62.904C77.7829 63.2093 77.6376 63.4946 77.4412 63.7436Z" fill="url(#paint2_linear_621_1920)"/>
</g>
<defs>
<linearGradient id="paint0_linear_621_1920" x1="0" y1="0" x2="109.891" y2="114.886" gradientUnits="userSpaceOnUse">
<stop offset="0.125652" stop-color="#F5F5F5"/>
<stop offset="0.869819" stop-color="#E5E5E5"/>
</linearGradient>
<linearGradient id="paint1_linear_621_1920" x1="26" y1="76.75" x2="86.5971" y2="71.104" gradientUnits="userSpaceOnUse">
<stop offset="0.323057" stop-color="#F98D1B"/>
<stop offset="1" stop-color="#FFC180"/>
</linearGradient>
<linearGradient id="paint2_linear_621_1920" x1="55" y1="84.0007" x2="88.1473" y2="81.474" gradientUnits="userSpaceOnUse">
<stop offset="0.323057" stop-color="#F98D1B"/>
<stop offset="1" stop-color="#FFC180"/>
</linearGradient>
<clipPath id="clip0_621_1920">
<rect width="58" height="58" fill="white" transform="translate(26 26)"/>
</clipPath>
</defs>
</svg>
