<svg width="113" height="110" viewBox="0 0 113 110" fill="none" xmlns="http://www.w3.org/2000/svg">
<rect width="113" height="110" rx="20" fill="url(#paint0_linear_621_1913)"/>
<path d="M69.5751 30.2125C70.9294 30.2125 72.2282 29.6745 73.1858 28.7169C74.1434 27.7593 74.6813 26.4605 74.6813 25.1062C74.6813 23.752 74.1434 22.4532 73.1858 21.4956C72.2282 20.538 70.9294 20 69.5751 20H61.3876V30.2125H69.5751ZM46.9876 74.7625V43.5H38.9626V74.7625H46.9876ZM45.6001 30.2125V20H37.4251C36.0708 20 34.772 20.538 33.8144 21.4956C32.8568 22.4532 32.3188 23.752 32.3188 25.1062C32.3188 26.4605 32.8568 27.7593 33.8144 28.7169C34.772 29.6745 36.0708 30.2125 37.4251 30.2125H45.6001ZM58.8876 20H48.1001V30.2125H58.8876V20ZM69.2126 59.7125C67.6613 58.495 67.1101 60.1275 65.5376 61.9875C63.0501 65.2875 58.8876 71.5875 58.8876 76.85C60.2063 94.6925 92.4501 86.0475 69.2126 59.7125ZM68.2251 71.4125C67.5428 72.455 67.0911 73.6313 66.9001 74.8625C66.8736 75.194 66.7164 75.5014 66.4633 75.7171C66.2101 75.9328 65.8816 76.039 65.5501 76.0125C65.2186 75.986 64.9112 75.8288 64.6955 75.5757C64.4798 75.3225 64.3736 74.994 64.4001 74.6625C64.4601 73.9287 65.6701 68.5412 67.7501 69.7C68.0373 69.8668 68.2478 70.1394 68.3366 70.4595C68.4253 70.7795 68.3853 71.1216 68.2251 71.4125Z" fill="url(#paint1_linear_621_1913)"/>
<path d="M55.1376 76.85C55.1376 68.2375 63.5626 58.3625 64.5251 57.2625C65.4262 56.2552 66.6885 55.6442 68.0376 55.5625V32.7125H65.5376C57.3739 32.7163 47.1139 32.71 38.9626 32.7125V41C40.5801 41.0038 46.5101 40.9975 48.2376 41C48.5689 41.001 48.8862 41.133 49.1204 41.3672C49.3546 41.6014 49.4867 41.9188 49.4876 42.25V76.0125C49.4867 76.3437 49.3546 76.6611 49.1204 76.8953C48.8862 77.1295 48.5689 77.2615 48.2376 77.2625H39.0251C40.0664 87.9225 51.0801 92.5963 60.4876 88.6875C62.7589 88.045 60.2501 87.6725 59.3126 86.4625C57.9937 85.233 56.9423 83.7449 56.224 82.0911C55.5057 80.4372 55.1359 78.6531 55.1376 76.85Z" fill="url(#paint2_linear_621_1913)"/>
<defs>
<linearGradient id="paint0_linear_621_1913" x1="0" y1="0" x2="109.96" y2="112.959" gradientUnits="userSpaceOnUse">
<stop offset="0.125652" stop-color="#F5F5F5"/>
<stop offset="0.869819" stop-color="#E5E5E5"/>
</linearGradient>
<linearGradient id="paint1_linear_621_1913" x1="32.3188" y1="86.2323" x2="84.1916" y2="83.0778" gradientUnits="userSpaceOnUse">
<stop offset="0.323057" stop-color="#F98D1B"/>
<stop offset="1" stop-color="#FFC180"/>
</linearGradient>
<linearGradient id="paint2_linear_621_1913" x1="38.9626" y1="90.055" x2="72.3209" y2="88.5507" gradientUnits="userSpaceOnUse">
<stop offset="0.323057" stop-color="#F98D1B"/>
<stop offset="1" stop-color="#FFC180"/>
</linearGradient>
</defs>
</svg>
