<svg width="112" height="110" viewBox="0 0 112 110" fill="none" xmlns="http://www.w3.org/2000/svg">
<rect width="112" height="110" rx="20" fill="url(#paint0_linear_621_1887)"/>
<g clip-path="url(#clip0_621_1887)">
<path d="M60.9933 51.1891L50.2 48.4906V47.3201C50.2 47.0655 50.0988 46.8213 49.9188 46.6413C49.7388 46.4612 49.4946 46.3601 49.24 46.3601H43.48C43.2254 46.3601 42.9812 46.4612 42.8012 46.6413C42.6212 46.8213 42.52 47.0655 42.52 47.3201V53.0801C42.52 53.3347 42.6212 53.5788 42.8012 53.7589C42.9812 53.9389 43.2254 54.04 43.48 54.04H48.28V55C48.28 55.2546 48.3811 55.4988 48.5612 55.6789C48.7412 55.8589 48.9854 55.96 49.24 55.96H60.7599C61.0145 55.96 61.2587 55.8589 61.4387 55.6789C61.6187 55.4988 61.7199 55.2546 61.7199 55V52.1201C61.7199 51.9061 61.6484 51.6983 61.5167 51.5296C61.3851 51.3609 61.2008 51.2411 60.9933 51.1891Z" fill="url(#paint1_linear_621_1887)"/>
<path d="M60.7599 57.8799H43.48C43.2254 57.8799 42.9812 57.981 42.8012 58.1611C42.6212 58.3411 42.52 58.5853 42.52 58.8399V62.6798C42.52 62.9345 42.6212 63.1786 42.8012 63.3587C42.9812 63.5387 43.2254 63.6398 43.48 63.6398H57.8799C60.0005 63.6398 61.7199 61.921 61.7199 59.7999V58.8399C61.7199 58.5853 61.6187 58.3411 61.4387 58.1611C61.2587 57.981 61.0145 57.8799 60.7599 57.8799Z" fill="url(#paint2_linear_621_1887)"/>
<path d="M57.8798 38.6802H52.1198C51.9739 38.6802 51.8298 38.7135 51.6987 38.7775C51.5675 38.8415 51.4526 38.9345 51.3627 39.0495C51.273 39.1646 51.2107 39.2987 51.1805 39.4414C51.1503 39.5842 51.153 39.732 51.1884 39.8736L53.1084 47.5535C53.1605 47.7611 53.2804 47.9453 53.4492 48.0769C53.6179 48.2085 53.8258 48.2801 54.0398 48.2801H57.8798C58.1344 48.2801 58.3785 48.179 58.5586 47.9989C58.7386 47.8189 58.8398 47.5747 58.8398 47.3201V39.6402C58.8398 39.3856 58.7386 39.1414 58.5586 38.9614C58.3785 38.7813 58.1344 38.6802 57.8798 38.6802Z" fill="url(#paint3_linear_621_1887)"/>
<path d="M54.9999 31H43.48C43.2254 31 42.9812 31.1011 42.8012 31.2812C42.6212 31.4612 42.52 31.7054 42.52 31.96V39.6399C42.52 39.8945 42.6212 40.1387 42.8012 40.3188C42.9812 40.4988 43.2254 40.5999 43.48 40.5999H60.7599C61.0145 40.5999 61.2587 40.4988 61.4387 40.3188C61.6187 40.1387 61.7199 39.8945 61.7199 39.6399V37.7199C61.7157 34.0108 58.7096 31.0042 54.9999 31Z" fill="url(#paint4_linear_621_1887)"/>
<path d="M49.24 73.2397H47.32C45.7295 73.2397 44.44 71.9507 44.44 70.3597V31.96C44.44 31.7054 44.3389 31.4612 44.1588 31.2812C43.9788 31.1011 43.7346 31 43.48 31H35.8001C35.5455 31 35.3013 31.1011 35.1213 31.2812C34.9412 31.4612 34.8401 31.7054 34.8401 31.96V78.0396C34.8401 78.2943 34.9412 78.5384 35.1213 78.7185C35.3013 78.8985 35.5455 78.9996 35.8001 78.9996H49.24C49.4946 78.9996 49.7388 78.8985 49.9188 78.7185C50.0988 78.5384 50.2 78.2943 50.2 78.0396V74.1997C50.2 73.9451 50.0988 73.7009 49.9188 73.5209C49.7388 73.3408 49.4946 73.2397 49.24 73.2397ZM78.5564 48.4308C78.2193 48.2157 77.8438 48.0005 77.4533 47.7778C76.2955 47.2199 75.2605 46.4366 74.409 45.4739C76.0419 43.5765 76.9834 41.1815 77.0798 38.6799C77.0798 33.9427 74.505 31 70.3598 31C66.2147 31 63.6399 33.9427 63.6399 38.6799C63.737 41.1862 64.6812 43.5854 66.3183 45.4857C65.4216 46.7958 63.8762 47.5689 62.251 48.3807C62.0233 48.4942 61.85 48.6935 61.7691 48.9347C61.6883 49.176 61.7065 49.4395 61.8197 49.6673L63.7271 53.5073C63.7869 53.628 63.8715 53.7347 63.9752 53.8206C64.079 53.9065 64.1997 53.9697 64.3294 54.0059C64.4592 54.0421 64.5951 54.0506 64.7284 54.0309C64.8616 54.0111 64.9892 53.9635 65.1029 53.8913C66.9322 52.5502 68.6871 51.1106 70.3598 49.5787C72.0296 51.1084 73.7802 52.5473 75.6041 53.8894C75.7582 53.9875 75.9371 54.0397 76.1198 54.0398C76.2064 54.0397 76.2926 54.0282 76.3762 54.0056C76.5058 53.9697 76.6265 53.9069 76.7303 53.8214C76.8341 53.7359 76.9189 53.6295 76.979 53.5092L78.899 49.6692C79.0049 49.4569 79.0285 49.213 78.9653 48.9843C78.902 48.7556 78.7564 48.5585 78.5564 48.4308ZM71.1116 44.078C71.0217 44.1911 70.9074 44.2825 70.7772 44.3453C70.647 44.4081 70.5044 44.4407 70.3598 44.4407C70.2153 44.4407 70.0726 44.4081 69.9425 44.3453C69.8123 44.2825 69.698 44.1911 69.608 44.078C68.3831 42.5271 67.6429 40.6494 67.4798 38.6799C67.4798 36.159 68.9282 34.84 70.3598 34.84C71.7914 34.84 73.2398 36.159 73.2398 38.6799C73.0768 40.6494 72.3365 42.5271 71.1116 44.078Z" fill="url(#paint5_linear_621_1887)"/>
<path d="M39.6399 63.64C39.3853 63.64 39.1411 63.5388 38.9611 63.3588C38.7811 63.1788 38.6799 62.9346 38.6799 62.68V47.3201C38.6799 47.0655 38.7811 46.8213 38.9611 46.6413C39.1411 46.4612 39.3853 46.3601 39.6399 46.3601C39.8945 46.3601 40.1387 46.4612 40.3187 46.6413C40.4988 46.8213 40.5999 47.0655 40.5999 47.3201V62.68C40.5999 62.9346 40.4988 63.1788 40.3187 63.3588C40.1387 63.5388 39.8945 63.64 39.6399 63.64Z" fill="#F0F0F0"/>
<path d="M31.96 31.0002H35.8C36.0546 31.0002 36.2987 31.1014 36.4788 31.2814C36.6588 31.4615 36.76 31.7056 36.76 31.9602V78.0399C36.76 78.2945 36.6588 78.5387 36.4788 78.7187C36.2987 78.8987 36.0546 78.9999 35.8 78.9999H31.96C31.7054 78.9999 31.4612 78.8987 31.2812 78.7187C31.1011 78.5387 31 78.2945 31 78.0399V31.9602C31 31.7056 31.1011 31.4615 31.2812 31.2814C31.4612 31.1014 31.7054 31.0002 31.96 31.0002Z" fill="url(#paint6_linear_621_1887)"/>
</g>
<defs>
<linearGradient id="paint0_linear_621_1887" x1="0" y1="0" x2="109.982" y2="111.982" gradientUnits="userSpaceOnUse">
<stop offset="0.125652" stop-color="#F5F5F5"/>
<stop offset="0.869819" stop-color="#E5E5E5"/>
</linearGradient>
<linearGradient id="paint1_linear_621_1887" x1="42.52" y1="55.96" x2="63.9162" y2="52.1542" gradientUnits="userSpaceOnUse">
<stop offset="0.323057" stop-color="#F98D1B"/>
<stop offset="1" stop-color="#FFC180"/>
</linearGradient>
<linearGradient id="paint2_linear_621_1887" x1="42.52" y1="63.6398" x2="62.8099" y2="57.6248" gradientUnits="userSpaceOnUse">
<stop offset="0.323057" stop-color="#F98D1B"/>
<stop offset="1" stop-color="#FFC180"/>
</linearGradient>
<linearGradient id="paint3_linear_621_1887" x1="51.1597" y1="48.2801" x2="59.9446" y2="47.655" gradientUnits="userSpaceOnUse">
<stop offset="0.323057" stop-color="#F98D1B"/>
<stop offset="1" stop-color="#FFC180"/>
</linearGradient>
<linearGradient id="paint4_linear_621_1887" x1="42.52" y1="40.5999" x2="63.9162" y2="36.7941" gradientUnits="userSpaceOnUse">
<stop offset="0.323057" stop-color="#F98D1B"/>
<stop offset="1" stop-color="#FFC180"/>
</linearGradient>
<linearGradient id="paint5_linear_621_1887" x1="34.8401" y1="78.9996" x2="85.271" y2="74.8733" gradientUnits="userSpaceOnUse">
<stop offset="0.323057" stop-color="#F98D1B"/>
<stop offset="1" stop-color="#FFC180"/>
</linearGradient>
<linearGradient id="paint6_linear_621_1887" x1="31" y1="78.9999" x2="37.6212" y2="78.9292" gradientUnits="userSpaceOnUse">
<stop offset="0.323057" stop-color="#F98D1B"/>
<stop offset="1" stop-color="#FFC180"/>
</linearGradient>
<clipPath id="clip0_621_1887">
<rect width="48" height="48" fill="white" transform="translate(31 31)"/>
</clipPath>
</defs>
</svg>
