<svg width="110" height="110" viewBox="0 0 110 110" fill="none" xmlns="http://www.w3.org/2000/svg">
<rect width="110" height="110" rx="20" fill="url(#paint0_linear_621_1899)"/>
<g clip-path="url(#clip0_621_1899)">
<path d="M65.4866 59.9489V57.465C65.4866 56.0317 64.3256 54.8709 62.8925 54.8709H47.1074C45.6742 54.8709 44.5134 56.0318 44.5134 57.465V59.9489L44.2734 60.4158C41.5949 57.6985 39.9347 53.9695 39.9347 49.8579C39.9347 41.5502 46.6922 34.7927 54.9999 34.7927C63.3075 34.7927 70.065 41.5502 70.065 49.8579C70.065 53.9695 68.4048 57.6986 65.7263 60.4158L65.4866 59.9489ZM35.8641 84.0544C35.8641 85.1289 36.7352 86 37.8097 86H72.1904C73.2649 86 74.1361 85.129 74.1361 84.0544V79.7654H35.8641V84.0544ZM73.4763 78.4705L64.8511 61.5635H45.1489L36.5236 78.4705H73.4763ZM47.1074 56.1687C46.3912 56.1687 45.8104 56.7494 45.8104 57.4657V60.2666H64.1895V57.4657C64.1895 56.7494 63.6088 56.1687 62.8925 56.1687H47.1074ZM80.8566 50.3442V74.0217C80.8566 75.8181 79.404 77.2643 77.614 77.2643H74.313L67.8601 64.6053C71.9783 61.0254 74.5788 55.7465 74.5788 49.8578C74.5788 39.0469 65.8107 30.279 55 30.279C44.1956 30.279 35.4212 39.047 35.4212 49.8578C35.4212 55.7399 38.0218 61.0188 42.1398 64.6053L35.687 77.2643H32.386C30.5961 77.2643 29.1433 75.8181 29.1433 74.0217V49.8578C29.1433 35.3957 41.089 23.6576 55.6289 24.0076C69.7408 24.3449 80.8566 36.2259 80.8566 50.3442ZM36.3031 67.7959C36.3035 67.6552 36.2761 67.5159 36.2225 67.3859C36.1688 67.2559 36.09 67.1377 35.9906 67.0383C35.8911 66.9388 35.773 66.86 35.643 66.8064C35.513 66.7528 35.3736 66.7254 35.233 66.7258H32.7168C32.5761 66.7254 32.4368 66.7528 32.3068 66.8064C32.1768 66.86 32.0587 66.9388 31.9592 67.0383C31.8598 67.1377 31.781 67.2559 31.7273 67.3859C31.6737 67.5159 31.6463 67.6552 31.6467 67.7959C31.6467 68.3861 32.1266 68.866 32.7168 68.866H35.233C35.8232 68.866 36.3031 68.3861 36.3031 67.7959ZM35.233 62.3807H32.7168C32.1266 62.3807 31.6467 62.8606 31.6467 63.4508C31.6467 64.041 32.1266 64.5209 32.7168 64.5209H35.233C35.8232 64.5209 36.3031 64.041 36.3031 63.4508C36.3031 62.8607 35.8232 62.3807 35.233 62.3807ZM56.7899 27.1401C56.7899 26.1477 55.9921 25.3502 55 25.3502C54.0079 25.3502 53.2101 26.148 53.2101 27.1401C53.2101 28.1322 54.0077 28.93 55 28.93C55.9922 28.93 56.7899 28.1322 56.7899 27.1401ZM78.3531 67.7959C78.3535 67.6552 78.3261 67.5159 78.2725 67.3859C78.2189 67.2559 78.1401 67.1377 78.0406 67.0383C77.9412 66.9388 77.823 66.86 77.693 66.8064C77.563 66.7528 77.4237 66.7254 77.283 66.7258H74.7668C74.6262 66.7254 74.4869 66.7528 74.3568 66.8064C74.2268 66.86 74.1087 66.9388 74.0093 67.0383C73.9098 67.1377 73.831 67.2559 73.7774 67.3859C73.7237 67.5159 73.6963 67.6552 73.6967 67.7959C73.6967 68.3861 74.1766 68.866 74.7668 68.866H77.283C77.8733 68.866 78.3531 68.3861 78.3531 67.7959ZM78.3531 63.4508C78.3531 62.8606 77.8733 62.3807 77.283 62.3807H74.7668C74.1766 62.3807 73.6967 62.8606 73.6967 63.4508C73.6967 64.041 74.1766 64.5209 74.7668 64.5209H77.283C77.8733 64.5209 78.3531 64.041 78.3531 63.4508Z" fill="url(#paint1_linear_621_1899)"/>
</g>
<defs>
<linearGradient id="paint0_linear_621_1899" x1="0" y1="0" x2="110" y2="110" gradientUnits="userSpaceOnUse">
<stop offset="0.125652" stop-color="#F5F5F5"/>
<stop offset="0.869819" stop-color="#E5E5E5"/>
</linearGradient>
<linearGradient id="paint1_linear_621_1899" x1="29.1433" y1="86" x2="88.2702" y2="81.6139" gradientUnits="userSpaceOnUse">
<stop offset="0.323057" stop-color="#F98D1B"/>
<stop offset="1" stop-color="#FFC180"/>
</linearGradient>
<clipPath id="clip0_621_1899">
<rect width="62" height="62" fill="white" transform="translate(24 24)"/>
</clipPath>
</defs>
</svg>
