<svg width="110" height="110" viewBox="0 0 110 110" fill="none" xmlns="http://www.w3.org/2000/svg">
<rect width="110" height="110" rx="20" fill="url(#paint0_linear_621_1905)"/>
<path d="M76.6007 81.5625V83.6875C76.6007 84.2511 76.3768 84.7916 75.9783 85.1901C75.5798 85.5886 75.0393 85.8125 74.4757 85.8125H40.2844C39.7208 85.8125 39.1803 85.5886 38.7818 85.1901C38.3833 84.7916 38.1594 84.2511 38.1594 83.6875V81.5625C38.1594 80.4353 38.6072 79.3543 39.4042 78.5573C40.2013 77.7603 41.2823 77.3125 42.4094 77.3125H72.3401C72.8991 77.3111 73.4529 77.42 73.9697 77.633C74.4866 77.8459 74.9564 78.1587 75.3521 78.5535C75.7479 78.9483 76.0619 79.4173 76.2762 79.9336C76.4904 80.45 76.6007 81.0035 76.6007 81.5625ZM45.0019 74.125L44.6513 75.1875H60.1744L59.4094 72.8819H69.7901C70.2086 72.8819 70.6231 72.7994 71.0099 72.6392C71.3966 72.4791 71.748 72.2443 72.044 71.9483C72.3399 71.6523 72.5747 71.3009 72.7349 70.9142C72.8951 70.5275 72.9776 70.113 72.9776 69.6944C72.9776 69.2758 72.8951 68.8613 72.7349 68.4746C72.5747 68.0878 72.3399 67.7365 72.044 67.4405C71.748 67.1445 71.3966 66.9097 71.0099 66.7495C70.6231 66.5893 70.2086 66.5069 69.7901 66.5069H49.5176C48.9551 66.5051 48.4055 66.6751 47.9422 66.994C47.4789 67.313 47.1241 67.7658 46.9251 68.2919C45.0887 67.8155 43.4274 66.8228 42.138 65.4313C40.8485 64.0398 39.9849 62.3079 39.6495 60.4407C39.3141 58.5735 39.5209 56.6493 40.2454 54.896C40.9699 53.1427 42.1818 51.6338 43.7376 50.5481C42.655 49.2767 42.0633 47.6598 42.0694 45.99C42.0613 45.4462 42.122 44.9036 42.2501 44.375C39.3478 45.8045 36.947 48.0802 35.3644 50.9019C33.7817 53.7236 33.0916 56.9588 33.3851 60.1807C33.6785 63.4026 34.9417 66.4599 37.008 68.9493C39.0743 71.4387 41.8467 73.2433 44.9594 74.125H45.0019Z" fill="url(#paint1_linear_621_1905)"/>
<path d="M54.1818 46.0114C53.98 39.5195 44.6193 39.4026 44.2262 45.8308C44.1837 52.5458 53.9375 52.7264 54.1818 46.0114ZM57.9218 58.9633L57.805 59.027L58.6656 60.5251C58.8053 60.7678 58.9916 60.9804 59.2137 61.1508C59.4359 61.3212 59.6895 61.446 59.96 61.5181C60.2305 61.5901 60.5126 61.608 60.7901 61.5707C61.0676 61.5335 61.3349 61.4417 61.5768 61.3008L66.9531 58.1876C67.1961 58.0497 67.4095 57.8652 67.5811 57.6447C67.7526 57.4242 67.8791 57.172 67.9531 56.9026C68.0271 56.6332 68.0473 56.3518 68.0124 56.0746C67.9775 55.7974 67.8884 55.5297 67.75 55.287L66.8787 53.7889C65.625 54.522 57.9218 58.9633 57.9218 58.9633Z" fill="url(#paint2_linear_621_1905)"/>
<path d="M45.6394 37.7132C45.1788 37.9795 44.8349 38.4088 44.6756 38.9163C44.5162 39.4239 44.553 39.9727 44.7787 40.4545C46.0328 39.4498 47.5919 38.9027 49.1987 38.9032C54.6706 38.7545 58.3044 45.3738 55.1381 49.9107C54.3388 51.1406 53.1765 52.0912 51.8125 52.6307L53.9375 56.3495C54.0772 56.5921 54.2635 56.8047 54.4856 56.9751C54.7078 57.1455 54.9614 57.2703 55.2319 57.3424C55.5024 57.4144 55.7845 57.4324 56.062 57.3951C56.3395 57.3578 56.6069 57.266 56.8488 57.1251C59.0375 55.8501 63.5106 53.2788 65.6994 52.0145C65.942 51.8747 66.1546 51.6885 66.325 51.4663C66.4954 51.2442 66.6202 50.9906 66.6923 50.72C66.7644 50.4495 66.7823 50.1674 66.745 49.8899C66.7077 49.6125 66.6159 49.3451 66.475 49.1032L57.3906 33.3782C57.2509 33.1356 57.0646 32.923 56.8425 32.7526C56.6204 32.5822 56.3667 32.4574 56.0962 32.3853C55.8257 32.3132 55.5436 32.2953 55.2661 32.3326C54.9886 32.3699 54.7213 32.4616 54.4794 32.6026C53.2575 33.3145 45.6819 37.7026 45.6394 37.7132ZM42.08 33.9626C42.2977 34.3602 42.6368 34.6777 43.0477 34.8689C43.4587 35.06 43.9201 35.1148 44.3644 35.0251L44.8106 35.7795L53.385 30.7751L52.9706 30.0526C53.2491 29.7889 53.451 29.4548 53.555 29.0857C53.895 28.1295 53.13 27.0988 52.6731 26.3126C52.5334 26.07 52.3471 25.8574 52.125 25.687C51.9029 25.5166 51.6492 25.3917 51.3787 25.3197C51.1082 25.2476 50.8261 25.2297 50.5486 25.267C50.2711 25.3043 50.0038 25.396 49.7619 25.537L42.25 29.9038C42.0065 30.0427 41.7929 30.2283 41.6214 30.45C41.45 30.6718 41.3241 30.9252 41.251 31.1958C41.1779 31.4664 41.1591 31.7488 41.1956 32.0267C41.2321 32.3046 41.3232 32.5726 41.4637 32.8151L42.08 33.9626Z" fill="url(#paint3_linear_621_1905)"/>
<defs>
<linearGradient id="paint0_linear_621_1905" x1="0" y1="0" x2="110" y2="110" gradientUnits="userSpaceOnUse">
<stop offset="0.125652" stop-color="#F5F5F5"/>
<stop offset="0.869819" stop-color="#E5E5E5"/>
</linearGradient>
<linearGradient id="paint1_linear_621_1905" x1="33.3191" y1="85.8125" x2="82.6521" y2="81.2297" gradientUnits="userSpaceOnUse">
<stop offset="0.323057" stop-color="#F98D1B"/>
<stop offset="1" stop-color="#FFC180"/>
</linearGradient>
<linearGradient id="paint2_linear_621_1905" x1="44.2261" y1="61.5897" x2="71.3028" y2="58.7955" gradientUnits="userSpaceOnUse">
<stop offset="0.323057" stop-color="#F98D1B"/>
<stop offset="1" stop-color="#FFC180"/>
</linearGradient>
<linearGradient id="paint3_linear_621_1905" x1="41.1775" y1="57.414" x2="70.4465" y2="55.3434" gradientUnits="userSpaceOnUse">
<stop offset="0.323057" stop-color="#F98D1B"/>
<stop offset="1" stop-color="#FFC180"/>
</linearGradient>
</defs>
</svg>
