<svg width="112" height="110" viewBox="0 0 112 110" fill="none" xmlns="http://www.w3.org/2000/svg">
<rect width="112" height="110" rx="20" fill="url(#paint0_linear_621_1927)"/>
<path fill-rule="evenodd" clip-rule="evenodd" d="M22.0938 72.0625C22.0938 71.7393 22.2222 71.4293 22.4507 71.2007C22.6793 70.9722 22.9893 70.8438 23.3125 70.8438C23.6357 70.8438 23.9457 70.9722 24.1743 71.2007C24.4028 71.4293 24.5312 71.7393 24.5312 72.0625V76.9375C24.5312 77.9072 24.9165 78.8372 25.6021 79.5229C26.2878 80.2085 27.2178 80.5938 28.1875 80.5938H33.0625C33.3857 80.5938 33.6957 80.7222 33.9243 80.9507C34.1528 81.1793 34.2812 81.4893 34.2812 81.8125C34.2812 82.1357 34.1528 82.4457 33.9243 82.6743C33.6957 82.9028 33.3857 83.0312 33.0625 83.0312H28.1875C26.5713 83.0312 25.0214 82.3892 23.8786 81.2464C22.7358 80.1036 22.0938 78.5537 22.0938 76.9375V72.0625ZM87.9062 37.9375C87.9062 38.2607 87.7778 38.5707 87.5493 38.7993C87.3207 39.0278 87.0107 39.1562 86.6875 39.1562C86.3643 39.1562 86.0543 39.0278 85.8257 38.7993C85.5972 38.5707 85.4688 38.2607 85.4688 37.9375V33.0625C85.4688 32.0928 85.0835 31.1628 84.3979 30.4771C83.7122 29.7915 82.7822 29.4062 81.8125 29.4062H76.9375C76.6143 29.4062 76.3043 29.2778 76.0757 29.0493C75.8472 28.8207 75.7188 28.5107 75.7188 28.1875C75.7188 27.8643 75.8472 27.5543 76.0757 27.3257C76.3043 27.0972 76.6143 26.9688 76.9375 26.9688H81.8125C83.4287 26.9688 84.9786 27.6108 86.1214 28.7536C87.2642 29.8964 87.9062 31.4463 87.9062 33.0625V37.9375ZM83.0312 35.5V74.5C83.0293 75.4691 82.6435 76.398 81.9582 77.0832C81.273 77.7685 80.3441 78.1543 79.375 78.1562H30.625C29.6559 78.1543 28.727 77.7685 28.0418 77.0832C27.3565 76.398 26.9707 75.4691 26.9688 74.5V35.5C26.9707 34.5309 27.3565 33.602 28.0418 32.9168C28.727 32.2315 29.6559 31.8457 30.625 31.8438H79.375C80.3441 31.8457 81.273 32.2315 81.9582 32.9168C82.6435 33.602 83.0293 34.5309 83.0312 35.5ZM51.3438 67.7384V68.4062C51.3428 68.7266 51.4052 69.044 51.5273 69.3402C51.6495 69.6363 51.829 69.9054 52.0555 70.132C52.2821 70.3585 52.5511 70.538 52.8473 70.6602C53.1435 70.7823 53.4609 70.8447 53.7812 70.8438H56.2188C56.5391 70.8447 56.8565 70.7823 57.1527 70.6602C57.4488 70.538 57.7179 70.3585 57.9445 70.132C58.171 69.9054 58.3505 69.6363 58.4727 69.3402C58.5948 69.044 58.6572 68.7266 58.6562 68.4062V67.7384C59.9676 66.6659 61.8762 65.8103 63.1607 65.9614C67.1948 66.4343 69.5202 70.756 69.5202 70.756C69.6414 70.9765 69.8279 71.1541 70.0541 71.2644C70.2803 71.3746 70.5351 71.4122 70.7835 71.3718C71.0319 71.3315 71.2617 71.2153 71.4414 71.0391C71.6211 70.8629 71.7418 70.6355 71.7871 70.3879C74.2148 57.0938 71.2435 48.2896 68.1576 43.7924C66.6854 41.6449 65.1278 40.4311 64.0309 40.0386C62.4198 39.4609 60.8403 39.7997 59.524 40.4652C59.2011 40.6296 58.8885 40.8136 58.588 41.0161C58.4597 40.4848 58.1561 40.0123 57.7262 39.6748C57.2964 39.3374 56.7653 39.1547 56.2188 39.1562H53.7812C53.2347 39.1547 52.7036 39.3374 52.2738 39.6748C51.8439 40.0123 51.5403 40.4848 51.412 41.0161C51.1115 40.8136 50.7989 40.6296 50.476 40.4652C49.1597 39.7997 47.5802 39.4609 45.9691 40.0386C44.8722 40.4311 43.3146 41.6449 41.8424 43.7924C38.7565 48.2896 35.7852 57.0938 38.2129 70.3879C38.2582 70.6355 38.3789 70.8629 38.5586 71.0391C38.7383 71.2153 38.9681 71.3315 39.2165 71.3718C39.4649 71.4122 39.7197 71.3746 39.9459 71.2644C40.1721 71.1541 40.3586 70.9765 40.4798 70.756C40.4798 70.756 42.8052 66.4343 46.8393 65.9614C48.1238 65.8103 50.0324 66.6659 51.3438 67.7384ZM58.6562 52.075C58.9098 51.6899 59.4679 50.9367 60.265 50.359C60.9109 49.8934 61.7299 49.5327 62.6927 49.7204C63.9749 49.969 65.2668 50.9562 66.3831 52.0019C68.2161 53.7228 69.5641 55.6874 69.5641 55.6874C69.66 55.8287 69.7846 55.9483 69.9297 56.0384C70.0881 57.2596 70.1929 58.5588 70.2271 59.9408C69.4061 58.8683 68.4864 57.8752 67.48 56.9744C66.1833 55.8531 64.7671 55.0829 63.4435 55.0073C61.4374 54.8903 59.8287 55.6727 58.6562 56.5868V52.075ZM58.6562 60.0724C59.1389 59.3436 60.7306 57.2912 63.3046 57.4399C64.5087 57.5106 65.7347 58.5807 66.8414 59.7312C68.5086 61.4691 69.8273 63.5434 70.1369 64.048C70.0686 65.0474 69.9687 66.0809 69.8273 67.1485C68.4209 65.6153 66.2442 63.8676 63.4459 63.5386C62.1126 63.3826 60.2674 63.931 58.6562 64.8256V60.0724ZM51.3438 44.1019V48.5211C51.2847 48.4743 51.2245 48.4288 51.1634 48.3846C50.0202 47.5583 48.5504 46.9977 46.8441 47.3267C45.1623 47.6534 43.4146 48.8526 41.9521 50.2249C41.6669 50.4906 41.3939 50.7612 41.1331 51.0317C41.5343 49.6954 42.0523 48.3969 42.6809 47.1512C44.0971 44.3774 45.6814 42.7321 46.7929 42.3323C47.7192 42.0008 48.6211 42.2592 49.3767 42.6394C50.2615 43.0879 50.9708 43.7266 51.3438 44.1019ZM40.0703 56.0384C40.2154 55.9483 40.34 55.8287 40.4359 55.6874C40.4359 55.6874 41.7839 53.7228 43.6169 52.0019C44.7332 50.9562 46.0251 49.969 47.3072 49.7204C48.2701 49.5327 49.0891 49.8934 49.735 50.359C50.5321 50.9367 51.0903 51.6899 51.3438 52.075V56.5868C50.1713 55.6727 48.5626 54.8903 46.5565 55.0073C45.2329 55.0829 43.8167 55.8531 42.52 56.9744C41.506 57.8519 40.5554 58.939 39.7729 59.9408C39.8071 58.5588 39.9119 57.2596 40.0703 56.0384ZM39.8631 64.0456C40.1751 63.541 41.4938 61.4691 43.1586 59.7312C44.2653 58.5807 45.4913 57.5106 46.6954 57.4399C49.2694 57.2912 50.8611 59.3436 51.3438 60.0724V64.8256C49.7326 63.931 47.8874 63.3826 46.5541 63.5386C43.7558 63.8676 41.5791 65.6153 40.1727 67.1461C40.0379 66.116 39.9347 65.082 39.8631 64.0456ZM58.6562 44.1019C59.0292 43.7266 59.7385 43.0879 60.6233 42.6394C61.3789 42.2592 62.2808 42.0008 63.2071 42.3323C64.3186 42.7321 65.9029 44.3774 67.3191 47.1512C67.8895 48.2676 68.4184 49.5619 68.8669 51.0317C68.6012 50.7555 68.3281 50.4865 68.0479 50.2249C66.5854 48.8526 64.8378 47.6534 63.1559 47.3267C61.4496 46.9977 59.9798 47.5583 58.8366 48.3846C58.7755 48.4288 58.7153 48.4743 58.6562 48.5211V44.1019Z" fill="url(#paint1_linear_621_1927)"/>
<defs>
<linearGradient id="paint0_linear_621_1927" x1="0" y1="0" x2="109.982" y2="111.982" gradientUnits="userSpaceOnUse">
<stop offset="0.125652" stop-color="#F5F5F5"/>
<stop offset="0.869819" stop-color="#E5E5E5"/>
</linearGradient>
<linearGradient id="paint1_linear_621_1927" x1="22.0937" y1="83.0312" x2="96.9393" y2="75.217" gradientUnits="userSpaceOnUse">
<stop offset="0.323057" stop-color="#F98D1B"/>
<stop offset="1" stop-color="#FFC180"/>
</linearGradient>
</defs>
</svg>
