<svg width="110" height="110" viewBox="0 0 110 110" fill="none" xmlns="http://www.w3.org/2000/svg">
<rect width="110" height="110" rx="20" fill="url(#paint0_linear_621_1864)"/>
<path d="M85.5561 68.4485H43.7364C42.5697 68.4485 41.6152 69.403 41.6152 70.5697V71.3015C41.6152 72.4682 42.5697 73.4227 43.7364 73.4227H85.5667C86.7334 73.4227 87.6879 72.4682 87.6879 71.3015V70.5697C87.6773 69.403 86.7334 68.4485 85.5561 68.4485ZM84.7925 86.8182H23.3834C22.8 86.8182 22.3228 87.2955 22.3228 87.8788C22.3228 88.4621 22.8 88.9394 23.3834 88.9394H84.7925C85.3758 88.9394 85.8531 88.4621 85.8531 87.8788C85.8531 87.2955 85.3758 86.8182 84.7925 86.8182ZM30.5531 79.8712C29.3758 79.8712 28.4212 80.8258 28.4212 82.003V84.697H44.5106V82.003C44.5106 80.8258 43.5561 79.8712 42.3788 79.8712H30.5531Z" fill="url(#paint1_linear_621_1864)"/>
<path d="M48.3607 66.3273C50.8677 66.3273 52.9001 64.295 52.9001 61.7879C52.9001 59.2809 50.8677 57.2485 48.3607 57.2485C45.8536 57.2485 43.8213 59.2809 43.8213 61.7879C43.8213 64.295 45.8536 66.3273 48.3607 66.3273Z" fill="url(#paint2_linear_621_1864)"/>
<path d="M66.9425 35.0712C67.1546 34.753 67.5258 34.5834 67.9182 34.6152C68.3 34.6576 68.6394 34.9015 68.7879 35.2621L70.3788 39.0061L71.4288 36.2167C71.5667 35.8455 71.9167 35.5803 72.3091 35.5379C72.7121 35.4955 73.094 35.6864 73.3167 36.0258L74.7591 38.2743L74.9394 38.0727C75.0379 37.9585 75.1601 37.8671 75.2974 37.8048C75.4348 37.7426 75.5841 37.7109 75.7349 37.7121H79.15V33.8303H62.5728V37.6591H65.1925L66.9425 35.0712Z" fill="url(#paint3_linear_621_1864)"/>
<path d="M79.15 39.8227H76.2121L75.4167 40.7243C75.3087 40.8494 75.1727 40.9473 75.0197 41.01C74.8667 41.0726 74.7011 41.0983 74.5364 41.0849C74.3714 41.0736 74.2115 41.0235 74.0696 40.9387C73.9277 40.8539 73.8078 40.7369 73.7197 40.597L72.6591 38.9424L71.4182 42.2303C71.2697 42.6333 70.8773 42.9091 70.4424 42.9197H70.4212C69.997 42.9197 69.6151 42.6652 69.4455 42.2727L67.5894 37.8818L66.6136 39.3137C66.4121 39.6 66.0833 39.7803 65.7333 39.7803H62.5515V43.5985H79.1288V39.8227H79.15Z" fill="url(#paint4_linear_621_1864)"/>
<path d="M59.3909 48.9121H82.3424C83.5197 48.9121 84.4742 47.9575 84.4742 46.7802V30.6272C84.4742 29.4499 83.5197 28.4954 82.3424 28.4954H80.7091V22.1212C80.7091 21.5378 80.2318 21.0605 79.6485 21.0605C79.0651 21.0605 78.5879 21.5378 78.5879 22.1212V28.506H63.1454V22.1212C63.1454 21.5378 62.6682 21.0605 62.0848 21.0605C61.5015 21.0605 61.0242 21.5378 61.0242 22.1212V28.506H59.3909C58.2136 28.506 57.2591 29.4605 57.2591 30.6378V46.7909C57.2591 47.9575 58.2136 48.9121 59.3909 48.9121ZM60.4515 32.759C60.4515 32.1757 60.9288 31.6984 61.5121 31.6984H80.2106C80.7939 31.6984 81.2712 32.1757 81.2712 32.759V44.6484C81.2712 45.2318 80.7939 45.709 80.2106 45.709H61.5121C60.9288 45.709 60.4515 45.2318 60.4515 44.6484V32.759ZM28.7924 78.153C29.3227 77.8878 29.9272 77.75 30.5636 77.75H34.5303C31.8257 74.0484 30.1075 68.2363 30.1075 61.5651C30.1075 53.4302 32.6636 46.5681 36.45 43.259H32.7591C27.5833 43.259 23.3833 51.4575 23.3833 61.5651C23.3833 68.9045 25.6 75.2363 28.7924 78.153Z" fill="url(#paint5_linear_621_1864)"/>
<path d="M32.6 66.6136H36.8424C36.503 65.0651 36.3121 63.3575 36.3121 61.5651C36.3121 55.1378 38.7409 49.7075 41.6151 49.7075C43.5136 49.7075 45.2106 52.0621 46.1439 55.509C46.8333 55.2545 47.5863 55.1166 48.3606 55.1166C49.0924 55.1166 49.7924 55.2333 50.45 55.456C49.1666 48.3499 45.6985 43.259 41.6151 43.259C36.4288 43.259 32.2288 51.4575 32.2288 61.5651C32.2288 63.3151 32.3666 65.0121 32.6 66.6136ZM47.65 75.5439H45.1575C39.8651 75.809 38.2 70.9409 37.4257 68.7348H32.9818C33.8197 72.606 35.3363 75.7984 37.2242 77.7499H42.3894C43.3651 77.7499 44.2666 78.0787 44.9879 78.6409C45.9636 77.8984 46.8651 76.8484 47.65 75.5439ZM66.2742 75.5439L60.0803 84.6969H70.3151L76.4985 75.5439H66.2742ZM83.3394 66.3272C83.3394 63.5696 81.3773 61.2575 78.7788 60.7272L75.3742 60.059L70.8985 58.9666C67.0697 58.0333 63.0818 58.0439 59.253 58.9878L54.7985 60.0909C54.9363 60.6318 55.0212 61.1939 55.0212 61.7772C55.0212 63.5378 54.3318 65.1287 53.2182 66.3166H83.3394V66.3272Z" fill="#F98D1B"/>
<defs>
<linearGradient id="paint0_linear_621_1864" x1="0" y1="0" x2="110" y2="110" gradientUnits="userSpaceOnUse">
<stop offset="0.125652" stop-color="#F5F5F5"/>
<stop offset="0.869819" stop-color="#E5E5E5"/>
</linearGradient>
<linearGradient id="paint1_linear_621_1864" x1="22.3228" y1="88.9394" x2="91.872" y2="69.2079" gradientUnits="userSpaceOnUse">
<stop offset="0.323057" stop-color="#F98D1B"/>
<stop offset="1" stop-color="#FFC180"/>
</linearGradient>
<linearGradient id="paint2_linear_621_1864" x1="43.8213" y1="66.3273" x2="54.1768" y2="65.4063" gradientUnits="userSpaceOnUse">
<stop offset="0.323057" stop-color="#F98D1B"/>
<stop offset="1" stop-color="#FFC180"/>
</linearGradient>
<linearGradient id="paint3_linear_621_1864" x1="62.5728" y1="39.0061" x2="80.2005" y2="33.9848" gradientUnits="userSpaceOnUse">
<stop offset="0.323057" stop-color="#F98D1B"/>
<stop offset="1" stop-color="#FFC180"/>
</linearGradient>
<linearGradient id="paint4_linear_621_1864" x1="62.5515" y1="43.5985" x2="80.4411" y2="38.9789" gradientUnits="userSpaceOnUse">
<stop offset="0.323057" stop-color="#F98D1B"/>
<stop offset="1" stop-color="#FFC180"/>
</linearGradient>
<linearGradient id="paint5_linear_621_1864" x1="23.3833" y1="78.153" x2="92.9862" y2="71.5292" gradientUnits="userSpaceOnUse">
<stop offset="0.323057" stop-color="#F98D1B"/>
<stop offset="1" stop-color="#FFC180"/>
</linearGradient>
</defs>
</svg>
