<svg width="55" height="55" viewBox="0 0 55 55" fill="none" xmlns="http://www.w3.org/2000/svg">
<rect width="55" height="55" rx="15" fill="#F98D1B"/>
<path d="M41.7274 37.8904H23.6837C23.1803 37.8904 22.7684 38.3022 22.7684 38.8056V39.1214C22.7684 39.6247 23.1803 40.0366 23.6837 40.0366H41.7319C42.2353 40.0366 42.6472 39.6247 42.6472 39.1214V38.8056C42.6426 38.3022 42.2353 37.8904 41.7274 37.8904ZM41.3979 45.8162H14.9021C14.6504 45.8162 14.4445 46.0222 14.4445 46.2739C14.4445 46.5255 14.6504 46.7315 14.9021 46.7315H41.3979C41.6496 46.7315 41.8555 46.5255 41.8555 46.2739C41.8555 46.0222 41.6496 45.8162 41.3979 45.8162ZM17.9955 42.8189C17.4876 42.8189 17.0757 43.2307 17.0757 43.7387V44.901H24.0177V43.7387C24.0177 43.2307 23.6059 42.8189 23.0979 42.8189H17.9955Z" fill="white"/>
<path d="M25.6793 36.9753C26.761 36.9753 27.6379 36.0984 27.6379 35.0167C27.6379 33.935 26.761 33.0581 25.6793 33.0581C24.5976 33.0581 23.7207 33.935 23.7207 35.0167C23.7207 36.0984 24.5976 36.9753 25.6793 36.9753Z" fill="white"/>
<path d="M33.6959 23.4895C33.7874 23.3522 33.9476 23.279 34.1169 23.2927C34.2817 23.311 34.4281 23.4163 34.4922 23.5719L35.1786 25.1873L35.6316 23.9837C35.6911 23.8236 35.8421 23.7092 36.0114 23.6909C36.1853 23.6726 36.3501 23.7549 36.4462 23.9014L37.0685 24.8715L37.1463 24.7846C37.1888 24.7353 37.2415 24.6958 37.3008 24.669C37.3601 24.6421 37.4245 24.6284 37.4895 24.629H38.963V22.9541H31.8105V24.6061H32.9409L33.6959 23.4895Z" fill="white"/>
<path d="M38.9634 25.5396H37.6958L37.3526 25.9286C37.306 25.9826 37.2473 26.0248 37.1813 26.0518C37.1153 26.0789 37.0439 26.0899 36.9728 26.0841C36.9016 26.0793 36.8326 26.0577 36.7714 26.0211C36.7102 25.9845 36.6584 25.934 36.6204 25.8736L36.1628 25.1598L35.6274 26.5784C35.5633 26.7523 35.394 26.8712 35.2064 26.8758H35.1972C35.0142 26.8758 34.8495 26.766 34.7762 26.5967L33.9754 24.7021L33.5544 25.3199C33.4675 25.4435 33.3256 25.5213 33.1746 25.5213H31.8018V27.1687H38.9542V25.5396H38.9634Z" fill="white"/>
<path d="M30.4383 29.4613H40.341C40.849 29.4613 41.2609 29.0494 41.2609 28.5415V21.572C41.2609 21.0641 40.849 20.6522 40.341 20.6522H39.6363V17.9019C39.6363 17.6503 39.4304 17.4443 39.1787 17.4443C38.927 17.4443 38.7211 17.6503 38.7211 17.9019V20.6568H32.0583V17.9019C32.0583 17.6503 31.8523 17.4443 31.6006 17.4443C31.349 17.4443 31.143 17.6503 31.143 17.9019V20.6568H30.4383C29.9304 20.6568 29.5185 21.0686 29.5185 21.5766V28.546C29.5185 29.0494 29.9304 29.4613 30.4383 29.4613ZM30.8959 22.4918C30.8959 22.2401 31.1018 22.0342 31.3535 22.0342H39.4212C39.6729 22.0342 39.8789 22.2401 39.8789 22.4918V27.6217C39.8789 27.8733 39.6729 28.0793 39.4212 28.0793H31.3535C31.1018 28.0793 30.8959 27.8733 30.8959 27.6217V22.4918ZM17.2362 42.0777C17.465 41.9632 17.7258 41.9038 18.0004 41.9038H19.7119C18.5449 40.3067 17.8036 37.799 17.8036 34.9206C17.8036 31.4107 18.9065 28.4499 20.5401 27.0222H18.9476C16.7145 27.0222 14.9023 30.5595 14.9023 34.9206C14.9023 38.0873 15.8588 40.8192 17.2362 42.0777Z" fill="white"/>
<path d="M18.8788 37.0989H20.7092C20.5628 36.4307 20.4804 35.694 20.4804 34.9206C20.4804 32.1475 21.5284 29.8045 22.7685 29.8045C23.5876 29.8045 24.3198 30.8204 24.7225 32.3076C25.02 32.1978 25.3449 32.1383 25.6789 32.1383C25.9947 32.1383 26.2967 32.1887 26.5804 32.2848C26.0267 29.2188 24.5303 27.0222 22.7685 27.0222C20.5308 27.0222 18.7186 30.5596 18.7186 34.9206C18.7186 35.6757 18.7781 36.4079 18.8788 37.0989ZM25.3723 40.952H24.2969C22.0134 41.0664 21.295 38.9659 20.9609 38.0141H19.0435C19.405 39.6844 20.0594 41.0618 20.874 41.9038H23.1026C23.5236 41.9038 23.9125 42.0457 24.2237 42.2882C24.6447 41.9679 25.0337 41.5148 25.3723 40.952ZM33.408 40.952L30.7355 44.9012H35.1515L37.8194 40.952H33.408ZM40.771 36.9753C40.771 35.7855 39.9244 34.7879 38.8033 34.5591L37.3343 34.2708L35.4032 33.7995C33.7512 33.3968 32.0306 33.4013 30.3786 33.8086L28.4566 34.2845C28.5161 34.5179 28.5527 34.7605 28.5527 35.0121C28.5527 35.7718 28.2553 36.4582 27.7748 36.9707H40.771V36.9753Z" fill="white"/>
<g clip-path="url(#clip0_850_1710)">
<path d="M19.0003 8.729C17.472 8.729 16.2295 9.9715 16.2295 11.4998V14.9998C16.2295 16.5282 17.472 17.7707 19.0003 17.7707C20.5287 17.7707 21.7712 16.5282 21.7712 14.9998V11.4998C21.7712 9.9715 20.5287 8.729 19.0003 8.729ZM19.0003 21.2707C18.7612 21.2707 18.5628 21.0723 18.5628 20.8332V19.0832C18.5628 18.844 18.7612 18.6457 19.0003 18.6457C19.2395 18.6457 19.4378 18.844 19.4378 19.0832V20.8332C19.4378 21.0723 19.2395 21.2707 19.0003 21.2707Z" fill="white"/>
<path d="M21.3337 21.2706H16.667C16.4278 21.2706 16.2295 21.0723 16.2295 20.8331C16.2295 20.5939 16.4278 20.3956 16.667 20.3956H21.3337C21.5728 20.3956 21.7712 20.5939 21.7712 20.8331C21.7712 21.0723 21.5728 21.2706 21.3337 21.2706ZM19.0003 19.5206C16.5095 19.5206 14.4795 17.4906 14.4795 14.9998C14.4795 14.7606 14.6778 14.5623 14.917 14.5623C15.1562 14.5623 15.3545 14.7606 15.3545 14.9998C15.3545 17.0123 16.9878 18.6456 19.0003 18.6456C21.0128 18.6456 22.6462 17.0123 22.6462 14.9998C22.6462 14.7606 22.8445 14.5623 23.0837 14.5623C23.3228 14.5623 23.5212 14.7606 23.5212 14.9998C23.5212 17.4906 21.4912 19.5206 19.0003 19.5206ZM23.0837 13.3956C22.8445 13.3956 22.6462 13.1973 22.6462 12.9581V10.6248C22.6462 10.3856 22.8445 10.1873 23.0837 10.1873C23.3228 10.1873 23.5212 10.3856 23.5212 10.6248V12.9581C23.5212 13.1973 23.3228 13.3956 23.0837 13.3956ZM24.8337 12.8123C24.5945 12.8123 24.3962 12.6139 24.3962 12.3748V11.2081C24.3962 10.9689 24.5945 10.7706 24.8337 10.7706C25.0728 10.7706 25.2712 10.9689 25.2712 11.2081V12.3748C25.2712 12.6139 25.0728 12.8123 24.8337 12.8123ZM14.917 13.3956C14.6778 13.3956 14.4795 13.1973 14.4795 12.9581V10.6248C14.4795 10.3856 14.6778 10.1873 14.917 10.1873C15.1562 10.1873 15.3545 10.3856 15.3545 10.6248V12.9581C15.3545 13.1973 15.1562 13.3956 14.917 13.3956ZM13.167 12.8123C12.9278 12.8123 12.7295 12.6139 12.7295 12.3748V11.2081C12.7295 10.9689 12.9278 10.7706 13.167 10.7706C13.4062 10.7706 13.6045 10.9689 13.6045 11.2081V12.3748C13.6045 12.6139 13.4062 12.8123 13.167 12.8123Z" fill="white"/>
</g>
<defs>
<clipPath id="clip0_850_1710">
<rect width="14" height="14" fill="white" transform="translate(12 8)"/>
</clipPath>
</defs>
</svg>
