<svg width="55" height="55" viewBox="0 0 55 55" fill="none" xmlns="http://www.w3.org/2000/svg">
<rect width="55" height="55" rx="15" fill="#F98D1B"/>
<path d="M40.7274 33.8906H22.6837C22.1803 33.8906 21.7684 34.3025 21.7684 34.8059V35.1216C21.7684 35.625 22.1803 36.0368 22.6837 36.0368H40.7319C41.2353 36.0368 41.6472 35.625 41.6472 35.1216V34.8059C41.6426 34.3025 41.2353 33.8906 40.7274 33.8906ZM40.3979 41.8165H13.9021C13.6504 41.8165 13.4445 42.0224 13.4445 42.2741C13.4445 42.5258 13.6504 42.7317 13.9021 42.7317H40.3979C40.6496 42.7317 40.8555 42.5258 40.8555 42.2741C40.8555 42.0224 40.6496 41.8165 40.3979 41.8165ZM16.9955 38.8191C16.4876 38.8191 16.0757 39.231 16.0757 39.7389V40.9013H23.0177V39.7389C23.0177 39.231 22.6059 38.8191 22.0979 38.8191H16.9955Z" fill="white"/>
<path d="M24.6793 32.9753C25.761 32.9753 26.6379 32.0984 26.6379 31.0167C26.6379 29.935 25.761 29.0581 24.6793 29.0581C23.5976 29.0581 22.7207 29.935 22.7207 31.0167C22.7207 32.0984 23.5976 32.9753 24.6793 32.9753Z" fill="white"/>
<path d="M32.6959 19.4893C32.7874 19.352 32.9476 19.2788 33.1169 19.2925C33.2817 19.3108 33.4281 19.416 33.4922 19.5716L34.1786 21.187L34.6316 19.9835C34.6911 19.8233 34.8421 19.7089 35.0114 19.6906C35.1853 19.6723 35.3501 19.7547 35.4462 19.9011L36.0685 20.8713L36.1463 20.7843C36.1888 20.735 36.2415 20.6956 36.3008 20.6687C36.3601 20.6419 36.4245 20.6282 36.4895 20.6287H37.963V18.9539H30.8105V20.6058H31.9409L32.6959 19.4893Z" fill="white"/>
<path d="M37.9634 21.5393H36.6958L36.3526 21.9283C36.306 21.9823 36.2473 22.0245 36.1813 22.0516C36.1153 22.0786 36.0439 22.0897 35.9728 22.0839C35.9016 22.079 35.8326 22.0574 35.7714 22.0208C35.7102 21.9843 35.6584 21.9337 35.6204 21.8734L35.1628 21.1595L34.6274 22.5781C34.5633 22.752 34.394 22.871 34.2064 22.8756H34.1972C34.0142 22.8756 33.8495 22.7657 33.7762 22.5964L32.9754 20.7019L32.5544 21.3197C32.4675 21.4432 32.3256 21.521 32.1746 21.521H30.8018V23.1684H37.9542V21.5393H37.9634Z" fill="white"/>
<path d="M29.4383 25.4613H39.341C39.849 25.4613 40.2609 25.0494 40.2609 24.5415V17.572C40.2609 17.0641 39.849 16.6522 39.341 16.6522H38.6363V13.9019C38.6363 13.6503 38.4304 13.4443 38.1787 13.4443C37.927 13.4443 37.7211 13.6503 37.7211 13.9019V16.6568H31.0583V13.9019C31.0583 13.6503 30.8523 13.4443 30.6006 13.4443C30.349 13.4443 30.143 13.6503 30.143 13.9019V16.6568H29.4383C28.9304 16.6568 28.5185 17.0686 28.5185 17.5766V24.546C28.5185 25.0494 28.9304 25.4613 29.4383 25.4613ZM29.8959 18.4918C29.8959 18.2401 30.1018 18.0342 30.3535 18.0342H38.4212C38.6729 18.0342 38.8789 18.2401 38.8789 18.4918V23.6217C38.8789 23.8733 38.6729 24.0793 38.4212 24.0793H30.3535C30.1018 24.0793 29.8959 23.8733 29.8959 23.6217V18.4918ZM16.2362 38.0777C16.465 37.9632 16.7258 37.9038 17.0004 37.9038H18.7119C17.5449 36.3067 16.8036 33.799 16.8036 30.9206C16.8036 27.4107 17.9065 24.4499 19.5401 23.0222H17.9476C15.7145 23.0222 13.9023 26.5595 13.9023 30.9206C13.9023 34.0873 14.8588 36.8192 16.2362 38.0777Z" fill="white"/>
<path d="M17.8788 33.0989H19.7092C19.5628 32.4307 19.4804 31.694 19.4804 30.9206C19.4804 28.1475 20.5284 25.8045 21.7685 25.8045C22.5876 25.8045 23.3198 26.8204 23.7225 28.3076C24.02 28.1978 24.3449 28.1383 24.6789 28.1383C24.9947 28.1383 25.2967 28.1887 25.5804 28.2848C25.0267 25.2188 23.5303 23.0222 21.7685 23.0222C19.5308 23.0222 17.7186 26.5596 17.7186 30.9206C17.7186 31.6757 17.7781 32.4079 17.8788 33.0989ZM24.3723 36.952H23.2969C21.0134 37.0664 20.295 34.9659 19.9609 34.0141H18.0435C18.405 35.6844 19.0594 37.0618 19.874 37.9038H22.1026C22.5236 37.9038 22.9125 38.0457 23.2237 38.2882C23.6447 37.9679 24.0337 37.5148 24.3723 36.952ZM32.408 36.952L29.7355 40.9012H34.1515L36.8194 36.952H32.408ZM39.771 32.9753C39.771 31.7855 38.9244 30.7879 37.8033 30.5591L36.3343 30.2708L34.4032 29.7995C32.7512 29.3968 31.0306 29.4013 29.3786 29.8086L27.4566 30.2845C27.5161 30.5179 27.5527 30.7605 27.5527 31.0121C27.5527 31.7718 27.2553 32.4582 26.7748 32.9707H39.771V32.9753Z" fill="white"/>
</svg>
