<svg width="55" height="55" viewBox="0 0 55 55" fill="none" xmlns="http://www.w3.org/2000/svg">
<rect width="55" height="55" rx="15" fill="#F98D1B"/>
<path d="M40.3796 38.2087H24.2238C23.7731 38.2087 23.4044 38.5775 23.4044 39.0282V39.3109C23.4044 39.7616 23.7731 40.1304 24.2238 40.1304H40.3837C40.8344 40.1304 41.2032 39.7616 41.2032 39.3109V39.0282C41.1991 38.5775 40.8344 38.2087 40.3796 38.2087ZM40.0846 45.3053H16.3611C16.1357 45.3053 15.9514 45.4897 15.9514 45.715C15.9514 45.9404 16.1357 46.1248 16.3611 46.1248H40.0846C40.3099 46.1248 40.4943 45.9404 40.4943 45.715C40.4943 45.4897 40.3099 45.3053 40.0846 45.3053ZM19.1309 42.6216C18.6761 42.6216 18.3073 42.9903 18.3073 43.4451V44.4858H24.523V43.4451C24.523 42.9903 24.1542 42.6216 23.6994 42.6216H19.1309Z" fill="white"/>
<path d="M26.0105 37.3891C26.979 37.3891 27.7641 36.604 27.7641 35.6355C27.7641 34.667 26.979 33.8818 26.0105 33.8818C25.042 33.8818 24.2568 34.667 24.2568 35.6355C24.2568 36.604 25.042 37.3891 26.0105 37.3891Z" fill="white"/>
<path d="M33.1881 25.3143C33.27 25.1914 33.4134 25.1259 33.5651 25.1382C33.7126 25.1546 33.8437 25.2488 33.901 25.3881L34.5156 26.8345L34.9213 25.7569C34.9745 25.6135 35.1097 25.511 35.2613 25.4946C35.417 25.4782 35.5645 25.552 35.6506 25.6831L36.2078 26.5517L36.2775 26.4739C36.3155 26.4298 36.3627 26.3944 36.4158 26.3704C36.4688 26.3463 36.5265 26.3341 36.5848 26.3346H37.9041V24.835H31.5V26.3141H32.512L33.1881 25.3143Z" fill="white"/>
<path d="M37.9047 27.1497H36.7698L36.4625 27.498C36.4208 27.5463 36.3682 27.5842 36.3091 27.6084C36.25 27.6326 36.1861 27.6425 36.1224 27.6373C36.0587 27.6329 35.9969 27.6136 35.9421 27.5808C35.8873 27.5481 35.841 27.5028 35.8069 27.4488L35.3972 26.8096L34.9178 28.0798C34.8604 28.2355 34.7088 28.342 34.5408 28.3461H34.5326C34.3688 28.3461 34.2212 28.2478 34.1557 28.0962L33.4387 26.3999L33.0617 26.953C32.9839 27.0637 32.8568 27.1333 32.7216 27.1333H31.4924V28.6084H37.8965V27.1497H37.9047Z" fill="white"/>
<path d="M30.2717 30.6614H39.1383C39.5931 30.6614 39.9619 30.2927 39.9619 29.8379V23.5976C39.9619 23.1428 39.5931 22.7741 39.1383 22.7741H38.5074V20.3116C38.5074 20.0862 38.323 19.9019 38.0976 19.9019C37.8723 19.9019 37.6879 20.0862 37.6879 20.3116V22.7782H31.7222V20.3116C31.7222 20.0862 31.5378 19.9019 31.3125 19.9019C31.0871 19.9019 30.9027 20.0862 30.9027 20.3116V22.7782H30.2717C29.8169 22.7782 29.4482 23.1469 29.4482 23.6017V29.842C29.4482 30.2927 29.8169 30.6614 30.2717 30.6614ZM30.6815 24.4212C30.6815 24.1958 30.8658 24.0115 31.0912 24.0115H38.3148C38.5401 24.0115 38.7245 24.1958 38.7245 24.4212V29.0143C38.7245 29.2397 38.5401 29.424 38.3148 29.424H31.0912C30.8658 29.424 30.6815 29.2397 30.6815 29.0143V24.4212ZM18.451 41.9577C18.6558 41.8553 18.8894 41.802 19.1352 41.802H20.6676C19.6228 40.3721 18.959 38.1267 18.959 35.5495C18.959 32.4069 19.9465 29.7559 21.4092 28.4776H19.9834C17.9839 28.4776 16.3613 31.6448 16.3613 35.5495C16.3613 38.3849 17.2177 40.831 18.451 41.9577Z" fill="white"/>
<path d="M19.9209 37.4998H21.5598C21.4287 36.9016 21.3549 36.242 21.3549 35.5495C21.3549 33.0665 22.2932 30.9687 23.4036 30.9687C24.137 30.9687 24.7926 31.8783 25.1532 33.2099C25.4195 33.1116 25.7104 33.0583 26.0095 33.0583C26.2922 33.0583 26.5626 33.1034 26.8167 33.1895C26.3209 30.4443 24.9811 28.4775 23.4036 28.4775C21.4 28.4775 19.7775 31.6448 19.7775 35.5495C19.7775 36.2256 19.8307 36.8811 19.9209 37.4998ZM25.735 40.9498H24.7721C22.7275 41.0522 22.0843 39.1715 21.7852 38.3193H20.0684C20.3921 39.8148 20.978 41.0481 21.7073 41.802H23.7027C24.0797 41.802 24.4279 41.929 24.7065 42.1462C25.0835 41.8594 25.4318 41.4538 25.735 40.9498ZM32.9299 40.9498L30.537 44.4858H34.491L36.8797 40.9498H32.9299ZM39.5225 37.3892C39.5225 36.3239 38.7645 35.4307 37.7606 35.2258L36.4454 34.9677L34.7163 34.5457C33.2372 34.1851 31.6966 34.1892 30.2174 34.5539L28.4966 34.98C28.5498 35.189 28.5826 35.4061 28.5826 35.6315C28.5826 36.3116 28.3163 36.9262 27.8861 37.3851H39.5225V37.3892Z" fill="white"/>
<g clip-path="url(#clip0_850_1686)">
<path d="M22.7636 16.7598C22.8417 16.838 22.8847 16.9418 22.8847 17.0523C22.8847 17.1627 22.8417 17.2666 22.7636 17.3447L23.3437 17.9248C23.5767 17.6917 23.7051 17.3819 23.7051 17.0523C23.7051 16.7227 23.5767 16.4128 23.3437 16.1798L22.7636 16.7598ZM24.5086 15.0149L23.9285 15.5949C24.3178 15.9842 24.5322 16.5018 24.5322 17.0523C24.5322 17.6028 24.3178 18.1204 23.9285 18.5097L24.5086 19.0897C25.0528 18.5455 25.3525 17.8219 25.3525 17.0523C25.3525 16.2827 25.0528 15.5591 24.5086 15.0149Z" fill="white"/>
<path d="M25.6735 13.85L25.0935 14.43C25.7939 15.1305 26.1797 16.0618 26.1797 17.0523C26.1797 18.0429 25.7939 18.9742 25.0935 19.6746L25.6735 20.2547C26.5289 19.3993 27 18.262 27 17.0523C27 15.8427 26.5289 14.7054 25.6735 13.85ZM21.8771 13.483V12.6637L21.8741 12.6391C21.7556 11.6632 21.234 10.7415 20.4055 10.0436C19.5833 9.35103 18.5626 8.97095 17.5272 8.97095C17.515 8.97095 17.5027 8.971 17.4904 8.97111C16.2875 8.97179 15.1591 9.43828 14.3129 10.2847C13.4663 11.1315 13 12.2607 13 13.4643C13 14.6777 13.4762 15.8148 14.341 16.6662C14.6832 17.0031 14.8545 17.4718 14.8109 17.9519L14.5315 21.0291H19.7878V19.0007H20.6339C21.2065 19.0007 21.6723 18.5349 21.6723 17.9624V16.5355L22.9837 16.0663L21.8771 13.483Z" fill="white"/>
</g>
<defs>
<clipPath id="clip0_850_1686">
<rect width="14" height="14" fill="white" transform="translate(13 8)"/>
</clipPath>
</defs>
</svg>
