<svg width="55" height="55" viewBox="0 0 55 55" fill="none" xmlns="http://www.w3.org/2000/svg">
<rect width="55" height="55" rx="15" fill="#F98D1B"/>
<g clip-path="url(#clip0_850_1674)">
<path d="M15.6518 11.1238C15.5142 11.1314 15.3931 11.2219 15.3464 11.3528L13.6796 15.9825L11.5054 17.0825C11.4646 17.1031 11.4284 17.1315 11.3986 17.1661C11.3689 17.2007 11.3463 17.2408 11.332 17.2841C11.3178 17.3275 11.3123 17.3732 11.3157 17.4187C11.3192 17.4642 11.3316 17.5086 11.3522 17.5492L13.5476 21.8886C13.5681 21.9293 13.5965 21.9656 13.6311 21.9953C13.6657 22.0251 13.7059 22.0477 13.7492 22.0619C13.7926 22.0761 13.8383 22.0817 13.8838 22.0782C13.9293 22.0747 13.9737 22.0623 14.0144 22.0417L16.1886 20.9417L20.9059 22.3415C20.991 22.3669 21.0825 22.3587 21.1616 22.3186C21.2031 22.2976 21.2407 22.2683 21.2714 22.2312C21.3149 22.1791 21.3423 22.1154 21.35 22.048C21.3577 21.9806 21.3455 21.9124 21.3148 21.8518L15.9831 11.3135C15.9525 11.2529 15.9048 11.2026 15.8459 11.1689C15.787 11.1352 15.7195 11.1195 15.6518 11.1238ZM19.1973 14.1233L18.9791 14.7884C18.9288 14.9418 18.9849 15.1201 19.1287 15.1933C19.4567 15.3599 19.723 15.6269 19.8887 15.9554C20.0552 16.2835 20.1126 16.6562 20.0525 17.0192C20.0262 17.1784 20.1367 17.3293 20.29 17.3796L20.9551 17.5978C21.1588 17.6646 21.3693 17.532 21.4094 17.3214C21.5342 16.6667 21.452 15.9675 21.1286 15.3282C20.8051 14.6888 20.2905 14.2084 19.6891 13.9211C19.4956 13.8287 19.2641 13.9196 19.1973 14.1233ZM20.5183 11.254C20.3351 11.1813 20.1279 11.2868 20.0665 11.474L19.8498 12.1344C19.7918 12.3113 19.8863 12.4954 20.0584 12.5662C21.0257 12.9639 21.8603 13.6966 22.3684 14.7009C22.8764 15.7051 22.9724 16.8116 22.7198 17.8265C22.6748 18.0072 22.7671 18.1922 22.944 18.2503L23.6044 18.4669C23.7916 18.5284 23.9994 18.4239 24.0494 18.2333C24.4025 16.8866 24.2847 15.4108 23.6082 14.0737C22.9316 12.7365 21.8125 11.7673 20.5183 11.254Z" fill="white"/>
<path d="M21.3831 8.61072C21.1994 8.54201 20.9942 8.64631 20.9331 8.83266L20.7161 9.49395C20.6579 9.67131 20.7525 9.85693 20.9271 9.92313C22.5698 10.546 23.9942 11.759 24.8479 13.4464C25.7016 15.1338 25.835 16.9999 25.3637 18.6924C25.3136 18.8722 25.4071 19.0585 25.5845 19.1166L26.2457 19.3336C26.4321 19.3947 26.6377 19.2912 26.6912 19.1024C27.2649 17.0776 27.1105 14.8407 26.0877 12.8191C25.065 10.7976 23.3543 9.34801 21.3831 8.61072Z" fill="white"/>
</g>
<path d="M40.3798 38.2087H24.224C23.7733 38.2087 23.4046 38.5775 23.4046 39.0282V39.3109C23.4046 39.7616 23.7733 40.1304 24.224 40.1304H40.3839C40.8346 40.1304 41.2033 39.7616 41.2033 39.3109V39.0282C41.1992 38.5775 40.8346 38.2087 40.3798 38.2087ZM40.0848 45.3053H16.3613C16.1359 45.3053 15.9515 45.4897 15.9515 45.715C15.9515 45.9404 16.1359 46.1248 16.3613 46.1248H40.0848C40.3101 46.1248 40.4945 45.9404 40.4945 45.715C40.4945 45.4897 40.3101 45.3053 40.0848 45.3053ZM19.1311 42.6216C18.6763 42.6216 18.3075 42.9903 18.3075 43.4451V44.4858H24.5231V43.4451C24.5231 42.9903 24.1544 42.6216 23.6996 42.6216H19.1311Z" fill="white"/>
<path d="M26.0107 37.3894C26.9792 37.3894 27.7643 36.6043 27.7643 35.6357C27.7643 34.6672 26.9792 33.8821 26.0107 33.8821C25.0422 33.8821 24.257 34.6672 24.257 35.6357C24.257 36.6043 25.0422 37.3894 26.0107 37.3894Z" fill="white"/>
<path d="M33.1883 25.3141C33.2702 25.1912 33.4136 25.1256 33.5652 25.1379C33.7127 25.1543 33.8439 25.2485 33.9012 25.3879L34.5158 26.8342L34.9214 25.7566C34.9747 25.6132 35.1099 25.5108 35.2615 25.4944C35.4172 25.478 35.5647 25.5517 35.6508 25.6829L36.208 26.5515L36.2777 26.4736C36.3157 26.4295 36.3629 26.3942 36.416 26.3701C36.469 26.3461 36.5267 26.3339 36.585 26.3343H37.9043V24.8347H31.5002V26.3138H32.5122L33.1883 25.3141Z" fill="white"/>
<path d="M37.9049 27.1497H36.77L36.4627 27.498C36.4209 27.5463 36.3684 27.5842 36.3093 27.6084C36.2502 27.6326 36.1862 27.6425 36.1226 27.6373C36.0589 27.6329 35.9971 27.6136 35.9423 27.5808C35.8874 27.5481 35.8411 27.5028 35.8071 27.4488L35.3974 26.8096L34.918 28.0798C34.8606 28.2355 34.709 28.342 34.541 28.3461H34.5328C34.3689 28.3461 34.2214 28.2478 34.1559 28.0962L33.4388 26.3999L33.0619 26.953C32.984 27.0637 32.857 27.1333 32.7218 27.1333H31.4926V28.6084H37.8967V27.1497H37.9049Z" fill="white"/>
<path d="M30.2719 30.6614H39.1385C39.5933 30.6614 39.9621 30.2927 39.9621 29.8379V23.5976C39.9621 23.1428 39.5933 22.7741 39.1385 22.7741H38.5075V20.3116C38.5075 20.0862 38.3232 19.9019 38.0978 19.9019C37.8724 19.9019 37.6881 20.0862 37.6881 20.3116V22.7782H31.7224V20.3116C31.7224 20.0862 31.538 19.9019 31.3126 19.9019C31.0873 19.9019 30.9029 20.0862 30.9029 20.3116V22.7782H30.2719C29.8171 22.7782 29.4484 23.1469 29.4484 23.6017V29.842C29.4484 30.2927 29.8171 30.6614 30.2719 30.6614ZM30.6816 24.4212C30.6816 24.1958 30.866 24.0115 31.0914 24.0115H38.315C38.5403 24.0115 38.7247 24.1958 38.7247 24.4212V29.0143C38.7247 29.2397 38.5403 29.424 38.315 29.424H31.0914C30.866 29.424 30.6816 29.2397 30.6816 29.0143V24.4212ZM18.4511 41.9577C18.656 41.8553 18.8896 41.802 19.1354 41.802H20.6678C19.623 40.3721 18.9592 38.1267 18.9592 35.5495C18.9592 32.4069 19.9467 29.7559 21.4094 28.4776H19.9835C17.9841 28.4776 16.3615 31.6448 16.3615 35.5495C16.3615 38.3849 17.2179 40.831 18.4511 41.9577Z" fill="white"/>
<path d="M19.9211 37.4998H21.56C21.4289 36.9016 21.3551 36.242 21.3551 35.5495C21.3551 33.0665 22.2934 30.9687 23.4038 30.9687C24.1372 30.9687 24.7928 31.8783 25.1533 33.2099C25.4197 33.1116 25.7106 33.0583 26.0097 33.0583C26.2924 33.0583 26.5628 33.1034 26.8168 33.1895C26.3211 30.4443 24.9812 28.4775 23.4038 28.4775C21.4002 28.4775 19.7776 31.6448 19.7776 35.5495C19.7776 36.2256 19.8309 36.8811 19.9211 37.4998ZM25.7352 40.9498H24.7723C22.7277 41.0522 22.0844 39.1715 21.7853 38.3193H20.0686C20.3922 39.8148 20.9782 41.0481 21.7075 41.802H23.7029C24.0798 41.802 24.4281 41.929 24.7067 42.1462C25.0837 41.8594 25.432 41.4538 25.7352 40.9498ZM32.9301 40.9498L30.5372 44.4858H34.4911L36.8799 40.9498H32.9301ZM39.5226 37.3892C39.5226 36.3239 38.7646 35.4307 37.7608 35.2258L36.4456 34.9677L34.7165 34.5457C33.2374 34.1851 31.6968 34.1892 30.2176 34.5539L28.4968 34.98C28.55 35.189 28.5828 35.4061 28.5828 35.6315C28.5828 36.3116 28.3165 36.9262 27.8863 37.3851H39.5226V37.3892Z" fill="white"/>
<defs>
<clipPath id="clip0_850_1674">
<rect width="15.2839" height="15.2839" fill="white" transform="translate(9 12.8999) rotate(-26.836)"/>
</clipPath>
</defs>
</svg>
