<svg width="55" height="55" viewBox="0 0 55 55" fill="none" xmlns="http://www.w3.org/2000/svg">
<rect width="55" height="55" rx="15" fill="#F98D1B"/>
<path d="M21.2054 14.5454C22.1336 13.6991 23.3889 12.5546 23.5033 9.82031H24.332V9H13.668V9.82031H14.4967C14.6111 12.5546 15.8664 13.6991 16.7946 14.5454C17.4172 15.1131 17.7695 15.4605 17.7695 16C17.7695 16.5395 17.4172 16.8869 16.7946 17.4546C15.8664 18.3009 14.6111 19.4454 14.4967 22.1797H13.668V23H24.332V22.1797H23.5033C23.3889 19.4454 22.1336 18.3009 21.2054 17.4546C20.5828 16.8869 20.2305 16.5395 20.2305 16C20.2305 15.4605 20.5828 15.1131 21.2054 14.5454ZM18.5898 19.0745C18.4618 19.1008 18.3366 19.1392 18.2159 19.1892L15.7036 20.2288C16.1139 19.1856 16.7747 18.5829 17.3473 18.0608C17.9863 17.4782 18.5898 16.9279 18.5898 16V19.0745ZM20.6527 18.0608C21.2253 18.5829 21.8861 19.1856 22.2964 20.2287L19.7841 19.1892C19.6634 19.1392 19.5382 19.1008 19.4102 19.0744V16C19.4102 16.9279 20.0137 17.4782 20.6527 18.0608ZM15.6892 11.7344C15.4909 11.2176 15.3539 10.5936 15.3181 9.82031H22.6819C22.6461 10.5936 22.5091 11.2176 22.3108 11.7344H15.6892Z" fill="white"/>
<path d="M41.3795 37.2087H25.2238C24.7731 37.2087 24.4043 37.5775 24.4043 38.0282V38.3109C24.4043 38.7616 24.7731 39.1304 25.2238 39.1304H41.3836C41.8343 39.1304 42.2031 38.7616 42.2031 38.3109V38.0282C42.199 37.5775 41.8343 37.2087 41.3795 37.2087ZM41.0845 44.3053H17.361C17.1357 44.3053 16.9513 44.4897 16.9513 44.715C16.9513 44.9404 17.1357 45.1248 17.361 45.1248H41.0845C41.3099 45.1248 41.4943 44.9404 41.4943 44.715C41.4943 44.4897 41.3099 44.3053 41.0845 44.3053ZM20.1308 41.6216C19.676 41.6216 19.3073 41.9903 19.3073 42.4451V43.4858H25.5229V42.4451C25.5229 41.9903 25.1541 41.6216 24.6993 41.6216H20.1308Z" fill="white"/>
<path d="M27.0105 36.3894C27.979 36.3894 28.7641 35.6043 28.7641 34.6357C28.7641 33.6672 27.979 32.8821 27.0105 32.8821C26.042 32.8821 25.2568 33.6672 25.2568 34.6357C25.2568 35.6043 26.042 36.3894 27.0105 36.3894Z" fill="white"/>
<path d="M34.1881 24.3141C34.27 24.1912 34.4134 24.1256 34.5651 24.1379C34.7126 24.1543 34.8437 24.2485 34.901 24.3879L35.5156 25.8342L35.9213 24.7566C35.9745 24.6132 36.1097 24.5108 36.2613 24.4944C36.417 24.478 36.5645 24.5517 36.6506 24.6829L37.2078 25.5515L37.2775 25.4736C37.3155 25.4295 37.3627 25.3942 37.4158 25.3701C37.4688 25.3461 37.5265 25.3339 37.5848 25.3343H38.9041V23.8347H32.5V25.3138H33.512L34.1881 24.3141Z" fill="white"/>
<path d="M38.9047 26.1497H37.7698L37.4625 26.498C37.4208 26.5463 37.3682 26.5842 37.3091 26.6084C37.25 26.6326 37.1861 26.6425 37.1224 26.6373C37.0587 26.6329 36.9969 26.6136 36.9421 26.5808C36.8873 26.5481 36.841 26.5028 36.8069 26.4488L36.3972 25.8096L35.9178 27.0798C35.8604 27.2355 35.7088 27.342 35.5408 27.3461H35.5326C35.3688 27.3461 35.2212 27.2478 35.1557 27.0962L34.4387 25.3999L34.0617 25.953C33.9839 26.0637 33.8568 26.1333 33.7216 26.1333H32.4924V27.6084H38.8965V26.1497H38.9047Z" fill="white"/>
<path d="M31.2717 29.6614H40.1383C40.5931 29.6614 40.9619 29.2927 40.9619 28.8379V22.5976C40.9619 22.1428 40.5931 21.7741 40.1383 21.7741H39.5074V19.3116C39.5074 19.0862 39.323 18.9019 39.0976 18.9019C38.8723 18.9019 38.6879 19.0862 38.6879 19.3116V21.7782H32.7222V19.3116C32.7222 19.0862 32.5378 18.9019 32.3125 18.9019C32.0871 18.9019 31.9027 19.0862 31.9027 19.3116V21.7782H31.2717C30.8169 21.7782 30.4482 22.1469 30.4482 22.6017V28.842C30.4482 29.2927 30.8169 29.6614 31.2717 29.6614ZM31.6815 23.4212C31.6815 23.1958 31.8658 23.0115 32.0912 23.0115H39.3148C39.5401 23.0115 39.7245 23.1958 39.7245 23.4212V28.0143C39.7245 28.2397 39.5401 28.424 39.3148 28.424H32.0912C31.8658 28.424 31.6815 28.2397 31.6815 28.0143V23.4212ZM19.451 40.9577C19.6558 40.8553 19.8894 40.802 20.1352 40.802H21.6676C20.6228 39.3721 19.959 37.1267 19.959 34.5495C19.959 31.4069 20.9465 28.7559 22.4092 27.4776H20.9834C18.9839 27.4776 17.3613 30.6448 17.3613 34.5495C17.3613 37.3849 18.2177 39.831 19.451 40.9577Z" fill="white"/>
<path d="M20.9209 36.4998H22.5598C22.4287 35.9016 22.3549 35.242 22.3549 34.5495C22.3549 32.0665 23.2932 29.9687 24.4036 29.9687C25.137 29.9687 25.7926 30.8783 26.1532 32.2099C26.4195 32.1116 26.7104 32.0583 27.0095 32.0583C27.2922 32.0583 27.5626 32.1034 27.8167 32.1895C27.3209 29.4443 25.9811 27.4775 24.4036 27.4775C22.4 27.4775 20.7775 30.6448 20.7775 34.5495C20.7775 35.2256 20.8307 35.8811 20.9209 36.4998ZM26.735 39.9498H25.7721C23.7275 40.0522 23.0843 38.1715 22.7852 37.3193H21.0684C21.3921 38.8148 21.978 40.0481 22.7073 40.802H24.7027C25.0797 40.802 25.4279 40.929 25.7065 41.1462C26.0835 40.8594 26.4318 40.4538 26.735 39.9498ZM33.9299 39.9498L31.537 43.4858H35.491L37.8797 39.9498H33.9299ZM40.5225 36.3892C40.5225 35.3239 39.7645 34.4307 38.7606 34.2258L37.4454 33.9677L35.7163 33.5457C34.2372 33.1851 32.6966 33.1892 31.2174 33.5539L29.4966 33.98C29.5498 34.189 29.5826 34.4061 29.5826 34.6315C29.5826 35.3116 29.3163 35.9262 28.8861 36.3851H40.5225V36.3892Z" fill="white"/>
</svg>
