<svg width="184" height="166" viewBox="0 0 184 166" fill="none" xmlns="http://www.w3.org/2000/svg">
<rect width="184" height="166" rx="20" fill="url(#paint0_linear_1109_3323)"/>
<path d="M82.9209 78.6466C87.8477 78.6412 92.5712 76.6816 96.055 73.1978C99.5388 69.714 101.498 64.9905 101.504 60.0637C100.485 35.4033 65.3344 35.4253 64.3232 60.0637C64.3295 64.9928 66.2913 69.7181 69.7781 73.2021C73.2649 76.6862 77.9917 78.6443 82.9209 78.6466Z" fill="url(#paint1_linear_1109_3323)"/>
<path d="M109.668 100.904C110.047 100.802 110.451 100.854 110.793 101.048C111.134 101.243 111.385 101.564 111.491 101.942L115.819 117.635L128 117.487L125.659 91.1241C125.084 86.447 122.989 82.088 119.696 78.7174C116.403 75.3467 112.094 73.151 107.431 72.4678L101.147 71.5491C99.5707 74.0539 97.4949 76.2067 95.0492 77.8732C92.6035 79.5397 89.8404 80.684 86.9326 81.2346C84.0248 81.7853 81.0347 81.7304 78.149 81.0735C75.2633 80.4166 72.5441 79.1717 70.1612 77.4166L63.8622 83.7743C61.477 86.187 59.8803 89.2667 59.2832 92.6064L55.5789 112.998C55.2773 114.761 55.5024 116.574 56.226 118.21C56.9495 119.846 58.1395 121.233 59.6469 122.196C61.1544 123.159 62.9124 123.657 64.7011 123.626C66.4898 123.595 68.2298 123.038 69.7033 122.023L88.3449 108.863C88.9713 108.413 89.4952 107.836 89.8822 107.169C90.2693 106.501 90.5106 105.76 90.5905 104.993C90.6704 104.226 90.5869 103.45 90.3455 102.718C90.1042 101.985 89.7105 101.312 89.1903 100.743C88.3092 99.8312 87.145 99.2452 85.8879 99.0808C84.6307 98.9163 83.355 99.183 82.269 99.8374L71.5407 106.715C71.2086 106.922 70.8083 106.989 70.4266 106.903C70.0449 106.817 69.7126 106.583 69.5019 106.253C69.2912 105.924 69.2189 105.524 69.3009 105.142C69.3828 104.759 69.6123 104.424 69.9396 104.209L80.6678 97.3483C82.5156 96.1584 84.7561 95.7401 86.9087 96.1832C89.0614 96.6263 90.9545 97.8955 92.1821 99.7184C93.4097 101.541 93.8739 103.773 93.4751 105.934C93.0763 108.095 91.8462 110.014 90.0489 111.279L80.4316 118.08L112.751 117.681L108.632 102.727C108.532 102.348 108.585 101.945 108.779 101.605C108.973 101.264 109.292 101.013 109.669 100.906L109.668 100.904ZM84.9958 92.4289C84.837 92.5418 84.6572 92.6219 84.467 92.6644C84.2768 92.7069 84.08 92.711 83.8882 92.6764C83.6964 92.6418 83.5134 92.5692 83.35 92.463C83.1867 92.3567 83.0462 92.2189 82.9368 92.0575L81.8845 90.5606L80.5945 92.4582C80.4555 92.6774 80.2589 92.8541 80.0262 92.969C79.7934 93.084 79.5336 93.1327 79.2751 93.1098L76.6231 92.9337L77.4978 95.0662C77.6354 95.4274 77.6264 95.8281 77.4728 96.1828C77.3193 96.5375 77.0332 96.8182 76.6756 96.965C76.318 97.1118 75.9173 97.1132 75.5587 96.9687C75.2002 96.8243 74.9122 96.5455 74.7563 96.1918L72.9775 91.8653C72.8844 91.6324 72.8515 91.3798 72.8818 91.1308C72.9121 90.8819 73.0047 90.6446 73.151 90.4408C73.2972 90.2371 73.4925 90.0735 73.7187 89.9651C73.9449 89.8568 74.1947 89.8072 74.4452 89.8209L78.6235 90.1012L80.64 87.1073C80.775 86.9088 80.956 86.7459 81.1675 86.6323C81.379 86.5188 81.6148 86.458 81.8548 86.4551C82.0949 86.4522 82.3321 86.5074 82.5462 86.6158C82.7604 86.7242 82.9452 86.8828 83.085 87.0779L85.3672 90.3683C85.4786 90.5278 85.5574 90.7078 85.5991 90.8978C85.6407 91.0879 85.6444 91.2843 85.6099 91.4758C85.5754 91.6673 85.5034 91.85 85.398 92.0136C85.2926 92.1772 85.156 92.3183 84.9958 92.4289ZM93.2805 90.383L92.8946 90.9906C92.6788 91.3101 92.347 91.533 91.9697 91.6119C91.5923 91.6909 91.199 91.6197 90.8733 91.4135C90.5475 91.2073 90.3149 90.8822 90.2248 90.5074C90.1348 90.1325 90.1943 89.7373 90.3908 89.4056L92.0492 86.8123C92.1834 86.6017 92.3685 86.4283 92.5875 86.3082C92.8064 86.1881 93.0521 86.1251 93.3018 86.1251C93.5515 86.1251 93.7972 86.1881 94.0162 86.3082C94.2351 86.4283 94.4202 86.6017 94.5544 86.8123L96.8953 90.5767L100.186 90.6795C100.409 90.6897 100.628 90.7499 100.825 90.8557C101.023 90.9614 101.194 91.1101 101.326 91.2907C101.458 91.4714 101.549 91.6794 101.59 91.8994C101.631 92.1195 101.623 92.346 101.565 92.5624L100.541 96.208L101.639 99.0082C101.786 99.3681 101.784 99.7715 101.633 100.13C101.483 100.489 101.197 100.773 100.837 100.92L98.0518 102.106C97.8719 102.183 97.6785 102.223 97.483 102.224C97.2875 102.225 97.0938 102.187 96.9131 102.112C96.7324 102.038 96.5683 101.928 96.4305 101.789C96.2926 101.651 96.1837 101.486 96.1101 101.305C95.9635 100.943 95.9634 100.538 96.1099 100.176C96.2565 99.8139 96.5381 99.523 96.8953 99.3648L98.3629 98.7572L97.6085 96.8302C97.2343 96.1874 98.0885 94.2414 98.2 93.5853L96.022 93.512C95.7779 93.5039 95.5395 93.4362 95.3277 93.3147C95.1158 93.1931 94.937 93.0215 94.8069 92.8148L93.2805 90.383ZM103.15 108.552L101.223 110.567C101.322 111.404 102.057 113.069 101.341 113.797C100.685 114.678 98.969 114.205 97.7113 114.257C95.0402 116.373 94.7614 116.079 92.8505 113.413C91.6559 111.361 94.5045 109.99 95.6067 112.123C96.0661 111.822 96.6825 111.207 97.2813 111.294L98.3482 111.323L98.156 110.419C97.8742 109.519 98.8751 108.759 99.4005 108.181C99.072 108.008 98.82 107.719 98.6944 107.369C98.5688 107.02 98.5787 106.637 98.722 106.294C98.8654 105.952 99.1318 105.676 99.4688 105.52C99.8058 105.365 100.189 105.341 100.542 105.454L102.557 106.122C102.792 106.204 103.002 106.344 103.169 106.528C103.336 106.712 103.454 106.935 103.513 107.176C103.572 107.418 103.569 107.67 103.506 107.91C103.443 108.15 103.32 108.371 103.15 108.552Z" fill="url(#paint2_linear_1109_3323)"/>
<defs>
<linearGradient id="paint0_linear_1109_3323" x1="0" y1="0" x2="165.124" y2="183.029" gradientUnits="userSpaceOnUse">
<stop offset="0.125652" stop-color="#F5F5F5"/>
<stop offset="0.869819" stop-color="#E5E5E5"/>
</linearGradient>
<linearGradient id="paint1_linear_1109_3323" x1="64.3232" y1="78.6466" x2="106.731" y2="74.8638" gradientUnits="userSpaceOnUse">
<stop offset="0.323057" stop-color="#F98D1B"/>
<stop offset="1" stop-color="#FFC180"/>
</linearGradient>
<linearGradient id="paint2_linear_1109_3323" x1="55.4487" y1="123.627" x2="137.596" y2="113.449" gradientUnits="userSpaceOnUse">
<stop offset="0.323057" stop-color="#F98D1B"/>
<stop offset="1" stop-color="#FFC180"/>
</linearGradient>
</defs>
</svg>
