<svg width="184" height="166" viewBox="0 0 184 166" fill="none" xmlns="http://www.w3.org/2000/svg">
<rect width="184" height="166" rx="20" fill="url(#paint0_linear_1109_3345)"/>
<path d="M57.195 90.1778C57.322 89.7565 57.2763 89.3021 57.0682 88.9145C56.8601 88.5268 56.5065 88.2377 56.0852 88.1108C55.8767 88.048 55.6577 88.0268 55.441 88.0486C55.2242 88.0703 55.0139 88.1346 54.8219 88.2376C54.4343 88.4458 54.1452 88.7993 54.0183 89.2206C52.7609 93.3993 54.7648 98.5816 59.977 104.628C60.119 104.793 60.2923 104.929 60.4868 105.027C60.6813 105.125 60.8934 105.184 61.1107 105.2C61.328 105.216 61.5463 105.189 61.7531 105.121C61.96 105.052 62.1512 104.943 62.316 104.801C62.6492 104.514 62.8547 104.106 62.8873 103.667C62.92 103.229 62.7771 102.795 62.4902 102.462C58.192 97.4752 56.3109 93.1123 57.195 90.1778Z" fill="url(#paint1_linear_1109_3345)"/>
<path d="M109.954 73.1758C110.646 73.0199 111.357 73.1427 111.959 73.5192C112.562 73.8958 112.976 74.488 113.134 75.1814C113.212 75.5215 113.222 75.8738 113.163 76.2178C113.104 76.5618 112.977 76.8906 112.79 77.1853C112.605 77.4811 112.363 77.7373 112.078 77.9389C111.793 78.1404 111.471 78.2835 111.13 78.3598L106.626 79.38C106.452 79.0151 106.25 78.6684 106.07 78.3051C105.579 77.3089 105.068 76.3228 104.538 75.3473C104.387 75.0719 104.256 74.7783 104.101 74.5063L109.954 73.1758ZM79.316 41.0799C80.1901 40.3164 80.7268 39.2383 80.809 38.0807L81.1059 34.0131C81.1252 33.7295 81.2547 33.4648 81.4668 33.2756C81.6789 33.0865 81.9567 32.9879 82.2406 33.0012L86.8092 33.459C86.8105 34.747 87.3226 35.9818 88.2332 36.8927C89.1437 37.8036 90.3784 38.3161 91.6664 38.3179C93.1643 38.3179 94.6026 37.6079 95.5183 36.4218L96.3228 35.3734C96.7143 34.8658 97.28 34.5522 97.917 34.4908C98.559 34.4328 99.1695 34.6285 99.6505 35.0516C99.8378 35.2177 99.9626 35.4429 100.004 35.6899C100.045 35.9368 100.001 36.1904 99.8778 36.4085C99.1479 37.6941 99.1562 39.2784 99.8396 40.6254C84.7223 41.6041 79.1435 51.8278 77.4166 56.3681C77.2424 56.8177 76.8244 57.0997 76.3848 57.0632C74.3805 56.9675 72.3745 56.9089 70.368 56.8873C70.4842 49.6148 76.6253 43.4339 79.316 41.0799ZM50.999 44.2152C50.7834 43.7988 50.8962 43.4322 50.9824 43.2497C51.0687 43.0672 51.281 42.7487 51.7372 42.6492L55.6356 41.8032C55.8465 41.7575 56.0662 41.7753 56.267 41.8544C56.4678 41.9336 56.6406 42.0704 56.7636 42.2478L57.5831 43.4305C58.0145 44.0639 58.6056 44.572 59.2967 44.9032C59.9877 45.2344 60.754 45.3771 61.5179 45.3167C62.282 45.2661 63.0195 45.0158 63.6564 44.5908C64.2934 44.1657 64.8076 43.5809 65.1476 42.8947L67.1117 38.9831C67.1802 38.8453 67.2774 38.7237 67.3967 38.6264C67.5159 38.5291 67.6546 38.4584 67.8034 38.4191C67.9522 38.3784 68.1079 38.37 68.2602 38.3946C68.4124 38.4192 68.5576 38.4762 68.6859 38.5617L73.7787 41.921C70.6534 45.4328 67.1432 50.7379 67.052 56.8608H67.0138C66.9143 56.8608 66.8147 56.8691 66.7185 56.8873C62.8085 57.5973 59.232 59.8169 56.0437 63.493V55.0858C56.0437 54.3874 55.8745 53.689 55.5543 53.0686L50.999 44.2152ZM64.3231 125.517C64.3231 126.114 63.8387 126.603 63.2448 126.607C61.4035 126.617 58.9848 126.631 57.1319 126.623C56.8432 126.622 56.5667 126.507 56.3628 126.303C56.1588 126.099 56.0441 125.822 56.0437 125.533V113.629C58.6431 116.3 61.4798 118.803 64.3214 121.084L64.3231 125.517ZM109.275 115.527V115.532C106.648 128.609 99.9906 134.194 89.4866 132.109C86.7826 131.565 84.0836 130.47 81.232 128.765C75.0112 125.032 63.414 117.408 55.6488 108.284C49.1129 100.707 46.7407 93.7426 48.6285 87.4405C48.65 87.3393 50.7153 77.3446 55.7948 69.4201C59.1441 64.1034 62.9695 60.9964 67.1697 60.1785H68.2082C70.0413 60.2001 73.8533 60.2449 76.1957 60.3776C77.1214 60.4271 78.0389 60.1806 78.8152 59.6739C79.5915 59.1672 80.1864 58.4265 80.5137 57.5592C82.0863 53.4219 87.335 43.8486 102.179 43.8486L102.467 43.8502C103.546 43.8718 104.644 43.9348 105.817 44.0443C105.966 44.0585 106.111 44.1029 106.243 44.175C106.375 44.247 106.491 44.3452 106.584 44.4634C106.677 44.5816 106.744 44.7175 106.783 44.8628C106.822 45.0081 106.83 45.1597 106.809 45.3084C106.759 45.6551 106.702 46.2208 106.638 46.8727C106.522 48.0173 106.309 50.1457 106.123 50.6948C106.06 50.8571 105.956 50.9998 105.819 51.1085C105.683 51.2171 105.521 51.2879 105.349 51.3135C104.931 51.3832 104.418 51.423 103.839 51.4694C100.538 51.7398 95.014 52.1911 91.5917 57.7699C90.608 59.4453 90.7938 61.5189 92.0346 62.9041C94.022 65.2099 97.0361 69.0452 100.113 74.2408C100.44 74.7883 100.74 75.3656 101.059 75.9246C100.974 76.1363 100.933 76.3633 100.939 76.5915C100.948 76.8668 101.036 83.227 92.4742 87.9879C90.253 86.6442 83.6059 81.8816 84.4005 73.2754C84.4406 72.8377 84.3054 72.402 84.0246 72.0639C83.7437 71.7258 83.3401 71.513 82.9025 71.4722C82.6853 71.4503 82.466 71.4718 82.2572 71.5355C82.0484 71.5992 81.8544 71.7038 81.6864 71.8432C81.5184 71.9826 81.3799 72.154 81.2788 72.3475C81.1777 72.541 81.1161 72.7526 81.0977 72.9701C80.2848 81.7572 85.6181 87.1535 89.0387 89.675C85.8205 91.6856 81.1872 96.3454 81.091 106.612C81.0888 106.83 81.1296 107.046 81.2109 107.248C81.2923 107.45 81.4126 107.634 81.5651 107.79C81.7176 107.946 81.8993 108.07 82.0997 108.155C82.3002 108.24 82.5155 108.285 82.7333 108.288H82.7499C83.187 108.288 83.6064 108.115 83.9171 107.808C84.2277 107.5 84.4044 107.082 84.4088 106.645C84.5299 93.8886 92.5489 91.5844 92.8773 91.4948C92.8856 91.4948 92.8939 91.4882 92.9022 91.4865C92.9354 91.4766 92.9669 91.46 93.0001 91.45C93.0764 91.4235 93.1544 91.4002 93.2274 91.3638C93.2672 91.3438 93.2987 91.3223 93.3368 91.3024L93.3385 91.3007C99.7683 87.968 102.416 83.7097 103.502 80.601C103.726 81.0655 103.967 81.5183 104.183 81.9878C105.438 84.7028 106.534 87.489 107.464 90.3319L107.653 90.9241C108.521 93.731 109.159 96.4814 109.552 99.1107C110.433 104.779 110.34 110.301 109.275 115.527ZM115.128 95.4678C114.942 95.7636 114.7 96.0196 114.414 96.2209C114.129 96.4223 113.807 96.5649 113.466 96.6406L112.537 96.8513C112.528 96.7966 112.513 96.7385 112.503 96.6838C112.355 95.8907 112.19 95.1009 112.007 94.3149C111.979 94.1921 111.943 94.0677 111.915 93.945C111.752 93.2665 111.578 92.5847 111.389 91.8962C111.367 91.8166 111.351 91.7387 111.327 91.659L112.286 91.4417C112.627 91.3627 112.98 91.3523 113.324 91.4109C113.669 91.4696 113.998 91.5962 114.293 91.7834C114.894 92.1617 115.312 92.7522 115.471 93.4622C115.55 93.8026 115.56 94.1552 115.501 94.4995C115.442 94.8438 115.315 95.1729 115.128 95.4678Z" fill="url(#paint2_linear_1109_3345)"/>
<path d="M135.719 128.436L118.251 98.1799C117.079 96.1513 114.152 96.1513 112.981 98.1799L95.5106 128.436C94.3436 130.465 95.8068 133 98.1459 133H133.084C135.424 133 136.886 130.465 135.719 128.436ZM113.965 107.22H117.266C117.428 107.219 117.589 107.253 117.738 107.318C117.887 107.383 118.021 107.479 118.131 107.598C118.241 107.718 118.325 107.859 118.378 108.013C118.431 108.166 118.451 108.33 118.438 108.492L117.699 117.299C117.675 117.594 117.541 117.868 117.324 118.068C117.107 118.269 116.823 118.38 116.527 118.38H114.704C114.409 118.38 114.124 118.269 113.907 118.068C113.69 117.868 113.556 117.594 113.532 117.299L112.794 108.492C112.78 108.33 112.8 108.166 112.853 108.013C112.906 107.859 112.99 107.718 113.1 107.598C113.21 107.479 113.344 107.383 113.493 107.318C113.642 107.253 113.803 107.219 113.965 107.22ZM115.615 128.077C114.868 128.067 114.154 127.764 113.629 127.232C113.104 126.701 112.81 125.984 112.81 125.236C112.81 124.489 113.104 123.772 113.629 123.24C114.154 122.709 114.868 122.405 115.615 122.396C116.362 122.405 117.076 122.709 117.601 123.24C118.126 123.772 118.421 124.489 118.421 125.236C118.421 125.984 118.126 126.701 117.601 127.232C117.076 127.764 116.362 128.067 115.615 128.077Z" fill="url(#paint3_linear_1109_3345)" stroke="#F1F1F1" stroke-width="2"/>
<defs>
<linearGradient id="paint0_linear_1109_3345" x1="0" y1="0" x2="165.124" y2="183.029" gradientUnits="userSpaceOnUse">
<stop offset="0.125652" stop-color="#F5F5F5"/>
<stop offset="0.869819" stop-color="#E5E5E5"/>
</linearGradient>
<linearGradient id="paint1_linear_1109_3345" x1="53.6543" y1="105.205" x2="64.2501" y2="104.697" gradientUnits="userSpaceOnUse">
<stop offset="0.323057" stop-color="#F98D1B"/>
<stop offset="1" stop-color="#FFC180"/>
</linearGradient>
<linearGradient id="paint2_linear_1109_3345" x1="48" y1="132.535" x2="125.364" y2="127.866" gradientUnits="userSpaceOnUse">
<stop offset="0.323057" stop-color="#F98D1B"/>
<stop offset="1" stop-color="#FFC180"/>
</linearGradient>
<linearGradient id="paint3_linear_1109_3345" x1="95.1006" y1="133" x2="141.799" y2="128.311" gradientUnits="userSpaceOnUse">
<stop offset="0.323057" stop-color="#F98D1B"/>
<stop offset="1" stop-color="#FFC180"/>
</linearGradient>
</defs>
</svg>
