<svg width="184" height="166" viewBox="0 0 184 166" fill="none" xmlns="http://www.w3.org/2000/svg">
<rect width="184" height="166" rx="20" fill="url(#paint0_linear_1109_3336)"/>
<path fill-rule="evenodd" clip-rule="evenodd" d="M80.8638 47.138C80.2986 47.225 79.7334 47.3471 79.1827 47.4983C78.9982 47.5487 78.8045 47.5559 78.6167 47.5192C78.4289 47.4826 78.2521 47.4032 78.1 47.2871C77.9479 47.1713 77.8247 47.0219 77.7399 46.8506C77.6552 46.6793 77.6112 46.4907 77.6114 46.2996V35.9438H75.8516V48.1359C75.8516 48.5686 75.6259 48.9723 75.2554 49.198C70.1375 52.3097 66.9451 58.1894 66.8996 64.5659C71.3176 63.0008 75.2988 60.1955 79.1827 57.4544C83.4248 54.4628 87.7538 51.4132 92.5321 50.2062C92.058 49.8398 91.5694 49.5023 91.0622 49.1938C90.7372 48.9951 90.5198 48.6597 90.4742 48.2808C90.4287 47.902 90.5591 47.5252 90.8283 47.254L96.0206 42.0575L94.7763 40.8153L88.4039 47.1919C88.0872 47.5107 87.6255 47.6308 87.1928 47.5107C86.4924 47.3173 85.7791 47.174 85.0583 47.0821C84.6836 47.0345 84.3502 46.8192 84.1536 46.4962C83.9569 46.1733 83.9175 45.7799 84.0459 45.4238L87.2176 36.7223L85.5634 36.1198L81.839 46.3368C81.7634 46.5456 81.6329 46.7302 81.4613 46.8712C81.2897 47.0122 81.0834 47.1044 80.8638 47.138ZM107.906 104.318L122.028 109.556L121.517 104.562L132.481 105.125L118.359 99.8896L118.871 104.883L107.906 104.318ZM109.726 117.09C110.07 117.684 109.865 118.444 109.271 118.787C109.076 118.899 108.861 118.953 108.65 118.953C108.221 118.953 107.803 118.732 107.573 118.332L102.834 110.121C102.49 109.527 102.695 108.767 103.289 108.423C103.884 108.082 104.643 108.285 104.985 108.879L109.726 117.09ZM108.476 88.3621L113.217 80.1512C113.56 79.557 113.355 78.7972 112.761 78.4536C112.476 78.2893 112.136 78.2451 111.818 78.3304C111.5 78.4158 111.229 78.6239 111.063 78.909L106.322 87.1199C106.241 87.2613 106.188 87.4173 106.167 87.5792C106.145 87.741 106.156 87.9055 106.198 88.0631C106.241 88.2208 106.314 88.3686 106.413 88.498C106.513 88.6275 106.637 88.736 106.778 88.8176C106.919 88.8995 107.075 88.9528 107.237 88.9743C107.399 88.9958 107.564 88.985 107.721 88.9427C107.879 88.9004 108.027 88.8273 108.156 88.7276C108.286 88.628 108.394 88.5038 108.476 88.3621ZM122.22 78.7807L115.687 74.6897L134.352 63.1374L124.535 74.4931C124.417 74.6285 124.331 74.7879 124.281 74.9603C124.231 75.1326 124.22 75.3137 124.247 75.491C124.274 75.6681 124.338 75.8374 124.437 75.9872C124.535 76.1369 124.665 76.2636 124.817 76.3584L131.348 80.4494L112.682 92.0017L122.5 80.646C122.617 80.5105 122.704 80.351 122.754 80.1787C122.803 80.0064 122.815 79.8254 122.788 79.6481C122.762 79.4711 122.697 79.3019 122.599 79.1521C122.501 79.0023 122.372 78.8756 122.22 78.7807ZM80.6154 59.4854C87.8284 54.4007 94.0579 50.0075 102.186 53.2413C108.033 56.1687 107.614 59.1334 106.594 61.3921C105.958 62.7979 104.766 63.6612 103.231 63.8247C87.7994 65.4727 82.5015 71.7044 76.365 78.9215L76.2822 79.0188C75.0131 80.5115 74.4065 82.2609 74.4769 84.2194C74.655 89.1302 74.1291 95.4778 70.6013 97.8193C70.327 98.0018 70.1364 98.2857 70.0712 98.6086C70.006 98.9315 70.0715 99.2671 70.2535 99.5418C70.3668 99.7125 70.5207 99.8526 70.7013 99.9494C70.8819 100.046 71.0837 100.097 71.2886 100.097C71.5247 100.097 71.7627 100.03 71.976 99.8896C75.5763 97.4984 77.2532 92.1942 76.9592 84.1283C76.9095 82.7909 77.307 81.646 78.1745 80.6274L78.2573 80.5301C83.3482 74.5428 87.8284 69.2738 98.6499 67.0399C99.3952 68.1124 100.12 69.2428 100.809 70.4166C102.96 74.0749 103.735 77.8987 103.174 82.1077C99.3766 110.653 87.3419 130.59 73.9055 130.59C60.6224 130.59 48.6249 110.937 44.7307 82.795C44.0868 78.141 45.0454 73.9838 47.6643 70.0833C53.2438 61.7689 60.1566 56.0756 67.4047 53.7485C65.4856 56.9637 64.4111 60.7545 64.4111 64.7026C64.4111 64.8972 64.4173 65.0938 64.4214 65.2926C63.4794 65.51 62.5167 65.6673 61.5292 65.7501C60.846 65.8081 60.3388 66.4085 60.3947 67.0917C60.4506 67.7749 61.053 68.2842 61.7362 68.2262C69.0879 67.6113 74.9469 63.4811 80.6154 59.4854ZM71.8538 48.5686C71.0982 49.1835 70.3943 49.8605 69.74 50.583C66.2536 51.2724 62.8356 52.6471 59.5458 54.6885C58.5914 49.0448 58.5024 43.6578 59.2705 37.9624L68.1997 37.8154L71.8538 48.5686Z" fill="url(#paint1_linear_1109_3336)"/>
<defs>
<linearGradient id="paint0_linear_1109_3336" x1="0" y1="0" x2="165.124" y2="183.029" gradientUnits="userSpaceOnUse">
<stop offset="0.125652" stop-color="#F5F5F5"/>
<stop offset="0.869819" stop-color="#E5E5E5"/>
</linearGradient>
<linearGradient id="paint1_linear_1109_3336" x1="44.5371" y1="130.59" x2="147.063" y2="121.937" gradientUnits="userSpaceOnUse">
<stop offset="0.323057" stop-color="#F98D1B"/>
<stop offset="1" stop-color="#FFC180"/>
</linearGradient>
</defs>
</svg>
