<svg width="184" height="166" viewBox="0 0 184 166" fill="none" xmlns="http://www.w3.org/2000/svg">
<rect width="184" height="166" rx="20" fill="url(#paint0_linear_967_2103)"/>
<path d="M142.976 64.5004C139.98 62.9795 136.667 62.1869 133.306 62.1869C129.946 62.1869 126.633 62.9795 123.636 64.5004C122.914 64.8724 122.455 65.6381 122.455 66.4476V74.5424C122.455 75.7675 123.417 76.7301 124.643 76.7301H126.196V91.7383C126.196 94.8887 128.274 97.5359 131.118 98.4767V122.433C131.118 124.139 129.718 125.561 127.99 125.561H117.445C115.716 125.561 114.316 124.139 114.316 122.433C114.316 118.298 110.947 114.929 106.812 114.929H80.9744C79.2461 114.929 77.8459 113.529 77.8459 111.8V109.066H97.4922C98.7173 109.066 99.68 108.081 99.68 106.878C99.68 105.674 98.7173 104.69 97.4922 104.69H94.3855L92.5697 99.1112H109.087C110.474 99.1112 111.804 98.5603 112.785 97.5797C113.765 96.5991 114.316 95.2691 114.316 93.8823V42.2288C114.316 39.3628 111.975 37 109.087 37H42.2288C39.3628 37 37 39.3628 37 42.2288V93.8823C37 96.7702 39.3628 99.1112 42.2288 99.1112H58.7466L56.9307 104.69H53.824C52.5989 104.69 51.6363 105.674 51.6363 106.878C51.6363 108.081 52.5989 109.066 53.824 109.066H73.4703V111.8C73.4703 115.935 76.8395 119.304 80.9744 119.304H106.812C108.54 119.304 109.941 120.705 109.941 122.433C109.941 126.568 113.31 129.937 117.445 129.937H127.99C132.125 129.937 135.494 126.568 135.494 122.433V98.4767C138.338 97.5359 140.416 94.8887 140.416 91.7383V76.7301H141.97C143.195 76.7301 144.158 75.7675 144.158 74.5424V66.4476C144.158 65.6381 143.698 64.8724 142.976 64.5004ZM47.4357 73.6891C46.7794 73.361 46.3418 72.7265 46.2543 71.9826C46.1668 71.2607 46.4731 70.5387 47.0419 70.0574C51.8769 66.0538 56.1869 61.5032 59.8186 56.5369C60.3874 55.7712 61.4157 55.4649 62.3126 55.7712C70.9106 58.8341 80.3837 58.8341 89.0036 55.7712C89.9006 55.4649 90.9288 55.7712 91.4977 56.5369C95.1294 61.5032 99.4393 66.0538 104.274 70.0574C104.843 70.5387 105.149 71.2607 105.062 71.9826C104.974 72.7265 104.537 73.361 103.881 73.6891C95.0419 78.1959 85.35 80.4494 75.6581 80.4494C65.9662 80.4494 56.2744 78.1959 47.4357 73.6891Z" fill="url(#paint1_linear_967_2103)"/>
<path d="M120.858 48.0484C120.655 48.251 120.494 48.4914 120.385 48.7561C120.275 49.0207 120.219 49.3044 120.219 49.5908C120.219 49.8773 120.275 50.1609 120.385 50.4255C120.494 50.6902 120.655 50.9306 120.858 51.1332C121.06 51.3357 121.301 51.4964 121.565 51.606C121.83 51.7156 122.114 51.7721 122.4 51.7721C122.686 51.7721 122.97 51.7156 123.235 51.606C123.499 51.4964 123.74 51.3357 123.942 51.1332C126.424 48.6539 129.788 47.2612 133.295 47.2612C136.803 47.2612 140.167 48.6539 142.648 51.1332C143.086 51.5707 143.632 51.7676 144.201 51.7676C144.77 51.7676 145.317 51.5489 145.755 51.1332C145.957 50.9308 146.118 50.6904 146.228 50.4257C146.338 50.1611 146.394 49.8773 146.394 49.5908C146.394 49.3043 146.338 49.0206 146.228 48.7559C146.118 48.4912 145.957 48.2508 145.755 48.0484C138.885 41.2007 127.727 41.2007 120.858 48.0484Z" fill="url(#paint2_linear_967_2103)"/>
<path d="M130.003 57.2151C131.819 55.3993 134.773 55.3993 136.611 57.2151C137.02 57.6242 137.574 57.854 138.153 57.854C138.731 57.854 139.286 57.6242 139.695 57.2151C140.104 56.8061 140.334 56.2512 140.334 55.6727C140.334 55.0942 140.104 54.5394 139.695 54.1303C138 52.4385 135.702 51.4883 133.307 51.4883C130.912 51.4883 128.614 52.4385 126.919 54.1303C126.716 54.3329 126.555 54.5734 126.446 54.838C126.336 55.1026 126.28 55.3863 126.28 55.6727C126.28 55.9592 126.336 56.2428 126.446 56.5075C126.555 56.7721 126.716 57.0126 126.919 57.2151C127.121 57.4177 127.362 57.5783 127.626 57.688C127.891 57.7976 128.175 57.854 128.461 57.854C128.747 57.854 129.031 57.7976 129.296 57.688C129.56 57.5783 129.801 57.4177 130.003 57.2151Z" fill="url(#paint3_linear_967_2103)"/>
<defs>
<linearGradient id="paint0_linear_967_2103" x1="0" y1="0" x2="165.124" y2="183.029" gradientUnits="userSpaceOnUse">
<stop offset="0.125652" stop-color="#F5F5F5"/>
<stop offset="0.869819" stop-color="#E5E5E5"/>
</linearGradient>
<linearGradient id="paint1_linear_967_2103" x1="37" y1="129.937" x2="158.912" y2="117.435" gradientUnits="userSpaceOnUse">
<stop offset="0.323057" stop-color="#F98D1B"/>
<stop offset="1" stop-color="#FFC180"/>
</linearGradient>
<linearGradient id="paint2_linear_967_2103" x1="120.219" y1="51.7721" x2="148.368" y2="44.3754" gradientUnits="userSpaceOnUse">
<stop offset="0.323057" stop-color="#F98D1B"/>
<stop offset="1" stop-color="#FFC180"/>
</linearGradient>
<linearGradient id="paint3_linear_967_2103" x1="126.28" y1="57.854" x2="141.838" y2="54.7991" gradientUnits="userSpaceOnUse">
<stop offset="0.323057" stop-color="#F98D1B"/>
<stop offset="1" stop-color="#FFC180"/>
</linearGradient>
</defs>
</svg>
