<svg width="184" height="166" viewBox="0 0 184 166" fill="none" xmlns="http://www.w3.org/2000/svg">
<rect width="184" height="166" rx="20" fill="url(#paint0_linear_967_2130)"/>
<path d="M95.947 57.861V61.2592C95.6475 61.137 95.327 61.0745 95.0035 61.0753C86.9436 61.0753 87.3114 61.0114 86.7117 61.2592V57.861C86.7117 57.6108 86.8112 57.3708 86.9881 57.1938C87.165 57.0169 87.405 56.9175 87.6553 56.9175H95.0035C95.2537 56.9175 95.4937 57.0169 95.6706 57.1938C95.8476 57.3708 95.947 57.6108 95.947 57.861ZM95.947 63.618V65.0253C92.8606 67.4241 89.9661 67.4241 86.7117 64.7694V63.618C86.7117 63.3678 86.8112 63.1278 86.9881 62.9509C87.165 62.7739 87.405 62.6745 87.6553 62.6745H95.0035C95.2537 62.6745 95.4937 62.7739 95.6706 62.9509C95.8476 63.1278 95.947 63.3678 95.947 63.618ZM95.947 46.3629V49.7532C95.6475 49.6309 95.327 49.5684 95.0035 49.5693C86.9436 49.5693 87.3114 49.5053 86.7117 49.7532V46.3629C86.7117 46.239 86.7362 46.1164 86.7836 46.0019C86.831 45.8874 86.9005 45.7834 86.9881 45.6958C87.165 45.5188 87.405 45.4194 87.6553 45.4194H95.0035C95.2537 45.4194 95.4937 45.5188 95.6706 45.6958C95.8476 45.8727 95.947 46.1127 95.947 46.3629ZM95.947 52.112V55.5022C95.6475 55.3799 95.327 55.3175 95.0035 55.3183C86.9436 55.3183 87.3114 55.2543 86.7117 55.5022V52.112C86.7117 51.8617 86.8112 51.6218 86.9881 51.4448C87.165 51.2679 87.405 51.1685 87.6553 51.1685H95.0035C95.2537 51.1685 95.4937 51.2679 95.6706 51.4448C95.8476 51.6218 95.947 51.8617 95.947 52.112ZM78.6919 64.8334C78.7034 64.4531 78.7961 64.0796 78.9638 63.738C78.7849 64.0754 78.6916 64.4515 78.6919 64.8334Z" fill="url(#paint1_linear_967_2130)"/>
<path d="M120.342 50.3289C111.674 46.5789 106.965 54.3748 101.951 60.8835C102.993 60.8898 103.991 61.3076 104.726 62.046C105.461 62.7843 105.875 63.7834 105.877 64.8254C105.9 67.886 104.936 70.8723 103.127 73.341C103.971 73.705 104.686 74.3161 105.177 75.0938C105.668 75.8716 105.912 76.7797 105.877 77.6988C105.877 83.3598 99.1206 91.0599 91.4846 91.0599C83.8485 91.0599 77.092 83.3518 77.092 77.6988C77.0586 76.7779 77.305 75.8685 77.7989 75.0905C78.2928 74.3125 79.011 73.7026 79.8586 73.341C78.0563 70.8922 77.0867 67.93 77.092 64.8894C77.0917 63.8455 77.4997 62.8429 78.2289 62.0958C78.958 61.3488 79.9504 60.9165 80.994 60.8915C75.9806 54.3828 71.271 46.5949 62.6035 50.3449C53.6401 54.2149 55.5432 72.0377 61.2362 86.3743C61.8061 86.0456 62.2887 85.5849 62.6435 85.031C63.1267 84.2563 63.7678 83.5921 64.525 83.082C65.2823 82.5719 66.1386 82.2272 67.0381 82.0705C67.9376 81.9138 68.8601 81.9485 69.7452 82.1725C70.6304 82.3965 71.4583 82.8046 72.175 83.3703C72.8917 83.936 73.4811 84.6464 73.9046 85.4553C74.3281 86.2642 74.5762 87.1534 74.6327 88.0647C74.6893 88.9759 74.553 89.8889 74.2327 90.744C73.9125 91.599 73.4155 92.3769 72.7742 93.0268C70.9314 94.9512 69.5003 97.2312 68.5684 99.7274C71.319 103.238 74.2455 105.42 76.9801 105.42C85.1918 105.42 81.7776 98.3121 91.4926 98.3121C101.208 98.3121 97.7773 105.42 105.989 105.42C108.724 105.42 111.65 103.238 114.401 99.7274C113.465 97.2333 112.034 94.9541 110.195 93.0268C109.554 92.3769 109.057 91.599 108.736 90.744C108.416 89.8889 108.28 88.9759 108.336 88.0647C108.393 87.1534 108.641 86.2642 109.065 85.4553C109.488 84.6464 110.077 83.936 110.794 83.3703C111.511 82.8046 112.339 82.3965 113.224 82.1725C114.109 81.9485 115.032 81.9138 115.931 82.0705C116.831 82.2272 117.687 82.5719 118.444 83.082C119.201 83.5921 119.842 84.2563 120.326 85.031C120.68 85.5849 121.163 86.0456 121.733 86.3743C127.466 72.0377 129.329 54.2149 120.342 50.3289ZM81.9695 96.8329L79.091 99.7114C78.9789 99.8273 78.8428 99.9173 78.6922 99.9749C78.5416 100.033 78.3803 100.057 78.2194 100.045C78.0586 100.034 77.9022 99.9871 77.7613 99.9087C77.6204 99.8304 77.4984 99.7221 77.4039 99.5914C75.8846 97.6325 75.4928 95.4176 76.6043 94.3222C77.7157 93.2267 79.9066 93.6265 81.8735 95.1218C82.0067 95.2179 82.1166 95.3426 82.1954 95.4866C82.2743 95.6307 82.3199 95.7905 82.3291 95.9545C82.3383 96.1184 82.3108 96.2824 82.2486 96.4343C82.1864 96.5863 82.091 96.7224 81.9695 96.8329ZM105.253 99.5914C105.16 99.7219 105.038 99.8301 104.898 99.9084C104.758 99.9868 104.602 100.033 104.442 100.045C104.282 100.056 104.121 100.032 103.971 99.9747C103.821 99.9171 103.686 99.8272 103.574 99.7114L100.696 96.8329C100.579 96.7215 100.487 96.5856 100.429 96.4348C100.371 96.2841 100.346 96.1223 100.358 95.961C100.369 95.7997 100.416 95.643 100.495 95.502C100.575 95.3611 100.684 95.2394 100.816 95.1457C102.775 93.6265 104.99 93.2347 106.085 94.3462C107.18 95.4576 106.773 97.6325 105.253 99.5914Z" fill="url(#paint2_linear_967_2130)"/>
<path d="M104.278 64.8333C104.292 66.678 103.904 68.5037 103.141 70.183C102.377 71.8623 101.256 73.3548 99.8562 74.5563C99.1781 75.1272 98.6313 75.8379 98.2532 76.6397C97.8751 77.4415 97.6746 78.3154 97.6654 79.2019V87.5655C95.827 88.7717 93.683 89.429 91.4846 89.4606C89.1309 89.4139 86.8449 88.6649 84.92 87.3097V78.866C84.912 78.007 84.7243 77.1591 84.369 76.3769C84.0138 75.5948 83.4987 74.8956 82.857 74.3244C81.5424 73.1297 80.4925 71.673 79.775 70.0479C79.0575 68.4229 78.6883 66.6656 78.6912 64.8893C78.6722 64.386 78.8122 63.8895 79.0911 63.4702C79.3701 63.0509 79.774 62.7301 80.2455 62.5531C80.717 62.3762 81.2323 62.3522 81.7182 62.4845C82.2042 62.6167 82.6362 62.8986 82.953 63.2901C88.8619 70.0866 94.0432 70.1346 99.9602 63.2901C100.267 62.8792 100.698 62.5776 101.189 62.4295C101.68 62.2814 102.206 62.2947 102.689 62.4673C103.172 62.64 103.587 62.9629 103.873 63.3887C104.159 63.8146 104.301 64.3209 104.278 64.8333ZM71.5988 91.9473L70.6473 93.0507C67.5876 96.6114 65.9028 101.149 65.8978 105.844V120.58H60.5646V113.176C60.5883 108.303 59.1298 103.537 56.3827 99.5114C51.5052 92.451 56.5986 88.9408 59.757 88.541C60.613 88.4372 61.4357 88.1463 62.1667 87.6889C62.8977 87.2315 63.5191 86.6188 63.9868 85.8944C64.3524 85.3105 64.8372 84.8104 65.4094 84.4268C65.9816 84.0432 66.6284 83.7848 67.3074 83.6684C67.9864 83.552 68.6823 83.5803 69.3496 83.7514C70.0169 83.9225 70.6406 84.2326 71.1798 84.6613C71.719 85.0901 72.1616 85.6279 72.4787 86.2395C72.7957 86.8511 72.98 87.5228 73.0196 88.2106C73.0591 88.8983 72.953 89.5867 72.7082 90.2306C72.4634 90.8745 72.0853 91.4595 71.5988 91.9473ZM111.37 91.9473L112.322 93.0507C115.382 96.6114 117.066 101.149 117.071 105.844V120.58H122.405V113.176C122.381 108.303 123.839 103.537 126.586 99.5114C131.464 92.451 126.371 88.9408 123.212 88.541C122.356 88.4372 121.533 88.1463 120.802 87.6889C120.071 87.2315 119.45 86.6188 118.982 85.8944C118.617 85.3105 118.132 84.8104 117.56 84.4268C116.987 84.0432 116.341 83.7848 115.662 83.6684C114.983 83.552 114.287 83.5803 113.619 83.7514C112.952 83.9225 112.329 84.2326 111.789 84.6613C111.25 85.0901 110.807 85.6279 110.49 86.2395C110.173 86.8511 109.989 87.5228 109.95 88.2106C109.91 88.8983 110.016 89.5867 110.261 90.2306C110.506 90.8745 110.884 91.4595 111.37 91.9473Z" fill="url(#paint3_linear_967_2130)"/>
<path fill-rule="evenodd" clip-rule="evenodd" d="M41 112.826C41 112.261 41.2252 111.719 41.6261 111.32C42.027 110.92 42.5706 110.696 43.1376 110.696C43.7045 110.696 44.2482 110.92 44.6491 111.32C45.0499 111.719 45.2751 112.261 45.2751 112.826V121.348C45.2751 123.043 45.9508 124.669 47.1534 125.867C48.356 127.066 49.9871 127.739 51.6878 127.739H60.2381C60.805 127.739 61.3487 127.964 61.7496 128.363C62.1505 128.763 62.3757 129.305 62.3757 129.87C62.3757 130.435 62.1505 130.976 61.7496 131.376C61.3487 131.776 60.805 132 60.2381 132H51.6878C48.8532 132 46.1348 130.878 44.1304 128.88C42.126 126.882 41 124.173 41 121.348V112.826ZM142 53.1739C142 53.7389 141.775 54.2808 141.374 54.6804C140.973 55.0799 140.429 55.3043 139.862 55.3043C139.296 55.3043 138.752 55.0799 138.351 54.6804C137.95 54.2808 137.725 53.7389 137.725 53.1739V44.6522C137.725 42.9571 137.049 41.3314 135.847 40.1328C134.644 38.9342 133.013 38.2609 131.312 38.2609H122.762C122.195 38.2609 121.651 38.0364 121.25 37.6369C120.85 37.2373 120.624 36.6955 120.624 36.1304C120.624 35.5654 120.85 35.0235 121.25 34.624C121.651 34.2245 122.195 34 122.762 34H131.312C134.147 34 136.865 35.1223 138.87 37.1199C140.874 39.1176 142 41.827 142 44.6522V53.1739Z" fill="url(#paint4_linear_967_2130)"/>
<defs>
<linearGradient id="paint0_linear_967_2130" x1="0" y1="0" x2="165.124" y2="183.029" gradientUnits="userSpaceOnUse">
<stop offset="0.125652" stop-color="#F5F5F5"/>
<stop offset="0.869819" stop-color="#E5E5E5"/>
</linearGradient>
<linearGradient id="paint1_linear_967_2130" x1="78.6919" y1="66.7936" x2="105.408" y2="64.1857" gradientUnits="userSpaceOnUse">
<stop offset="0.323057" stop-color="#F98D1B"/>
<stop offset="1" stop-color="#FFC180"/>
</linearGradient>
<linearGradient id="paint2_linear_967_2130" x1="56.4219" y1="105.42" x2="136.069" y2="96.5596" gradientUnits="userSpaceOnUse">
<stop offset="0.323057" stop-color="#F98D1B"/>
<stop offset="1" stop-color="#FFC180"/>
</linearGradient>
<linearGradient id="paint3_linear_967_2130" x1="54.3635" y1="120.58" x2="138.633" y2="111.029" gradientUnits="userSpaceOnUse">
<stop offset="0.323057" stop-color="#F98D1B"/>
<stop offset="1" stop-color="#FFC180"/>
</linearGradient>
<linearGradient id="paint4_linear_967_2130" x1="41" y1="132" x2="156.147" y2="121.446" gradientUnits="userSpaceOnUse">
<stop offset="0.323057" stop-color="#F98D1B"/>
<stop offset="1" stop-color="#FFC180"/>
</linearGradient>
</defs>
</svg>
