<svg width="184" height="166" viewBox="0 0 184 166" fill="none" xmlns="http://www.w3.org/2000/svg">
<rect width="184" height="166" rx="20" fill="url(#paint0_linear_967_2115)"/>
<path d="M84.134 54.2782C85.25 50.3317 82.9554 46.2277 79.0089 45.1117C75.0624 43.9957 70.9585 46.2903 69.8425 50.2368C68.7265 54.1833 71.021 58.2873 74.9675 59.4033C78.914 60.5193 83.018 58.2247 84.134 54.2782Z" fill="url(#paint1_linear_967_2115)"/>
<path d="M79.0665 89.8125C79.1659 89.5055 79.3415 89.2331 79.6333 89.0393C79.6333 89.0393 79.9994 88.7736 80.6507 88.3227C80.4791 86.0785 80.3474 84.0001 80.3956 82.4519L80.3972 82.3951C79.2755 82.0494 78.2267 81.5998 77.2575 81.0449C73.3826 78.8348 71.5514 75.4329 70.6977 72.9686C69.8414 70.5082 69.6559 68.3057 69.6499 66.8878C69.6499 66.6313 69.6559 66.4732 69.6575 66.4405C69.6769 66.0072 69.7816 65.582 69.9657 65.1892C70.1498 64.7965 70.4096 64.4439 70.7303 64.1518C71.0509 63.8598 71.4261 63.6339 71.8343 63.4871C72.2425 63.3404 72.6756 63.2757 73.1089 63.2968C74.9212 63.3807 76.3315 64.9236 76.2526 66.7429C76.2519 66.7604 76.2513 66.8093 76.2513 66.9007C76.2338 67.7455 76.4629 70.394 77.7044 72.4836C78.4056 73.677 79.3055 74.5848 80.4444 75.2586C80.4312 74.7288 80.4131 74.1992 80.3899 73.6698C81.88 74.8136 83.4891 75.7933 85.1895 76.5916C85.6015 76.6213 86.0237 76.6411 86.4674 76.6418C87.1167 76.6418 87.8031 76.6032 88.5059 76.5381C88.9948 75.5102 90.3525 74.8701 92.1342 74.8701C92.6185 74.8701 93.1156 74.9189 93.6121 75.0156C94.1697 75.1239 94.6873 75.287 95.159 75.4887C95.0239 75.0202 94.7615 74.5983 94.4011 74.2699C94.0407 73.9414 93.5963 73.7193 93.1173 73.6282C87.1953 72.4952 83.5086 69.7562 81.2057 67.3025C80.3995 66.4424 79.6768 65.5077 79.0474 64.511C78.6067 63.2192 78.0372 62.2064 77.301 61.6429C76.4398 60.9834 75.7201 60.409 71.7438 60.6526C63.9438 61.1299 59.1099 75.0648 58.4844 90.0142C58.9212 89.8803 59.3756 89.8123 59.8326 89.8125H79.0665ZM64.9771 119.963V118.203H67.6907C67.928 120.27 69.6819 121.854 71.7845 121.855C71.83 121.855 71.8752 121.854 71.9208 121.852C73.9916 121.785 75.6508 120.202 75.8812 118.203H117.136V119.963C117.136 120.314 117.275 120.649 117.522 120.897C117.77 121.145 118.106 121.284 118.456 121.284H127.039C127.389 121.284 127.725 121.145 127.973 120.897C128.22 120.649 128.36 120.314 128.36 119.963V118.203H130.835C131.009 118.203 131.181 118.168 131.341 118.102C131.501 118.036 131.647 117.938 131.769 117.816C131.892 117.693 131.989 117.548 132.055 117.387C132.122 117.227 132.156 117.055 132.156 116.882V104.228C132.156 103.878 132.017 103.542 131.769 103.294C131.522 103.047 131.186 102.908 130.835 102.908H115.284C114.981 103.076 114.679 103.245 114.374 103.405C108.975 106.25 103.271 107.801 97.3966 108.032C95.3683 109.39 93.9835 110.235 93.7597 110.37C93.5534 110.508 93.2863 110.585 92.9918 110.585C92.0358 110.585 90.6807 109.602 89.1869 108.066H51.3314C50.8554 108.066 50.3958 107.997 49.9568 107.878V116.882C49.9568 117.232 50.0959 117.568 50.3435 117.816C50.5912 118.063 50.927 118.203 51.2773 118.203H53.7531V119.963C53.7531 120.314 53.8923 120.649 54.1399 120.897C54.3875 121.145 54.7234 121.284 55.0736 121.284H63.6566C64.0069 121.284 64.3427 121.145 64.5904 120.897C64.838 120.649 64.9771 120.314 64.9771 119.963Z" fill="url(#paint2_linear_967_2115)"/>
<path d="M98.4541 107.316C104.31 106.917 109.558 105.196 114.065 102.821C121.833 98.7221 127.495 92.774 131.29 87.8811C135.079 82.9778 137.003 79.0821 137.102 78.886C138.228 76.5957 137.284 73.826 134.993 72.7003C132.705 71.5746 129.939 72.5151 128.811 74.8015H128.81C128.81 74.8015 128.81 74.8015 128.807 74.8074H128.808C128.689 75.0603 125.586 81.1127 119.93 86.8904C119.513 87.3165 119.088 87.7348 118.655 88.1451C114.644 95.5124 104.493 103.187 98.4541 107.316ZM51.3323 107.405H88.5671C86.5336 105.168 84.3169 102.052 82.5273 99.0555H59.8328C58.8539 99.0553 57.9006 98.7422 57.1123 98.1619H51.3323C48.7791 98.1619 46.71 100.23 46.71 102.784C46.71 105.336 48.7791 107.406 51.3323 107.406V107.405Z" fill="url(#paint3_linear_967_2115)"/>
<path d="M124.588 74.5631C127.978 72.2549 128.856 67.6357 126.547 64.2458C124.239 60.8559 119.62 59.979 116.23 62.2872C112.84 64.5954 111.963 69.2146 114.271 72.6045C116.579 75.9944 121.198 76.8713 124.588 74.5631Z" fill="url(#paint4_linear_967_2115)"/>
<path d="M59.8327 98.3959H82.1401C80.8057 96.094 79.7537 93.9089 79.271 92.3082C79.1654 91.9566 78.9373 91.1997 78.9594 90.4724H59.8327C57.6451 90.4724 55.8713 92.2455 55.8713 94.4338C55.8713 96.6215 57.6451 98.3959 59.8327 98.3959Z" fill="url(#paint5_linear_967_2115)"/>
<path d="M93.4183 109.805C93.4183 109.805 126.153 89.9884 118.561 78.5515C114.96 73.1264 106.097 75.3342 97.7748 79.1517C97.7395 79.1246 97.7012 79.1015 97.6656 79.0751C97.3064 79.8367 96.0473 79.839 95.6073 79.839C94.7391 79.839 93.5645 79.6977 92.4147 79.4574L92.4151 79.4587C92.4608 79.89 92.4206 80.3261 92.2968 80.7418C92.1729 81.1575 91.9678 81.5445 91.6934 81.8804C91.6766 81.9012 91.6578 81.9191 91.6406 81.9395C91.8209 81.9075 92.0035 81.8907 92.1866 81.889C92.7359 81.889 93.2826 82.0296 93.7675 82.2947C96.6445 83.8648 99.2726 84.6623 101.577 84.663C103.276 84.6584 104.701 84.2612 106.063 83.4122C107.262 82.6605 108.057 81.7137 108.423 81.2169C108.681 80.8713 108.816 80.6332 108.841 80.589C109.119 80.051 109.539 79.6001 110.057 79.2858C110.574 78.9715 111.168 78.8061 111.773 78.8077C112.29 78.8077 112.808 78.9335 113.271 79.1695C113.658 79.3656 114.002 79.6365 114.283 79.9663C114.565 80.2962 114.778 80.6786 114.911 81.0914C115.046 81.5037 115.098 81.9387 115.063 82.3711C115.029 82.8035 114.909 83.2248 114.71 83.6106C114.371 84.2507 113.413 85.8597 111.569 87.5043C110.007 88.9086 106.632 91.2663 101.614 91.2663H101.577C98.1492 91.2676 94.4562 90.1987 90.5997 88.0876C89.0033 87.2145 88.414 85.2047 89.2869 83.6073C89.3978 83.4052 89.5328 83.2227 89.679 83.0517C89.6097 83.0632 89.5404 83.0764 89.4698 83.0837C88.4722 83.1883 87.47 83.2419 86.467 83.2441H86.4432C85.4602 83.2441 84.5163 83.1817 83.6056 83.0685C83.0367 84.4829 82.8278 86.0164 82.9975 87.5314C81.1244 88.7733 79.9974 89.59 79.9974 89.59C77.2052 91.4442 90.6252 111.66 93.4183 109.805Z" fill="url(#paint6_linear_967_2115)"/>
<path d="M90.9167 87.5077C94.9234 89.7007 98.4843 90.6065 101.577 90.6052H101.614C105.936 90.6052 109.153 88.7863 111.129 87.0112C113.132 85.224 114.022 83.4978 114.122 83.309C114.44 82.6852 114.498 81.9604 114.282 81.2942C114.066 80.628 113.594 80.0749 112.97 79.7566C112.346 79.4382 111.622 79.3807 110.955 79.5967C110.289 79.8127 109.736 80.2845 109.418 80.9084C109.379 80.9787 109.228 81.2405 108.954 81.6085C108.47 82.2635 107.616 83.2159 106.412 83.9715C105.2 84.7271 103.669 85.3171 101.577 85.3223C99.5192 85.321 96.8562 84.7324 93.4507 82.8729C93.1464 82.7064 92.8123 82.6016 92.4675 82.5643C92.1227 82.527 91.7739 82.558 91.441 82.6555C91.1082 82.7531 90.7978 82.9153 90.5277 83.1328C90.2576 83.3503 90.0329 83.6189 89.8666 83.9233C89.7002 84.2276 89.5953 84.5617 89.558 84.9065C89.5208 85.2514 89.5518 85.6002 89.6493 85.933C89.7468 86.2659 89.9089 86.5763 90.1264 86.8464C90.3438 87.1166 90.6124 87.3413 90.9167 87.5077ZM88.2002 40.3205V57.4852C88.2002 57.8354 88.3393 58.1713 88.587 58.4189C88.8346 58.6666 89.1705 58.8057 89.5207 58.8057H117.084C117.434 58.8057 117.77 58.6666 118.018 58.4189C118.265 58.1713 118.405 57.8354 118.405 57.4852V40.3205C118.405 39.9703 118.265 39.6344 118.018 39.3868C117.77 39.1391 117.434 39 117.084 39H89.5207C89.1705 39 88.8346 39.1391 88.587 39.3868C88.3393 39.6344 88.2002 39.9703 88.2002 40.3205ZM105.966 43.7273C106.304 43.6084 106.662 43.5573 107.02 43.5768C107.378 43.5963 107.729 43.6862 108.052 43.8412C108.375 43.9962 108.664 44.2133 108.904 44.4802C109.143 44.747 109.327 45.0584 109.446 45.3965C109.565 45.7346 109.616 46.0928 109.597 46.4507C109.577 46.8085 109.487 47.159 109.332 47.4822C109.177 47.8053 108.96 48.0948 108.693 48.334C108.426 48.5732 108.115 48.7575 107.777 48.8764C107.094 49.1166 106.344 49.0756 105.691 48.7625C105.039 48.4495 104.537 47.89 104.297 47.2072C104.057 46.5244 104.098 45.7741 104.411 45.1215C104.724 44.4689 105.283 43.9674 105.966 43.7273ZM98.1704 47.5289C98.5023 47.4558 98.8496 47.5175 99.1361 47.7004C99.4225 47.8833 99.6246 48.1725 99.6978 48.5044L99.9025 49.4324L101.302 48.9405L100.702 48.2221C100.485 47.9612 100.379 47.6244 100.41 47.2858C100.44 46.9473 100.604 46.6347 100.865 46.4167C101.126 46.1991 101.463 46.094 101.801 46.1245C102.14 46.1549 102.452 46.3185 102.67 46.5792L104.737 49.0557C104.777 49.1039 104.808 49.156 104.84 49.2075C105.076 49.4547 105.258 49.7496 105.371 50.0725C105.477 50.3721 105.522 50.6895 105.505 51.0066C105.487 51.3237 105.408 51.6344 105.27 51.9207C105.133 52.2071 104.941 52.4636 104.704 52.6756C104.468 52.8877 104.192 53.051 103.892 53.1564L101.084 54.1441C100.745 54.2635 100.384 54.3058 100.027 54.2679C99.6692 54.2301 99.3247 54.113 99.0182 53.9253C98.7117 53.7376 98.4509 53.4839 98.2548 53.1827C98.0587 52.8816 97.9322 52.5404 97.8845 52.1842L97.1949 49.0564C97.1218 48.7245 97.1835 48.3771 97.3664 48.0907C97.5493 47.8042 97.8385 47.6022 98.1704 47.5289ZM96.058 40.9279H97.2959V42.1658H96.058V40.9279ZM94.1321 40.9279H95.37V42.1658H94.1321V40.9279ZM92.2062 40.9279H93.4441V42.1658H92.2062V40.9279ZM90.2809 40.9279H91.5189V42.1658H90.2809V40.9279ZM93.4854 75.6638C91.6684 75.3116 90.001 75.6823 89.3084 76.5056C89.8366 76.532 90.3507 76.6855 90.8069 76.9532C91.263 77.2208 91.6478 77.5947 91.9285 78.0429L91.9995 78.6966C92.0774 78.6883 92.153 78.6771 92.2303 78.6679L92.257 78.7434C94.45 79.2413 96.9622 79.4083 97.0962 78.719C97.1751 78.3117 97.0549 77.8927 96.7832 77.4969C96.9863 77.4113 97.1875 77.3213 97.3867 77.2269C101.014 75.507 103.247 72.6145 104.584 69.6613C106.494 65.4576 106.66 61.1231 106.661 59.6947C106.661 59.3847 106.654 59.2111 106.654 59.2068L105.994 59.2365L105.994 59.2358C105.994 59.2365 106.001 59.395 106.001 59.6947C106.003 61.0703 105.832 65.3285 103.983 69.3879C102.66 72.2794 100.519 75.0633 96.9688 76.6947C96.7568 76.7921 96.5406 76.8855 96.3184 76.9747C95.6651 76.3811 94.6632 75.8922 93.4854 75.6638Z" fill="url(#paint7_linear_967_2115)"/>
<path d="M86.444 82.5831H86.4685C87.3994 82.5831 88.3775 82.5316 89.4035 82.4256C89.7509 82.3929 90.0883 82.2916 90.3962 82.1277C90.7042 81.9638 90.9767 81.7405 91.1979 81.4707C91.4191 81.2009 91.5846 80.89 91.685 80.5559C91.7853 80.2217 91.8184 79.871 91.7824 79.524C91.7465 79.177 91.6421 78.8405 91.4753 78.5341C91.3086 78.2276 91.0828 77.9573 90.8109 77.7386C90.5391 77.5199 90.2266 77.3573 89.8916 77.26C89.5565 77.1628 89.2055 77.1329 88.8588 77.1721C88.0038 77.2613 87.2069 77.3019 86.4688 77.3019C83.6047 77.2979 81.6369 76.6997 80.2048 75.8847C78.7767 75.0647 77.8296 73.9987 77.1357 72.8182C75.7449 70.477 75.5772 67.6149 75.5914 66.8877C75.5914 66.7801 75.5934 66.7173 75.5941 66.7078V66.7071C75.6243 66.008 75.3759 65.3254 74.9033 64.8093C74.4308 64.2933 73.7727 63.9858 73.0736 63.9545C72.3746 63.9233 71.6917 64.1707 71.1749 64.6426C70.6581 65.1144 70.3497 65.772 70.3175 66.4711C70.3155 66.5077 70.3105 66.6523 70.3105 66.8877C70.3138 67.8143 70.3984 70.0974 71.3217 72.7512C72.2341 75.3852 74.0891 78.4774 77.585 80.471C79.8958 81.7954 82.8464 82.5831 86.444 82.5831Z" fill="url(#paint8_linear_967_2115)"/>
<defs>
<linearGradient id="paint0_linear_967_2115" x1="0" y1="0" x2="165.124" y2="183.029" gradientUnits="userSpaceOnUse">
<stop offset="0.125652" stop-color="#F5F5F5"/>
<stop offset="0.869819" stop-color="#E5E5E5"/>
</linearGradient>
<linearGradient id="paint1_linear_967_2115" x1="82.1133" y1="61.424" x2="85.2733" y2="44.7127" gradientUnits="userSpaceOnUse">
<stop offset="0.323057" stop-color="#F98D1B"/>
<stop offset="1" stop-color="#FFC180"/>
</linearGradient>
<linearGradient id="paint2_linear_967_2115" x1="49.9568" y1="121.855" x2="143.13" y2="110.735" gradientUnits="userSpaceOnUse">
<stop offset="0.323057" stop-color="#F98D1B"/>
<stop offset="1" stop-color="#FFC180"/>
</linearGradient>
<linearGradient id="paint3_linear_967_2115" x1="46.71" y1="107.406" x2="145.939" y2="84.612" gradientUnits="userSpaceOnUse">
<stop offset="0.323057" stop-color="#F98D1B"/>
<stop offset="1" stop-color="#FFC180"/>
</linearGradient>
<linearGradient id="paint4_linear_967_2115" x1="118.45" y1="78.7425" x2="131.605" y2="67.9628" gradientUnits="userSpaceOnUse">
<stop offset="0.323057" stop-color="#F98D1B"/>
<stop offset="1" stop-color="#FFC180"/>
</linearGradient>
<linearGradient id="paint5_linear_967_2115" x1="55.8713" y1="98.3959" x2="83.6557" y2="90.2036" gradientUnits="userSpaceOnUse">
<stop offset="0.323057" stop-color="#F98D1B"/>
<stop offset="1" stop-color="#FFC180"/>
</linearGradient>
<linearGradient id="paint6_linear_967_2115" x1="79.6174" y1="109.925" x2="125.219" y2="105.229" gradientUnits="userSpaceOnUse">
<stop offset="0.323057" stop-color="#F98D1B"/>
<stop offset="1" stop-color="#FFC180"/>
</linearGradient>
<linearGradient id="paint7_linear_967_2115" x1="88.2002" y1="90.6052" x2="122.831" y2="88.8025" gradientUnits="userSpaceOnUse">
<stop offset="0.323057" stop-color="#F98D1B"/>
<stop offset="1" stop-color="#FFC180"/>
</linearGradient>
<linearGradient id="paint8_linear_967_2115" x1="70.3105" y1="82.5831" x2="94.7548" y2="80.076" gradientUnits="userSpaceOnUse">
<stop offset="0.323057" stop-color="#F98D1B"/>
<stop offset="1" stop-color="#FFC180"/>
</linearGradient>
</defs>
</svg>
