<svg width="184" height="166" viewBox="0 0 184 166" fill="none" xmlns="http://www.w3.org/2000/svg">
<rect width="184" height="166" rx="20" fill="url(#paint0_linear_967_2146)"/>
<path d="M121.531 93.4333C120.394 93.0216 119.299 92.5049 118.259 91.89C117.807 91.6259 117.451 91.2263 117.24 90.7479C113.335 81.9509 105.387 74.6046 98.9824 68.6936C97.6397 67.4589 96.3741 66.286 95.232 65.1902C85.7405 56.0845 81.7124 39.8641 81.6661 39.6943C81.6037 39.4094 81.4619 39.148 81.257 38.9404C81.0521 38.7328 80.7927 38.5875 80.5086 38.5214C80.228 38.4561 79.9348 38.4706 79.662 38.5633C79.3893 38.6561 79.1479 38.8233 78.9653 39.0461C78.6257 39.4319 46.2928 79.4352 66.6186 113.126C69.1872 117.572 72.8592 121.279 77.2795 123.891C81.6998 126.503 86.719 127.93 91.8521 128.035H92.5929C110.943 127.541 117.904 110.225 117.965 110.055C118.463 108.667 118.855 107.243 119.138 105.795C119.214 105.396 119.398 105.025 119.67 104.723C119.943 104.421 120.292 104.199 120.682 104.082L121.083 103.99C121.903 103.854 122.648 103.429 123.183 102.792C123.718 102.156 124.007 101.349 124 100.517V96.7669C124.004 96.0189 123.766 95.2896 123.321 94.6886C122.876 94.0875 122.247 93.647 121.531 93.4333ZM100.927 116.182C98.9766 117.522 96.6722 118.253 94.306 118.281C91.6955 118.246 89.173 117.332 87.145 115.688C85.8562 116.122 84.5074 116.351 83.1477 116.367C81.6456 116.397 80.1651 116.007 78.8727 115.241C76.9942 114.03 75.6307 112.166 75.0452 110.009C73.9286 109.781 72.8751 109.312 71.9585 108.635C70.7792 107.773 69.8875 106.576 69.4001 105.199C68.9127 103.822 68.8523 102.33 69.2268 100.919C69.2268 100.625 69.3966 100.347 69.4737 100.085C68.7665 99.7325 68.1204 99.2687 67.56 98.7115C66.6218 97.8231 65.9457 96.694 65.6055 95.4475C65.2653 94.2009 65.2741 92.8849 65.6308 91.643C66.3824 89.2912 67.5884 87.1099 69.1805 85.2228C68.6558 82.7225 69.5663 79.9908 71.8659 77.0585C71.5382 75.1155 71.7684 73.1194 72.5296 71.3019C72.9999 70.1375 73.8468 69.1644 74.935 68.5377C76.0232 67.9111 77.29 67.6671 78.5331 67.8448C80.4879 68.1494 82.3257 68.9711 83.8561 70.2248C85.3866 71.4785 86.554 73.1185 87.2376 74.975C91.2194 76.9196 105.48 84.235 106.931 89.5132C107.148 90.196 107.148 90.9294 106.931 91.6122C107.903 94.3748 106.931 97.1373 104.261 99.4986C104 99.7264 103.721 99.9328 103.427 100.116C104.785 103.342 107.517 111.845 100.927 116.182Z" fill="url(#paint1_linear_967_2146)"/>
<path d="M103.936 90.6555C103.683 91.0414 103.349 91.3681 102.957 91.6131C102.565 91.8581 102.126 92.0158 101.668 92.0753C98.0871 92.7235 92.4076 89.5443 89.7839 87.8466C89.6543 86.9462 89.3998 86.0684 89.0277 85.2383C89.107 83.1676 88.936 81.0948 88.5184 79.065C95.3091 82.5992 103.226 87.6305 103.952 90.3005C104.014 90.532 103.936 90.6092 103.936 90.6555ZM104.044 94.5292C103.698 95.571 103.054 96.4885 102.192 97.1683C101.754 97.5432 101.266 97.8549 100.742 98.0943C100.017 98.4295 99.2382 98.6333 98.4421 98.6963C95.3021 99.1303 92.1062 98.9043 89.0586 98.0326H88.8271C87.865 97.6969 86.9972 97.136 86.296 96.3967C85.7092 95.7561 85.3416 94.9452 85.2465 94.0817C86.0546 94.0125 86.8361 93.7596 87.5315 93.3423C88.227 92.9251 88.8179 92.3545 89.2592 91.6741C89.3363 91.5534 89.3985 91.4238 89.4444 91.2882C92.0372 92.8316 96.7444 95.3163 100.788 95.3163C101.306 95.3194 101.822 95.2729 102.331 95.1774C102.929 95.0383 103.505 94.8203 104.044 94.5292ZM99.3063 113.605C98.0727 114.506 96.6136 115.048 95.0908 115.17C93.568 115.293 92.041 114.992 90.6791 114.299C95.1867 111.739 98.8621 107.935 101.266 103.342C102.254 106.428 102.918 111.166 99.3063 113.605ZM98.581 101.798C96.7753 105.07 93.133 110.333 86.9596 112.602C84.2434 113.589 82.0827 113.62 80.5239 112.694C79.5584 112.079 78.8086 111.178 78.3787 110.117C79.2333 109.917 80.0475 109.572 80.7863 109.098C84.0218 107.107 86.7863 104.438 88.8888 101.274C90.8508 101.768 92.8694 102.002 94.8924 101.968C96.0808 101.968 97.2846 101.906 98.581 101.798ZM86.0182 100.101C84.2057 102.642 81.9018 104.793 79.2429 106.428C78.3832 106.97 77.3691 107.214 76.3569 107.123C75.481 107.025 74.6458 106.701 73.9339 106.181C73.2452 105.679 72.7277 104.978 72.4516 104.172C72.1755 103.365 72.1542 102.494 72.3905 101.675C72.4642 101.398 72.5517 101.125 72.6529 100.857C73.6124 100.922 74.5755 100.807 75.4926 100.517C78.2012 99.8072 80.7619 98.621 83.055 97.014C83.302 97.4747 83.6025 97.9046 83.9501 98.295C84.5337 99.0083 85.2327 99.6186 86.0182 100.101ZM81.8358 93.8656C81.0332 94.9459 78.7491 96.3195 74.4895 97.6159C73.6633 97.8721 72.7831 97.8988 71.943 97.6931C71.1074 97.4903 70.3405 97.0696 69.7206 96.4738C69.1761 95.974 68.7822 95.3321 68.5831 94.6204C68.3841 93.9086 68.3878 93.1554 68.5939 92.4457C69.0576 90.9624 69.7615 89.5651 70.6774 88.3096C73.4554 91.7512 79.0114 93.2791 81.8358 93.8656ZM86.7744 88.7572C86.8106 89.1955 86.7195 89.6349 86.5121 90.0227C86.0491 90.8098 84.7835 91.0259 83.7495 91.0722C80.9406 90.6555 73.7795 88.8498 72.3751 85.1457C72.3751 85.1457 72.3751 85.0223 72.2979 84.9451C72.1178 84.1479 72.1128 83.321 72.2833 82.5216C72.4539 81.7223 72.7958 80.9694 73.2857 80.3151C75.4772 83.4018 79.8603 85.655 86.3886 86.8897C86.5835 87.4323 86.7079 87.9977 86.759 88.572C86.7507 88.6341 86.7559 88.6973 86.7744 88.7572ZM85.9256 83.695C80.5239 82.5375 76.9434 80.6083 75.5235 78.1236C75.0619 77.238 74.8107 76.258 74.7893 75.2597C74.7679 74.2613 74.9769 73.2714 75.4 72.3669C75.5906 71.9068 75.9142 71.5141 76.3294 71.2392C76.7446 70.9642 77.2325 70.8195 77.7305 70.8236H78.0854C84.7372 71.8267 85.8021 80.0219 85.9256 83.695Z" fill="url(#paint2_linear_967_2146)"/>
<defs>
<linearGradient id="paint0_linear_967_2146" x1="0" y1="0" x2="165.124" y2="183.029" gradientUnits="userSpaceOnUse">
<stop offset="0.125652" stop-color="#F5F5F5"/>
<stop offset="0.869819" stop-color="#E5E5E5"/>
</linearGradient>
<linearGradient id="paint1_linear_967_2146" x1="59.9131" y1="128.035" x2="133.293" y2="123.365" gradientUnits="userSpaceOnUse">
<stop offset="0.323057" stop-color="#F98D1B"/>
<stop offset="1" stop-color="#FFC180"/>
</linearGradient>
<linearGradient id="paint2_linear_967_2146" x1="68.4365" y1="115.197" x2="109.166" y2="112.29" gradientUnits="userSpaceOnUse">
<stop offset="0.323057" stop-color="#F98D1B"/>
<stop offset="1" stop-color="#FFC180"/>
</linearGradient>
</defs>
</svg>
