<svg width="184" height="166" viewBox="0 0 184 166" fill="none" xmlns="http://www.w3.org/2000/svg">
<rect width="184" height="166" rx="20" fill="url(#paint0_linear_967_2138)"/>
<path d="M87.3133 117.808C85.2593 117.808 83.3427 117.233 81.7339 116.243V117.711C81.7339 120.582 84.2378 122.917 87.3133 122.917H95.7913C98.8668 122.917 101.371 120.582 101.371 117.711V116.243C99.7619 117.233 97.8453 117.808 95.7913 117.808H87.3133ZM87.3196 108.787C85.2625 108.787 83.3458 108.182 81.7339 107.141V107.985C81.7339 110.79 84.2378 113.071 87.3133 113.071H95.7913C98.8668 113.071 101.371 110.79 101.371 107.985V107.141C99.7066 108.218 97.7667 108.789 95.785 108.787H87.3196ZM95.785 104.05C96.2207 104.05 96.647 104 97.0543 103.905C96.0771 102.107 95.0335 100.646 93.9852 99.6297C92.1375 97.8366 90.9686 97.8273 89.1052 99.6423C88.0648 100.656 87.0259 102.113 86.0503 103.905C86.4576 104 86.8839 104.05 87.3196 104.05H95.785ZM87.037 70.3339C86.0345 70.3339 85.0651 70.195 84.1478 69.936C85.4857 71.4719 88.0869 73.7772 90.1664 73.7772H92.9459C95.004 73.7772 97.5936 71.491 98.9378 69.9408C98.0041 70.2024 97.0389 70.3346 96.0692 70.3339H87.037Z" fill="url(#paint1_linear_967_2138)"/>
<path d="M131.55 75.1334C131.039 71.4991 130.29 67.2869 128.625 63.5894C125.68 57.058 121.257 55.686 118.064 55.686C113.498 55.686 109.604 57.9611 108.371 61.3459C106.422 66.7042 104.856 72.2889 98.3153 76.7516C94.7906 79.2387 88.513 79.3658 84.7773 76.7453C78.2617 72.2979 76.6877 66.728 74.7332 61.3459C73.5001 57.9611 69.6053 55.686 65.0395 55.686C61.8472 55.686 57.4235 57.058 54.479 63.5894C52.8134 67.2869 52.0651 71.4991 51.5536 75.1318C50.3884 83.3888 51.6515 91.3727 55.4153 99.5381C58.486 106.193 62.1519 112.471 69.8642 112.471C74.3858 112.471 78.2696 110.22 79.5279 106.87C80.7467 103.626 82.8244 99.1482 85.8004 96.2495C89.5021 92.6447 93.5768 92.6316 97.2844 96.2322C100.273 99.1324 102.355 103.618 103.576 106.87C104.834 110.22 108.718 112.471 113.24 112.471C120.836 112.471 124.494 106.465 127.688 99.5381C131.452 91.3727 132.715 83.3888 131.55 75.1334ZM61.9766 65.4034C63.4481 63.9383 65.6536 63.4678 67.5971 64.2035C68.8206 64.6677 69.4364 66.0349 68.9722 67.2585C68.508 68.4804 67.1408 69.0962 65.9189 68.6336C65.4738 68.4645 65.0259 68.8846 65.1958 69.3361C65.787 70.8873 64.6374 72.5489 62.9839 72.5489C62.0303 72.5489 61.132 71.968 60.7705 71.0238C60.0284 69.0804 60.5021 66.8732 61.9766 65.4034ZM61.3341 84.9865C59.8579 83.5167 59.3859 81.3111 60.1279 79.3661C60.5936 78.1441 61.9624 77.5316 63.1844 77.9989C64.4064 78.4646 65.019 79.8334 64.5516 81.0554C64.3827 81.4998 64.8268 81.9281 65.2747 81.7579C66.4983 81.2938 67.8655 81.9095 68.3281 83.1331C68.7922 84.355 68.1765 85.7238 66.953 86.1864C64.9908 86.9286 62.7943 86.4422 61.3341 84.9865ZM73.6343 97.9104C73.1717 99.1339 71.8045 99.7497 70.581 99.2855C70.1331 99.1152 69.6891 99.5438 69.8579 99.9881C70.4525 101.543 69.2976 103.201 67.646 103.201C66.6925 103.201 65.7941 102.621 65.4342 101.677C64.6921 99.7323 65.1642 97.5268 66.6404 96.0569C68.1102 94.5918 70.3157 94.1198 72.2592 94.857C73.4828 95.3212 74.0985 96.6884 73.6343 97.9104ZM79.2721 88.5325C77.796 90.0017 75.5901 90.4655 73.6517 89.7323C72.4281 89.2682 71.8124 87.901 72.2766 86.6774C72.7392 85.4554 74.1064 84.8397 75.3299 85.3023C75.7767 85.472 76.2221 85.0492 76.053 84.5997C75.5857 83.3778 76.1983 82.009 77.4202 81.5432C78.6422 81.0775 80.011 81.6901 80.4767 82.9104C81.2204 84.8555 80.7467 87.0626 79.2721 88.5325ZM108.569 87.4889C107.366 88.0303 105.971 87.4864 105.439 86.3017C105.243 85.8692 104.616 85.867 104.419 86.3017C103.882 87.4952 102.479 88.0257 101.287 87.4889C100.095 86.9521 99.5641 85.5502 100.101 84.3566C100.953 82.4637 102.85 81.2401 104.929 81.2401C107.008 81.2401 108.904 82.4637 109.757 84.3566C110.294 85.5502 109.763 86.9521 108.569 87.4889ZM112.864 70.806C113.328 69.584 114.694 68.9683 115.917 69.4309C116.075 69.4909 116.326 69.494 116.515 69.3061C116.7 69.123 116.7 68.8878 116.64 68.7299C116.174 67.5079 116.785 66.1391 118.007 65.6718C119.229 65.2061 120.598 65.8186 121.065 67.0406C121.808 68.9841 121.334 71.1912 119.859 72.661C118.382 74.1318 116.176 74.5935 114.239 73.8609C113.015 73.3967 112.4 72.0295 112.864 70.806ZM118.655 98.4614C118.191 99.6849 116.825 100.301 115.601 99.8365C115.151 99.6699 114.709 100.094 114.878 100.539C115.472 102.09 114.321 103.753 112.666 103.753C111.713 103.753 110.815 103.172 110.453 102.228C109.711 100.285 110.185 98.0777 111.659 96.6079C113.131 95.1428 115.336 94.6723 117.28 95.408C118.503 95.8722 119.119 97.2394 118.655 98.4614ZM121.785 88.3335C120.777 89.3392 119.42 89.8776 118.041 89.8776C117.411 89.8776 116.774 89.7655 116.165 89.5334C114.943 89.0708 114.327 87.7036 114.79 86.4801C115.254 85.2565 116.621 84.6408 117.845 85.1049C118.292 85.2764 118.739 84.8448 118.566 84.4024C118.101 83.1804 118.713 81.8116 119.935 81.3459C121.157 80.8786 122.526 81.4911 122.992 82.7131C123.734 84.6582 123.26 86.8637 121.785 88.3335Z" fill="url(#paint2_linear_967_2138)"/>
<path d="M101.745 60.0292C101.067 60.4334 100.326 60.7665 99.5352 61.0159C98.1219 61.464 96.6388 61.6152 95.233 61.5038H95.2204C92.833 61.3116 90.2533 61.3126 87.887 61.5038H87.8775C86.4588 61.6174 84.9659 61.4594 83.5675 61.0175C82.7749 60.7665 82.0345 60.4349 81.3572 60.0324C81.3572 63.3598 84.0608 65.5975 87.036 65.5975H96.0682C99.039 65.5975 101.745 63.368 101.745 60.0292ZM79.5962 48.0911C81.3534 50.6565 81.5002 50.8515 81.6254 52.7733C81.7331 54.425 83.0559 55.8882 84.9942 56.5005C85.7858 56.7517 86.6555 56.8483 87.5114 56.7818C90.15 56.5714 92.934 56.5703 95.5957 56.7818C96.4923 56.8503 97.3495 56.7403 98.1086 56.5005C100.047 55.8884 101.37 54.425 101.479 52.7722C101.601 50.8595 101.745 50.663 103.507 48.0913C103.785 47.6844 104.1 47.2267 104.453 46.7028C105.84 44.6541 104.053 42.0833 101.112 42.0833H97.0472C95.6236 42.0833 94.3273 42.722 93.6629 43.7555L92.4869 45.5943C92.0597 46.2616 91.0439 46.2635 90.6172 45.5956L89.4369 43.7519C88.7754 42.7231 87.4804 42.0833 86.0554 42.0833H81.9903C79.0348 42.0833 77.2703 44.6647 78.6494 46.7026C79.0032 47.2266 79.3164 47.6843 79.5962 48.0911Z" fill="url(#paint3_linear_967_2138)"/>
<path fill-rule="evenodd" clip-rule="evenodd" d="M41 112.022C41 111.462 41.2252 110.926 41.6261 110.531C42.027 110.135 42.5706 109.913 43.1376 109.913C43.7045 109.913 44.2482 110.135 44.6491 110.531C45.0499 110.926 45.2751 111.462 45.2751 112.022V120.457C45.2751 122.134 45.9508 123.743 47.1534 124.93C48.356 126.116 49.9871 126.783 51.6878 126.783H60.2381C60.805 126.783 61.3487 127.005 61.7496 127.4C62.1505 127.796 62.3757 128.332 62.3757 128.891C62.3757 129.451 62.1505 129.987 61.7496 130.382C61.3487 130.778 60.805 131 60.2381 131H51.6878C48.8532 131 46.1348 129.889 44.1304 127.912C42.126 125.935 41 123.253 41 120.457V112.022ZM142 52.9783C142 53.5375 141.775 54.0739 141.374 54.4693C140.973 54.8648 140.429 55.087 139.862 55.087C139.296 55.087 138.752 54.8648 138.351 54.4693C137.95 54.0739 137.725 53.5375 137.725 52.9783V44.5435C137.725 42.8657 137.049 41.2566 135.847 40.0703C134.644 38.8839 133.013 38.2174 131.312 38.2174H122.762C122.195 38.2174 121.651 37.9952 121.25 37.5998C120.85 37.2043 120.624 36.668 120.624 36.1087C120.624 35.5494 120.85 35.0131 121.25 34.6176C121.651 34.2222 122.195 34 122.762 34H131.312C134.147 34 136.865 35.1108 138.87 37.0881C140.874 39.0654 142 41.7472 142 44.5435V52.9783Z" fill="url(#paint4_linear_967_2138)"/>
<defs>
<linearGradient id="paint0_linear_967_2138" x1="0" y1="0" x2="165.124" y2="183.029" gradientUnits="userSpaceOnUse">
<stop offset="0.125652" stop-color="#F5F5F5"/>
<stop offset="0.869819" stop-color="#E5E5E5"/>
</linearGradient>
<linearGradient id="paint1_linear_967_2138" x1="81.7339" y1="122.917" x2="104.285" y2="122.173" gradientUnits="userSpaceOnUse">
<stop offset="0.323057" stop-color="#F98D1B"/>
<stop offset="1" stop-color="#FFC180"/>
</linearGradient>
<linearGradient id="paint2_linear_967_2138" x1="51.1353" y1="112.471" x2="142.599" y2="100.892" gradientUnits="userSpaceOnUse">
<stop offset="0.323057" stop-color="#F98D1B"/>
<stop offset="1" stop-color="#FFC180"/>
</linearGradient>
<linearGradient id="paint3_linear_967_2138" x1="78.1726" y1="65.5975" x2="108.624" y2="62.5157" gradientUnits="userSpaceOnUse">
<stop offset="0.323057" stop-color="#F98D1B"/>
<stop offset="1" stop-color="#FFC180"/>
</linearGradient>
<linearGradient id="paint4_linear_967_2138" x1="41" y1="131" x2="156.127" y2="120.339" gradientUnits="userSpaceOnUse">
<stop offset="0.323057" stop-color="#F98D1B"/>
<stop offset="1" stop-color="#FFC180"/>
</linearGradient>
</defs>
</svg>
