<svg width="172" height="172" viewBox="0 0 172 172" fill="none" xmlns="http://www.w3.org/2000/svg">
<path d="M133.71 19.0649C139.22 18.9008 144.677 20.182 149.539 22.7812L153.163 18.7559C149.129 11.8597 142.748 8.5 133.71 8.5C124.672 8.5 118.325 11.9046 114.292 18.8008L117.876 22.7812C122.739 20.1823 128.198 18.9011 133.71 19.0649Z" fill="url(#paint0_linear_1330_1017)"/>
<path d="M121.428 53.9974L130.144 44.3093L111.899 24.0326C110.37 28.7927 109.598 33.7632 109.611 38.7627C109.598 40.0992 110.084 41.3934 110.974 42.3918L121.428 53.9974ZM157.809 38.7601C157.83 33.7545 157.064 28.7766 155.54 24.0088L123.409 59.684L123.341 59.7579L113.272 70.719L103.204 81.6802C102.846 82.0694 102.613 82.5572 102.535 83.0804C102.457 83.6036 102.538 84.1381 102.768 84.6146L104.403 88.0086L104.453 88.1089L106.357 92.0708C106.545 92.4592 106.824 92.796 107.171 93.0516C107.518 93.3072 107.923 93.474 108.349 93.5373C108.776 93.6006 109.211 93.5585 109.618 93.4148C110.024 93.271 110.389 93.03 110.681 92.7126L131.758 69.8316L156.441 42.4076C157.339 41.404 157.827 40.1045 157.809 38.7601ZM146.024 61.8656L137.276 71.5827L156.67 92.7549C156.962 93.0735 157.327 93.3157 157.734 93.4603C158.141 93.605 158.577 93.6476 159.005 93.5845C159.432 93.5215 159.837 93.3546 160.185 93.0985C160.533 92.8424 160.812 92.505 160.999 92.1157L164.673 84.4746C164.903 83.9972 164.983 83.4619 164.905 82.9382C164.826 82.4145 164.592 81.9264 164.232 81.5375L146.024 61.8656Z" fill="url(#paint1_linear_1330_1017)"/>
<path d="M104.302 102.723C101.469 80.7771 83.911 63.7175 62.4 63C58.5523 63.3434 55.5315 66.1061 55.5315 69.4944C55.5315 75.5842 61.3916 76.0567 63.1875 76.0567C65.7664 76.0567 67.5623 74.6152 67.5623 73.3224C67.5623 72.0296 65.7664 70.5881 63.1875 70.5881C62.6073 70.5881 62.0509 70.3577 61.6407 69.9475C61.2305 69.5372 61.0001 68.9809 61.0001 68.4007C61.0001 67.8206 61.2305 67.2642 61.6407 66.854C62.0509 66.4438 62.6073 66.2133 63.1875 66.2133C68.0938 66.2133 71.9371 69.3369 71.9371 73.3224C71.9371 77.3079 68.0938 80.4315 63.1875 80.4315C55.9909 80.4315 51.1567 76.037 51.1567 69.4944C51.1567 67.3661 51.8392 65.3865 53.0007 63.7043C34.5783 67.2851 20.2354 83.0673 17.698 102.723C14.8372 103.415 12.3294 105.132 10.6499 107.549C8.97031 109.966 8.23565 112.916 8.58506 115.838C8.93446 118.761 10.3437 121.454 12.5457 123.407C14.7477 125.36 17.5896 126.437 20.5329 126.435H20.557C27.1127 143.121 42.7417 154.874 61.0001 154.874C79.2584 154.874 94.8874 143.123 101.443 126.435H101.467C104.411 126.437 107.252 125.36 109.454 123.407C111.656 121.454 113.066 118.761 113.415 115.838C113.764 112.916 113.03 109.966 111.35 107.549C109.671 105.132 107.163 103.415 104.302 102.723ZM47.8756 111.123C47.8756 112.283 47.4147 113.396 46.5942 114.217C45.7738 115.037 44.661 115.498 43.5008 115.498C42.3405 115.498 41.2277 115.037 40.4073 114.217C39.5868 113.396 39.1259 112.283 39.1259 111.123V106.748C39.1259 105.588 39.5868 104.475 40.4073 103.655C41.2277 102.834 42.3405 102.373 43.5008 102.373C44.661 102.373 45.7738 102.834 46.5942 103.655C47.4147 104.475 47.8756 105.588 47.8756 106.748V111.123ZM70.7669 132.752C67.7329 134.345 64.3555 135.185 61.0001 135.185C57.6446 135.185 54.2672 134.342 51.2333 132.752C50.972 132.623 50.7393 132.442 50.5489 132.221C50.3584 132.001 50.214 131.744 50.1241 131.467C50.0342 131.189 50.0007 130.897 50.0255 130.606C50.0503 130.316 50.133 130.033 50.2686 129.775C50.4042 129.517 50.5901 129.289 50.8152 129.103C51.0404 128.918 51.3003 128.78 51.5797 128.696C51.8591 128.613 52.1524 128.586 52.4422 128.618C52.7321 128.65 53.0127 128.739 53.2676 128.88C55.655 130.125 58.3076 130.775 61.0001 130.775C63.6925 130.775 66.3451 130.125 68.7326 128.88C69.246 128.611 69.8455 128.556 70.3993 128.728C70.9531 128.901 71.4158 129.286 71.6856 129.799C71.9553 130.313 72.0101 130.912 71.8378 131.466C71.6655 132.02 71.2803 132.482 70.7669 132.752ZM82.8742 111.123C82.8742 112.283 82.4133 113.396 81.5928 114.217C80.7724 115.037 79.6596 115.498 78.4994 115.498C77.3391 115.498 76.2263 115.037 75.4059 114.217C74.5854 113.396 74.1245 112.283 74.1245 111.123V106.748C74.1245 105.588 74.5854 104.475 75.4059 103.655C76.2263 102.834 77.3391 102.373 78.4994 102.373C79.6596 102.373 80.7724 102.834 81.5928 103.655C82.4133 104.475 82.8742 105.588 82.8742 106.748V111.123Z" fill="url(#paint2_linear_1330_1017)"/>
<defs>
<linearGradient id="paint0_linear_1330_1017" x1="114.292" y1="22.7812" x2="156.506" y2="12.5622" gradientUnits="userSpaceOnUse">
<stop offset="0.323057" stop-color="#F98D1B"/>
<stop offset="1" stop-color="#FFC180"/>
</linearGradient>
<linearGradient id="paint1_linear_1330_1017" x1="30.7019" y1="156.409" x2="183.777" y2="142.606" gradientUnits="userSpaceOnUse">
<stop offset="0.323057" stop-color="#F98D1B"/>
<stop offset="1" stop-color="#FFC180"/>
</linearGradient>
<linearGradient id="paint2_linear_1330_1017" x1="8.5" y1="154.874" x2="127.979" y2="142.729" gradientUnits="userSpaceOnUse">
<stop offset="0.323057" stop-color="#F98D1B"/>
<stop offset="1" stop-color="#FFC180"/>
</linearGradient>
</defs>
</svg>
