<svg width="172" height="172" viewBox="0 0 172 172" fill="none" xmlns="http://www.w3.org/2000/svg">
<path d="M123.282 19.0649C128.792 18.9008 134.25 20.182 139.111 22.7812L142.735 18.7559C138.702 11.8597 132.32 8.5 123.282 8.5C114.244 8.5 107.897 11.9046 103.864 18.8008L107.448 22.7812C112.311 20.1823 117.77 18.9011 123.282 19.0649Z" fill="url(#paint0_linear_1330_1003)"/>
<path d="M111.001 53.9974L119.717 44.3093L101.471 24.0326C99.9425 28.7927 99.1707 33.7632 99.1837 38.7627C99.1705 40.0992 99.6565 41.3934 100.547 42.3918L111.001 53.9974ZM147.381 38.7601C147.402 33.7545 146.637 28.7766 145.112 24.0088L112.982 59.684L112.913 59.7579L102.844 70.719L92.7761 81.6802C92.418 82.0694 92.185 82.5572 92.1073 83.0804C92.0296 83.6036 92.1107 84.1381 92.3403 84.6146L93.9752 88.0086L94.0254 88.1089L95.9297 92.0708C96.1168 92.4592 96.3961 92.796 96.7433 93.0516C97.0905 93.3072 97.495 93.474 97.9215 93.5373C98.348 93.6006 98.7835 93.5585 99.19 93.4148C99.5964 93.271 99.9615 93.03 100.253 92.7126L121.33 69.8316L146.013 42.4076C146.911 41.404 147.399 40.1045 147.381 38.7601ZM135.596 61.8656L126.848 71.5827L146.243 92.7549C146.534 93.0735 146.899 93.3157 147.306 93.4603C147.713 93.605 148.15 93.6476 148.577 93.5845C149.004 93.5215 149.409 93.3546 149.757 93.0985C150.105 92.8424 150.385 92.505 150.572 92.1157L154.246 84.4746C154.475 83.9972 154.556 83.4619 154.477 82.9382C154.398 82.4145 154.164 81.9264 153.804 81.5375L135.596 61.8656Z" fill="url(#paint1_linear_1330_1003)"/>
<path d="M52.5334 48.4814C44.7441 48.4814 38.2806 42.1836 38.2806 34.3944C38.2806 26.6051 44.5784 20.1416 52.3676 20.1416C60.1569 20.1416 66.6204 26.4393 66.6204 34.2286C66.6204 42.1836 60.3227 48.4814 52.5334 48.4814ZM30.9885 120.905C30.4913 120.905 29.9941 120.739 29.6627 120.242C29.3312 119.745 29.1655 119.248 29.3312 118.585C30.8228 111.79 34.1374 97.7031 36.6233 86.4335C38.2806 79.6385 39.6065 73.838 40.1037 71.1863C40.2694 70.3577 39.7722 69.3633 38.9436 69.0318H38.4464C37.6177 69.0318 36.9548 69.529 36.7891 70.3577L35.629 74.6667L27.6739 101.018C27.011 103.338 25.0223 104.829 22.702 104.829C22.0391 104.829 21.5419 104.664 20.879 104.498C18.3931 103.504 16.9015 100.852 17.7302 98.366C19.3874 92.0683 21.5419 85.6048 23.5307 79.3071C25.188 74.3352 26.6796 69.529 27.8397 65.2201C29.6627 57.928 36.2919 52.7903 43.7497 52.9561H61.1513C68.6092 52.9561 75.2383 58.0937 77.0614 65.2201C78.0558 68.8661 79.3816 72.8436 80.7074 76.8211C83.0276 83.9475 85.3478 91.4053 87.3366 98.5317C87.9995 101.183 86.6737 103.835 84.1877 104.664C83.3591 104.664 82.8619 104.829 82.199 104.829C79.8788 104.829 77.89 103.338 77.2271 101.018L69.2721 74.6667L68.112 70.3577C67.9462 69.529 67.2833 69.0318 66.4547 69.0318H65.9575C65.1288 69.3633 64.4659 70.192 64.7974 71.1863C65.4603 73.838 66.7861 79.6385 68.2777 86.4335C70.9294 97.7031 74.244 111.79 75.5698 118.585C75.7355 119.248 75.5698 119.745 75.2383 120.242C74.9069 120.574 74.4097 120.905 73.9125 120.905H30.9885Z" fill="black"/>
<path d="M52.5334 48.4814C44.7441 48.4814 38.2806 42.1836 38.2806 34.3944C38.2806 26.6051 44.5784 20.1416 52.3676 20.1416C60.1569 20.1416 66.6204 26.4393 66.6204 34.2286C66.6204 42.1836 60.3227 48.4814 52.5334 48.4814ZM30.9885 120.905C30.4913 120.905 29.9941 120.739 29.6627 120.242C29.3312 119.745 29.1655 119.248 29.3312 118.585C30.8228 111.79 34.1374 97.7031 36.6233 86.4335C38.2806 79.6385 39.6065 73.838 40.1037 71.1863C40.2694 70.3577 39.7722 69.3633 38.9436 69.0318H38.4464C37.6177 69.0318 36.9548 69.529 36.7891 70.3577L35.629 74.6667L27.6739 101.018C27.011 103.338 25.0223 104.829 22.702 104.829C22.0391 104.829 21.5419 104.664 20.879 104.498C18.3931 103.504 16.9015 100.852 17.7302 98.366C19.3874 92.0683 21.5419 85.6048 23.5307 79.3071C25.188 74.3352 26.6796 69.529 27.8397 65.2201C29.6627 57.928 36.2919 52.7903 43.7497 52.9561H61.1513C68.6092 52.9561 75.2383 58.0937 77.0614 65.2201C78.0558 68.8661 79.3816 72.8436 80.7074 76.8211C83.0276 83.9475 85.3478 91.4053 87.3366 98.5317C87.9995 101.183 86.6737 103.835 84.1877 104.664C83.3591 104.664 82.8619 104.829 82.199 104.829C79.8788 104.829 77.89 103.338 77.2271 101.018L69.2721 74.6667L68.112 70.3577C67.9462 69.529 67.2833 69.0318 66.4547 69.0318H65.9575C65.1288 69.3633 64.4659 70.192 64.7974 71.1863C65.4603 73.838 66.7861 79.6385 68.2777 86.4335C70.9294 97.7031 74.244 111.79 75.5698 118.585C75.7355 119.248 75.5698 119.745 75.2383 120.242C74.9069 120.574 74.4097 120.905 73.9125 120.905H30.9885Z" fill="url(#paint2_linear_1330_1003)"/>
<path d="M44.0814 163C40.6011 163 37.7837 160.183 37.7837 156.703V117.425H50.3791V156.868C50.3791 160.183 47.5617 163 44.0814 163ZM60.6544 163C57.1741 163 54.3567 160.183 54.3567 156.703V117.425H66.9521V156.868C66.9521 160.183 64.1347 163 60.6544 163Z" fill="black"/>
<path d="M44.0814 163C40.6011 163 37.7837 160.183 37.7837 156.703V117.425H50.3791V156.868C50.3791 160.183 47.5617 163 44.0814 163ZM60.6544 163C57.1741 163 54.3567 160.183 54.3567 156.703V117.425H66.9521V156.868C66.9521 160.183 64.1347 163 60.6544 163Z" fill="url(#paint3_linear_1330_1003)"/>
<defs>
<linearGradient id="paint0_linear_1330_1003" x1="103.864" y1="22.7812" x2="146.078" y2="12.5622" gradientUnits="userSpaceOnUse">
<stop offset="0.323057" stop-color="#F98D1B"/>
<stop offset="1" stop-color="#FFC180"/>
</linearGradient>
<linearGradient id="paint1_linear_1330_1003" x1="20.2741" y1="156.409" x2="173.35" y2="142.606" gradientUnits="userSpaceOnUse">
<stop offset="0.323057" stop-color="#F98D1B"/>
<stop offset="1" stop-color="#FFC180"/>
</linearGradient>
<linearGradient id="paint2_linear_1330_1003" x1="17.5" y1="120.905" x2="97.6768" y2="115.951" gradientUnits="userSpaceOnUse">
<stop offset="0.323057" stop-color="#F98D1B"/>
<stop offset="1" stop-color="#FFC180"/>
</linearGradient>
<linearGradient id="paint3_linear_1330_1003" x1="37.7837" y1="163" x2="71.2089" y2="161.098" gradientUnits="userSpaceOnUse">
<stop offset="0.323057" stop-color="#F98D1B"/>
<stop offset="1" stop-color="#FFC180"/>
</linearGradient>
</defs>
</svg>
