<svg width="152" height="167" viewBox="0 0 152 167" fill="none" xmlns="http://www.w3.org/2000/svg">
<path d="M116.304 11.9286C122.525 11.7433 128.687 13.1898 134.176 16.1244L138.267 11.5797C133.713 3.79329 126.509 0 116.304 0C106.099 0 98.9326 3.84398 94.3789 11.6304L98.4257 16.1244C103.917 13.1901 110.08 11.7436 116.304 11.9286Z" fill="url(#paint0_linear_1330_992)"/>
<path d="M38.7678 47.7143C51.9437 47.7143 62.6249 37.0331 62.6249 23.8571C62.6249 10.6812 51.9437 0 38.7678 0C25.5919 0 14.9106 10.6812 14.9106 23.8571C14.9106 37.0331 25.5919 47.7143 38.7678 47.7143Z" fill="url(#paint1_linear_1330_992)"/>
<path d="M102.437 51.37L112.278 40.4315L91.677 17.5376C89.9513 22.9121 89.0798 28.5242 89.0945 34.169C89.0796 35.678 89.6283 37.1392 90.6333 38.2665L102.437 51.37ZM17.8929 158.053C17.8929 160.426 18.8354 162.701 20.5132 164.379C22.191 166.057 24.4665 167 26.8393 167C29.212 167 31.4876 166.057 33.1654 164.379C34.8431 162.701 35.7857 160.426 35.7857 158.053V139.03C29.1649 135.91 23.1162 131.698 17.8929 126.571V158.053ZM41.75 158.053C41.75 160.426 42.6926 162.701 44.3703 164.379C46.0481 166.057 48.3237 167 50.6964 167C53.0692 167 55.3447 166.057 57.0225 164.379C58.7003 162.701 59.6429 160.426 59.6429 158.053V126.571C54.4196 131.698 48.3709 135.91 41.75 139.03V158.053ZM143.513 34.166C143.537 28.5143 142.672 22.894 140.951 17.5107L104.673 57.7905L104.596 57.874L81.8598 82.6258C81.4555 83.0653 81.1924 83.6161 81.1047 84.2068C81.017 84.7975 81.1086 85.401 81.3678 85.939L83.2137 89.771L83.2704 89.8844L85.4205 94.3576C85.6317 94.7962 85.9471 95.1764 86.3391 95.465C86.7311 95.7536 87.1879 95.9419 87.6694 96.0134C88.1509 96.0849 88.6426 96.0374 89.1016 95.8751C89.5605 95.7127 89.9727 95.4406 90.3023 95.0822L114.1 69.2479L141.968 38.2843C142.982 37.1511 143.534 35.6839 143.513 34.166ZM130.206 60.2538L120.329 71.2251L142.227 95.13C142.557 95.4897 142.969 95.7632 143.428 95.9265C143.888 96.0898 144.38 96.1379 144.863 96.0667C145.345 95.9955 145.803 95.8071 146.195 95.5179C146.588 95.2288 146.904 94.8478 147.115 94.4083L151.263 85.7809C151.522 85.242 151.613 84.6376 151.524 84.0462C151.436 83.4549 151.171 82.9039 150.765 82.4648L130.206 60.2538ZM76.0864 80.088L77.2793 78.7759L77.2554 77.8812C76.6276 71.268 73.5598 65.1254 68.6497 60.651C63.7397 56.1765 57.3394 53.6907 50.6964 53.6782H26.8393C19.7235 53.6861 12.9014 56.5163 7.86976 61.5479C2.83813 66.5796 0.0078933 73.4017 0 80.5175L0 116.303C0.00668067 117.724 0.521496 119.095 1.45135 120.169C2.3812 121.243 3.66469 121.949 5.06973 122.159C6.47476 122.369 7.90858 122.07 9.11188 121.314C10.3152 120.559 11.2085 119.398 11.6304 118.042C9.90661 114.769 8.98661 111.133 8.94643 107.434C8.91793 103.741 9.9532 100.118 11.9286 96.9968V74.5532C11.9286 73.7623 12.2428 73.0037 12.802 72.4445C13.3613 71.8852 14.1198 71.571 14.9107 71.571C15.7016 71.571 16.4601 71.8852 17.0194 72.4445C17.5787 73.0037 17.8929 73.7623 17.8929 74.5532V91.3814C20.1761 90.1227 22.741 89.463 25.3482 89.4639C30.3267 89.455 35.123 91.3362 38.7679 94.7274C42.4128 91.3362 47.209 89.455 52.1875 89.4639C54.7939 89.4639 57.3585 90.12 59.6429 91.3814V74.5532C59.6429 73.7623 59.957 73.0037 60.5163 72.4445C61.0756 71.8852 61.8341 71.571 62.625 71.571C63.4159 71.571 64.1744 71.8852 64.7337 72.4445C65.293 73.0037 65.6071 73.7623 65.6071 74.5532V96.9998C67.5825 100.121 68.6178 103.744 68.5893 107.437C68.5469 111.11 67.6353 114.72 65.9292 117.973C66.1797 118.93 66.6748 119.807 67.3577 120.523C68.1921 121.356 69.2547 121.923 70.4113 122.152C71.5679 122.382 72.7665 122.263 73.8556 121.811C74.9448 121.36 75.8757 120.596 76.5307 119.615C77.1857 118.635 77.5355 117.482 77.5357 116.303V91.6438L75.0904 86.5414C74.6166 85.4842 74.4586 84.3126 74.6353 83.1676C74.812 82.0227 75.316 80.9532 76.0864 80.088Z" fill="url(#paint2_linear_1330_992)"/>
<path d="M52.1874 95.4287C50.0715 95.4258 47.9834 95.9108 46.0852 96.8459C44.1871 97.7809 42.5301 99.141 41.243 100.82C40.9552 101.203 40.5827 101.514 40.1547 101.728C39.7266 101.943 39.2547 102.055 38.776 102.057C38.2972 102.058 37.8246 101.949 37.3953 101.737C36.966 101.525 36.5916 101.216 36.3016 100.835C35.0141 99.153 33.3561 97.7901 31.4565 96.8524C29.5568 95.9147 27.4666 95.4276 25.3481 95.4287C19.3988 95.4287 14.9106 100.591 14.9106 107.435C14.9752 110.685 15.9081 113.858 17.6125 116.626C17.6125 116.656 17.6483 116.676 17.6602 116.703C21.3312 122.939 28.5718 128.897 38.7678 133.875C48.9637 128.897 56.2044 122.939 59.8754 116.703C59.8754 116.676 59.9082 116.656 59.9201 116.629C61.6273 113.861 62.5613 110.686 62.6249 107.435C62.6249 100.591 58.1517 95.4287 52.1874 95.4287Z" fill="url(#paint3_linear_1330_992)"/>
<defs>
<linearGradient id="paint0_linear_1330_992" x1="94.3789" y1="16.1244" x2="142.042" y2="4.58652" gradientUnits="userSpaceOnUse">
<stop offset="0.323057" stop-color="#F98D1B"/>
<stop offset="1" stop-color="#FFC180"/>
</linearGradient>
<linearGradient id="paint1_linear_1330_992" x1="14.9106" y1="47.7143" x2="69.3349" y2="42.874" gradientUnits="userSpaceOnUse">
<stop offset="0.323057" stop-color="#F98D1B"/>
<stop offset="1" stop-color="#FFC180"/>
</linearGradient>
<linearGradient id="paint2_linear_1330_992" x1="-4.26097e-07" y1="167" x2="172.833" y2="151.416" gradientUnits="userSpaceOnUse">
<stop offset="0.323057" stop-color="#F98D1B"/>
<stop offset="1" stop-color="#FFC180"/>
</linearGradient>
<linearGradient id="paint3_linear_1330_992" x1="14.9106" y1="133.875" x2="69.1052" y2="127.893" gradientUnits="userSpaceOnUse">
<stop offset="0.323057" stop-color="#F98D1B"/>
<stop offset="1" stop-color="#FFC180"/>
</linearGradient>
</defs>
</svg>
