<svg width="135" height="135" viewBox="0 0 135 135" fill="none" xmlns="http://www.w3.org/2000/svg">
<g clip-path="url(#clip0_1378_154)">
<g clip-path="url(#clip1_1378_154)">
<path d="M97.3115 71.4847C97.6073 71.9981 97.7992 72.5648 97.876 73.1524C97.9529 73.74 97.9133 74.3369 97.7594 74.9092C97.6056 75.4815 97.3406 76.0178 96.9794 76.4876C96.6183 76.9575 96.1682 77.3516 95.6548 77.6474C95.1413 77.9433 94.5746 78.1352 93.9871 78.212C93.3995 78.2889 92.8025 78.2493 92.2303 78.0954C91.658 77.9416 91.1216 77.6766 90.6518 77.3154C90.182 76.9543 89.7879 76.5042 89.492 75.9907L80.6276 60.6406V75.0932H55.3739V60.6406L46.5095 75.9907C46.2153 76.5074 45.8219 76.9608 45.3519 77.3249C44.8819 77.689 44.3446 77.9567 43.7708 78.1125C43.1971 78.2683 42.5982 78.3092 42.0086 78.2329C41.4189 78.1565 40.8502 77.9644 40.3351 77.6676C39.82 77.3707 39.3686 76.975 39.0068 76.5032C38.6451 76.0313 38.3802 75.4927 38.2273 74.9181C38.0744 74.3436 38.0366 73.7445 38.1159 73.1553C38.1953 72.566 38.3903 71.9983 38.6898 71.4847L40.9951 67.495C42.5804 68.4049 44.4618 68.6489 46.2267 68.1736C47.9916 67.6983 49.496 66.5425 50.41 64.9596C51.3239 63.3766 51.5728 61.4959 51.102 59.7297C50.6313 57.9636 49.4793 56.4562 47.8987 55.5382L51.5872 49.1449L51.6241 49.0958C55.2387 44.1598 62.0866 42.0387 67.9578 41.8296H68.0439C70.4908 41.9143 72.9156 42.3236 75.2548 43.0467C74.5498 44.4573 74.349 46.0666 74.6857 47.6071C75.0224 49.1477 75.8764 50.5265 77.1055 51.5143C78.3347 52.502 79.865 53.0393 81.4419 53.0366C83.0188 53.0339 84.5472 52.4914 85.773 51.4994L97.3115 71.4847ZM86.8179 111.658C86.2867 111.787 85.7418 111.851 85.1952 111.848C83.506 111.848 81.8753 111.229 80.6121 110.108C79.3488 108.986 78.5406 107.44 78.3406 105.763C78.1406 104.086 78.5626 102.393 79.5268 101.006C80.491 99.6194 81.9303 98.6342 83.5723 98.2373L80.6276 86.047V78.1301H55.3739V79.1506C57.204 79.1506 58.9592 79.8776 60.2532 81.1717C61.5473 82.4657 62.2743 84.2209 62.2743 86.051C62.2743 87.8811 61.5473 89.6362 60.2532 90.9303C58.9592 92.2244 57.204 92.9514 55.3739 92.9514C54.8274 92.9513 54.2827 92.8876 53.751 92.7615L48.0525 116.324C47.7482 117.481 47.9142 118.712 48.5142 119.748C49.1143 120.783 50.0996 121.539 51.2551 121.85C53.6465 122.49 55.9825 121.014 56.7509 118.728L65.929 91.4822H70.0725L79.2506 118.728C80.019 121.014 82.3549 122.49 84.7463 121.85C85.9019 121.54 86.8872 120.783 87.4864 119.748C88.0855 118.712 88.2497 117.481 87.9429 116.324L86.8179 111.658ZM68 37.7845C70.3521 37.7839 72.6511 37.0858 74.6065 35.7786C76.5618 34.4714 78.0856 32.6137 78.9852 30.4404C79.8847 28.2672 80.1196 25.876 79.6602 23.5692C79.2007 21.2624 78.0676 19.1437 76.404 17.481C74.7404 15.8183 72.6211 14.6862 70.3141 14.2279C68.0071 13.7696 65.616 14.0058 63.4432 14.9064C61.2704 15.8071 59.4135 17.3319 58.1073 19.2879C56.801 21.2439 56.1042 23.5433 56.1048 25.8954C56.1117 29.0475 57.3673 32.0685 59.5968 34.2968C61.8262 36.5252 64.8479 37.7792 68 37.7845ZM44.2041 48.1122H22.4177C21.7405 48.1126 21.0751 47.9348 20.4884 47.5965C19.9018 47.2583 19.4145 46.7715 19.0755 46.1853C18.7366 45.599 18.558 44.9338 18.5576 44.2566C18.5573 43.5794 18.7352 42.9141 19.0735 42.3274L24.5258 32.8911L29.9728 23.4551C30.3118 22.8699 30.7986 22.3841 31.3844 22.0464C31.9703 21.7087 32.6347 21.531 33.3109 21.531C33.9871 21.531 34.6515 21.7087 35.2374 22.0464C35.8232 22.3841 36.3101 22.8699 36.649 23.4551L42.0956 32.8911L47.5483 42.3274C47.8866 42.9141 48.0646 43.5794 48.0642 44.2566C48.0638 44.9338 47.8852 45.599 47.5463 46.1853C47.2073 46.7715 46.7201 47.2583 46.1334 47.5965C45.5467 47.9348 44.8813 48.1126 44.2041 48.1122ZM34.8294 42.9176C34.8294 42.5148 34.6694 42.1285 34.3846 41.8437C34.0998 41.5589 33.7135 41.3989 33.3107 41.3989C32.9079 41.3989 32.5216 41.5589 32.2368 41.8437C31.952 42.1285 31.7919 42.5148 31.7919 42.9176V43.268C31.7919 43.6708 31.952 44.0571 32.2368 44.3419C32.5216 44.6267 32.9079 44.7868 33.3107 44.7868C33.7135 44.7868 34.0998 44.6267 34.3846 44.3419C34.6694 44.0571 34.8294 43.6708 34.8294 43.268V42.9176ZM34.8294 28.5317C34.8294 28.1289 34.6694 27.7426 34.3846 27.4578C34.0998 27.173 33.7135 27.0129 33.3107 27.0129C32.9079 27.0129 32.5216 27.173 32.2368 27.4578C31.952 27.7426 31.7919 28.1289 31.7919 28.5317V38.8465C31.7919 39.2493 31.952 39.6356 32.2368 39.9205C32.5216 40.2053 32.9079 40.3653 33.3107 40.3653C33.7135 40.3653 34.0998 40.2053 34.3846 39.9205C34.6694 39.6356 34.8294 39.2493 34.8294 38.8465V28.5317ZM77.5654 46.1317C77.5652 46.8965 77.7918 47.6441 78.2166 48.2801C78.6413 48.916 79.2451 49.4118 79.9516 49.7046C80.6581 49.9974 81.4355 50.0741 82.1856 49.9251C82.9357 49.7761 83.6248 49.4079 84.1656 48.8673C84.7065 48.3267 85.075 47.6377 85.2243 46.8877C85.3737 46.1377 85.2973 45.3602 85.0048 44.6536C84.7123 43.947 84.2168 43.343 83.581 42.918C82.9452 42.4929 82.1977 42.266 81.4329 42.2658C80.9249 42.2652 80.4218 42.3648 79.9524 42.5589C79.483 42.753 79.0564 43.0378 78.6973 43.397C78.3381 43.7562 78.0533 44.1828 77.8592 44.6522C77.6651 45.1216 77.5656 45.6248 77.5662 46.1327L77.5654 46.1317ZM40.5781 61.5135C40.5781 62.2783 40.8048 63.0259 41.2297 63.6619C41.6546 64.2978 42.2585 64.7935 42.9651 65.0862C43.6717 65.3789 44.4492 65.4555 45.1993 65.3063C45.9494 65.1571 46.6385 64.7889 47.1793 64.2481C47.7201 63.7073 48.0884 63.0183 48.2376 62.2682C48.3868 61.518 48.3103 60.7405 48.0176 60.0339C47.7249 59.3273 47.2293 58.7234 46.5934 58.2985C45.9575 57.8736 45.2098 57.6468 44.445 57.6468C43.9372 57.6467 43.4343 57.7466 42.9651 57.9409C42.496 58.1352 42.0696 58.42 41.7105 58.779C41.3514 59.1381 41.0666 59.5644 40.8723 60.0336C40.678 60.5028 40.578 61.0056 40.5781 61.5135ZM85.1952 101.078C84.4296 101.078 83.6809 101.304 83.044 101.729C82.4072 102.154 81.9107 102.759 81.6174 103.466C81.3241 104.173 81.2472 104.951 81.3964 105.702C81.5456 106.453 81.9142 107.143 82.4556 107.685C82.997 108.226 83.6869 108.595 84.4378 108.744C85.1888 108.893 85.9672 108.816 86.6744 108.523C87.3817 108.23 87.986 107.733 88.411 107.096C88.836 106.459 89.0625 105.711 89.0619 104.945C89.0611 103.92 88.6535 102.937 87.9285 102.212C87.2035 101.487 86.2205 101.079 85.1952 101.078ZM117.457 34.8214C117.456 37.4821 116.667 40.0828 115.188 42.2947C113.71 44.5067 111.608 46.2306 109.15 47.2485C106.692 48.2665 103.987 48.5326 101.378 48.0134C98.7682 47.4942 96.3712 46.213 94.4899 44.3316C92.6086 42.4503 91.3273 40.0533 90.8081 37.4439C90.2889 34.8344 90.5551 32.1296 91.573 29.6714C92.5909 27.2132 94.3148 25.112 96.5268 23.6335C98.7387 22.1549 101.339 21.3655 104 21.3649C107.567 21.3721 110.985 22.7922 113.507 25.3142C116.029 27.8362 117.449 31.2548 117.457 34.8214ZM111.469 31.8455H106.976V27.3587H101.026V31.8455H96.5371V37.7963H101.025V42.284H106.975V37.7969H111.468L111.469 31.8455ZM59.241 86.0472C59.241 85.2824 59.0142 84.5348 58.5893 83.8988C58.1644 83.2629 57.5605 82.7673 56.8539 82.4746C56.1473 82.182 55.3698 82.1054 54.6197 82.2546C53.8696 82.4038 53.1806 82.7721 52.6398 83.3129C52.099 83.8537 51.7307 84.5427 51.5815 85.2928C51.4323 86.0429 51.5089 86.8204 51.8016 87.527C52.0942 88.2336 52.5899 88.8375 53.2258 89.2624C53.8617 89.6873 54.6093 89.9141 55.3741 89.9141C56.3993 89.9132 57.3822 89.5056 58.1072 88.7807C58.8321 88.0559 59.2398 87.073 59.2408 86.0478L59.241 86.0472Z" fill="url(#paint0_linear_1378_154)"/>
</g>
</g>
<defs>
<linearGradient id="paint0_linear_1378_154" x1="18.5576" y1="122" x2="131.508" y2="112.801" gradientUnits="userSpaceOnUse">
<stop offset="0.323057" stop-color="#F98D1B"/>
<stop offset="1" stop-color="#FFC180"/>
</linearGradient>
<clipPath id="clip0_1378_154">
<rect width="135" height="135" fill="white"/>
</clipPath>
<clipPath id="clip1_1378_154">
<rect width="108" height="108" fill="white" transform="translate(14 14)"/>
</clipPath>
</defs>
</svg>
