<svg width="135" height="135" viewBox="0 0 135 135" fill="none" xmlns="http://www.w3.org/2000/svg">
<g clip-path="url(#clip0_1378_162)">
<path fill-rule="evenodd" clip-rule="evenodd" d="M83.3855 13.4196C83.6287 13.5323 83.8496 13.6878 84.0376 13.8787L99.0647 28.9058C99.2557 29.0939 99.4112 29.3148 99.5238 29.558H85.6123C84.3859 29.558 83.3857 28.5578 83.3857 27.3314V13.4196H83.3855ZM70.2757 53.9054C83.2786 53.9054 93.8196 64.4462 93.8196 77.4491C93.8196 82.7641 92.0579 87.6674 89.087 91.6078L94.7314 97.2521C95.8858 96.5853 97.3961 96.744 98.3809 97.7288L114.719 114.066C115.893 115.241 115.893 117.163 114.719 118.337L111.164 121.892C109.989 123.067 108.068 123.067 106.893 121.892L90.5557 105.555C89.5709 104.57 89.4121 103.059 90.079 101.905L84.4346 96.2609C80.4941 99.2316 75.591 100.993 70.2759 100.993C57.273 100.993 46.7323 90.4524 46.7323 77.4495C46.7318 64.4464 57.2728 53.9054 70.2757 53.9054ZM70.2757 60.4422C60.8829 60.4422 53.2685 68.0566 53.2685 77.4493C53.2685 86.8423 60.8829 94.4565 70.2757 94.4565C79.6685 94.4565 87.2829 86.8421 87.2829 77.4493C87.2826 68.0566 79.6685 60.4422 70.2757 60.4422ZM92.3661 113.663L87.4062 108.703C85.9316 107.229 85.2037 105.285 85.2224 103.346L83.8283 101.952C79.8125 104.179 75.1919 105.446 70.2755 105.446C54.8147 105.446 42.2787 92.9099 42.2787 77.4491C42.2787 61.9885 54.8149 49.4523 70.2755 49.4523C85.7363 49.4523 98.2723 61.9883 98.2723 77.4491C98.2723 82.3653 97.0047 86.9859 94.7786 91.0017L96.1729 92.3958C97.4061 92.3829 98.6234 92.6749 99.7167 93.2457V34.0109H85.612C81.928 34.0109 78.9324 31.0155 78.9324 27.3312V13.2266H22.6279C21.4015 13.2266 20.4014 14.2267 20.4014 15.4531V111.437C20.4014 112.663 21.4015 113.663 22.6279 113.663L92.3661 113.663ZM47.7115 27.4374C48.3247 27.4374 48.8248 27.9375 48.8248 28.5507V34.7928H55.0669C55.6801 34.7928 56.1802 35.2929 56.1802 35.9061V43.4611C56.1802 44.0743 55.6801 44.5743 55.0669 44.5743H48.8248V50.8167C48.8248 51.4299 48.3247 51.93 47.7115 51.93H40.1565C39.8615 51.9294 39.5786 51.8119 39.37 51.6033C39.1613 51.3946 39.0439 51.1118 39.0433 50.8167V44.5741H32.8011C32.506 44.5735 32.2232 44.456 32.0145 44.2474C31.8059 44.0387 31.6884 43.7559 31.6878 43.4608V35.9059C31.6878 35.2927 32.1879 34.7926 32.8011 34.7926H39.0433V28.5507C39.0433 27.9375 39.5434 27.4374 40.1565 27.4374H47.7115Z" fill="url(#paint0_linear_1378_162)"/>
</g>
<defs>
<linearGradient id="paint0_linear_1378_162" x1="20.4014" y1="122.773" x2="129.196" y2="114.365" gradientUnits="userSpaceOnUse">
<stop offset="0.323057" stop-color="#F98D1B"/>
<stop offset="1" stop-color="#FFC180"/>
</linearGradient>
<clipPath id="clip0_1378_162">
<rect width="135" height="135" fill="white"/>
</clipPath>
</defs>
</svg>
