<svg width="135" height="135" viewBox="0 0 135 135" fill="none" xmlns="http://www.w3.org/2000/svg">
<path fill-rule="evenodd" clip-rule="evenodd" d="M64.5294 16.3197C64.343 14.2054 62.5992 12.6094 60.4752 12.6094H60.0998C59.0426 12.6052 58.0255 13.0144 57.2658 13.7497C56.5061 14.485 56.0638 15.4881 56.0335 16.545C55.8519 22.0717 54.9364 26.3366 53.2387 29.5843C50.9403 33.9728 47.0387 36.5569 43.1637 38.2668L43.3719 38.3249C46.2176 39.1217 49.7245 40.4513 53.2605 42.6503C56.1376 40.4464 58.545 37.7485 60.4195 34.617C63.6842 29.1653 65.1058 22.837 64.5294 16.3197ZM51.0808 108.772H26.2081C25.5712 110.201 25.0819 111.853 24.7405 113.754H52.5484C52.2069 111.851 51.7177 110.199 51.0808 108.772ZM46.1256 69.5235H24.2222C24.5879 72.3643 25.3968 74.5004 26.8402 76.45H45.5492C45.5395 76.1352 45.5323 75.8179 45.5323 75.5007C45.5323 73.4663 45.7333 71.4707 46.1256 69.5235ZM50.0273 59.6882H26.8402C25.3968 61.6378 24.5855 63.7739 24.2222 66.6148H46.8643C47.6151 64.1808 48.6758 61.8607 50.0273 59.6882ZM26.2081 27.3659C25.5712 25.937 25.0819 24.2853 24.7405 22.3841H52.5484C52.2069 24.2853 51.7177 25.937 51.0808 27.3659H26.2081ZM98.0603 102.173L102.199 98.0338L98.7021 94.539C98.0805 95.2931 97.4226 96.0164 96.7307 96.7066C96.0332 97.4065 95.3066 98.0604 94.5607 98.6756L98.0603 102.173ZM122.068 114.822C124.059 116.813 124.059 120.051 122.068 122.042C121.109 123.001 119.828 123.529 118.457 123.529C117.087 123.529 115.808 123.001 114.849 122.042L98.5737 105.767L105.793 98.5472L122.068 114.822ZM91.4316 59.5914C100.201 68.361 100.201 82.6331 91.4316 91.4027C87.0456 95.7887 81.2864 97.9805 75.5272 97.9805C69.768 97.9805 64.0063 95.7887 59.6203 91.4027C50.8507 82.6331 50.8507 68.361 59.6203 59.5914C68.3899 50.8242 82.6596 50.8242 91.4316 59.5914ZM94.6769 94.6528C84.1151 105.212 66.9319 105.212 56.3726 94.6528C51.2576 89.5354 48.4385 82.7348 48.4385 75.5007C48.4385 68.2641 51.2551 61.4635 56.3726 56.346C61.4876 51.231 68.2906 48.4144 75.5248 48.4144C82.7589 48.4144 89.5619 51.231 94.6769 56.346C99.7919 61.4635 102.611 68.2641 102.611 75.5007C102.611 82.7348 99.7919 89.533 94.6769 94.6528ZM61.674 89.3514C54.0379 81.7128 54.0379 69.2861 61.674 61.65C69.3102 54.0114 81.7369 54.0114 89.3755 61.65C97.0116 69.2861 97.0116 81.7128 89.3755 89.3514C85.5562 93.1682 80.5405 95.0791 75.5248 95.0791C70.5091 95.0767 65.4933 93.1658 61.674 89.3514ZM87.8037 69.3612C88.0758 69.0887 88.2286 68.7194 88.2286 68.3343C88.2286 67.9492 88.0758 67.5799 87.8037 67.3075C87.6691 67.1722 87.509 67.0648 87.3328 66.9915C87.1566 66.9183 86.9676 66.8806 86.7768 66.8806C86.5859 66.8806 86.397 66.9183 86.2207 66.9915C86.0445 67.0648 85.8845 67.1722 85.7499 67.3075L72.4465 80.6108L65.302 73.4663C64.7353 72.8996 63.815 72.8996 63.2458 73.4663C62.9737 73.7387 62.8209 74.1081 62.8209 74.4932C62.8209 74.8782 62.9737 75.2476 63.2458 75.52L71.4172 83.6939C71.6909 83.9651 72.0591 84.1177 72.4441 84.1177C72.8292 84.1177 73.1998 83.9651 73.471 83.6939L87.8037 69.3612ZM24.026 93.4903C27.5595 95.6894 31.0664 97.019 33.9145 97.8158L34.1228 97.8739C30.2478 99.5838 26.3462 102.168 24.0478 106.556C22.3476 109.804 21.4346 114.069 21.253 119.596C21.1803 121.802 19.393 123.531 17.1866 123.531H16.8137C14.6897 123.531 12.9459 121.935 12.7594 119.821C12.183 113.301 13.6047 106.975 16.8694 101.524C18.7439 98.3898 21.1488 95.6918 24.026 93.4903ZM30.737 49.6253C31.8632 50.0443 32.9797 50.4125 34.0816 50.7636C31.0446 52.0303 28.0463 53.8031 25.3968 56.8474C22.7666 59.8699 21.5 63.1951 21.1682 67.9662C21.1633 68.034 21.1633 68.1018 21.1682 68.1696C21.5 72.9407 22.7666 76.266 25.3968 79.2885C29.7101 84.2436 34.9196 85.8518 40.4342 87.5519C42.1029 88.0678 43.8273 88.6006 45.5347 89.2351C47.1089 89.8212 48.6274 90.5381 50.0563 91.3591C51.2551 93.2748 52.6768 95.067 54.314 96.7042C56.1522 98.5424 58.1696 100.09 60.3105 101.349C60.3444 101.407 60.3808 101.463 60.4147 101.521C63.6794 106.973 65.101 113.299 64.5246 119.819C64.3381 121.933 62.5944 123.529 60.4704 123.529H60.095C59.0377 123.533 58.0207 123.124 57.2609 122.389C56.5012 121.653 56.059 120.65 56.0287 119.593C55.847 114.067 54.9315 109.802 53.2338 106.554C49.6373 99.6855 42.4105 97.1764 34.6919 95.0137C27.9107 93.115 21.9093 89.2739 17.7994 84.2C14.2828 79.8625 12.4107 74.0039 12.6626 68.1309C12.665 68.0897 12.665 68.0485 12.6626 68.005C12.4107 62.1319 14.2852 56.2758 17.7994 51.9358C19.5528 49.7707 21.6283 47.8404 23.9727 46.1839C26.058 47.5692 28.3176 48.7293 30.737 49.6253ZM42.5897 41.1221C48.8526 42.8756 54.4472 46.288 58.5038 50.7951C57.0216 51.822 55.6194 52.9869 54.3188 54.2899C53.476 55.1303 52.6937 56.0167 51.9648 56.9346C51.9381 56.9055 51.9163 56.8764 51.8897 56.8474C47.5763 51.8922 42.3669 50.2841 36.8523 48.5839C35.1836 48.0681 33.4568 47.5353 31.7494 46.9007C25.4186 44.5467 20.2697 40.2987 16.8669 34.6146C13.6023 29.1653 12.1806 22.837 12.757 16.3197C12.9435 14.2054 14.6873 12.6094 16.8112 12.6094H17.1842C19.393 12.6094 21.1779 14.3386 21.2505 16.545C21.4322 22.0717 22.3476 26.3366 24.0454 29.5843C27.6419 36.4503 34.8712 38.9594 42.5897 41.1221Z" fill="url(#paint0_linear_1378_170)"/>
<defs>
<linearGradient id="paint0_linear_1378_170" x1="12.6318" y1="123.531" x2="139.161" y2="112.277" gradientUnits="userSpaceOnUse">
<stop offset="0.323057" stop-color="#F98D1B"/>
<stop offset="1" stop-color="#FFC180"/>
</linearGradient>
</defs>
</svg>
