<svg width="134" height="134" viewBox="0 0 134 134" fill="none" xmlns="http://www.w3.org/2000/svg">
<path fill-rule="evenodd" clip-rule="evenodd" d="M52.448 18.0224L68.4712 45.7753C57.0501 50.3732 48.986 61.5559 48.986 74.6214C48.986 76.8023 49.2116 78.9304 49.639 80.9844H16.0969C6.9456 80.9844 1.2192 71.0663 5.79509 63.1409L31.8445 18.0221C36.3939 10.1423 47.8986 10.1423 52.448 18.0224ZM80.0714 47.7238C65.2162 47.7238 53.1735 59.7663 53.1735 74.6217C53.1735 89.4769 65.216 101.519 80.0714 101.519C86.7515 101.519 92.8624 99.0835 97.5652 95.0523L105.789 103.123L105.512 103.409C104.576 104.374 104.599 105.931 105.564 106.867L120.336 121.2C121.301 122.137 122.857 122.114 123.793 121.148L129.126 115.652C130.063 114.687 130.039 113.132 129.074 112.195L114.303 97.8615C113.338 96.9249 111.782 96.9484 110.845 97.9134L110.515 98.2539L102.125 90.0218C105.177 85.6592 106.969 80.3502 106.969 74.622C106.969 59.7665 94.9266 47.7238 80.0714 47.7238ZM80.0714 55.3074C69.4045 55.3074 60.7571 63.9546 60.7571 74.6217C60.7571 85.2886 69.4043 93.936 80.0714 93.936C90.7383 93.936 99.3855 85.2888 99.3855 74.6217C99.3855 63.9548 90.7383 55.3074 80.0714 55.3074ZM42.1463 64.3788C39.9428 64.3788 38.1566 66.165 38.1566 68.3685C38.1566 70.5719 39.9428 72.3578 42.1463 72.3578C44.3497 72.3578 46.1359 70.5719 46.1359 68.3685C46.1359 66.165 44.3497 64.3788 42.1463 64.3788ZM42.1463 57.2572C43.822 57.2572 45.1979 55.93 45.2584 54.2555L46.0456 32.4565C46.0627 32.0378 45.9947 31.6201 45.8459 31.2284C45.697 30.8368 45.4703 30.4794 45.1794 30.1778C44.8885 29.8763 44.5395 29.6368 44.1535 29.4739C43.7675 29.311 43.3525 29.228 42.9335 29.23H41.359C40.94 29.228 40.525 29.311 40.139 29.474C39.753 29.6369 39.4041 29.8764 39.1132 30.1779C38.8223 30.4795 38.5956 30.8369 38.4467 31.2285C38.2978 31.6201 38.2299 32.0378 38.2469 32.4565L39.0342 54.2555C39.0944 55.93 40.4705 57.2572 42.1463 57.2572Z" fill="url(#paint0_linear_1378_181)"/>
<defs>
<linearGradient id="paint0_linear_1378_181" x1="4.18555" y1="121.888" x2="147.133" y2="107.339" gradientUnits="userSpaceOnUse">
<stop offset="0.323057" stop-color="#F98D1B"/>
<stop offset="1" stop-color="#FFC180"/>
</linearGradient>
</defs>
</svg>
