<svg width="184" height="166" viewBox="0 0 184 166" fill="none" xmlns="http://www.w3.org/2000/svg">
<rect width="184" height="166" rx="20" fill="url(#paint0_linear_1335_174)"/>
<g clip-path="url(#clip0_1335_174)">
<path d="M145.304 113.701C141.878 108.537 136.045 106.661 127.966 108.124C121.293 109.332 113.962 112.612 108.071 115.247L107.65 115.435C107.455 111.929 104.542 109.136 100.988 109.136H86.2835C82.9787 109.125 80.5633 107.849 77.6692 104.585C75.8449 102.527 74.8906 102.527 71.7289 102.527H59.6518V99.8322C59.6518 98.1439 58.2781 96.7704 56.5896 96.7704H42.0109C40.3226 96.7704 38.9487 98.1439 38.9487 99.8322V132.811C38.9487 134.499 40.3224 135.872 42.0109 135.872H56.5893C58.2777 135.872 59.6516 134.499 59.6516 132.811V130.093C63.7881 131.116 67.591 132.065 70.9931 132.914C77.7047 134.59 83.0061 135.913 87.064 136.853C90.3637 137.616 92.864 137.986 95.0193 137.986C98.918 137.986 101.688 136.776 106.021 134.498C132.165 121.513 144.619 115.743 144.742 115.687C144.92 115.604 145.078 115.485 145.205 115.336C145.332 115.187 145.426 115.012 145.479 114.823C145.533 114.635 145.545 114.437 145.514 114.243C145.484 114.049 145.412 113.865 145.304 113.701H145.304ZM104.797 132.07L104.769 132.084C98.5426 135.358 96.3613 136.213 87.6769 134.203C83.6418 133.269 78.3507 131.948 71.6517 130.276C67.653 129.276 63.653 128.282 59.6518 127.292V105.245H71.7289C73.6574 105.245 74.9593 105.626 75.6346 106.388C79.0655 110.258 82.1481 111.841 86.2792 111.854H100.988C103.169 111.854 104.943 113.629 104.943 115.81C104.943 117.992 103.169 119.768 100.988 119.768H86.3141C85.52 119.727 84.7733 119.694 84.0718 119.663C76.9856 119.349 76.0656 119.11 75.7694 115.726C75.704 114.978 75.0444 114.423 74.2966 114.49C73.9374 114.521 73.6055 114.694 73.3737 114.97C73.142 115.246 73.0295 115.603 73.0609 115.963C73.3106 118.813 74.3265 120.477 76.3553 121.359C78.1082 122.12 80.4328 122.223 83.9515 122.379C84.657 122.41 85.409 122.444 86.209 122.485C86.2326 122.486 86.2557 122.487 86.2792 122.487H100.988C103.634 122.487 105.925 120.938 107.004 118.699C107.709 118.387 108.436 118.062 109.181 117.729C120.199 112.8 135.098 106.136 142.064 113.937C137.997 115.848 125.806 121.635 104.797 132.069L104.797 132.07ZM76.1698 93.0158L81.6308 93.1858L82.0289 98.2365C82.0495 98.4988 82.1458 98.7494 82.306 98.958C82.4663 99.1666 82.6836 99.3242 82.9317 99.4118C83.1797 99.4993 83.4478 99.5129 83.7035 99.4511C83.9592 99.3892 84.1914 99.2545 84.372 99.0632L99.3582 83.2034L114.105 99.0555C114.284 99.2488 114.517 99.3856 114.773 99.4491C115.029 99.5127 115.298 99.5003 115.547 99.4134C115.797 99.3266 116.015 99.1691 116.176 98.9601C116.338 98.7511 116.435 98.4997 116.455 98.2365L116.853 93.1858L122.315 93.0158C122.576 93.0077 122.83 92.9242 123.045 92.7755C123.261 92.6267 123.428 92.419 123.528 92.1772C123.629 91.9354 123.657 91.6698 123.61 91.4124C123.563 91.155 123.442 90.9166 123.263 90.726C120.668 87.9653 117.985 85.2651 115.39 82.654C112.708 79.955 109.978 77.2063 107.297 74.3423C114.923 64.9742 119.28 56.3868 120.246 48.8105C121.329 40.3167 117.915 35.116 114.861 32.2486C110.984 28.6096 105.291 26.5225 99.2418 26.5225C93.1928 26.5225 87.5002 28.6096 83.623 32.2486C80.5685 35.116 77.1544 40.3167 78.2374 48.8105C79.1921 56.3002 83.4597 64.7775 90.9247 74.0208L75.2212 90.7262C75.0421 90.9169 74.9219 91.1553 74.8749 91.4126C74.8279 91.67 74.8561 91.9354 74.9562 92.1772C75.0563 92.4189 75.224 92.6266 75.4391 92.7754C75.6543 92.9242 75.9078 93.0077 76.1693 93.0161L76.1698 93.0158ZM99.1731 37.8671C104.082 37.8671 108.409 39.2589 110.392 41.4416C109.465 48.6594 104.365 57.874 99.237 64.9268C94.094 57.9165 88.983 48.7179 88.0786 41.455C90.0658 39.2333 94.2565 37.8671 99.1731 37.8671Z" fill="url(#paint1_linear_1335_174)"/>
</g>
<defs>
<linearGradient id="paint0_linear_1335_174" x1="0" y1="0" x2="165.124" y2="183.029" gradientUnits="userSpaceOnUse">
<stop offset="0.125652" stop-color="#F5F5F5"/>
<stop offset="0.869819" stop-color="#E5E5E5"/>
</linearGradient>
<linearGradient id="paint1_linear_1335_174" x1="38.9487" y1="137.986" x2="160.601" y2="127.64" gradientUnits="userSpaceOnUse">
<stop offset="0.323057" stop-color="#F98D1B"/>
<stop offset="1" stop-color="#FFC180"/>
</linearGradient>
<clipPath id="clip0_1335_174">
<rect width="116" height="116" fill="white" transform="translate(34 25)"/>
</clipPath>
</defs>
</svg>
