<svg width="184" height="166" viewBox="0 0 184 166" fill="none" xmlns="http://www.w3.org/2000/svg">
<rect width="184" height="166" rx="20" fill="url(#paint0_linear_1335_193)"/>
<path d="M55.0587 109.022L70.6204 133.431L58.9223 140.887L42.2783 114.786L53.9742 107.323L55.0587 109.022ZM137.921 103.053C136.67 102.779 135.394 103.006 134.326 103.691L115.688 115.637C115.228 117.897 113.905 119.893 112.049 121.076C110.852 121.84 109.485 122.226 108.05 122.226C107.152 122.226 106.231 122.074 105.306 121.77L91.9295 117.343C91.0717 117.06 90.6066 116.132 90.8918 115.275C90.9591 115.071 91.066 114.882 91.2063 114.719C91.3466 114.557 91.5177 114.423 91.7096 114.327C91.9016 114.23 92.1106 114.173 92.3249 114.157C92.5391 114.142 92.7543 114.169 92.9581 114.237L106.337 118.661C107.805 119.15 109.172 119.028 110.291 118.315C111.507 117.539 112.376 116.083 112.556 114.515C112.563 114.447 112.575 114.382 112.594 114.319V114.316C112.636 113.284 112.34 112.266 111.751 111.417C111.162 110.568 110.313 109.934 109.331 109.611L79.965 99.8975C77.055 98.9323 74.2526 99.25 71.6372 100.842L58.7329 108.7L70.2488 126.76L76.7022 122.838C76.9044 122.715 77.1311 122.637 77.3664 122.61C77.6018 122.584 77.8401 122.609 78.0648 122.684L102.246 130.68C105.547 131.771 108.835 131.357 111.764 129.483L139.477 111.715C141.686 110.296 142.333 107.342 140.917 105.131C140.232 104.065 139.169 103.326 137.921 103.053ZM111.993 93.3997L119.108 84.6559L121.359 81.884L115.728 74.9631L105.215 87.886L111.993 93.3997ZM131.208 69.7814L137.512 62.031C137.516 61.9163 137.519 61.8067 137.519 61.699C137.519 58.2866 136.268 55.0025 134.045 52.4573L125.575 62.8584L131.208 69.7814ZM141.721 87.886L117.465 58.0738L112.891 52.4573C110.668 55.0025 109.42 58.2866 109.42 61.699C109.42 61.8067 109.42 61.9163 109.424 62.031L134.945 93.3999L141.721 87.886ZM118.977 54.7479C120.304 53.8901 121.87 53.418 123.464 53.418C125.091 53.418 126.638 53.8783 127.961 54.7456L131.614 50.2581C129.235 48.5626 126.386 47.6523 123.464 47.6542C120.544 47.6534 117.697 48.5637 115.319 50.2581L118.977 54.7479ZM72.0579 31.4405C72.0579 29.7576 73.4252 28.388 75.1059 28.388H91.0532C92.7383 28.388 94.1081 29.7578 94.1081 31.4405V37.9872H97.3804V31.4405C97.3804 27.9532 94.5429 25.1133 91.0534 25.1133H75.1061C71.6211 25.1133 68.7861 27.953 68.7861 31.4405V37.9872H72.0584V31.4405H72.0579ZM49.7438 82.1597V45.5927C49.7438 43.2038 51.6884 41.2593 54.077 41.2593H112.089C114.475 41.2593 116.415 43.2038 116.415 45.5927V45.8802C114.774 46.6109 113.256 47.5935 111.918 48.7925C108.251 52.074 106.145 56.779 106.145 61.699C106.145 62.0239 106.159 62.3676 106.183 62.7507C106.203 63.0906 106.331 63.4153 106.547 63.6785L113.62 72.3708L102.134 86.4859H54.077C51.6884 86.4861 49.7438 84.5438 49.7438 82.1597ZM70.7724 67.2245H78.0951C78.9973 67.2245 79.7311 67.9585 79.7311 68.8605V76.1832H86.4299V68.8605C86.43 68.4266 86.6024 68.0105 86.9092 67.7037C87.216 67.3969 87.632 67.2245 88.0659 67.2245H95.3864V60.5282H88.0659C87.1615 60.5282 86.4299 59.7941 86.4299 58.8897V51.5622H79.7311V58.8897C79.7311 59.7941 78.9973 60.5282 78.0951 60.5282H70.7724V67.2245Z" fill="url(#paint1_linear_1335_193)"/>
<defs>
<linearGradient id="paint0_linear_1335_193" x1="0" y1="0" x2="165.124" y2="183.029" gradientUnits="userSpaceOnUse">
<stop offset="0.125652" stop-color="#F5F5F5"/>
<stop offset="0.869819" stop-color="#E5E5E5"/>
</linearGradient>
<linearGradient id="paint1_linear_1335_193" x1="42.2783" y1="140.887" x2="155.94" y2="132.204" gradientUnits="userSpaceOnUse">
<stop offset="0.323057" stop-color="#F98D1B"/>
<stop offset="1" stop-color="#FFC180"/>
</linearGradient>
</defs>
</svg>
