<svg width="184" height="166" viewBox="0 0 184 166" fill="none" xmlns="http://www.w3.org/2000/svg">
<rect width="184" height="166" rx="20" fill="url(#paint0_linear_1335_201)"/>
<path fill-rule="evenodd" clip-rule="evenodd" d="M101.87 42.6381C102.423 42.6165 102.979 42.6055 103.537 42.6055C126.749 42.6055 145.68 61.5365 145.68 84.7488C145.68 107.961 126.749 126.892 103.537 126.892C89.4513 126.892 76.9422 119.921 69.283 109.253L75.159 101.244C80.8441 111.006 91.4222 117.565 103.537 117.565C121.665 117.565 136.353 102.877 136.353 84.7488C136.353 66.6205 121.665 51.9324 103.537 51.9324C93.2431 51.9324 84.0589 56.6679 78.0431 64.0801C81.1521 56.5258 87.2514 49.8312 99.1862 46.7663C100.069 46.5396 100.835 45.9896 101.332 45.225C101.829 44.4605 102.021 43.5373 101.87 42.6381ZM101.262 72.3352C101.262 71.0797 102.281 70.0607 103.537 70.0607C104.792 70.0607 105.811 71.0797 105.811 72.3352V83.4353L112.969 87.5665C114.056 88.194 114.429 89.5862 113.801 90.6734C113.174 91.7607 111.782 92.1339 110.695 91.5064L102.4 86.7185C102.054 86.519 101.767 86.2319 101.567 85.8861C101.367 85.5403 101.262 85.1481 101.262 84.7488V72.3352ZM101.262 58.6217C101.262 57.3664 102.281 56.3472 103.537 56.3472C104.792 56.3472 105.811 57.3664 105.811 58.6217V61.4505C105.811 62.7058 104.792 63.725 103.537 63.725C102.281 63.725 101.262 62.7058 101.262 61.4505V58.6217ZM120.41 64.6585C121.298 63.771 122.739 63.771 123.627 64.6585C124.514 65.5462 124.514 66.9876 123.627 67.8751L121.62 69.8819C120.732 70.7697 119.291 70.7697 118.403 69.8819C117.516 68.9944 117.516 67.553 118.403 66.6653L120.41 64.6585ZM123.627 101.622C124.514 102.51 124.514 103.951 123.627 104.839C122.739 105.727 121.298 105.727 120.41 104.839L118.403 102.832C117.516 101.944 117.516 100.503 118.403 99.6154C119.291 98.7277 120.732 98.7277 121.62 99.6154L123.627 101.622ZM86.6632 104.839C85.7755 105.727 84.3341 105.727 83.4464 104.839C82.5589 103.951 82.5589 102.51 83.4464 101.622L85.4534 99.6154C86.3409 98.7277 87.7823 98.7277 88.67 99.6154C89.5575 100.503 89.5575 101.944 88.67 102.832L86.6632 104.839ZM83.4464 67.8751C82.5589 66.9876 82.5589 65.5462 83.4464 64.6585C84.3341 63.771 85.7755 63.771 86.6632 64.6585L88.67 66.6653C89.5575 67.553 89.5575 68.9944 88.67 69.8819C87.7823 70.7697 86.3409 70.7697 85.4534 69.8819L83.4464 67.8751ZM129.673 82.4743C130.928 82.4743 131.948 83.4933 131.948 84.7488C131.948 86.0041 130.928 87.0233 129.673 87.0233H126.835C125.579 87.0233 124.56 86.0041 124.56 84.7488C124.56 83.4933 125.579 82.4743 126.835 82.4743H129.673ZM105.811 110.876C105.811 112.131 104.792 113.15 103.537 113.15C102.281 113.15 101.262 112.131 101.262 110.876V108.047C101.262 106.792 102.281 105.772 103.537 105.772C104.792 105.772 105.811 106.792 105.811 108.047V110.876ZM71.1991 85.4191H79.1128C79.407 85.4191 79.6955 85.5006 79.9463 85.6547C80.197 85.8087 80.4001 86.0292 80.5331 86.2917C80.6661 86.5542 80.7237 86.8485 80.6996 87.1417C80.6755 87.435 80.5706 87.7159 80.3965 87.9531L62.0853 112.912C61.9425 113.106 61.7573 113.266 61.5437 113.379C61.3301 113.491 61.0938 113.554 60.8525 113.561C60.6112 113.569 60.3713 113.522 60.1509 113.423C59.9306 113.324 59.7356 113.177 59.5806 112.992L38.6913 88.0332C38.497 87.8009 38.3729 87.518 38.3337 87.2176C38.2945 86.9173 38.3418 86.612 38.4699 86.3376C38.5981 86.0632 38.8019 85.831 39.0573 85.6683C39.3128 85.5056 39.6094 85.4192 39.9123 85.4191H47.1325C47.1325 44.7618 77.0225 31.4313 98.281 43.2415C72.8387 49.7748 71.1991 71.1088 71.1991 85.4191Z" fill="url(#paint1_linear_1335_201)"/>
<defs>
<linearGradient id="paint0_linear_1335_201" x1="0" y1="0" x2="165.124" y2="183.029" gradientUnits="userSpaceOnUse">
<stop offset="0.125652" stop-color="#F5F5F5"/>
<stop offset="0.869819" stop-color="#E5E5E5"/>
</linearGradient>
<linearGradient id="paint1_linear_1335_201" x1="38.3203" y1="126.892" x2="160.303" y2="113.624" gradientUnits="userSpaceOnUse">
<stop offset="0.323057" stop-color="#F98D1B"/>
<stop offset="1" stop-color="#FFC180"/>
</linearGradient>
</defs>
</svg>
