<svg width="184" height="166" viewBox="0 0 184 166" fill="none" xmlns="http://www.w3.org/2000/svg">
<rect width="184" height="166" rx="20" fill="url(#paint0_linear_1335_209)"/>
<path d="M90.1875 43.125H93.8125V46.75H90.1875V43.125ZM62.5215 56.0844L65.0844 53.5215L67.6472 56.0844L65.0844 58.6472L62.5215 56.0844ZM52.125 81.1875H55.75V84.8125H52.125V81.1875ZM62.5233 109.916L65.0862 107.353L67.6491 109.916L65.0862 112.479L62.5233 109.916ZM90.1875 119.25H93.8125V122.875H90.1875V119.25ZM116.353 109.916L118.916 107.353L121.479 109.916L118.916 112.479L116.353 109.916ZM128.25 81.1875H131.875V84.8125H128.25V81.1875ZM116.353 56.0844L118.916 53.5215L121.479 56.0844L118.916 58.6472L116.353 56.0844Z" fill="url(#paint1_linear_1335_209)"/>
<path d="M96.1888 32.4314L98.7263 29.8939L96.1562 27.3438L90.7187 32.7813C90.3789 33.1211 90.188 33.5821 90.188 34.0627C90.188 34.5433 90.3789 35.0042 90.7187 35.3441L96.1562 40.7816L98.7191 38.2188L96.6039 36.1036C107.903 37.2085 118.424 42.3556 126.231 50.5984C134.039 58.8412 138.608 69.6256 139.099 80.9683C139.589 92.3111 135.968 103.45 128.902 112.336C121.836 121.222 111.799 127.258 100.637 129.335L101.295 132.9C113.377 130.649 124.233 124.09 131.845 114.441C139.457 104.791 143.309 92.7073 142.686 80.4326C142.062 68.1578 137.005 56.5265 128.453 47.6985C119.902 38.8705 108.438 33.4457 96.1888 32.4314ZM87.8441 125.219L85.2812 127.782L87.3964 129.897C75.9522 128.778 65.312 123.513 57.4798 115.094C49.6475 106.675 45.1637 95.6832 44.8727 84.1881C44.5817 72.6929 48.5037 61.4881 55.8999 52.6837C63.2962 43.8793 73.6563 38.083 85.0293 36.3863L84.4982 32.7939C72.1828 34.6285 60.9716 40.9264 52.9978 50.4894C45.0239 60.0525 40.8439 72.2132 41.253 84.6577C41.6622 97.1022 46.6319 108.962 55.2167 117.981C63.8015 126.999 75.4022 132.547 87.8115 133.569L85.274 136.106L87.8368 138.669L93.2743 133.232C93.6141 132.892 93.805 132.431 93.805 131.95C93.805 131.47 93.6141 131.009 93.2743 130.669L87.8441 125.219Z" fill="url(#paint2_linear_1335_209)"/>
<path d="M95.625 77.5625V68.5H88.375V77.5625C88.375 78.0432 88.184 78.5042 87.8441 78.8441C87.5042 79.184 87.0432 79.375 86.5625 79.375H77.5V86.625H86.5625C87.0432 86.625 87.5042 86.816 87.8441 87.1559C88.184 87.4958 88.375 87.9568 88.375 88.4375V97.5H95.625V88.4375C95.625 87.9568 95.816 87.4958 96.1559 87.1559C96.4958 86.816 96.9568 86.625 97.4375 86.625H106.5V79.375H97.4375C96.9568 79.375 96.4958 79.184 96.1559 78.8441C95.816 78.5042 95.625 78.0432 95.625 77.5625Z" fill="url(#paint3_linear_1335_209)"/>
<path d="M92 57.625C86.9813 57.625 82.0753 59.1132 77.9024 61.9015C73.7295 64.6897 70.4771 68.6527 68.5566 73.2894C66.636 77.9261 66.1335 83.0282 67.1126 87.9504C68.0917 92.8727 70.5084 97.3941 74.0572 100.943C77.6059 104.492 82.1273 106.908 87.0496 107.887C91.9719 108.867 97.0739 108.364 101.711 106.443C106.347 104.523 110.31 101.27 113.099 97.0976C115.887 92.9247 117.375 88.0187 117.375 83C117.368 76.2723 114.692 69.8223 109.935 65.0651C105.178 60.3079 98.7277 57.6322 92 57.625ZM108.313 90.25H99.25V99.3125C99.25 99.7932 99.0591 100.254 98.7191 100.594C98.3792 100.934 97.9182 101.125 97.4375 101.125H86.5625C86.0818 101.125 85.6208 100.934 85.2809 100.594C84.941 100.254 84.75 99.7932 84.75 99.3125V90.25H75.6875C75.2068 90.25 74.7458 90.059 74.4059 89.7191C74.066 89.3792 73.875 88.9182 73.875 88.4375V77.5625C73.875 77.0818 74.066 76.6208 74.4059 76.2809C74.7458 75.941 75.2068 75.75 75.6875 75.75H84.75V66.6875C84.75 66.2068 84.941 65.7458 85.2809 65.4059C85.6208 65.066 86.0818 64.875 86.5625 64.875H97.4375C97.9182 64.875 98.3792 65.066 98.7191 65.4059C99.0591 65.7458 99.25 66.2068 99.25 66.6875V75.75H108.313C108.793 75.75 109.254 75.941 109.594 76.2809C109.934 76.6208 110.125 77.0818 110.125 77.5625V88.4375C110.125 88.9182 109.934 89.3792 109.594 89.7191C109.254 90.059 108.793 90.25 108.313 90.25Z" fill="url(#paint4_linear_1335_209)"/>
<defs>
<linearGradient id="paint0_linear_1335_209" x1="0" y1="0" x2="165.124" y2="183.029" gradientUnits="userSpaceOnUse">
<stop offset="0.125652" stop-color="#F5F5F5"/>
<stop offset="0.869819" stop-color="#E5E5E5"/>
</linearGradient>
<linearGradient id="paint1_linear_1335_209" x1="52.125" y1="122.875" x2="143.09" y2="114.785" gradientUnits="userSpaceOnUse">
<stop offset="0.323057" stop-color="#F98D1B"/>
<stop offset="1" stop-color="#FFC180"/>
</linearGradient>
<linearGradient id="paint2_linear_1335_209" x1="41.2256" y1="138.669" x2="157.182" y2="129.264" gradientUnits="userSpaceOnUse">
<stop offset="0.323057" stop-color="#F98D1B"/>
<stop offset="1" stop-color="#FFC180"/>
</linearGradient>
<linearGradient id="paint3_linear_1335_209" x1="77.5" y1="97.5" x2="110.578" y2="94.5581" gradientUnits="userSpaceOnUse">
<stop offset="0.323057" stop-color="#F98D1B"/>
<stop offset="1" stop-color="#FFC180"/>
</linearGradient>
<linearGradient id="paint4_linear_1335_209" x1="66.625" y1="108.375" x2="124.512" y2="103.227" gradientUnits="userSpaceOnUse">
<stop offset="0.323057" stop-color="#F98D1B"/>
<stop offset="1" stop-color="#FFC180"/>
</linearGradient>
</defs>
</svg>
