<svg width="184" height="166" viewBox="0 0 184 166" fill="none" xmlns="http://www.w3.org/2000/svg">
<rect width="184" height="166" rx="20" fill="url(#paint0_linear_1335_184)"/>
<path d="M124.889 55.2228H116.597V50.1206C116.588 46.6444 115.204 43.3129 112.747 40.8542C110.289 38.3956 106.958 37.0099 103.482 37L80.5272 37C77.0501 37.0098 73.7182 38.3953 71.2593 40.8536C68.8003 43.312 67.4141 46.6436 67.4034 50.1206V55.2228H59.1238C51.895 55.2228 46 60.2161 46 67.4293V115.882C46.009 119.36 47.3948 122.692 49.8542 125.15C52.3136 127.608 55.6465 128.993 59.1238 129H124.889C128.364 128.989 131.693 127.604 134.15 125.146C136.607 122.688 137.991 119.358 138 115.882V67.4293C138 60.2161 132.102 55.2228 124.889 55.2228ZM74.4364 50.1206C74.4364 46.8965 77.3092 44.0267 80.5272 44.0267H103.482C106.688 44.0267 109.567 46.8996 109.567 50.1206V55.2228H74.4364V50.1206ZM113.083 100.893H99.0267V114.95H84.9764V100.893H70.923V83.3265H84.9795V69.2793H99.0298V83.3265H113.086L113.083 100.893Z" fill="url(#paint1_linear_1335_184)"/>
<defs>
<linearGradient id="paint0_linear_1335_184" x1="0" y1="0" x2="165.124" y2="183.029" gradientUnits="userSpaceOnUse">
<stop offset="0.125652" stop-color="#F5F5F5"/>
<stop offset="0.869819" stop-color="#E5E5E5"/>
</linearGradient>
<linearGradient id="paint1_linear_1335_184" x1="46" y1="129" x2="150.938" y2="119.667" gradientUnits="userSpaceOnUse">
<stop offset="0.323057" stop-color="#F98D1B"/>
<stop offset="1" stop-color="#FFC180"/>
</linearGradient>
</defs>
</svg>
