<svg width="184" height="166" viewBox="0 0 184 166" fill="none" xmlns="http://www.w3.org/2000/svg">
<rect width="184" height="166" rx="20" fill="url(#paint0_linear_1335_118)"/>
<path d="M90.3525 59.0015C90.5034 59.0021 90.6528 58.9727 90.7922 58.9151C90.9316 58.8575 91.0582 58.7729 91.1647 58.666L100.655 49.1759L99.0327 47.5537L91.5289 55.0576C91.3751 55.2114 91.1926 55.3334 90.9917 55.4167C90.7908 55.4999 90.5755 55.5428 90.358 55.5428C90.1406 55.5428 89.9252 55.4999 89.7244 55.4167C89.5235 55.3334 89.3409 55.2114 89.1872 55.0576L85.9672 51.8375L84.334 53.4641L89.5359 58.666C89.6429 58.7734 89.7703 58.8584 89.9105 58.916C90.0507 58.9736 90.2009 59.0026 90.3525 59.0015Z" fill="url(#paint1_linear_1335_118)"/>
<path d="M91.8953 78.7496C92.284 78.9026 92.7161 78.9026 93.1048 78.7496C99.0366 76.422 104.13 72.3611 107.72 67.0964C111.31 61.8316 113.23 55.6074 113.231 49.2352V36.1387C113.231 35.8055 113.131 35.4798 112.944 35.2042C112.756 34.9286 112.49 34.7159 112.18 34.5938L93.1048 27.1143C92.716 26.9619 92.2841 26.9619 91.8953 27.1143L72.8201 34.596C72.5099 34.7181 72.2438 34.9308 72.0564 35.2064C71.869 35.482 71.769 35.8077 71.7695 36.141V49.2374C71.7701 55.6096 73.6905 61.8338 77.2805 67.0986C80.8705 72.3633 85.9634 76.4242 91.8953 78.7518V78.7496ZM80.8293 52.2919L84.802 48.3303C84.9555 48.1766 85.1378 48.0546 85.3385 47.9714C85.5393 47.8881 85.7544 47.8453 85.9717 47.8453C86.189 47.8453 86.4041 47.8881 86.6048 47.9714C86.8055 48.0546 86.9879 48.1766 87.1414 48.3303L90.3614 51.5504L97.8653 44.0465C98.0188 43.8927 98.2012 43.7708 98.4019 43.6875C98.6026 43.6043 98.8177 43.5615 99.035 43.5615C99.2523 43.5615 99.4675 43.6043 99.6682 43.6875C99.8689 43.7708 100.051 43.8927 100.205 44.0465L104.177 48.0191C104.331 48.1728 104.453 48.3554 104.536 48.5563C104.62 48.7572 104.663 48.9725 104.663 49.1899C104.663 49.4074 104.62 49.6227 104.536 49.8236C104.453 50.0245 104.331 50.207 104.177 50.3608L93.5131 61.0251C93.0992 61.4394 92.6078 61.7681 92.0668 61.9924C91.5258 62.2166 90.946 62.3321 90.3603 62.3321C89.7747 62.3321 89.1949 62.2166 88.6539 61.9924C88.1129 61.7681 87.6215 61.4394 87.2076 61.0251L80.836 54.6534C80.6787 54.4998 80.5536 54.3164 80.468 54.1139C80.3824 53.9114 80.338 53.6939 80.3374 53.4741C80.3368 53.2542 80.38 53.0365 80.4645 52.8335C80.5489 52.6305 80.673 52.4464 80.8293 52.2919Z" fill="url(#paint2_linear_1335_118)"/>
<path d="M92.4999 103.031C97.6803 103.031 101.88 98.8316 101.88 93.6513C101.88 88.471 97.6803 84.2715 92.4999 84.2715C87.3196 84.2715 83.1201 88.471 83.1201 93.6513C83.1201 98.8316 87.3196 103.031 92.4999 103.031Z" fill="url(#paint3_linear_1335_118)"/>
<path d="M40.083 132.274H144.916V139.999H40.083V132.274ZM36 122.343H148.999V128.964H36V122.343ZM75.3953 116.825V119.032H109.604V116.825C109.602 113.948 108.875 111.119 107.489 108.598C106.103 106.077 104.104 103.946 101.676 102.402C100.494 103.647 99.0706 104.638 97.493 105.316C95.9154 105.993 94.2165 106.342 92.4996 106.342C90.7828 106.342 89.0839 105.993 87.5063 105.316C85.9286 104.638 84.5053 103.647 83.3229 102.402C80.8952 103.946 78.896 106.077 77.5103 108.598C76.1246 111.119 75.3972 113.948 75.3953 116.825Z" fill="url(#paint4_linear_1335_118)"/>
<path d="M64.1396 100.272C70.5388 100.272 75.7264 95.0847 75.7264 88.6855C75.7264 82.2862 70.5388 77.0986 64.1396 77.0986C57.7403 77.0986 52.5527 82.2862 52.5527 88.6855C52.5527 95.0847 57.7403 100.272 64.1396 100.272Z" fill="url(#paint5_linear_1335_118)"/>
<path d="M72.0848 116.825C72.0819 111.536 74.1403 106.453 77.823 102.656C76.7099 101.539 75.4648 100.56 74.1152 99.7432C71.3819 102.215 67.828 103.583 64.1428 103.583C60.4577 103.583 56.9038 102.215 54.1704 99.7432C51.3214 101.461 48.9643 103.885 47.3276 106.781C45.6908 109.677 44.8298 112.947 44.8281 116.274V119.032H72.0848V116.825Z" fill="url(#paint6_linear_1335_118)"/>
<path d="M120.86 100.272C127.259 100.272 132.447 95.0847 132.447 88.6855C132.447 82.2862 127.259 77.0986 120.86 77.0986C114.461 77.0986 109.273 82.2862 109.273 88.6855C109.273 95.0847 114.461 100.272 120.86 100.272Z" fill="url(#paint7_linear_1335_118)"/>
<path d="M120.86 103.583C117.174 103.586 113.62 102.217 110.888 99.7432C109.539 100.56 108.294 101.539 107.181 102.656C110.863 106.453 112.922 111.536 112.919 116.825V119.032H140.171V116.274C140.17 112.947 139.31 109.678 137.674 106.782C136.038 103.886 133.681 101.461 130.833 99.7432C128.101 102.217 124.546 103.586 120.86 103.583Z" fill="url(#paint8_linear_1335_118)"/>
<defs>
<linearGradient id="paint0_linear_1335_118" x1="0" y1="0" x2="165.124" y2="183.029" gradientUnits="userSpaceOnUse">
<stop offset="0.125652" stop-color="#F5F5F5"/>
<stop offset="0.869819" stop-color="#E5E5E5"/>
</linearGradient>
<linearGradient id="paint1_linear_1335_118" x1="84.334" y1="59.0015" x2="102.8" y2="56.6601" gradientUnits="userSpaceOnUse">
<stop offset="0.323057" stop-color="#F98D1B"/>
<stop offset="1" stop-color="#FFC180"/>
</linearGradient>
<linearGradient id="paint2_linear_1335_118" x1="71.7695" y1="78.8644" x2="119.196" y2="75.4925" gradientUnits="userSpaceOnUse">
<stop offset="0.323057" stop-color="#F98D1B"/>
<stop offset="1" stop-color="#FFC180"/>
</linearGradient>
<linearGradient id="paint3_linear_1335_118" x1="83.1201" y1="103.031" x2="104.518" y2="101.128" gradientUnits="userSpaceOnUse">
<stop offset="0.323057" stop-color="#F98D1B"/>
<stop offset="1" stop-color="#FFC180"/>
</linearGradient>
<linearGradient id="paint4_linear_1335_118" x1="36" y1="139.999" x2="157.246" y2="107.589" gradientUnits="userSpaceOnUse">
<stop offset="0.323057" stop-color="#F98D1B"/>
<stop offset="1" stop-color="#FFC180"/>
</linearGradient>
<linearGradient id="paint5_linear_1335_118" x1="52.5527" y1="100.272" x2="78.9853" y2="97.9215" gradientUnits="userSpaceOnUse">
<stop offset="0.323057" stop-color="#F98D1B"/>
<stop offset="1" stop-color="#FFC180"/>
</linearGradient>
<linearGradient id="paint6_linear_1335_118" x1="44.8281" y1="119.032" x2="81.9027" y2="113.392" gradientUnits="userSpaceOnUse">
<stop offset="0.323057" stop-color="#F98D1B"/>
<stop offset="1" stop-color="#FFC180"/>
</linearGradient>
<linearGradient id="paint7_linear_1335_118" x1="109.273" y1="100.272" x2="135.706" y2="97.9215" gradientUnits="userSpaceOnUse">
<stop offset="0.323057" stop-color="#F98D1B"/>
<stop offset="1" stop-color="#FFC180"/>
</linearGradient>
<linearGradient id="paint8_linear_1335_118" x1="107.181" y1="119.032" x2="144.251" y2="113.394" gradientUnits="userSpaceOnUse">
<stop offset="0.323057" stop-color="#F98D1B"/>
<stop offset="1" stop-color="#FFC180"/>
</linearGradient>
</defs>
</svg>
