<svg width="51" height="51" viewBox="0 0 51 51" fill="none" xmlns="http://www.w3.org/2000/svg">
<rect width="51" height="51" rx="25.5" fill="#F98D1B"/>
<g clip-path="url(#clip0_850_1961)">
<path d="M17.7041 27.4351H19.8431V29.0139H17.7041V27.4351Z" fill="white"/>
<path d="M36.5782 23.253H15.4227C14.6472 23.253 14.0186 23.8816 14.0186 24.6571V36.5959C14.0186 37.3713 14.6472 38 15.4227 38H36.5782C37.3537 38 37.9824 37.3713 37.9824 36.5958V24.6571C37.9824 23.8816 37.3537 23.253 36.5782 23.253ZM19.6815 34.9531H16.2061V33.549H19.6815V34.9531ZM21.2469 29.2482C21.2469 29.8934 20.722 30.4183 20.0768 30.4183H17.4696C16.8244 30.4183 16.2995 29.8934 16.2995 29.2482V27.2012C16.2995 26.5561 16.8244 26.0311 17.4696 26.0311H20.0767C20.7219 26.0311 21.2468 26.5561 21.2468 27.2012L21.2469 29.2482ZM25.0526 34.9531H21.5772V33.549H25.0526V34.9531ZM30.4237 34.9531H26.9483V33.549H30.4237V34.9531ZM35.7948 34.9531H32.3194V33.549H35.7948V34.9531ZM32.8681 17.4109L29.8684 14.4113C29.3201 13.8629 28.4311 13.8629 27.8827 14.4113L20.4451 21.8488H28.6837L32.8681 17.4109ZM32.7818 21.8488L34.9774 19.5202L33.8614 18.4042L30.6135 21.8488H32.7818ZM36.5782 21.8488C36.8798 21.8488 37.1703 21.8972 37.4428 21.9856L35.9707 20.5135L34.7117 21.8489L36.5782 21.8488Z" fill="white"/>
</g>
<defs>
<clipPath id="clip0_850_1961">
<rect width="24" height="24" fill="white" transform="translate(14 14)"/>
</clipPath>
</defs>
</svg>
