<svg width="51" height="51" viewBox="0 0 51 51" fill="none" xmlns="http://www.w3.org/2000/svg">
<rect width="51" height="51" rx="25.5" fill="#F98D1B"/>
<path d="M28.5504 22.6207H23.8214L23.3485 23.5862H29.0233L28.5504 22.6207ZM25.2401 24.5517H27.1317V25.5172H25.2401V24.5517ZM20.8657 21.6552H31.5061C32.0155 20.5935 32.6415 19.5961 33.3702 18.6881C33.9216 18.0003 34.2253 17.1317 34.2253 16.2425V15.8616C34.2253 14.8289 33.8313 13.8592 33.1157 13.1291C32.4013 12.4007 31.452 12 30.4429 12H30.4381C29.6271 12.001 28.8229 12.2746 28.1736 12.7715C27.031 13.6458 25.3384 13.6437 24.1991 12.7734C23.548 12.2741 22.7434 12.0005 21.932 12H21.9293C20.919 12 19.97 12.4012 19.2553 13.1301C18.5404 13.8596 18.1465 14.8294 18.1465 15.8616V16.2425C18.1465 17.1317 18.4501 18.0003 19.0015 18.6872C19.7303 19.5961 20.3563 20.5935 20.8657 21.6552ZM21.9297 12.9655C22.5407 12.966 23.1445 13.1715 23.6301 13.544C24.3637 14.1042 25.2717 14.4138 26.1859 14.4138C27.1 14.4138 28.0071 14.1052 28.7395 13.5454C29.2272 13.1723 29.8311 12.966 30.4393 12.9655L30.4402 13.931C30.0349 13.9315 29.6324 14.0687 29.3067 14.3181C28.4109 15.0029 27.3027 15.3793 26.1858 15.3793C25.0687 15.3793 23.9598 15.0017 23.0627 14.3166C22.7388 14.0682 22.3363 13.9315 21.9287 13.931L21.9297 12.9655ZM25.2401 32.2759H27.1317V33.2414H25.2401V32.2759ZM25.2401 34.2069H27.1317V35.1724H25.2401V34.2069ZM26.3985 38.069C26.7481 37.4743 26.9733 36.8192 27.0721 36.1379H25.2996C25.3984 36.8192 25.6235 37.4743 25.973 38.069H26.3985ZM25.2401 30.3448H27.1317V31.3103H25.2401V30.3448Z" fill="white"/>
<path d="M28.0775 33.2521V35.3627C28.0775 36.5972 27.7229 37.7923 27.0523 38.8194L26.9119 39.0345H25.4599L25.3195 38.8198C24.649 37.793 24.2943 36.5972 24.2943 35.3632V33.2525C20.0702 33.3654 16.2941 35.7814 14.3633 39.6326V40.0001H38.0086V39.6321C36.0776 35.7814 32.3016 33.3655 28.0775 33.2521ZM29.0229 28.4134C29.0224 27.8804 28.5992 27.4483 28.0771 27.4483H24.2952C23.7726 27.4483 23.3494 27.8804 23.3494 28.4139V29.3794H29.0233L29.0229 28.4134ZM32.9163 29.2061L35.644 32.5472L38.3718 29.2061L37.6453 28.587L36.1169 30.4596V23.1035H35.1711V30.4597L33.6427 28.5872L32.9163 29.2061ZM19.4556 29.2061L18.7291 28.587L17.2007 30.4596V23.1035H16.2549V30.4597L14.7264 28.5872L14 29.2061L16.7278 32.5472L19.4556 29.2061Z" fill="white"/>
</svg>
