<svg width="51" height="51" viewBox="0 0 51 51" fill="none" xmlns="http://www.w3.org/2000/svg">
<rect width="51" height="51" rx="25.5" fill="#F98D1B"/>
<path d="M32.4528 19.2299C32.4387 19.1872 32.419 19.1465 32.3942 19.109C32.2422 18.8787 32.0447 18.6821 31.8138 18.5311C31.5829 18.3801 31.3236 18.278 31.0517 18.231C30.5273 18.1427 29.9892 18.2643 29.5536 18.5694L29.3394 17.7022C29.8732 17.3039 30.5229 17.0919 31.1889 17.0988C31.8549 17.1057 32.5002 17.331 33.0256 17.7402L37.9325 25.0625H34.3114L32.4528 19.2299ZM18.9744 17.7402C19.5007 17.3306 20.1471 17.1054 20.814 17.0991C21.4809 17.0929 22.1314 17.3059 22.6653 17.7055L22.4647 18.5816C22.2487 18.4246 22.0034 18.3126 21.7433 18.2523C21.4832 18.192 21.2136 18.1846 20.9506 18.2305C20.6775 18.278 20.4171 18.381 20.1853 18.533C19.9535 18.6851 19.7553 18.883 19.603 19.1146C19.5795 19.1502 19.5608 19.1891 19.5477 19.2299L17.6886 25.0625H14.067L18.9744 17.7402ZM39.5938 31.8107C39.5938 32.3188 39.335 32.7233 38.0455 33.0529L32.5527 34.8008C31.5655 35.0957 30.4747 34.7319 29.9042 33.9224L27.1794 29.9061C26.8794 29.5086 26.4505 29.2813 26.0056 29.2813H25.9972C25.5491 29.2813 25.1206 29.5086 24.8066 29.9254L22.1005 33.9158C21.5253 34.7319 20.4336 35.0971 19.4548 34.8036L13.9283 33.0458C12.665 32.7238 12.4062 32.3188 12.4062 31.8107V27.3252C12.4062 26.5949 13.0372 26 13.8125 26H38.1875C38.9628 26 39.5938 26.5949 39.5938 27.3252V31.8107Z" fill="white"/>
</svg>
