<svg width="51" height="51" viewBox="0 0 51 51" fill="none" xmlns="http://www.w3.org/2000/svg">
<rect width="51" height="51" rx="25.5" fill="#F98D1B"/>
<g clip-path="url(#clip0_850_1994)">
<path d="M34.3092 18.5081C34.0911 18.5081 33.8859 18.4232 33.7318 18.2691C33.5789 18.1158 33.4931 17.9081 33.493 17.6916C33.493 17.4751 33.5788 17.2675 33.7317 17.1141C33.8859 16.9599 34.0911 16.875 34.3092 16.875C34.5273 16.875 34.7325 16.9599 34.8867 17.1141C35.0395 17.2674 35.1254 17.4751 35.1254 17.6915C35.1254 17.908 35.0395 18.1156 34.8867 18.2689C34.8111 18.345 34.721 18.4053 34.6219 18.4464C34.5228 18.4874 34.4165 18.5084 34.3092 18.5081ZM28.1932 16.1309C28.1194 16.1307 28.0463 16.1451 27.9782 16.1733C27.91 16.2015 27.8481 16.243 27.796 16.2953C27.6901 16.4014 27.6317 16.5424 27.6317 16.6924C27.6317 16.8424 27.6901 16.9834 27.796 17.0894C27.8481 17.1417 27.91 17.1832 27.9781 17.2114C28.0463 17.2396 28.1194 17.2541 28.1932 17.2539C28.3433 17.2539 28.4843 17.1955 28.5904 17.0895C28.6964 16.9834 28.7548 16.8424 28.7548 16.6924C28.7548 16.5424 28.6964 16.4014 28.5904 16.2953C28.5383 16.243 28.4764 16.2015 28.4082 16.1733C28.3401 16.1451 28.267 16.1307 28.1932 16.1309ZM37.8873 26.285C37.1694 27.003 36.2147 27.3985 35.1995 27.3985H35.1994C34.3487 27.3985 33.5405 27.1208 32.8785 26.6086L18.3882 38.8785C18.2956 38.9571 18.1781 39.0001 18.0567 39C17.9552 39 17.8559 38.9699 17.7715 38.9135C17.6871 38.8571 17.6213 38.777 17.5825 38.6832C17.5436 38.5894 17.5335 38.4862 17.5533 38.3867C17.573 38.2871 17.6219 38.1957 17.6937 38.1239L29.036 26.7817C30.0805 25.7371 30.0804 24.0375 29.0359 22.9931L29.0077 22.9648C28.5018 22.4589 27.8289 22.1802 27.1133 22.1802C26.3977 22.1802 25.725 22.4589 25.2189 22.9648L13.8768 34.3071C13.7832 34.4006 13.657 34.4543 13.5246 34.457C13.3923 34.4597 13.264 34.4112 13.1666 34.3215C13.0692 34.2319 13.0102 34.1081 13.0019 33.9759C12.9937 33.8438 13.0368 33.7136 13.1222 33.6125L25.3925 19.1217C24.2429 17.6316 24.3509 15.4783 25.7158 14.1135C26.4335 13.3955 27.3883 13 28.4036 13C29.419 13 30.3737 13.3955 31.0916 14.1135C31.163 14.1848 31.2315 14.259 31.297 14.3358C32.0969 13.6934 33.0849 13.3441 34.1266 13.3441C35.3367 13.3441 36.4743 13.8153 37.3299 14.671C38.9764 16.3173 39.0879 18.9265 37.6648 20.7036C37.7418 20.7692 37.816 20.8377 37.8873 20.9092C39.3695 22.3911 39.3695 24.8029 37.8873 26.285ZM29.7813 16.6924C29.7813 16.2682 29.6161 15.8695 29.3161 15.5695C29.0161 15.2695 28.6175 15.1044 28.1932 15.1044C27.769 15.1044 27.3703 15.2695 27.0703 15.5695C26.7703 15.8695 26.6052 16.2682 26.6052 16.6924C26.6046 16.901 26.6454 17.1077 26.7252 17.3004C26.8051 17.4932 26.9224 17.6681 27.0703 17.8152C27.2174 17.9632 27.3924 18.0804 27.5851 18.1603C27.7779 18.2401 27.9845 18.2809 28.1932 18.2803C28.6175 18.2803 29.0161 18.1152 29.3161 17.8154C29.4641 17.6682 29.5814 17.4932 29.6612 17.3005C29.741 17.1077 29.7818 16.901 29.7813 16.6924ZM33.006 18.9949C33.3541 19.3429 33.8169 19.5346 34.3092 19.5346C34.8015 19.5346 35.2643 19.3429 35.6126 18.9948C36.3311 18.276 36.3311 17.1068 35.6124 16.3884C35.2643 16.0402 34.8015 15.8485 34.3092 15.8485C33.8169 15.8485 33.3541 16.0402 33.006 16.3884C32.2873 17.1068 32.2873 18.276 33.006 18.9949ZM36.8949 23.806C36.8949 23.3818 36.7298 22.9832 36.4298 22.6832C36.1298 22.3832 35.7311 22.2181 35.3069 22.2181C34.8826 22.2181 34.484 22.3832 34.184 22.6832C33.884 22.9832 33.7188 23.3818 33.7188 23.806C33.7188 24.2303 33.884 24.629 34.184 24.9291C34.3311 25.077 34.5061 25.1943 34.6989 25.2741C34.8916 25.3539 35.0983 25.3947 35.3069 25.3941C35.7311 25.3941 36.1298 25.229 36.4298 24.929C36.7298 24.629 36.8949 24.2302 36.8949 23.806ZM35.3069 23.2445C35.1568 23.2445 35.0158 23.3029 34.9097 23.4089C34.8574 23.461 34.816 23.5229 34.7878 23.591C34.7595 23.6592 34.7451 23.7323 34.7453 23.806C34.7453 23.9561 34.8037 24.0972 34.9097 24.2033C34.9618 24.2556 35.0237 24.297 35.0919 24.3252C35.16 24.3534 35.2331 24.3678 35.3069 24.3676C35.3807 24.3678 35.4538 24.3534 35.522 24.3252C35.5901 24.2969 35.652 24.2555 35.7041 24.2031C35.7563 24.1511 35.7978 24.0892 35.826 24.021C35.8542 23.9529 35.8686 23.8798 35.8684 23.806C35.8686 23.7323 35.8542 23.6592 35.826 23.591C35.7978 23.5229 35.7563 23.461 35.7041 23.4089C35.652 23.3566 35.5901 23.3152 35.5219 23.287C35.4538 23.2588 35.3807 23.2444 35.3069 23.2445Z" fill="white"/>
</g>
<defs>
<clipPath id="clip0_850_1994">
<rect width="26" height="26" fill="white" transform="translate(13 13)"/>
</clipPath>
</defs>
</svg>
