<svg width="51" height="51" viewBox="0 0 51 51" fill="none" xmlns="http://www.w3.org/2000/svg">
<rect width="51" height="51" rx="25.5" fill="#F98D1B"/>
<path d="M33.555 14.168C33.3627 14.0397 33.1318 13.9821 32.9017 14.0049C32.6716 14.0277 32.4565 14.1295 32.293 14.293L29.293 17.293C29.1056 17.4805 29.0002 17.7348 29.0002 18C29.0002 18.2652 29.1056 18.5195 29.293 18.707C30.154 19.5634 30.8365 20.582 31.3012 21.7039C31.7658 22.8258 32.0034 24.0287 32 25.243V26C32 28.206 33.794 30 36 30H36.21C38.3 30 40 28.3 40 26.21C40 21.36 37.59 16.858 33.555 14.168ZM36 27C35.7348 27 35.4805 26.8946 35.2929 26.7071C35.1054 26.5196 35 26.2652 35 26C35 25.7348 35.1054 25.4804 35.2929 25.2929C35.4805 25.1054 35.7348 25 36 25C36.2652 25 36.5196 25.1054 36.7071 25.2929C36.8947 25.4804 37 25.7348 37 26C37 26.2652 36.8947 26.5196 36.7071 26.7071C36.5196 26.8946 36.2652 27 36 27Z" fill="white"/>
<path d="M23.2456 17.004L22.9996 17C18.6536 17 15.1136 20.485 15.0146 24.901C15.0502 25.4683 15.3002 26.0009 15.7139 26.3907C16.1277 26.7805 16.6742 26.9983 17.2426 27C17.8406 27 18.4046 26.767 18.8286 26.343L20.0156 25.156C20.0126 25.103 19.9996 25.053 19.9996 25C19.9996 23.345 21.3446 22 22.9996 22C24.6546 22 25.9996 23.345 25.9996 25C25.9996 26.655 24.6546 28 22.9996 28C22.9466 28 22.8966 27.987 22.8436 27.984L21.6566 29.171C20.8772 29.955 19.9023 30.5165 18.8329 30.7971C17.7636 31.0777 16.6386 31.0673 15.5746 30.767L15.9996 35C16.0004 35.6976 16.147 36.3872 16.43 37.0248C16.7129 37.6624 17.126 38.2339 17.6427 38.7025C18.1594 39.1711 18.7684 39.5265 19.4305 39.746C20.0926 39.9655 20.7933 40.0442 21.4876 39.977C22.7257 39.8615 23.8756 39.2865 24.7108 38.3653C25.5459 37.4441 26.0058 36.2434 25.9996 35C25.9996 33.493 26.6987 31.922 27.7376 31.09L28.5116 30.472C29.2898 29.852 29.9178 29.0642 30.3486 28.1673C30.7794 27.2705 31.002 26.2879 30.9996 25.293C30.9996 20.851 27.5206 17.132 23.2456 17.003V17.004ZM26.5606 29.589C24.9566 30.449 23.9996 31.893 23.9996 33.449C23.9996 35.202 22.7936 37 20.9996 37C19.2056 37 17.9996 35.21 17.9996 33.539C17.9996 33.4064 18.0523 33.2792 18.1461 33.1854C18.2399 33.0917 18.367 33.039 18.4996 33.039C18.6323 33.039 18.7594 33.0917 18.8532 33.1854C18.947 33.2792 18.9996 33.4064 18.9996 33.539C18.9996 34.703 19.8206 36 20.9996 36C22.1786 36 22.9996 34.695 22.9996 33.523C22.9996 31.518 24.1536 29.746 26.0876 28.708C27.8976 27.736 28.3536 25.295 27.8676 23.386C27.4616 21.8 25.9866 20.488 24.1956 20.122C22.5186 19.779 20.8476 20.162 19.6106 21.172C18.5866 22.008 17.9996 23.192 17.9996 24.422C17.9996 24.5546 17.947 24.6818 17.8532 24.7756C17.7594 24.8693 17.6323 24.922 17.4996 24.922C17.367 24.922 17.2399 24.8693 17.1461 24.7756C17.0523 24.6818 16.9996 24.5546 16.9996 24.422C16.9996 22.892 17.7206 21.424 18.9786 20.397C20.4486 19.197 22.4256 18.738 24.3956 19.143C26.5876 19.59 28.3306 21.159 28.8356 23.139C29.4186 25.425 28.8246 28.374 26.5606 29.589Z" fill="white"/>
<path d="M23.757 14C25.789 14 27.715 14.66 29.308 15.864L30.736 14.436C28.7542 12.8543 26.2926 11.9951 23.757 12C17.274 12 12 17.274 12 23.757V24.757C12.0016 26.1471 12.5545 27.4797 13.5374 28.4626C14.5203 29.4455 15.853 29.9984 17.243 30C18.643 30 19.959 29.455 20.95 28.464L22.488 26.926C22.653 26.969 22.822 27 23 27C23.3956 27 23.7822 26.8827 24.1111 26.663C24.44 26.4432 24.6964 26.1308 24.8478 25.7654C24.9991 25.3999 25.0387 24.9978 24.9616 24.6098C24.8844 24.2219 24.6939 23.8655 24.4142 23.5858C24.1345 23.3061 23.7781 23.1156 23.3902 23.0385C23.0022 22.9613 22.6001 23.0009 22.2346 23.1523C21.8692 23.3036 21.5568 23.56 21.3371 23.8889C21.1173 24.2178 21 24.6045 21 25C21 25.178 21.03 25.347 21.074 25.512L19.536 27.05C19.2355 27.3521 18.8782 27.5915 18.4846 27.7546C18.091 27.9177 17.669 28.0011 17.243 28C16.3831 27.9992 15.5587 27.6573 14.9507 27.0493C14.3427 26.4413 14.0008 25.6169 14 24.757V23.757C14 18.377 18.377 14 23.757 14Z" fill="white"/>
</svg>
