<svg width="51" height="51" viewBox="0 0 51 51" fill="none" xmlns="http://www.w3.org/2000/svg">
<rect width="51" height="51" rx="25.5" fill="#F98D1B"/>
<path fill-rule="evenodd" clip-rule="evenodd" d="M27.8594 23.2109C28.3516 23.1562 28.8437 23.0469 29.3359 22.8828C29.3359 22.7734 29.2812 22.6094 29.2812 22.4453C29.2812 21.2422 30.2656 20.2578 31.4687 20.2578C32.125 20.2578 32.6719 20.5312 33.0547 20.9688C33.4922 20.6406 33.8203 20.3125 34.2031 19.9297C34.0937 19.8203 33.9844 19.7109 33.9297 19.5469C33.3281 18.5078 33.6562 17.1953 34.6953 16.5938C35.2422 16.3203 35.7891 16.2109 36.3906 16.375H36.4453C36.9375 15.1172 37.2109 13.75 37.2109 12.3828C37.2109 12.1641 37.375 12 37.5937 12C37.8125 12 37.9766 12.1641 37.9766 12.3828C37.9766 13.8594 37.7031 15.3359 37.1016 16.7578C37.375 16.9219 37.5391 17.1406 37.7031 17.3594C37.9766 17.9062 38.0859 18.4531 37.9219 19.0547C37.7578 19.6016 37.375 20.0391 36.8828 20.3672C36.5547 20.5312 36.1719 20.6406 35.7891 20.6406C35.625 20.6406 35.4062 20.6406 35.2422 20.5859C35.0781 20.5312 34.9141 20.4766 34.8047 20.4219C34.3672 20.8047 33.9844 21.2422 33.4922 21.5703C33.6016 21.8438 33.6562 22.1172 33.6562 22.4453C33.6562 23.6484 32.6719 24.6328 31.4687 24.6328C30.7031 24.6328 30.0469 24.1953 29.6641 23.5938C29.0625 23.7578 28.5156 23.9219 27.9141 23.9766C27.9141 24.25 27.8047 24.5234 27.6406 24.7969C27.3672 25.2891 26.875 25.6719 26.3281 25.8359H26.1641V26.5469C26.2187 26.5469 26.2734 26.6016 26.3828 26.6016C26.6562 26.7656 26.875 27.0391 26.9297 27.3672C27.0391 27.6953 26.9844 28.0234 26.8203 28.2969C26.7109 28.5156 26.5469 28.6797 26.3281 28.7891C26.4375 29.0625 26.6016 29.2812 26.7109 29.6094C27.8047 31.6328 29.2812 34.3672 29.2812 35.8438C29.2812 38.1406 27.6953 40 25.7812 40C23.8125 40 22.2812 38.1406 22.2812 35.8438C22.2812 34.3672 23.7031 31.6328 24.7969 29.6094C24.9609 29.3359 25.0703 29.0625 25.1797 28.7891H25.125C24.8516 28.625 24.6328 28.3516 24.5781 28.0234C24.4687 27.6953 24.5234 27.3672 24.6875 27.0938C24.8516 26.8203 25.0703 26.6016 25.3984 26.4922V25.8906C25.125 25.8359 24.9062 25.7266 24.6875 25.6172C24.1406 25.2891 23.8125 24.8516 23.6484 24.3047C23.5937 24.1406 23.5937 23.9766 23.5937 23.8125C22.9922 23.6484 22.4453 23.4844 21.8984 23.2656C21.7344 23.4844 21.5156 23.7031 21.2422 23.8672C20.9141 24.0312 20.5312 24.1406 20.1484 24.1406C19.9844 24.1406 19.7656 24.0859 19.6016 24.0859C19.0547 23.9219 18.5625 23.5391 18.2891 23.0469C17.9062 22.3906 17.9062 21.5703 18.2344 20.9688C17.7969 20.5312 17.4141 20.0938 17.0312 19.6562C16.7578 19.7656 16.4844 19.8203 16.2109 19.8203C15.0078 19.8203 14.0234 18.8359 14.0234 17.6328C14.0234 16.8672 14.4062 16.1562 15.0078 15.7734C14.6797 14.6797 14.5156 13.5312 14.5156 12.3828C14.5156 12.1641 14.6797 12 14.8984 12C15.1172 12 15.2812 12.1641 15.2812 12.3828C15.2812 13.4766 15.4453 14.5156 15.7187 15.5C15.8828 15.5 16.0469 15.4453 16.2109 15.4453C17.4141 15.4453 18.3437 16.4297 18.3437 17.6328C18.3437 18.2344 18.125 18.8359 17.6875 19.2188C18.0156 19.6016 18.3437 19.9844 18.7266 20.3125C18.8359 20.2578 18.9453 20.1484 19.0547 20.0938C19.6016 19.7656 20.1484 19.7109 20.75 19.875C21.2969 19.9844 21.7344 20.3672 22.0625 20.8594C22.3359 21.4062 22.3906 22.0078 22.2266 22.6094C22.7187 22.7734 23.2109 22.9375 23.7031 23.0469C23.7578 22.8828 23.8125 22.7734 23.8672 22.6094C24.1406 22.1172 24.6328 21.7891 25.1797 21.625C25.7812 21.4609 26.3281 21.5156 26.875 21.8438C27.3672 22.1172 27.75 22.6641 27.8594 23.2109ZM25.7812 37.9219C24.7422 37.9219 24.1406 36.6641 24.1406 35.7344C24.1406 35.1875 24.5234 34.2031 25.4531 32.3984C25.5078 32.2344 25.6172 32.1797 25.7812 32.1797C25.8906 32.1797 26 32.2891 26.0547 32.3984C26.9297 34.1484 27.3672 35.1875 27.3672 35.7344C27.3672 36.6641 26.8203 37.9219 25.7812 37.9219ZM25.3437 27.4766C25.2891 27.5859 25.2891 27.6953 25.2891 27.8047C25.3437 27.9688 25.3984 28.0234 25.5078 28.1328C25.7266 28.2422 26.0547 28.1875 26.1641 27.9141C26.2187 27.8047 26.2187 27.6953 26.2187 27.5859C26.1641 27.4766 26.1094 27.3672 26 27.3125C25.8906 27.2031 25.7266 27.2031 25.6172 27.2578C25.5078 27.2578 25.3984 27.3672 25.3437 27.4766Z" fill="white"/>
</svg>
