<svg width="51" height="51" viewBox="0 0 51 51" fill="none" xmlns="http://www.w3.org/2000/svg">
<rect width="51" height="51" rx="25.5" fill="#F98D1B"/>
<g clip-path="url(#clip0_850_1974)">
<path d="M24.919 25.8419C24.9024 25.8443 24.8858 25.8467 24.8678 25.8517C24.8498 25.8566 24.8343 25.863 24.8188 25.8694C24.617 25.9507 24.5057 26.1731 24.564 26.3855C24.6273 26.6159 24.8674 26.7525 25.0978 26.6892C25.3282 26.626 25.4649 26.3859 25.4016 26.1555C25.3433 25.9431 25.134 25.8087 24.919 25.8419ZM16.3574 12.1631L25.202 9.73433L26.5875 14.7798L17.7429 17.2085L16.3574 12.1631Z" fill="white"/>
<path d="M31.1636 24.2138L31.941 24.0003C31.3965 22.3312 30.2966 20.9783 28.9036 20.0959L28.5068 20.7931C28.4588 20.8774 28.3815 20.9331 28.2953 20.9568C28.2092 20.9805 28.1142 20.9721 28.0299 20.9241C27.8614 20.8282 27.803 20.6158 27.899 20.4472L28.2958 19.75C26.8257 19.003 25.1023 18.7457 23.3877 19.1325L23.6012 19.91C23.6524 20.0963 23.5434 20.2879 23.357 20.3391C23.1707 20.3902 22.9791 20.2812 22.9279 20.0949L22.7145 19.3174C21.0453 19.862 19.6924 20.9618 18.81 22.3548L19.5073 22.7516C19.6758 22.8475 19.7342 23.0599 19.6382 23.2285C19.5903 23.3128 19.5129 23.3685 19.4267 23.3922C19.3406 23.4158 19.2456 23.4074 19.1613 23.3595L18.4641 22.9626C17.7171 24.4327 17.4598 26.1561 17.8467 27.8707L18.6241 27.6572C18.8105 27.606 19.002 27.7151 19.0532 27.9014C19.1043 28.0877 18.9953 28.2793 18.809 28.3305L18.0315 28.544C18.5761 30.2131 19.6759 31.566 21.0689 32.4484L21.4657 31.7511C21.5617 31.5826 21.7741 31.5243 21.9426 31.6202C22.1112 31.7161 22.1695 31.9285 22.0736 32.0971L21.6768 32.7943C23.1468 33.5413 24.8697 33.7966 26.5848 33.4118L26.3713 32.6343C26.3202 32.448 26.4292 32.2564 26.6155 32.2052C26.8019 32.1541 26.9934 32.2631 27.0446 32.4494L27.2581 33.2269C28.9272 32.6823 30.2801 31.5825 31.1625 30.1895L30.4653 29.7927C30.2967 29.6967 30.2384 29.4844 30.3343 29.3158C30.4302 29.1472 30.6426 29.0889 30.8112 29.1848L31.5084 29.5816C32.2555 28.1116 32.5127 26.3882 32.1259 24.6736L31.3484 24.8871C31.1621 24.9382 30.9705 24.8292 30.9194 24.6429C30.8662 24.4571 30.9772 24.265 31.1636 24.2138ZM28.7999 28.4442C28.752 28.5285 28.6746 28.5842 28.5884 28.6079C28.5023 28.6316 28.4073 28.6232 28.323 28.5752L25.7486 27.1101C25.6212 27.2269 25.463 27.3178 25.2847 27.3667C24.6816 27.5324 24.0578 27.1757 23.8928 26.5746C23.7596 26.0897 23.9649 25.5894 24.3626 25.3272L23.6561 22.7544C23.6049 22.568 23.7139 22.3765 23.9003 22.3253C24.0866 22.2741 24.2782 22.3832 24.3294 22.5695L25.0353 25.1403C25.5132 25.1621 25.9431 25.4879 26.0763 25.9728C26.1253 26.1511 26.1274 26.3316 26.0925 26.5028L28.667 27.9679C28.8375 28.0633 28.8958 28.2757 28.7999 28.4442Z" fill="white"/>
<path d="M28.4482 14.9781L27.892 12.9523L26.8881 13.2279L27.3558 14.9311C27.4053 15.1115 27.3038 15.2988 27.1256 15.3563L17.5838 17.9766C17.3974 18.0277 17.2059 17.9187 17.1547 17.7324L16.687 16.0292L15.6851 16.3043L16.2414 18.3301C16.5253 19.364 16.4075 20.4415 15.9065 21.3635C14.6358 23.7121 14.3252 26.4263 15.0328 29.0031C15.7404 31.5799 17.3936 33.7549 19.6855 35.1252C20.5851 35.6625 21.2387 36.5281 21.5226 37.5621L22.0789 39.5878L23.0808 39.3127L22.618 37.6276C22.5856 37.5094 22.6191 37.3881 22.6947 37.3027C22.6962 37.3001 22.6996 37.297 22.7011 37.2945C22.7438 37.2461 22.801 37.211 22.8671 37.1929L32.3849 34.5792C32.5092 34.5451 32.6355 34.5815 32.7211 34.6657L32.7304 34.6761C32.7697 34.7171 32.8011 34.7688 32.8171 34.8269L33.2798 36.512L34.2837 36.2363L33.7274 34.2106C33.4435 33.1766 33.5614 32.0992 34.0604 31.1778C35.1222 29.214 35.5127 26.9951 35.2003 24.8139C35.1987 24.8079 35.199 24.8014 35.1979 24.7974C35.1358 24.3748 35.0485 23.9549 34.934 23.5381C34.2264 20.9613 32.5733 18.7864 30.2813 17.416C29.3838 16.8782 28.7322 16.012 28.4482 14.9781ZM32.9332 27.3241C32.797 28.3506 32.4672 29.3311 31.9507 30.2358C31.4362 31.1399 30.7616 31.9242 29.9491 32.5675C29.106 33.2321 28.1502 33.7144 27.1062 34.0011C26.0623 34.2877 24.9943 34.3612 23.9299 34.2204C22.9034 34.0842 21.9229 33.7544 21.0183 33.2379C20.1141 32.7233 19.3299 32.0488 18.6866 31.2363C18.0219 30.3931 17.5396 29.4374 17.253 28.3934C16.9663 27.3495 16.8928 26.2815 17.0336 25.2171C17.1698 24.1906 17.4996 23.2101 18.0162 22.3054C18.5307 21.4013 19.2053 20.617 20.0177 19.9738C20.8609 19.3091 21.8167 18.8268 22.8606 18.5402C23.9046 18.2535 24.9726 18.18 26.037 18.3208C27.0634 18.457 28.0439 18.7868 28.9486 19.3033C29.8527 19.8179 30.637 20.4925 31.2803 21.3049C31.9449 22.1481 32.4272 23.1038 32.7139 24.1478C33.0005 25.1917 33.074 26.2598 32.9332 27.3241Z" fill="white"/>
<path d="M23.3924 37.781L32.2369 35.3523L33.6208 40.3917L24.7762 42.8204L23.3924 37.781ZM35.042 21.7671C35.1414 21.9876 35.2312 22.2129 35.3151 22.4399C35.4253 22.7393 35.5241 23.044 35.6088 23.3526C35.6941 23.6632 35.7648 23.9756 35.8224 24.2873C35.8668 24.5273 35.902 24.7654 35.9312 25.0052C36.2985 24.8677 36.6041 24.6071 36.8003 24.2623C37.0227 23.8715 37.0808 23.416 36.9614 22.9812C36.7292 22.1356 35.8885 21.6166 35.042 21.7671Z" fill="white"/>
</g>
<defs>
<clipPath id="clip0_850_1974">
<rect width="32" height="32" fill="white" transform="translate(6.33398 14.8081) rotate(-15.3552)"/>
</clipPath>
</defs>
</svg>
