<svg width="21" height="13" viewBox="0 0 21 13" fill="none" xmlns="http://www.w3.org/2000/svg">
<path d="M19.7919 3.57082H10.7262L12.4471 2.19025C12.9707 1.77023 13.0599 0.998517 12.6464 0.466699C12.233 -0.0651942 11.4732 -0.155927 10.9498 0.264169C10.9498 0.264169 7.95902 2.77172 6.53313 3.80737C5.57037 4.50666 4.67194 5.36739 4.67194 6.64294V9.58577C4.67194 11.3779 6.10714 12.8359 7.87124 12.8359H13.5708C14.238 12.8359 14.7788 12.2865 14.7788 11.6088C14.7788 11.1676 14.5489 10.782 14.2049 10.5657H14.5975C15.2646 10.5657 15.8055 10.0162 15.8055 9.33851C15.8055 8.89735 15.5756 8.51171 15.2316 8.29541H15.5034C16.1705 8.29541 16.7114 7.74595 16.7114 7.06825C16.7114 6.62709 16.4815 6.24145 16.1376 6.02515H19.7918C20.4589 6.02515 20.9998 5.47569 20.9998 4.79799C20.9998 4.12028 20.4591 3.57082 19.7919 3.57082ZM2.77581 3.99702H0.680085C0.499715 3.99702 0.326733 4.06981 0.199192 4.19938C0.0716516 4.32894 0 4.50467 0 4.6879L0 12.145C0 12.3283 0.0716516 12.504 0.199192 12.6336C0.326733 12.7631 0.499715 12.8359 0.680085 12.8359H2.77581C2.95618 12.8359 3.12916 12.7631 3.2567 12.6336C3.38424 12.504 3.45589 12.3283 3.45589 12.145V4.6879C3.45589 4.50467 3.38424 4.32894 3.2567 4.19938C3.12916 4.06981 2.95618 3.99702 2.77581 3.99702Z" fill="#F98D1B"/>
</svg>
